%TF.GenerationSoftware,KiCad,Pcbnew,(6.0.5)*%
%TF.CreationDate,2022-12-19T16:28:52-07:00*%
%TF.ProjectId,Front_panel,46726f6e-745f-4706-916e-656c2e6b6963,rev?*%
%TF.SameCoordinates,Original*%
%TF.FileFunction,Copper,L2,Bot*%
%TF.FilePolarity,Positive*%
%FSLAX46Y46*%
G04 Gerber Fmt 4.6, Leading zero omitted, Abs format (unit mm)*
G04 Created by KiCad (PCBNEW (6.0.5)) date 2022-12-19 16:28:52*
%MOMM*%
%LPD*%
G01*
G04 APERTURE LIST*
G04 APERTURE END LIST*
%TA.AperFunction,NonConductor*%
G36*
X402433621Y-528502D02*
G01*
X402480114Y-582158D01*
X402491500Y-634500D01*
X402491500Y-121865500D01*
X402471498Y-121933621D01*
X402417842Y-121980114D01*
X402365500Y-121991500D01*
X634500Y-121991500D01*
X566379Y-121971498D01*
X519886Y-121917842D01*
X508500Y-121865500D01*
X508500Y-96872110D01*
X238836787Y-96872110D01*
X238836976Y-96875903D01*
X238838175Y-96900000D01*
X238847526Y-97087823D01*
X238852725Y-97192262D01*
X238853366Y-97195993D01*
X238853367Y-97196001D01*
X238898907Y-97461022D01*
X238907010Y-97508180D01*
X238908098Y-97511819D01*
X238908099Y-97511822D01*
X238993954Y-97798900D01*
X238998855Y-97815289D01*
X239126930Y-98109140D01*
X239289379Y-98385475D01*
X239483850Y-98640294D01*
X239707526Y-98869903D01*
X239957166Y-99070978D01*
X240229155Y-99240605D01*
X240519552Y-99376329D01*
X240824151Y-99476181D01*
X241138541Y-99538717D01*
X241142313Y-99539004D01*
X241142321Y-99539005D01*
X241454389Y-99562743D01*
X241454394Y-99562743D01*
X241458166Y-99563030D01*
X241778397Y-99548769D01*
X241782135Y-99548147D01*
X241782143Y-99548146D01*
X242090853Y-99496762D01*
X242090856Y-99496761D01*
X242094595Y-99496139D01*
X242402181Y-99405903D01*
X242405648Y-99404413D01*
X242405652Y-99404412D01*
X242693209Y-99280868D01*
X242696698Y-99279369D01*
X242699975Y-99277465D01*
X242699982Y-99277462D01*
X242860814Y-99184042D01*
X242973880Y-99118368D01*
X242976906Y-99116084D01*
X242976913Y-99116079D01*
X243226686Y-98927519D01*
X243229713Y-98925234D01*
X243460491Y-98702764D01*
X243513803Y-98637281D01*
X243660479Y-98457117D01*
X243660480Y-98457116D01*
X243662870Y-98454180D01*
X243704318Y-98388490D01*
X243831892Y-98186296D01*
X243831894Y-98186293D01*
X243833919Y-98183083D01*
X243862771Y-98122185D01*
X243969532Y-97896838D01*
X243971161Y-97893400D01*
X243980687Y-97864849D01*
X244071410Y-97592915D01*
X244072607Y-97589328D01*
X244136788Y-97275271D01*
X244162775Y-96955777D01*
X244163359Y-96900000D01*
X244161907Y-96875903D01*
X244144297Y-96583810D01*
X244144297Y-96583806D01*
X244144069Y-96580032D01*
X244086479Y-96264700D01*
X244076424Y-96232316D01*
X243992545Y-95962185D01*
X243991423Y-95958570D01*
X243979749Y-95932532D01*
X243899189Y-95752860D01*
X243860278Y-95666076D01*
X243694944Y-95391457D01*
X243692617Y-95388473D01*
X243692612Y-95388466D01*
X243500151Y-95141684D01*
X243500149Y-95141681D01*
X243497815Y-95138689D01*
X243271747Y-94911434D01*
X243020015Y-94712985D01*
X242746265Y-94546215D01*
X242629558Y-94493151D01*
X242457915Y-94415109D01*
X242457907Y-94415106D01*
X242454463Y-94413540D01*
X242148834Y-94316883D01*
X241833807Y-94257642D01*
X241513945Y-94236678D01*
X241510165Y-94236886D01*
X241510164Y-94236886D01*
X241418163Y-94241949D01*
X241193881Y-94254292D01*
X241190154Y-94254953D01*
X241190150Y-94254953D01*
X240940887Y-94299129D01*
X240878251Y-94310230D01*
X240874626Y-94311335D01*
X240874621Y-94311336D01*
X240675460Y-94372036D01*
X240571628Y-94403682D01*
X240568164Y-94405213D01*
X240568157Y-94405216D01*
X240387281Y-94485180D01*
X240278452Y-94533293D01*
X240275198Y-94535229D01*
X240275192Y-94535232D01*
X240006229Y-94695249D01*
X240002970Y-94697188D01*
X239749174Y-94892990D01*
X239746473Y-94895649D01*
X239746466Y-94895655D01*
X239714744Y-94926883D01*
X239520739Y-95117865D01*
X239518375Y-95120832D01*
X239518372Y-95120835D01*
X239392568Y-95278710D01*
X239320974Y-95368555D01*
X239152773Y-95641428D01*
X239018572Y-95932532D01*
X239017413Y-95936133D01*
X239017410Y-95936139D01*
X238921907Y-96232706D01*
X238920315Y-96237650D01*
X238919596Y-96241366D01*
X238919594Y-96241374D01*
X238860145Y-96548643D01*
X238860144Y-96548652D01*
X238859426Y-96552362D01*
X238859159Y-96556138D01*
X238859158Y-96556143D01*
X238850534Y-96677951D01*
X238836787Y-96872110D01*
X508500Y-96872110D01*
X508500Y-88739264D01*
X251366453Y-88739264D01*
X251367657Y-88752299D01*
X251368288Y-88759134D01*
X251368475Y-88780052D01*
X251367685Y-88790690D01*
X251366996Y-88799961D01*
X251368869Y-88808734D01*
X251368869Y-88808737D01*
X251374361Y-88834463D01*
X251376603Y-88849182D01*
X251379846Y-88884305D01*
X251383146Y-88892649D01*
X251383146Y-88892651D01*
X251387184Y-88902862D01*
X251393236Y-88922890D01*
X251397403Y-88942410D01*
X251401666Y-88950310D01*
X251401666Y-88950311D01*
X251414156Y-88973459D01*
X251420439Y-88986956D01*
X251433409Y-89019756D01*
X251438920Y-89026841D01*
X251438922Y-89026845D01*
X251445660Y-89035507D01*
X251457093Y-89053037D01*
X251462307Y-89062701D01*
X251462309Y-89062704D01*
X251466569Y-89070599D01*
X251472875Y-89076983D01*
X251472876Y-89076984D01*
X251491355Y-89095691D01*
X251501172Y-89106880D01*
X251519839Y-89130880D01*
X251519844Y-89130885D01*
X251522835Y-89134731D01*
X251531975Y-89143335D01*
X251534883Y-89145328D01*
X251536395Y-89146608D01*
X252430133Y-89942018D01*
X252430895Y-89942654D01*
X253319476Y-90684486D01*
X253352769Y-90712281D01*
X254299295Y-91452991D01*
X254300113Y-91453590D01*
X254300123Y-91453598D01*
X255267961Y-92162818D01*
X255268765Y-92163407D01*
X256260209Y-92842819D01*
X256261052Y-92843358D01*
X256261053Y-92843359D01*
X256988051Y-93308476D01*
X257272637Y-93490548D01*
X258305036Y-94105947D01*
X258927034Y-94450541D01*
X259355514Y-94687924D01*
X259355535Y-94687935D01*
X259356374Y-94688400D01*
X260425600Y-95237324D01*
X260426483Y-95237742D01*
X260426500Y-95237751D01*
X260761268Y-95396450D01*
X261511645Y-95752172D01*
X262308655Y-96099582D01*
X262603057Y-96227909D01*
X262613424Y-96232428D01*
X263729835Y-96677612D01*
X263730770Y-96677951D01*
X264497057Y-96955777D01*
X264859762Y-97087280D01*
X265674142Y-97353729D01*
X266001078Y-97460696D01*
X266001089Y-97460699D01*
X266002075Y-97461022D01*
X266631782Y-97645225D01*
X267154641Y-97798173D01*
X267154652Y-97798176D01*
X267155633Y-97798463D01*
X267156618Y-97798718D01*
X267156623Y-97798719D01*
X267234170Y-97818765D01*
X268319282Y-98099268D01*
X268421224Y-98122208D01*
X269490912Y-98362921D01*
X269490932Y-98362925D01*
X269491860Y-98363134D01*
X269492791Y-98363313D01*
X269492816Y-98363318D01*
X270002314Y-98461159D01*
X270672193Y-98589799D01*
X271859101Y-98779036D01*
X273051399Y-98930655D01*
X273052381Y-98930748D01*
X273052395Y-98930750D01*
X274246905Y-99044411D01*
X274246912Y-99044412D01*
X274247894Y-99044505D01*
X275447391Y-99120472D01*
X276648689Y-99158480D01*
X277249026Y-99158485D01*
X277849607Y-99158491D01*
X277850589Y-99158491D01*
X277851567Y-99158460D01*
X277851572Y-99158460D01*
X278071483Y-99151506D01*
X279051888Y-99120506D01*
X280251386Y-99044562D01*
X280252342Y-99044471D01*
X280252368Y-99044469D01*
X281446908Y-98930827D01*
X281446923Y-98930825D01*
X281447883Y-98930734D01*
X281947719Y-98867182D01*
X282639186Y-98779265D01*
X282639193Y-98779264D01*
X282640184Y-98779138D01*
X283570464Y-98630836D01*
X283826163Y-98590073D01*
X283826170Y-98590072D01*
X283827097Y-98589924D01*
X283827988Y-98589753D01*
X283828016Y-98589748D01*
X285006514Y-98363459D01*
X285006535Y-98363455D01*
X285007434Y-98363282D01*
X286180016Y-98099437D01*
X286180937Y-98099199D01*
X287342724Y-97798900D01*
X287342737Y-97798897D01*
X287343671Y-97798655D01*
X288497235Y-97461235D01*
X289639556Y-97087516D01*
X290233713Y-96872110D01*
X310336787Y-96872110D01*
X310336976Y-96875903D01*
X310338175Y-96900000D01*
X310347526Y-97087823D01*
X310352725Y-97192262D01*
X310353366Y-97195993D01*
X310353367Y-97196001D01*
X310398907Y-97461022D01*
X310407010Y-97508180D01*
X310408098Y-97511819D01*
X310408099Y-97511822D01*
X310493954Y-97798900D01*
X310498855Y-97815289D01*
X310626930Y-98109140D01*
X310789379Y-98385475D01*
X310983850Y-98640294D01*
X311207526Y-98869903D01*
X311457166Y-99070978D01*
X311729155Y-99240605D01*
X312019552Y-99376329D01*
X312324151Y-99476181D01*
X312638541Y-99538717D01*
X312642313Y-99539004D01*
X312642321Y-99539005D01*
X312954389Y-99562743D01*
X312954394Y-99562743D01*
X312958166Y-99563030D01*
X313278397Y-99548769D01*
X313282135Y-99548147D01*
X313282143Y-99548146D01*
X313590853Y-99496762D01*
X313590856Y-99496761D01*
X313594595Y-99496139D01*
X313902181Y-99405903D01*
X313905648Y-99404413D01*
X313905652Y-99404412D01*
X314193209Y-99280868D01*
X314196698Y-99279369D01*
X314199975Y-99277465D01*
X314199982Y-99277462D01*
X314360814Y-99184042D01*
X314473880Y-99118368D01*
X314476906Y-99116084D01*
X314476913Y-99116079D01*
X314726686Y-98927519D01*
X314729713Y-98925234D01*
X314960491Y-98702764D01*
X315013803Y-98637281D01*
X315160479Y-98457117D01*
X315160480Y-98457116D01*
X315162870Y-98454180D01*
X315204318Y-98388490D01*
X315331892Y-98186296D01*
X315331894Y-98186293D01*
X315333919Y-98183083D01*
X315362771Y-98122185D01*
X315469532Y-97896838D01*
X315471161Y-97893400D01*
X315480687Y-97864849D01*
X315571410Y-97592915D01*
X315572607Y-97589328D01*
X315636788Y-97275271D01*
X315662775Y-96955777D01*
X315663359Y-96900000D01*
X315661907Y-96875903D01*
X315644297Y-96583810D01*
X315644297Y-96583806D01*
X315644069Y-96580032D01*
X315586479Y-96264700D01*
X315576424Y-96232316D01*
X315492545Y-95962185D01*
X315491423Y-95958570D01*
X315479749Y-95932532D01*
X315399189Y-95752860D01*
X315360278Y-95666076D01*
X315194944Y-95391457D01*
X315192617Y-95388473D01*
X315192612Y-95388466D01*
X315000151Y-95141684D01*
X315000149Y-95141681D01*
X314997815Y-95138689D01*
X314771747Y-94911434D01*
X314520015Y-94712985D01*
X314246265Y-94546215D01*
X314129558Y-94493151D01*
X313957915Y-94415109D01*
X313957907Y-94415106D01*
X313954463Y-94413540D01*
X313648834Y-94316883D01*
X313333807Y-94257642D01*
X313013945Y-94236678D01*
X313010165Y-94236886D01*
X313010164Y-94236886D01*
X312918163Y-94241949D01*
X312693881Y-94254292D01*
X312690154Y-94254953D01*
X312690150Y-94254953D01*
X312440887Y-94299129D01*
X312378251Y-94310230D01*
X312374626Y-94311335D01*
X312374621Y-94311336D01*
X312175460Y-94372036D01*
X312071628Y-94403682D01*
X312068164Y-94405213D01*
X312068157Y-94405216D01*
X311887281Y-94485180D01*
X311778452Y-94533293D01*
X311775198Y-94535229D01*
X311775192Y-94535232D01*
X311506229Y-94695249D01*
X311502970Y-94697188D01*
X311249174Y-94892990D01*
X311246473Y-94895649D01*
X311246466Y-94895655D01*
X311214744Y-94926883D01*
X311020739Y-95117865D01*
X311018375Y-95120832D01*
X311018372Y-95120835D01*
X310892568Y-95278710D01*
X310820974Y-95368555D01*
X310652773Y-95641428D01*
X310518572Y-95932532D01*
X310517413Y-95936133D01*
X310517410Y-95936139D01*
X310421907Y-96232706D01*
X310420315Y-96237650D01*
X310419596Y-96241366D01*
X310419594Y-96241374D01*
X310360145Y-96548643D01*
X310360144Y-96548652D01*
X310359426Y-96552362D01*
X310359159Y-96556138D01*
X310359158Y-96556143D01*
X310350534Y-96677951D01*
X310336787Y-96872110D01*
X290233713Y-96872110D01*
X290769490Y-96677869D01*
X291885910Y-96232706D01*
X291886805Y-96232316D01*
X292986806Y-95752860D01*
X292986817Y-95752855D01*
X292987698Y-95752471D01*
X293652330Y-95437413D01*
X294072857Y-95238069D01*
X294072870Y-95238062D01*
X294073753Y-95237644D01*
X294312269Y-95115199D01*
X295142105Y-94689194D01*
X295142138Y-94689177D01*
X295142990Y-94688739D01*
X296194339Y-94106307D01*
X297226749Y-93490928D01*
X298239189Y-92843218D01*
X298734249Y-92503979D01*
X299229854Y-92164367D01*
X299229866Y-92164359D01*
X299230646Y-92163824D01*
X300200130Y-91453427D01*
X301146670Y-90712735D01*
X301147405Y-90712121D01*
X301147429Y-90712102D01*
X302068562Y-89943123D01*
X302068576Y-89943111D01*
X302069321Y-89942489D01*
X302952687Y-89156340D01*
X302956039Y-89153572D01*
X302958146Y-89152202D01*
X302967493Y-89143823D01*
X302992292Y-89113500D01*
X303001280Y-89103628D01*
X303022750Y-89082419D01*
X303029137Y-89076110D01*
X303036928Y-89062083D01*
X303049544Y-89043494D01*
X303054019Y-89038023D01*
X303054021Y-89038020D01*
X303059705Y-89031070D01*
X303074997Y-88995002D01*
X303080852Y-88983006D01*
X303095507Y-88956623D01*
X303095507Y-88956622D01*
X303099865Y-88948777D01*
X303103407Y-88933122D01*
X303110296Y-88911750D01*
X303113057Y-88905239D01*
X303113059Y-88905233D01*
X303116563Y-88896968D01*
X303121116Y-88858072D01*
X303123368Y-88844913D01*
X303132013Y-88806711D01*
X303131019Y-88790689D01*
X303131632Y-88768236D01*
X303132454Y-88761213D01*
X303133498Y-88752299D01*
X303129469Y-88728532D01*
X303126951Y-88713684D01*
X303125420Y-88700423D01*
X303123551Y-88670291D01*
X303123551Y-88670289D01*
X303122995Y-88661333D01*
X303117544Y-88646233D01*
X303111834Y-88624521D01*
X303110651Y-88617545D01*
X303110650Y-88617541D01*
X303109149Y-88608690D01*
X303105225Y-88600618D01*
X303105224Y-88600614D01*
X303092024Y-88573458D01*
X303086832Y-88561159D01*
X303084801Y-88555531D01*
X303073537Y-88524330D01*
X303064066Y-88511365D01*
X303052491Y-88492128D01*
X303049397Y-88485763D01*
X303049396Y-88485761D01*
X303045472Y-88477689D01*
X303039439Y-88471041D01*
X303039437Y-88471038D01*
X303019151Y-88448683D01*
X303010721Y-88438343D01*
X303010389Y-88437888D01*
X303010386Y-88437885D01*
X303007517Y-88433957D01*
X302990980Y-88417420D01*
X302986767Y-88412999D01*
X302953618Y-88376469D01*
X302953615Y-88376466D01*
X302947587Y-88369824D01*
X302939936Y-88365140D01*
X302937313Y-88362968D01*
X302928579Y-88355017D01*
X298497881Y-83924236D01*
X298492942Y-83919006D01*
X298462032Y-83884347D01*
X298462030Y-83884345D01*
X298456056Y-83877647D01*
X298417188Y-83853387D01*
X298408373Y-83847349D01*
X298371711Y-83819871D01*
X298363301Y-83816718D01*
X298363299Y-83816717D01*
X298362925Y-83816577D01*
X298340453Y-83805490D01*
X298332493Y-83800522D01*
X298305611Y-83792980D01*
X298288406Y-83788153D01*
X298278212Y-83784819D01*
X298243728Y-83771891D01*
X298243726Y-83771891D01*
X298235322Y-83768740D01*
X298226370Y-83768075D01*
X298226367Y-83768074D01*
X298225971Y-83768045D01*
X298201276Y-83763708D01*
X298200894Y-83763601D01*
X298200893Y-83763601D01*
X298192250Y-83761176D01*
X298183276Y-83761274D01*
X298183273Y-83761274D01*
X298146465Y-83761678D01*
X298135745Y-83761339D01*
X298099017Y-83758609D01*
X298099015Y-83758609D01*
X298090066Y-83757944D01*
X298081292Y-83759817D01*
X298081290Y-83759817D01*
X298081012Y-83759877D01*
X298080888Y-83759903D01*
X298055990Y-83762670D01*
X298055868Y-83762671D01*
X298052121Y-83762712D01*
X297983784Y-83743470D01*
X297936697Y-83690334D01*
X297925813Y-83620177D01*
X297926910Y-83614046D01*
X297927044Y-83612379D01*
X297929025Y-83603625D01*
X297928236Y-83590905D01*
X297929007Y-83567167D01*
X297929485Y-83563422D01*
X297929485Y-83563419D01*
X297930620Y-83554519D01*
X297923954Y-83512581D01*
X297922635Y-83500608D01*
X297920564Y-83467207D01*
X297920564Y-83467205D01*
X297920008Y-83458247D01*
X297915680Y-83446259D01*
X297909756Y-83423252D01*
X297909165Y-83419533D01*
X297907756Y-83410667D01*
X297903917Y-83402556D01*
X297903915Y-83402551D01*
X297889591Y-83372292D01*
X297884962Y-83361166D01*
X297873599Y-83329690D01*
X297870550Y-83321243D01*
X297863030Y-83310949D01*
X297850891Y-83290538D01*
X297849277Y-83287128D01*
X297845436Y-83279014D01*
X297817232Y-83247283D01*
X297809665Y-83237901D01*
X297807741Y-83235266D01*
X297804530Y-83230871D01*
X297790202Y-83216543D01*
X297785137Y-83211172D01*
X297748671Y-83170144D01*
X297741062Y-83165377D01*
X297734208Y-83159581D01*
X297734611Y-83159104D01*
X297725544Y-83151884D01*
X297705700Y-83132039D01*
X294003303Y-79429571D01*
X293997276Y-79423106D01*
X293969621Y-79391270D01*
X293963736Y-79384495D01*
X293921695Y-79357485D01*
X293914269Y-79352326D01*
X293874284Y-79322358D01*
X293865877Y-79319206D01*
X293858002Y-79314895D01*
X293858040Y-79314825D01*
X293856941Y-79314274D01*
X293856908Y-79314347D01*
X293848745Y-79310615D01*
X293841191Y-79305761D01*
X293793266Y-79291637D01*
X293784677Y-79288765D01*
X293783776Y-79288427D01*
X293765018Y-79281395D01*
X293746301Y-79274378D01*
X293746299Y-79274378D01*
X293737895Y-79271227D01*
X293728941Y-79270561D01*
X293720179Y-79268635D01*
X293720196Y-79268557D01*
X293718981Y-79268336D01*
X293718970Y-79268414D01*
X293710085Y-79267123D01*
X293701475Y-79264585D01*
X293692500Y-79264566D01*
X293692498Y-79264566D01*
X293651523Y-79264480D01*
X293642449Y-79264133D01*
X293601591Y-79261096D01*
X293601588Y-79261096D01*
X293592639Y-79260431D01*
X293583863Y-79262304D01*
X293574903Y-79262915D01*
X293574898Y-79262837D01*
X293573652Y-79262967D01*
X293573663Y-79263046D01*
X293570285Y-79263522D01*
X293569477Y-79263404D01*
X293560996Y-79264290D01*
X293555818Y-79264279D01*
X293555814Y-79264279D01*
X293555820Y-79261401D01*
X293500040Y-79253221D01*
X293446515Y-79206578D01*
X293426704Y-79138401D01*
X293428418Y-79123258D01*
X293428332Y-79123251D01*
X293429052Y-79114304D01*
X293431033Y-79105548D01*
X293430477Y-79096586D01*
X293430625Y-79094747D01*
X293431430Y-79074391D01*
X293431428Y-79072556D01*
X293432688Y-79063672D01*
X293430830Y-79050814D01*
X293425974Y-79017225D01*
X293424920Y-79006998D01*
X293422572Y-78969132D01*
X293422572Y-78969131D01*
X293422016Y-78960170D01*
X293418967Y-78951725D01*
X293418593Y-78949918D01*
X293413662Y-78930192D01*
X293413136Y-78928400D01*
X293411851Y-78919512D01*
X293408125Y-78911346D01*
X293408124Y-78911342D01*
X293392370Y-78876815D01*
X293388488Y-78867295D01*
X293375608Y-78831615D01*
X293372558Y-78823166D01*
X293367259Y-78815912D01*
X293366391Y-78814280D01*
X293356109Y-78796711D01*
X293355118Y-78795165D01*
X293351390Y-78786995D01*
X293320713Y-78751486D01*
X293314318Y-78743442D01*
X293309419Y-78736736D01*
X293309411Y-78736727D01*
X293306538Y-78732794D01*
X293295285Y-78721541D01*
X293289034Y-78714818D01*
X293286195Y-78711532D01*
X293256167Y-78676774D01*
X293248626Y-78671901D01*
X293241855Y-78666009D01*
X293241873Y-78665989D01*
X293230736Y-78656991D01*
X292473933Y-77900173D01*
X290118393Y-75544589D01*
X289505662Y-74931846D01*
X289497832Y-74923258D01*
X289475466Y-74896330D01*
X289475464Y-74896329D01*
X289469732Y-74889427D01*
X289422487Y-74857576D01*
X289417370Y-74853937D01*
X289371780Y-74819769D01*
X289363380Y-74816620D01*
X289359947Y-74814740D01*
X289356401Y-74813023D01*
X289348957Y-74808005D01*
X289340402Y-74805277D01*
X289340398Y-74805275D01*
X289294689Y-74790699D01*
X289288739Y-74788637D01*
X289243797Y-74771789D01*
X289243795Y-74771788D01*
X289235391Y-74768638D01*
X289226440Y-74767973D01*
X289222606Y-74767130D01*
X289218734Y-74766480D01*
X289210184Y-74763753D01*
X289157689Y-74762482D01*
X289153233Y-74762374D01*
X289146945Y-74762064D01*
X289099089Y-74758507D01*
X289099086Y-74758507D01*
X289090135Y-74757842D01*
X289081356Y-74759716D01*
X289077457Y-74759982D01*
X289073548Y-74760445D01*
X289064569Y-74760228D01*
X289060852Y-74761218D01*
X288993397Y-74749806D01*
X288940909Y-74701998D01*
X288922602Y-74633403D01*
X288924955Y-74614470D01*
X288925279Y-74610446D01*
X288927260Y-74601690D01*
X288926704Y-74592730D01*
X288927170Y-74586940D01*
X288927303Y-74581175D01*
X288928780Y-74572322D01*
X288922277Y-74518029D01*
X288921625Y-74510844D01*
X288918799Y-74465273D01*
X288918799Y-74465271D01*
X288918243Y-74456312D01*
X288915195Y-74447870D01*
X288914019Y-74442189D01*
X288912525Y-74436606D01*
X288911458Y-74427697D01*
X288889976Y-74377404D01*
X288887345Y-74370721D01*
X288871833Y-74327752D01*
X288868785Y-74319309D01*
X288863490Y-74312060D01*
X288860776Y-74306956D01*
X288857768Y-74302005D01*
X288854241Y-74293748D01*
X288819525Y-74251528D01*
X288815106Y-74245830D01*
X288805636Y-74232866D01*
X288802765Y-74228936D01*
X288796884Y-74223055D01*
X288788655Y-74213986D01*
X288767430Y-74188173D01*
X288761730Y-74181241D01*
X288750609Y-74173663D01*
X288732464Y-74158634D01*
X287979507Y-73405662D01*
X277615645Y-63041602D01*
X277615102Y-63041056D01*
X277566892Y-62992252D01*
X277566889Y-62992250D01*
X277560583Y-62985866D01*
X277534728Y-62971505D01*
X277520358Y-62962191D01*
X277496688Y-62944451D01*
X277472641Y-62935436D01*
X277455697Y-62927606D01*
X277441099Y-62919497D01*
X277441095Y-62919495D01*
X277433250Y-62915138D01*
X277424496Y-62913157D01*
X277424491Y-62913155D01*
X277404404Y-62908609D01*
X277387992Y-62903701D01*
X277360300Y-62893320D01*
X277351348Y-62892655D01*
X277351345Y-62892654D01*
X277334697Y-62891417D01*
X277316229Y-62888657D01*
X277299940Y-62884971D01*
X277299937Y-62884971D01*
X277291184Y-62882990D01*
X277261677Y-62884820D01*
X277244540Y-62884716D01*
X277215043Y-62882524D01*
X277206270Y-62884397D01*
X277206267Y-62884397D01*
X277189929Y-62887885D01*
X277171425Y-62890419D01*
X277145807Y-62892008D01*
X277124890Y-62899559D01*
X277117995Y-62902048D01*
X277101518Y-62906757D01*
X277072594Y-62912931D01*
X277060425Y-62919497D01*
X277049998Y-62925123D01*
X277032950Y-62932749D01*
X277017245Y-62938418D01*
X277017242Y-62938419D01*
X277008803Y-62941466D01*
X277001558Y-62946759D01*
X276984926Y-62958909D01*
X276970429Y-62968055D01*
X276944405Y-62982097D01*
X276938024Y-62988401D01*
X276938022Y-62988402D01*
X276919904Y-63006300D01*
X276919326Y-63006832D01*
X276918430Y-63007486D01*
X276916312Y-63009604D01*
X276896596Y-63029319D01*
X276896052Y-63029861D01*
X276884167Y-63041602D01*
X276840781Y-63084460D01*
X276840101Y-63085683D01*
X276839214Y-63086700D01*
X265772807Y-74152897D01*
X265761683Y-74161884D01*
X265761703Y-74161907D01*
X265754932Y-74167797D01*
X265747392Y-74172669D01*
X265741524Y-74179460D01*
X265714501Y-74210732D01*
X265708259Y-74217444D01*
X265699179Y-74226524D01*
X265690852Y-74237635D01*
X265685364Y-74244450D01*
X265658027Y-74276086D01*
X265658025Y-74276090D01*
X265652157Y-74282880D01*
X265648431Y-74291045D01*
X265643621Y-74298543D01*
X265639331Y-74306378D01*
X265633945Y-74313564D01*
X265630794Y-74321970D01*
X265630793Y-74321971D01*
X265616122Y-74361105D01*
X265612769Y-74369184D01*
X265595409Y-74407223D01*
X265595407Y-74407230D01*
X265591683Y-74415390D01*
X265590398Y-74424274D01*
X265587879Y-74432844D01*
X265585966Y-74441545D01*
X265582814Y-74449953D01*
X265580064Y-74486952D01*
X265579051Y-74500585D01*
X265578100Y-74509286D01*
X265572114Y-74550662D01*
X265572114Y-74550666D01*
X265570829Y-74559548D01*
X265572089Y-74568438D01*
X265572077Y-74577363D01*
X265572683Y-74586259D01*
X265572018Y-74595209D01*
X265575164Y-74609947D01*
X265569823Y-74680741D01*
X265527056Y-74737410D01*
X265460439Y-74761962D01*
X265447587Y-74761481D01*
X265447587Y-74761634D01*
X265447555Y-74761634D01*
X265445576Y-74761633D01*
X265442516Y-74761291D01*
X265434060Y-74760974D01*
X265431650Y-74760629D01*
X265424623Y-74760064D01*
X265415866Y-74758082D01*
X265376220Y-74760541D01*
X265362885Y-74761368D01*
X265355054Y-74761610D01*
X265310939Y-74761599D01*
X265310938Y-74761599D01*
X265301961Y-74761597D01*
X265293343Y-74764115D01*
X265286369Y-74765112D01*
X265279454Y-74766544D01*
X265270488Y-74767100D01*
X265220547Y-74785128D01*
X265213107Y-74787555D01*
X265203951Y-74790230D01*
X265162148Y-74802443D01*
X265154582Y-74807278D01*
X265148152Y-74810200D01*
X265141925Y-74813511D01*
X265133485Y-74816558D01*
X265126241Y-74821850D01*
X265126239Y-74821851D01*
X265090618Y-74847873D01*
X265084151Y-74852295D01*
X265039418Y-74880887D01*
X265033516Y-74887649D01*
X265005288Y-74919991D01*
X264999455Y-74926234D01*
X261272067Y-78653552D01*
X261263328Y-78661507D01*
X261260725Y-78663663D01*
X261253071Y-78668348D01*
X261247041Y-78674992D01*
X261247040Y-78674993D01*
X261213878Y-78711532D01*
X261209670Y-78715947D01*
X261198493Y-78727124D01*
X261198485Y-78727133D01*
X261195321Y-78730297D01*
X261192641Y-78733873D01*
X261192639Y-78733875D01*
X261191630Y-78735222D01*
X261184110Y-78744332D01*
X261155180Y-78776208D01*
X261151255Y-78784281D01*
X261151254Y-78784283D01*
X261149865Y-78787140D01*
X261137378Y-78807607D01*
X261130086Y-78817337D01*
X261114975Y-78857646D01*
X261110318Y-78868492D01*
X261091498Y-78907206D01*
X261089997Y-78916053D01*
X261089997Y-78916054D01*
X261089465Y-78919191D01*
X261083222Y-78942346D01*
X261078956Y-78953726D01*
X261078291Y-78962677D01*
X261075766Y-78996644D01*
X261074340Y-79008369D01*
X261067141Y-79050814D01*
X261068184Y-79059728D01*
X261068184Y-79059735D01*
X261068553Y-79062888D01*
X261069061Y-79086864D01*
X261068160Y-79098982D01*
X261070033Y-79107755D01*
X261070033Y-79107759D01*
X261071139Y-79112939D01*
X261065796Y-79183734D01*
X261023027Y-79240403D01*
X260956410Y-79264952D01*
X260931007Y-79262978D01*
X260930982Y-79263288D01*
X260922031Y-79262568D01*
X260913277Y-79260587D01*
X260867302Y-79263438D01*
X260856710Y-79263649D01*
X260810625Y-79262619D01*
X260801834Y-79264978D01*
X260776986Y-79269040D01*
X260767899Y-79269604D01*
X260759458Y-79272651D01*
X260759459Y-79272651D01*
X260724573Y-79285245D01*
X260714442Y-79288427D01*
X260669943Y-79300366D01*
X260662165Y-79305099D01*
X260639458Y-79315970D01*
X260630895Y-79319062D01*
X260593688Y-79346242D01*
X260584881Y-79352123D01*
X260545511Y-79376080D01*
X260505610Y-79419808D01*
X260501630Y-79423975D01*
X256773273Y-83152261D01*
X256766741Y-83158123D01*
X256760595Y-83161767D01*
X256746512Y-83176852D01*
X256717503Y-83207925D01*
X256714496Y-83211036D01*
X256697244Y-83228288D01*
X256694553Y-83231879D01*
X256691616Y-83235266D01*
X256691560Y-83235217D01*
X256687516Y-83240046D01*
X256680756Y-83247287D01*
X256661196Y-83268239D01*
X256657160Y-83276252D01*
X256657158Y-83276255D01*
X256653703Y-83283115D01*
X256641997Y-83302002D01*
X256632010Y-83315328D01*
X256626626Y-83329690D01*
X256618471Y-83351442D01*
X256613025Y-83363883D01*
X256595677Y-83398328D01*
X256592662Y-83414705D01*
X256586727Y-83436117D01*
X256584030Y-83443311D01*
X256580879Y-83451717D01*
X256580214Y-83460668D01*
X256578020Y-83490176D01*
X256576284Y-83503649D01*
X256574077Y-83515637D01*
X256569301Y-83541579D01*
X256570219Y-83550508D01*
X256571004Y-83558150D01*
X256571317Y-83580370D01*
X256570083Y-83596973D01*
X256571957Y-83605751D01*
X256571957Y-83605754D01*
X256572906Y-83610202D01*
X256572566Y-83614702D01*
X256572567Y-83614710D01*
X256572566Y-83614710D01*
X256567565Y-83680997D01*
X256524796Y-83737666D01*
X256458179Y-83762216D01*
X256433504Y-83760300D01*
X256433471Y-83760715D01*
X256424516Y-83759995D01*
X256415764Y-83758014D01*
X256373930Y-83760609D01*
X256361680Y-83760772D01*
X256332481Y-83759737D01*
X256328757Y-83759605D01*
X256319783Y-83759287D01*
X256311082Y-83761500D01*
X256311076Y-83761501D01*
X256306903Y-83762563D01*
X256283641Y-83766210D01*
X256279351Y-83766476D01*
X256279350Y-83766476D01*
X256270387Y-83767032D01*
X256261942Y-83770081D01*
X256261940Y-83770081D01*
X256230971Y-83781261D01*
X256219251Y-83784858D01*
X256178621Y-83795193D01*
X256170889Y-83799760D01*
X256170885Y-83799762D01*
X256167175Y-83801953D01*
X256145881Y-83811978D01*
X256143355Y-83812890D01*
X256133383Y-83816490D01*
X256126139Y-83821782D01*
X256126137Y-83821783D01*
X256099538Y-83841215D01*
X256089304Y-83847953D01*
X256053209Y-83869274D01*
X256047074Y-83875823D01*
X256047073Y-83875824D01*
X256009664Y-83915759D01*
X256006804Y-83918714D01*
X255554288Y-84371221D01*
X251570252Y-88355182D01*
X251566073Y-88358894D01*
X251561661Y-88361449D01*
X251555472Y-88367942D01*
X251555470Y-88367944D01*
X251515470Y-88409913D01*
X251513356Y-88412077D01*
X251494157Y-88431276D01*
X251491471Y-88434860D01*
X251491170Y-88435207D01*
X251487186Y-88439589D01*
X251461167Y-88466889D01*
X251457050Y-88474857D01*
X251457046Y-88474863D01*
X251452004Y-88484623D01*
X251440891Y-88502347D01*
X251428923Y-88518316D01*
X251425774Y-88526715D01*
X251425772Y-88526719D01*
X251416537Y-88551354D01*
X251410496Y-88564960D01*
X251394307Y-88596294D01*
X251392591Y-88605103D01*
X251390490Y-88615884D01*
X251384798Y-88636015D01*
X251377792Y-88654704D01*
X251377127Y-88663654D01*
X251375177Y-88689892D01*
X251373197Y-88704650D01*
X251366453Y-88739264D01*
X508500Y-88739264D01*
X508500Y-61750589D01*
X239241509Y-61750589D01*
X239279494Y-62951888D01*
X239355438Y-64151386D01*
X239355529Y-64152342D01*
X239355531Y-64152368D01*
X239439601Y-65036066D01*
X239469266Y-65347883D01*
X239620862Y-66540184D01*
X239642587Y-66676460D01*
X239785789Y-67574745D01*
X239810076Y-67727097D01*
X239810247Y-67727988D01*
X239810252Y-67728016D01*
X239999666Y-68714469D01*
X240036718Y-68907434D01*
X240300563Y-70080016D01*
X240300800Y-70080933D01*
X240300801Y-70080937D01*
X240544128Y-71022310D01*
X240601345Y-71243671D01*
X240938765Y-72397235D01*
X241312484Y-73539556D01*
X241312814Y-73540466D01*
X241700544Y-74609945D01*
X241722131Y-74669490D01*
X242167294Y-75785910D01*
X242167682Y-75786800D01*
X242167684Y-75786805D01*
X242540688Y-76642575D01*
X242647529Y-76887698D01*
X242819931Y-77251390D01*
X243127477Y-77900173D01*
X243162356Y-77973753D01*
X243162816Y-77974649D01*
X243710806Y-79042105D01*
X243710823Y-79042138D01*
X243711261Y-79042990D01*
X244173554Y-79877476D01*
X244280184Y-80069953D01*
X244293693Y-80094339D01*
X244294201Y-80095191D01*
X244772109Y-80896968D01*
X244909072Y-81126749D01*
X244909596Y-81127568D01*
X245519055Y-82080217D01*
X245556782Y-82139189D01*
X245557357Y-82140028D01*
X246115174Y-82954064D01*
X246236176Y-83130646D01*
X246946573Y-84100130D01*
X246947185Y-84100912D01*
X247452413Y-84746549D01*
X247687265Y-85046670D01*
X247687879Y-85047405D01*
X247687898Y-85047429D01*
X248303300Y-85784597D01*
X248457511Y-85969321D01*
X249229478Y-86836751D01*
X249243658Y-86852685D01*
X249246428Y-86856039D01*
X249247798Y-86858146D01*
X249256177Y-86867493D01*
X249259948Y-86870577D01*
X249259949Y-86870578D01*
X249286500Y-86892292D01*
X249296372Y-86901280D01*
X249323890Y-86929137D01*
X249337917Y-86936928D01*
X249356506Y-86949544D01*
X249361977Y-86954019D01*
X249361980Y-86954021D01*
X249368930Y-86959705D01*
X249401554Y-86973537D01*
X249404995Y-86974996D01*
X249416991Y-86980850D01*
X249451223Y-86999865D01*
X249466877Y-87003407D01*
X249488250Y-87010296D01*
X249494761Y-87013057D01*
X249494767Y-87013059D01*
X249503032Y-87016563D01*
X249541928Y-87021116D01*
X249555078Y-87023367D01*
X249593289Y-87032013D01*
X249609311Y-87031019D01*
X249631761Y-87031632D01*
X249647701Y-87033498D01*
X249656548Y-87031998D01*
X249656550Y-87031998D01*
X249677653Y-87028420D01*
X249686318Y-87026951D01*
X249699576Y-87025420D01*
X249706660Y-87024981D01*
X249729709Y-87023551D01*
X249729711Y-87023551D01*
X249738667Y-87022995D01*
X249747107Y-87019948D01*
X249747108Y-87019948D01*
X249753767Y-87017544D01*
X249775479Y-87011834D01*
X249782455Y-87010651D01*
X249782459Y-87010650D01*
X249791310Y-87009149D01*
X249799382Y-87005225D01*
X249799386Y-87005224D01*
X249826542Y-86992024D01*
X249838837Y-86986834D01*
X249875670Y-86973537D01*
X249888635Y-86964066D01*
X249907872Y-86952491D01*
X249914237Y-86949397D01*
X249914239Y-86949396D01*
X249922311Y-86945472D01*
X249928959Y-86939439D01*
X249928962Y-86939437D01*
X249951317Y-86919151D01*
X249961657Y-86910721D01*
X249962112Y-86910389D01*
X249962115Y-86910386D01*
X249966043Y-86907517D01*
X249982580Y-86890980D01*
X249987001Y-86886767D01*
X250023531Y-86853618D01*
X250023534Y-86853615D01*
X250030176Y-86847587D01*
X250034860Y-86839936D01*
X250037032Y-86837313D01*
X250044983Y-86828579D01*
X254475764Y-82397881D01*
X254480994Y-82392942D01*
X254515651Y-82362034D01*
X254515654Y-82362031D01*
X254522353Y-82356056D01*
X254546603Y-82317205D01*
X254552659Y-82308364D01*
X254554869Y-82305416D01*
X254580130Y-82271711D01*
X254583423Y-82262927D01*
X254594518Y-82240440D01*
X254594726Y-82240106D01*
X254599478Y-82232493D01*
X254611847Y-82188406D01*
X254615181Y-82178213D01*
X254628108Y-82143729D01*
X254631260Y-82135322D01*
X254631955Y-82125971D01*
X254636292Y-82101276D01*
X254636399Y-82100894D01*
X254636399Y-82100893D01*
X254638824Y-82092250D01*
X254638322Y-82046465D01*
X254638661Y-82035745D01*
X254641391Y-81999017D01*
X254641391Y-81999015D01*
X254642056Y-81990066D01*
X254640097Y-81980888D01*
X254637330Y-81955990D01*
X254637329Y-81955870D01*
X254637288Y-81952122D01*
X254656530Y-81883785D01*
X254709665Y-81836699D01*
X254779822Y-81825814D01*
X254785954Y-81826911D01*
X254787621Y-81827045D01*
X254796375Y-81829026D01*
X254806074Y-81828424D01*
X254809098Y-81828237D01*
X254832834Y-81829007D01*
X254845481Y-81830620D01*
X254887419Y-81823955D01*
X254899378Y-81822637D01*
X254925892Y-81820992D01*
X254932792Y-81820564D01*
X254932793Y-81820564D01*
X254941753Y-81820008D01*
X254950194Y-81816961D01*
X254950199Y-81816960D01*
X254953741Y-81815681D01*
X254976746Y-81809757D01*
X254980467Y-81809166D01*
X254980471Y-81809165D01*
X254989333Y-81807756D01*
X255027709Y-81789590D01*
X255038836Y-81784961D01*
X255070316Y-81773597D01*
X255070317Y-81773596D01*
X255078756Y-81770550D01*
X255086000Y-81765258D01*
X255086004Y-81765256D01*
X255089048Y-81763032D01*
X255109458Y-81750894D01*
X255112871Y-81749278D01*
X255112874Y-81749276D01*
X255120986Y-81745436D01*
X255152719Y-81717232D01*
X255162094Y-81709670D01*
X255165198Y-81707402D01*
X255165199Y-81707401D01*
X255169129Y-81704530D01*
X255183457Y-81690202D01*
X255188828Y-81685137D01*
X255229856Y-81648671D01*
X255234623Y-81641062D01*
X255240419Y-81634208D01*
X255240896Y-81634611D01*
X255248116Y-81625544D01*
X256198537Y-80675142D01*
X258916867Y-77956864D01*
X258970429Y-77903303D01*
X258976894Y-77897276D01*
X259008730Y-77869621D01*
X259015505Y-77863736D01*
X259042515Y-77821695D01*
X259047674Y-77814269D01*
X259077642Y-77774284D01*
X259080793Y-77765878D01*
X259085105Y-77758003D01*
X259085173Y-77758040D01*
X259085726Y-77756938D01*
X259085655Y-77756905D01*
X259089387Y-77748743D01*
X259094239Y-77741191D01*
X259096776Y-77732582D01*
X259096778Y-77732578D01*
X259108362Y-77693273D01*
X259111240Y-77684664D01*
X259125622Y-77646300D01*
X259125623Y-77646296D01*
X259128772Y-77637896D01*
X259129437Y-77628947D01*
X259131365Y-77620180D01*
X259131442Y-77620197D01*
X259131664Y-77618980D01*
X259131587Y-77618969D01*
X259132879Y-77610082D01*
X259135415Y-77601475D01*
X259135434Y-77592501D01*
X259135520Y-77551510D01*
X259135867Y-77542436D01*
X259138903Y-77501591D01*
X259138903Y-77501588D01*
X259139568Y-77492639D01*
X259137695Y-77483862D01*
X259137084Y-77474904D01*
X259137162Y-77474899D01*
X259137032Y-77473657D01*
X259136954Y-77473668D01*
X259136478Y-77470291D01*
X259136596Y-77469484D01*
X259135710Y-77461001D01*
X259135721Y-77455815D01*
X259138600Y-77455821D01*
X259146777Y-77400046D01*
X259193418Y-77346519D01*
X259261594Y-77326705D01*
X259276741Y-77328420D01*
X259276748Y-77328333D01*
X259285697Y-77329053D01*
X259294452Y-77331034D01*
X259303414Y-77330478D01*
X259305240Y-77330625D01*
X259325604Y-77331430D01*
X259327443Y-77331428D01*
X259336328Y-77332688D01*
X259382782Y-77325974D01*
X259392986Y-77324922D01*
X259424615Y-77322960D01*
X259430868Y-77322572D01*
X259439830Y-77322016D01*
X259448272Y-77318968D01*
X259450085Y-77318593D01*
X259469823Y-77313658D01*
X259471602Y-77313135D01*
X259480488Y-77311851D01*
X259523193Y-77292367D01*
X259532694Y-77288492D01*
X259561240Y-77278187D01*
X259568393Y-77275605D01*
X259568394Y-77275604D01*
X259576833Y-77272558D01*
X259584077Y-77267266D01*
X259585693Y-77266407D01*
X259603293Y-77256107D01*
X259604837Y-77255116D01*
X259613005Y-77251390D01*
X259619800Y-77245519D01*
X259619804Y-77245517D01*
X259648514Y-77220714D01*
X259656557Y-77214319D01*
X259663271Y-77209414D01*
X259663282Y-77209405D01*
X259667206Y-77206538D01*
X259678459Y-77195285D01*
X259685182Y-77189034D01*
X259698897Y-77177185D01*
X259723226Y-77156167D01*
X259728099Y-77148626D01*
X259733991Y-77141855D01*
X259734011Y-77141873D01*
X259743009Y-77130736D01*
X259760495Y-77113251D01*
X262650745Y-74223055D01*
X263468154Y-73405662D01*
X263476742Y-73397832D01*
X263503670Y-73375466D01*
X263503671Y-73375464D01*
X263510573Y-73369732D01*
X263542424Y-73322487D01*
X263546070Y-73317360D01*
X263580231Y-73271780D01*
X263583380Y-73263380D01*
X263585260Y-73259947D01*
X263586977Y-73256400D01*
X263591995Y-73248957D01*
X263609310Y-73194658D01*
X263611362Y-73188738D01*
X263614846Y-73179446D01*
X263631361Y-73135392D01*
X263632027Y-73126435D01*
X263632869Y-73122603D01*
X263633517Y-73118744D01*
X263636247Y-73110184D01*
X263637626Y-73053217D01*
X263637936Y-73046927D01*
X263641492Y-72999085D01*
X263641492Y-72999083D01*
X263642157Y-72990135D01*
X263640284Y-72981362D01*
X263640017Y-72977441D01*
X263639555Y-72973544D01*
X263639772Y-72964569D01*
X263638783Y-72960856D01*
X263650191Y-72893403D01*
X263697996Y-72840914D01*
X263766591Y-72822603D01*
X263785529Y-72824956D01*
X263789555Y-72825280D01*
X263798310Y-72827261D01*
X263807272Y-72826705D01*
X263813038Y-72827169D01*
X263818819Y-72827302D01*
X263827678Y-72828780D01*
X263881962Y-72822278D01*
X263889147Y-72821626D01*
X263934726Y-72818799D01*
X263934727Y-72818799D01*
X263943688Y-72818243D01*
X263952132Y-72815195D01*
X263957814Y-72814018D01*
X263963393Y-72812525D01*
X263972303Y-72811458D01*
X264022596Y-72789976D01*
X264029279Y-72787345D01*
X264038867Y-72783884D01*
X264080691Y-72768785D01*
X264087940Y-72763490D01*
X264093044Y-72760776D01*
X264097995Y-72757768D01*
X264106252Y-72754241D01*
X264113185Y-72748540D01*
X264113187Y-72748539D01*
X264148469Y-72719527D01*
X264154160Y-72715114D01*
X264171064Y-72702765D01*
X264176945Y-72696884D01*
X264186014Y-72688655D01*
X264211827Y-72667430D01*
X264218759Y-72661730D01*
X264226337Y-72650609D01*
X264241366Y-72632464D01*
X264474913Y-72398922D01*
X275358398Y-61515645D01*
X275358944Y-61515102D01*
X275407748Y-61466892D01*
X275407750Y-61466889D01*
X275414134Y-61460583D01*
X275428495Y-61434728D01*
X275437809Y-61420358D01*
X275455549Y-61396688D01*
X275464560Y-61372651D01*
X275472394Y-61355696D01*
X275480504Y-61341096D01*
X275480504Y-61341095D01*
X275484862Y-61333250D01*
X275491390Y-61304403D01*
X275496298Y-61287990D01*
X275506679Y-61260300D01*
X275508582Y-61234700D01*
X275511342Y-61216233D01*
X275515029Y-61199939D01*
X275515029Y-61199938D01*
X275517010Y-61191184D01*
X275516624Y-61184957D01*
X278982524Y-61184957D01*
X278984397Y-61193730D01*
X278984397Y-61193733D01*
X278987885Y-61210071D01*
X278990419Y-61228574D01*
X278992008Y-61254194D01*
X279002052Y-61282017D01*
X279006757Y-61298482D01*
X279012931Y-61327406D01*
X279017196Y-61335310D01*
X279025123Y-61350002D01*
X279032749Y-61367050D01*
X279041466Y-61391197D01*
X279058748Y-61414853D01*
X279058909Y-61415074D01*
X279068055Y-61429570D01*
X279082097Y-61455595D01*
X279088401Y-61461976D01*
X279088402Y-61461978D01*
X279106300Y-61480096D01*
X279106832Y-61480674D01*
X279107486Y-61481570D01*
X279109604Y-61483688D01*
X279129319Y-61503404D01*
X279129861Y-61503948D01*
X279184460Y-61559219D01*
X279185683Y-61559899D01*
X279186700Y-61560786D01*
X290252897Y-72627193D01*
X290261884Y-72638317D01*
X290261907Y-72638297D01*
X290267797Y-72645068D01*
X290272669Y-72652608D01*
X290289822Y-72667430D01*
X290310732Y-72685499D01*
X290317444Y-72691741D01*
X290326524Y-72700821D01*
X290330107Y-72703506D01*
X290330110Y-72703509D01*
X290337650Y-72709160D01*
X290344465Y-72714648D01*
X290382880Y-72747843D01*
X290391048Y-72751571D01*
X290398554Y-72756386D01*
X290406375Y-72760668D01*
X290413564Y-72766056D01*
X290461127Y-72783886D01*
X290469204Y-72787239D01*
X290500061Y-72801321D01*
X290515390Y-72808317D01*
X290524274Y-72809602D01*
X290532856Y-72812125D01*
X290541551Y-72814037D01*
X290549953Y-72817186D01*
X290575071Y-72819053D01*
X290600585Y-72820949D01*
X290609286Y-72821900D01*
X290650662Y-72827886D01*
X290650666Y-72827886D01*
X290659548Y-72829171D01*
X290668438Y-72827911D01*
X290677363Y-72827923D01*
X290686259Y-72827317D01*
X290695209Y-72827982D01*
X290709947Y-72824836D01*
X290780741Y-72830177D01*
X290837410Y-72872944D01*
X290861962Y-72939561D01*
X290861481Y-72952413D01*
X290861634Y-72952413D01*
X290861633Y-72954424D01*
X290861291Y-72957484D01*
X290860974Y-72965940D01*
X290860629Y-72968350D01*
X290860064Y-72975377D01*
X290858082Y-72984134D01*
X290859380Y-73005058D01*
X290861368Y-73037115D01*
X290861610Y-73044946D01*
X290861597Y-73098039D01*
X290864115Y-73106657D01*
X290865112Y-73113631D01*
X290866544Y-73120546D01*
X290867100Y-73129512D01*
X290872257Y-73143797D01*
X290885126Y-73179446D01*
X290887555Y-73186893D01*
X290902443Y-73237852D01*
X290907278Y-73245418D01*
X290910200Y-73251848D01*
X290913511Y-73258075D01*
X290916558Y-73266515D01*
X290921850Y-73273759D01*
X290921851Y-73273761D01*
X290947873Y-73309382D01*
X290952295Y-73315849D01*
X290980887Y-73360582D01*
X290987649Y-73366484D01*
X291019991Y-73394712D01*
X291026233Y-73400544D01*
X291852197Y-74226524D01*
X294753552Y-77127933D01*
X294761507Y-77136672D01*
X294763663Y-77139275D01*
X294768348Y-77146929D01*
X294774992Y-77152959D01*
X294774993Y-77152960D01*
X294811532Y-77186122D01*
X294815947Y-77190330D01*
X294827124Y-77201507D01*
X294827133Y-77201515D01*
X294830297Y-77204679D01*
X294833873Y-77207359D01*
X294833875Y-77207361D01*
X294835222Y-77208370D01*
X294844332Y-77215890D01*
X294876208Y-77244820D01*
X294884281Y-77248745D01*
X294884283Y-77248746D01*
X294887140Y-77250135D01*
X294907607Y-77262622D01*
X294917337Y-77269914D01*
X294957646Y-77285025D01*
X294968492Y-77289682D01*
X295007206Y-77308502D01*
X295016053Y-77310003D01*
X295016054Y-77310003D01*
X295019191Y-77310535D01*
X295042346Y-77316778D01*
X295053726Y-77321044D01*
X295096649Y-77324235D01*
X295108369Y-77325660D01*
X295150814Y-77332859D01*
X295159728Y-77331816D01*
X295159735Y-77331816D01*
X295162888Y-77331447D01*
X295186864Y-77330939D01*
X295198982Y-77331840D01*
X295207760Y-77329966D01*
X295207762Y-77329966D01*
X295212936Y-77328862D01*
X295283732Y-77334203D01*
X295340401Y-77376972D01*
X295364951Y-77443589D01*
X295362977Y-77468993D01*
X295363287Y-77469018D01*
X295362567Y-77477969D01*
X295360586Y-77486723D01*
X295361142Y-77495683D01*
X295363437Y-77532696D01*
X295363648Y-77543309D01*
X295363465Y-77551510D01*
X295362619Y-77589375D01*
X295364944Y-77598039D01*
X295364977Y-77598163D01*
X295369040Y-77623015D01*
X295369604Y-77632101D01*
X295372652Y-77640543D01*
X295385246Y-77675431D01*
X295388426Y-77685557D01*
X295400366Y-77730057D01*
X295405032Y-77737725D01*
X295405099Y-77737835D01*
X295415972Y-77760545D01*
X295419062Y-77769104D01*
X295424356Y-77776351D01*
X295446233Y-77806298D01*
X295452128Y-77815126D01*
X295456134Y-77821709D01*
X295476080Y-77854489D01*
X295519808Y-77894390D01*
X295523974Y-77898369D01*
X295644548Y-78018945D01*
X299252261Y-81626727D01*
X299258123Y-81633259D01*
X299261767Y-81639405D01*
X299307925Y-81682497D01*
X299311036Y-81685504D01*
X299328288Y-81702756D01*
X299331879Y-81705447D01*
X299335266Y-81708384D01*
X299335217Y-81708440D01*
X299340046Y-81712484D01*
X299368239Y-81738804D01*
X299376252Y-81742840D01*
X299376255Y-81742842D01*
X299383115Y-81746297D01*
X299402002Y-81758003D01*
X299415328Y-81767990D01*
X299451440Y-81781528D01*
X299463874Y-81786970D01*
X299498328Y-81804323D01*
X299507159Y-81805949D01*
X299507162Y-81805950D01*
X299514714Y-81807341D01*
X299536120Y-81813274D01*
X299543306Y-81815968D01*
X299543311Y-81815969D01*
X299551716Y-81819120D01*
X299590185Y-81821979D01*
X299603627Y-81823711D01*
X299641579Y-81830699D01*
X299650510Y-81829781D01*
X299650511Y-81829781D01*
X299658151Y-81828996D01*
X299680374Y-81828682D01*
X299696973Y-81829916D01*
X299708448Y-81827467D01*
X299710204Y-81827092D01*
X299780999Y-81832435D01*
X299837667Y-81875205D01*
X299862216Y-81941822D01*
X299860300Y-81966496D01*
X299860715Y-81966529D01*
X299859995Y-81975484D01*
X299858014Y-81984236D01*
X299858570Y-81993194D01*
X299860609Y-82026063D01*
X299860772Y-82038321D01*
X299859287Y-82080217D01*
X299861501Y-82088919D01*
X299862563Y-82093094D01*
X299866210Y-82116359D01*
X299867032Y-82129614D01*
X299870081Y-82138060D01*
X299881263Y-82169035D01*
X299884861Y-82180759D01*
X299895193Y-82221379D01*
X299899760Y-82229111D01*
X299899762Y-82229115D01*
X299901953Y-82232825D01*
X299911978Y-82254119D01*
X299916490Y-82266617D01*
X299921783Y-82273863D01*
X299921785Y-82273866D01*
X299941214Y-82300462D01*
X299947958Y-82310705D01*
X299969274Y-82346791D01*
X299975825Y-82352927D01*
X299975826Y-82352929D01*
X300015775Y-82390352D01*
X300018730Y-82393212D01*
X304455183Y-86829749D01*
X304458894Y-86833926D01*
X304461449Y-86838339D01*
X304492912Y-86868326D01*
X304509892Y-86884509D01*
X304512058Y-86886624D01*
X304531276Y-86905843D01*
X304534865Y-86908533D01*
X304535202Y-86908825D01*
X304539592Y-86912817D01*
X304560388Y-86932638D01*
X304560392Y-86932641D01*
X304566889Y-86938833D01*
X304574863Y-86942953D01*
X304574867Y-86942956D01*
X304584616Y-86947993D01*
X304602342Y-86959106D01*
X304618316Y-86971078D01*
X304633001Y-86976583D01*
X304651353Y-86983463D01*
X304664961Y-86989504D01*
X304696294Y-87005693D01*
X304714032Y-87009149D01*
X304715885Y-87009510D01*
X304736013Y-87015201D01*
X304746296Y-87019056D01*
X304746298Y-87019056D01*
X304754705Y-87022208D01*
X304763658Y-87022873D01*
X304763661Y-87022874D01*
X304789875Y-87024822D01*
X304804630Y-87026800D01*
X304830448Y-87031830D01*
X304830452Y-87031830D01*
X304839264Y-87033547D01*
X304859139Y-87031712D01*
X304880052Y-87031525D01*
X304891011Y-87032339D01*
X304891012Y-87032339D01*
X304899961Y-87033004D01*
X304908734Y-87031131D01*
X304908737Y-87031131D01*
X304934463Y-87025639D01*
X304949182Y-87023397D01*
X304951551Y-87023178D01*
X304984305Y-87020154D01*
X304992649Y-87016854D01*
X304992651Y-87016854D01*
X305002862Y-87012816D01*
X305022890Y-87006764D01*
X305025330Y-87006243D01*
X305042410Y-87002597D01*
X305073452Y-86985848D01*
X305086946Y-86979566D01*
X305111410Y-86969892D01*
X305111414Y-86969890D01*
X305119756Y-86966591D01*
X305135511Y-86954337D01*
X305153028Y-86942913D01*
X305170599Y-86933432D01*
X305195701Y-86908635D01*
X305206881Y-86898827D01*
X305230884Y-86880158D01*
X305230890Y-86880152D01*
X305234731Y-86877165D01*
X305243335Y-86868025D01*
X305245328Y-86865117D01*
X305246608Y-86863605D01*
X306042018Y-85969867D01*
X306615490Y-85282951D01*
X306811671Y-85047962D01*
X306811679Y-85047952D01*
X306812281Y-85047231D01*
X307552991Y-84100705D01*
X307554005Y-84099322D01*
X308262818Y-83132039D01*
X308262823Y-83132032D01*
X308263407Y-83131235D01*
X308264354Y-83129854D01*
X308620859Y-82609617D01*
X308942819Y-82139791D01*
X308980933Y-82080217D01*
X309590032Y-81128170D01*
X309590040Y-81128157D01*
X309590548Y-81127363D01*
X310205947Y-80094964D01*
X310550541Y-79472966D01*
X310787924Y-79044486D01*
X310787935Y-79044465D01*
X310788400Y-79043626D01*
X311337324Y-77974400D01*
X311338056Y-77972857D01*
X311851750Y-76889245D01*
X311852172Y-76888355D01*
X312332428Y-75786576D01*
X312777612Y-74670165D01*
X312931960Y-74244450D01*
X313186944Y-73541165D01*
X313186946Y-73541160D01*
X313187280Y-73540238D01*
X313561022Y-72397925D01*
X313898463Y-71244367D01*
X314199268Y-70080718D01*
X314342543Y-69444026D01*
X314462921Y-68909088D01*
X314462925Y-68909068D01*
X314463134Y-68908140D01*
X314463447Y-68906514D01*
X314686376Y-67745633D01*
X314689799Y-67727807D01*
X314879036Y-66540899D01*
X315030655Y-65348601D01*
X315060424Y-65035753D01*
X315144411Y-64153095D01*
X315144412Y-64153088D01*
X315144505Y-64152106D01*
X315220472Y-62952609D01*
X315258480Y-61751311D01*
X315258491Y-60549411D01*
X315220506Y-59348112D01*
X315144562Y-58148614D01*
X315144400Y-58146905D01*
X315030827Y-56953092D01*
X315030825Y-56953077D01*
X315030734Y-56952117D01*
X314879138Y-55759816D01*
X314726558Y-54802706D01*
X314690073Y-54573837D01*
X314690072Y-54573830D01*
X314689924Y-54572903D01*
X314590558Y-54055407D01*
X314463459Y-53393486D01*
X314463455Y-53393465D01*
X314463282Y-53392566D01*
X314199437Y-52219984D01*
X314167335Y-52095789D01*
X313898900Y-51057276D01*
X313898897Y-51057263D01*
X313898655Y-51056329D01*
X313561235Y-49902765D01*
X313187516Y-48760444D01*
X312934429Y-48062350D01*
X312778203Y-47631431D01*
X312778201Y-47631426D01*
X312777869Y-47630510D01*
X312332706Y-46514090D01*
X312209913Y-46232370D01*
X311852860Y-45413194D01*
X311852855Y-45413183D01*
X311852471Y-45412302D01*
X311515687Y-44701838D01*
X311338069Y-44327143D01*
X311338062Y-44327130D01*
X311337644Y-44326247D01*
X311119658Y-43901622D01*
X310789194Y-43257895D01*
X310789177Y-43257862D01*
X310788739Y-43257010D01*
X310219830Y-42230071D01*
X310206794Y-42206540D01*
X310206793Y-42206538D01*
X310206307Y-42205661D01*
X309788478Y-41504677D01*
X309591417Y-41174071D01*
X309591411Y-41174061D01*
X309590928Y-41173251D01*
X309216203Y-40587516D01*
X308943767Y-40161669D01*
X308943764Y-40161665D01*
X308943218Y-40160811D01*
X308620740Y-39690211D01*
X308264367Y-39170146D01*
X308264359Y-39170134D01*
X308263824Y-39169354D01*
X307553427Y-38199870D01*
X307047724Y-37553625D01*
X306813333Y-37254094D01*
X306813328Y-37254088D01*
X306812735Y-37253330D01*
X306812121Y-37252595D01*
X306812102Y-37252571D01*
X306043123Y-36331438D01*
X306043111Y-36331424D01*
X306042489Y-36330679D01*
X305256340Y-35447313D01*
X305253572Y-35443961D01*
X305252202Y-35441854D01*
X305243823Y-35432507D01*
X305238836Y-35428428D01*
X305213500Y-35407708D01*
X305203628Y-35398720D01*
X305182419Y-35377250D01*
X305176110Y-35370863D01*
X305162083Y-35363072D01*
X305143494Y-35350456D01*
X305138023Y-35345981D01*
X305138020Y-35345979D01*
X305131070Y-35340295D01*
X305095002Y-35325003D01*
X305083006Y-35319148D01*
X305080391Y-35317695D01*
X305048777Y-35300135D01*
X305033122Y-35296593D01*
X305011750Y-35289704D01*
X305005239Y-35286943D01*
X305005233Y-35286941D01*
X304996968Y-35283437D01*
X304958072Y-35278884D01*
X304944922Y-35276633D01*
X304906711Y-35267987D01*
X304890689Y-35268981D01*
X304868239Y-35268368D01*
X304852299Y-35266502D01*
X304843452Y-35268002D01*
X304843450Y-35268002D01*
X304822347Y-35271580D01*
X304813682Y-35273049D01*
X304800424Y-35274580D01*
X304793340Y-35275019D01*
X304770291Y-35276449D01*
X304770289Y-35276449D01*
X304761333Y-35277005D01*
X304752893Y-35280052D01*
X304752892Y-35280052D01*
X304746233Y-35282456D01*
X304724521Y-35288166D01*
X304717545Y-35289349D01*
X304717541Y-35289350D01*
X304708690Y-35290851D01*
X304700618Y-35294775D01*
X304700614Y-35294776D01*
X304673458Y-35307976D01*
X304661163Y-35313166D01*
X304624330Y-35326463D01*
X304611365Y-35335934D01*
X304592128Y-35347509D01*
X304585763Y-35350603D01*
X304585761Y-35350604D01*
X304577689Y-35354528D01*
X304571041Y-35360561D01*
X304571038Y-35360563D01*
X304548683Y-35380849D01*
X304538343Y-35389279D01*
X304537888Y-35389611D01*
X304537885Y-35389614D01*
X304533957Y-35392483D01*
X304517420Y-35409020D01*
X304512999Y-35413233D01*
X304476469Y-35446382D01*
X304476466Y-35446385D01*
X304469824Y-35452413D01*
X304465140Y-35460064D01*
X304462968Y-35462687D01*
X304455017Y-35471421D01*
X300024236Y-39902119D01*
X300019006Y-39907058D01*
X299984347Y-39937968D01*
X299984345Y-39937970D01*
X299977647Y-39943944D01*
X299953387Y-39982812D01*
X299947349Y-39991627D01*
X299919871Y-40028289D01*
X299916718Y-40036699D01*
X299916717Y-40036701D01*
X299916577Y-40037075D01*
X299905490Y-40059547D01*
X299900522Y-40067507D01*
X299898097Y-40076151D01*
X299888153Y-40111594D01*
X299884819Y-40121788D01*
X299881377Y-40130971D01*
X299868740Y-40164678D01*
X299868075Y-40173630D01*
X299868074Y-40173633D01*
X299868045Y-40174029D01*
X299863708Y-40198724D01*
X299861176Y-40207750D01*
X299861274Y-40216724D01*
X299861274Y-40216727D01*
X299861678Y-40253535D01*
X299861339Y-40264255D01*
X299859054Y-40295005D01*
X299857944Y-40309934D01*
X299859817Y-40318708D01*
X299859817Y-40318710D01*
X299859903Y-40319111D01*
X299862670Y-40344010D01*
X299862712Y-40347879D01*
X299843470Y-40416216D01*
X299790334Y-40463303D01*
X299720177Y-40474187D01*
X299714046Y-40473090D01*
X299712379Y-40472956D01*
X299703625Y-40470975D01*
X299690905Y-40471764D01*
X299667167Y-40470993D01*
X299663422Y-40470515D01*
X299663419Y-40470515D01*
X299654519Y-40469380D01*
X299612581Y-40476046D01*
X299600612Y-40477365D01*
X299587054Y-40478205D01*
X299567207Y-40479436D01*
X299567205Y-40479436D01*
X299558247Y-40479992D01*
X299546614Y-40484192D01*
X299546259Y-40484320D01*
X299523252Y-40490244D01*
X299520748Y-40490642D01*
X299510667Y-40492244D01*
X299502556Y-40496083D01*
X299502551Y-40496085D01*
X299472292Y-40510409D01*
X299461166Y-40515038D01*
X299421243Y-40529450D01*
X299410951Y-40536969D01*
X299390539Y-40549109D01*
X299379014Y-40554564D01*
X299372304Y-40560528D01*
X299347287Y-40582764D01*
X299337907Y-40590330D01*
X299330871Y-40595470D01*
X299316543Y-40609798D01*
X299311172Y-40614863D01*
X299270144Y-40651329D01*
X299265377Y-40658938D01*
X299259581Y-40665792D01*
X299259104Y-40665389D01*
X299251885Y-40674455D01*
X296898946Y-43027348D01*
X295529571Y-44396697D01*
X295523106Y-44402724D01*
X295484495Y-44436264D01*
X295457485Y-44478305D01*
X295452326Y-44485731D01*
X295422358Y-44525716D01*
X295419206Y-44534123D01*
X295414895Y-44541998D01*
X295414825Y-44541960D01*
X295414274Y-44543059D01*
X295414347Y-44543092D01*
X295410615Y-44551255D01*
X295405761Y-44558809D01*
X295391637Y-44606734D01*
X295388766Y-44615320D01*
X295371227Y-44662105D01*
X295370561Y-44671059D01*
X295368635Y-44679821D01*
X295368557Y-44679804D01*
X295368336Y-44681019D01*
X295368414Y-44681030D01*
X295367123Y-44689915D01*
X295364585Y-44698525D01*
X295364566Y-44707500D01*
X295364566Y-44707502D01*
X295364480Y-44748477D01*
X295364133Y-44757551D01*
X295361096Y-44798409D01*
X295360431Y-44807361D01*
X295362304Y-44816137D01*
X295362915Y-44825097D01*
X295362837Y-44825102D01*
X295362967Y-44826348D01*
X295363046Y-44826337D01*
X295363522Y-44829715D01*
X295363404Y-44830523D01*
X295364290Y-44839005D01*
X295364279Y-44844186D01*
X295361401Y-44844180D01*
X295353221Y-44899960D01*
X295306578Y-44953485D01*
X295238401Y-44973296D01*
X295223258Y-44971582D01*
X295223251Y-44971668D01*
X295214304Y-44970948D01*
X295205548Y-44968967D01*
X295196586Y-44969523D01*
X295194747Y-44969375D01*
X295174391Y-44968570D01*
X295172556Y-44968572D01*
X295163672Y-44967312D01*
X295154789Y-44968596D01*
X295154788Y-44968596D01*
X295143201Y-44970271D01*
X295117221Y-44974026D01*
X295107002Y-44975080D01*
X295089637Y-44976157D01*
X295069132Y-44977428D01*
X295069131Y-44977428D01*
X295060170Y-44977984D01*
X295051725Y-44981033D01*
X295049918Y-44981407D01*
X295030192Y-44986338D01*
X295028400Y-44986864D01*
X295019512Y-44988149D01*
X295011346Y-44991875D01*
X295011342Y-44991876D01*
X294976815Y-45007630D01*
X294967295Y-45011512D01*
X294923166Y-45027442D01*
X294915912Y-45032741D01*
X294914280Y-45033609D01*
X294896711Y-45043891D01*
X294895165Y-45044882D01*
X294886995Y-45048610D01*
X294872407Y-45061213D01*
X294851486Y-45079287D01*
X294843442Y-45085682D01*
X294836736Y-45090581D01*
X294836727Y-45090589D01*
X294832794Y-45093462D01*
X294821541Y-45104715D01*
X294814819Y-45110965D01*
X294776774Y-45143833D01*
X294771901Y-45151374D01*
X294766009Y-45158145D01*
X294765989Y-45158127D01*
X294756992Y-45169263D01*
X292363867Y-47562342D01*
X291031846Y-48894338D01*
X291023258Y-48902168D01*
X290989427Y-48930268D01*
X290984412Y-48937707D01*
X290957578Y-48977510D01*
X290953937Y-48982630D01*
X290919769Y-49028220D01*
X290916620Y-49036620D01*
X290914740Y-49040053D01*
X290913023Y-49043599D01*
X290908005Y-49051043D01*
X290905277Y-49059598D01*
X290905275Y-49059602D01*
X290890699Y-49105311D01*
X290888637Y-49111261D01*
X290871789Y-49156203D01*
X290868638Y-49164609D01*
X290867973Y-49173560D01*
X290867130Y-49177394D01*
X290866480Y-49181266D01*
X290863753Y-49189816D01*
X290863536Y-49198790D01*
X290862374Y-49246767D01*
X290862064Y-49253055D01*
X290857842Y-49309865D01*
X290859716Y-49318644D01*
X290859982Y-49322543D01*
X290860445Y-49326452D01*
X290860228Y-49335431D01*
X290861218Y-49339148D01*
X290849806Y-49406603D01*
X290801998Y-49459091D01*
X290733403Y-49477398D01*
X290714470Y-49475045D01*
X290710446Y-49474721D01*
X290701690Y-49472740D01*
X290692730Y-49473296D01*
X290686940Y-49472830D01*
X290681175Y-49472697D01*
X290672322Y-49471220D01*
X290663414Y-49472287D01*
X290663412Y-49472287D01*
X290618029Y-49477723D01*
X290610844Y-49478375D01*
X290565273Y-49481201D01*
X290565271Y-49481201D01*
X290556312Y-49481757D01*
X290547870Y-49484805D01*
X290542189Y-49485981D01*
X290536606Y-49487475D01*
X290527697Y-49488542D01*
X290477404Y-49510024D01*
X290470727Y-49512653D01*
X290419309Y-49531215D01*
X290412060Y-49536510D01*
X290406956Y-49539224D01*
X290402005Y-49542232D01*
X290393748Y-49545759D01*
X290386815Y-49551460D01*
X290386813Y-49551461D01*
X290351531Y-49580473D01*
X290345840Y-49584886D01*
X290328936Y-49597235D01*
X290323055Y-49603116D01*
X290313986Y-49611345D01*
X290281241Y-49638270D01*
X290275026Y-49647392D01*
X290273666Y-49649388D01*
X290258635Y-49667535D01*
X280576880Y-59349104D01*
X279141602Y-60784355D01*
X279141056Y-60784898D01*
X279092252Y-60833108D01*
X279092250Y-60833111D01*
X279085866Y-60839417D01*
X279071505Y-60865272D01*
X279062191Y-60879642D01*
X279044451Y-60903312D01*
X279035436Y-60927359D01*
X279027606Y-60944303D01*
X279019497Y-60958901D01*
X279019495Y-60958905D01*
X279015138Y-60966750D01*
X279013157Y-60975504D01*
X279013155Y-60975509D01*
X279008609Y-60995596D01*
X279003701Y-61012008D01*
X278993320Y-61039700D01*
X278992655Y-61048652D01*
X278992654Y-61048655D01*
X278991417Y-61065303D01*
X278988657Y-61083771D01*
X278984971Y-61100060D01*
X278982990Y-61108816D01*
X278984820Y-61138323D01*
X278984716Y-61155460D01*
X278982524Y-61184957D01*
X275516624Y-61184957D01*
X275515179Y-61161663D01*
X275515284Y-61144525D01*
X275516810Y-61123995D01*
X275516810Y-61123992D01*
X275517475Y-61115043D01*
X275512115Y-61089933D01*
X275509581Y-61071429D01*
X275508548Y-61054769D01*
X275508548Y-61054768D01*
X275507992Y-61045807D01*
X275504945Y-61037366D01*
X275504943Y-61037358D01*
X275497951Y-61017991D01*
X275493243Y-61001519D01*
X275487069Y-60972594D01*
X275474877Y-60949997D01*
X275467251Y-60932950D01*
X275461582Y-60917245D01*
X275461581Y-60917242D01*
X275458534Y-60908803D01*
X275441091Y-60884926D01*
X275431945Y-60870430D01*
X275422163Y-60852300D01*
X275422162Y-60852299D01*
X275417903Y-60844405D01*
X275406744Y-60833108D01*
X275393702Y-60819906D01*
X275393169Y-60819327D01*
X275392514Y-60818430D01*
X275370560Y-60796475D01*
X275370019Y-60795931D01*
X275358880Y-60784655D01*
X275315540Y-60740782D01*
X275314316Y-60740103D01*
X275313307Y-60739222D01*
X264247103Y-49672807D01*
X264238116Y-49661683D01*
X264238093Y-49661703D01*
X264232203Y-49654932D01*
X264227331Y-49647392D01*
X264189268Y-49614501D01*
X264182556Y-49608259D01*
X264173476Y-49599179D01*
X264162362Y-49590850D01*
X264155550Y-49585364D01*
X264123914Y-49558027D01*
X264123910Y-49558025D01*
X264117120Y-49552157D01*
X264108955Y-49548431D01*
X264101457Y-49543621D01*
X264093622Y-49539331D01*
X264086436Y-49533945D01*
X264078030Y-49530794D01*
X264078029Y-49530793D01*
X264038895Y-49516122D01*
X264030816Y-49512769D01*
X263992777Y-49495409D01*
X263992770Y-49495407D01*
X263984610Y-49491683D01*
X263975726Y-49490398D01*
X263967156Y-49487879D01*
X263958455Y-49485966D01*
X263950047Y-49482814D01*
X263913048Y-49480064D01*
X263899415Y-49479051D01*
X263890714Y-49478100D01*
X263849338Y-49472114D01*
X263849334Y-49472114D01*
X263840452Y-49470829D01*
X263831562Y-49472089D01*
X263822637Y-49472077D01*
X263813741Y-49472683D01*
X263804791Y-49472018D01*
X263790053Y-49475164D01*
X263719259Y-49469823D01*
X263662590Y-49427056D01*
X263638038Y-49360439D01*
X263638519Y-49347587D01*
X263638366Y-49347587D01*
X263638367Y-49345576D01*
X263638709Y-49342516D01*
X263639026Y-49334060D01*
X263639371Y-49331650D01*
X263639936Y-49324623D01*
X263641918Y-49315866D01*
X263638632Y-49262885D01*
X263638390Y-49255054D01*
X263638401Y-49210939D01*
X263638401Y-49210938D01*
X263638403Y-49201961D01*
X263635885Y-49193343D01*
X263634888Y-49186369D01*
X263633456Y-49179454D01*
X263632900Y-49170488D01*
X263614872Y-49120547D01*
X263612445Y-49113107D01*
X263600075Y-49070767D01*
X263597557Y-49062148D01*
X263592722Y-49054582D01*
X263589800Y-49048152D01*
X263586489Y-49041925D01*
X263583442Y-49033485D01*
X263574352Y-49021041D01*
X263552127Y-48990618D01*
X263547705Y-48984151D01*
X263523947Y-48946981D01*
X263519113Y-48939418D01*
X263480008Y-48905287D01*
X263473766Y-48899455D01*
X262648837Y-48074510D01*
X262116254Y-47541918D01*
X259746448Y-45172067D01*
X259738493Y-45163328D01*
X259736337Y-45160725D01*
X259731652Y-45153071D01*
X259721473Y-45143833D01*
X259688468Y-45113878D01*
X259684053Y-45109670D01*
X259672876Y-45098493D01*
X259672867Y-45098485D01*
X259669703Y-45095321D01*
X259664774Y-45091626D01*
X259655666Y-45084108D01*
X259630439Y-45061213D01*
X259623792Y-45055180D01*
X259615719Y-45051255D01*
X259615717Y-45051254D01*
X259612860Y-45049865D01*
X259592391Y-45037377D01*
X259589843Y-45035467D01*
X259589842Y-45035467D01*
X259582663Y-45030086D01*
X259542353Y-45014975D01*
X259531508Y-45010318D01*
X259492794Y-44991498D01*
X259483947Y-44989997D01*
X259483946Y-44989997D01*
X259480809Y-44989465D01*
X259457654Y-44983222D01*
X259446274Y-44978956D01*
X259403351Y-44975765D01*
X259391631Y-44974340D01*
X259349186Y-44967141D01*
X259340272Y-44968184D01*
X259340265Y-44968184D01*
X259337112Y-44968553D01*
X259313136Y-44969061D01*
X259301018Y-44968160D01*
X259292245Y-44970033D01*
X259292241Y-44970033D01*
X259287061Y-44971139D01*
X259216266Y-44965796D01*
X259159597Y-44923027D01*
X259135048Y-44856410D01*
X259137022Y-44831007D01*
X259136712Y-44830982D01*
X259137432Y-44822031D01*
X259139413Y-44813277D01*
X259136562Y-44767302D01*
X259136351Y-44756698D01*
X259137381Y-44710625D01*
X259135022Y-44701834D01*
X259130960Y-44676986D01*
X259130396Y-44667899D01*
X259114755Y-44624572D01*
X259111573Y-44614441D01*
X259101959Y-44578608D01*
X259101959Y-44578607D01*
X259099634Y-44569943D01*
X259094901Y-44562165D01*
X259084029Y-44539457D01*
X259083985Y-44539336D01*
X259080938Y-44530895D01*
X259053758Y-44493688D01*
X259047873Y-44484876D01*
X259028584Y-44453176D01*
X259023920Y-44445511D01*
X258980191Y-44405609D01*
X258976025Y-44401630D01*
X258899086Y-44324689D01*
X257585661Y-43011240D01*
X255247739Y-40673273D01*
X255241877Y-40666741D01*
X255238233Y-40660595D01*
X255192074Y-40617502D01*
X255188964Y-40614496D01*
X255171712Y-40597244D01*
X255168121Y-40594553D01*
X255164734Y-40591616D01*
X255164783Y-40591560D01*
X255159954Y-40587516D01*
X255152411Y-40580475D01*
X255131761Y-40561196D01*
X255123748Y-40557160D01*
X255123745Y-40557158D01*
X255116885Y-40553703D01*
X255097998Y-40541997D01*
X255091855Y-40537393D01*
X255091854Y-40537392D01*
X255084672Y-40532010D01*
X255048558Y-40518471D01*
X255036115Y-40513024D01*
X255011228Y-40500490D01*
X255001672Y-40495677D01*
X254985293Y-40492662D01*
X254963883Y-40486727D01*
X254956689Y-40484030D01*
X254956686Y-40484029D01*
X254948283Y-40480879D01*
X254924591Y-40479118D01*
X254909824Y-40478020D01*
X254896351Y-40476284D01*
X254867252Y-40470927D01*
X254858421Y-40469301D01*
X254842132Y-40470975D01*
X254841850Y-40471004D01*
X254819630Y-40471317D01*
X254811978Y-40470748D01*
X254811976Y-40470748D01*
X254803027Y-40470083D01*
X254794249Y-40471957D01*
X254794246Y-40471957D01*
X254789798Y-40472906D01*
X254785298Y-40472566D01*
X254785290Y-40472567D01*
X254785290Y-40472566D01*
X254719003Y-40467565D01*
X254662334Y-40424796D01*
X254637784Y-40358179D01*
X254639700Y-40333504D01*
X254639285Y-40333471D01*
X254640005Y-40324516D01*
X254641986Y-40315764D01*
X254639391Y-40273930D01*
X254639228Y-40261672D01*
X254639327Y-40258902D01*
X254640713Y-40219783D01*
X254638500Y-40211082D01*
X254638499Y-40211076D01*
X254637437Y-40206903D01*
X254633790Y-40183641D01*
X254633524Y-40179351D01*
X254633524Y-40179350D01*
X254632968Y-40170387D01*
X254629599Y-40161053D01*
X254618739Y-40130971D01*
X254615141Y-40119249D01*
X254607020Y-40087321D01*
X254604807Y-40078621D01*
X254600240Y-40070889D01*
X254600238Y-40070885D01*
X254598047Y-40067175D01*
X254588022Y-40045881D01*
X254586557Y-40041824D01*
X254583510Y-40033383D01*
X254558783Y-39999535D01*
X254552047Y-39989304D01*
X254530726Y-39953209D01*
X254520836Y-39943944D01*
X254484241Y-39909664D01*
X254481285Y-39906803D01*
X254350376Y-39775891D01*
X251591054Y-37016517D01*
X250044818Y-35470252D01*
X250041106Y-35466073D01*
X250038551Y-35461661D01*
X250032058Y-35455472D01*
X250032056Y-35455470D01*
X249990087Y-35415470D01*
X249987923Y-35413356D01*
X249968724Y-35394157D01*
X249965140Y-35391471D01*
X249964793Y-35391170D01*
X249960411Y-35387186D01*
X249943284Y-35370863D01*
X249933111Y-35361167D01*
X249925143Y-35357050D01*
X249925137Y-35357046D01*
X249915377Y-35352004D01*
X249897653Y-35340891D01*
X249881684Y-35328923D01*
X249873285Y-35325774D01*
X249873281Y-35325772D01*
X249848646Y-35316537D01*
X249835039Y-35310496D01*
X249811679Y-35298426D01*
X249811676Y-35298425D01*
X249803706Y-35294307D01*
X249784117Y-35290490D01*
X249763985Y-35284798D01*
X249759578Y-35283146D01*
X249745296Y-35277792D01*
X249720065Y-35275917D01*
X249710108Y-35275177D01*
X249695350Y-35273197D01*
X249691800Y-35272505D01*
X249660736Y-35266453D01*
X249640861Y-35268288D01*
X249619948Y-35268475D01*
X249608989Y-35267661D01*
X249608988Y-35267661D01*
X249600039Y-35266996D01*
X249591266Y-35268869D01*
X249591263Y-35268869D01*
X249565537Y-35274361D01*
X249550818Y-35276603D01*
X249515695Y-35279846D01*
X249507351Y-35283146D01*
X249507349Y-35283146D01*
X249497138Y-35287184D01*
X249477109Y-35293236D01*
X249457590Y-35297403D01*
X249449690Y-35301666D01*
X249449689Y-35301666D01*
X249426541Y-35314156D01*
X249413043Y-35320439D01*
X249388596Y-35330106D01*
X249388594Y-35330107D01*
X249380244Y-35333409D01*
X249373159Y-35338920D01*
X249373155Y-35338922D01*
X249364493Y-35345660D01*
X249346963Y-35357093D01*
X249337299Y-35362307D01*
X249337296Y-35362309D01*
X249329401Y-35366569D01*
X249323017Y-35372875D01*
X249323016Y-35372876D01*
X249304309Y-35391355D01*
X249293120Y-35401172D01*
X249269120Y-35419839D01*
X249269115Y-35419844D01*
X249265269Y-35422835D01*
X249256665Y-35431975D01*
X249254672Y-35434883D01*
X249253392Y-35436395D01*
X248457982Y-36330133D01*
X248457346Y-36330895D01*
X247719932Y-37214184D01*
X247687719Y-37252769D01*
X246947009Y-38199295D01*
X246946410Y-38200113D01*
X246946402Y-38200123D01*
X246251724Y-39148116D01*
X246236593Y-39168765D01*
X246236044Y-39169566D01*
X246236037Y-39169576D01*
X246115182Y-39345936D01*
X245557181Y-40160209D01*
X245556642Y-40161052D01*
X245556641Y-40161053D01*
X245169801Y-40765701D01*
X244909452Y-41172637D01*
X244294053Y-42205036D01*
X244173531Y-42422581D01*
X243720525Y-43240265D01*
X243711600Y-43256374D01*
X243162676Y-44325600D01*
X243162258Y-44326483D01*
X243162249Y-44326500D01*
X242791788Y-45107969D01*
X242647828Y-45411645D01*
X242167572Y-46513424D01*
X241722388Y-47629835D01*
X241722049Y-47630770D01*
X241497931Y-48248923D01*
X241312720Y-48759762D01*
X240938978Y-49902075D01*
X240601537Y-51055633D01*
X240300732Y-52219282D01*
X240286449Y-52282754D01*
X240064394Y-53269531D01*
X240036866Y-53391860D01*
X240036687Y-53392791D01*
X240036682Y-53392816D01*
X239999674Y-53585531D01*
X239810201Y-54572193D01*
X239620964Y-55759101D01*
X239469345Y-56951399D01*
X239469252Y-56952381D01*
X239469250Y-56952395D01*
X239410412Y-57570749D01*
X239355495Y-58147894D01*
X239279528Y-59347391D01*
X239241520Y-60548689D01*
X239241509Y-61750589D01*
X508500Y-61750589D01*
X508500Y-33547701D01*
X251366502Y-33547701D01*
X251368002Y-33556548D01*
X251368002Y-33556550D01*
X251373049Y-33586316D01*
X251374580Y-33599576D01*
X251377005Y-33638667D01*
X251380052Y-33647107D01*
X251380052Y-33647108D01*
X251382456Y-33653767D01*
X251388166Y-33675479D01*
X251389349Y-33682455D01*
X251389350Y-33682459D01*
X251390851Y-33691310D01*
X251394775Y-33699382D01*
X251394776Y-33699386D01*
X251407976Y-33726542D01*
X251413166Y-33738837D01*
X251426463Y-33775670D01*
X251435934Y-33788635D01*
X251447509Y-33807872D01*
X251454528Y-33822311D01*
X251460561Y-33828959D01*
X251460563Y-33828962D01*
X251480849Y-33851317D01*
X251489279Y-33861657D01*
X251492483Y-33866043D01*
X251509020Y-33882580D01*
X251513233Y-33887001D01*
X251546382Y-33923531D01*
X251546385Y-33923534D01*
X251552413Y-33930176D01*
X251560064Y-33934860D01*
X251562687Y-33937032D01*
X251571421Y-33944983D01*
X256002119Y-38375764D01*
X256007058Y-38380994D01*
X256037966Y-38415651D01*
X256037969Y-38415654D01*
X256043944Y-38422353D01*
X256082795Y-38446603D01*
X256091632Y-38452656D01*
X256128289Y-38480130D01*
X256136697Y-38483282D01*
X256137073Y-38483423D01*
X256159560Y-38494518D01*
X256167507Y-38499478D01*
X256176147Y-38501902D01*
X256211594Y-38511847D01*
X256221787Y-38515181D01*
X256264678Y-38531260D01*
X256273630Y-38531925D01*
X256273633Y-38531926D01*
X256274029Y-38531955D01*
X256298724Y-38536292D01*
X256299106Y-38536399D01*
X256299107Y-38536399D01*
X256307750Y-38538824D01*
X256316724Y-38538726D01*
X256316727Y-38538726D01*
X256353535Y-38538322D01*
X256364255Y-38538661D01*
X256400983Y-38541391D01*
X256400985Y-38541391D01*
X256409934Y-38542056D01*
X256418708Y-38540183D01*
X256418710Y-38540183D01*
X256418988Y-38540123D01*
X256419112Y-38540097D01*
X256444010Y-38537330D01*
X256444130Y-38537329D01*
X256447878Y-38537288D01*
X256516215Y-38556530D01*
X256563301Y-38609665D01*
X256574186Y-38679822D01*
X256573089Y-38685954D01*
X256572955Y-38687621D01*
X256570974Y-38696375D01*
X256571530Y-38705336D01*
X256571763Y-38709098D01*
X256570993Y-38732834D01*
X256569380Y-38745481D01*
X256576045Y-38787419D01*
X256577363Y-38799378D01*
X256579992Y-38841753D01*
X256583039Y-38850194D01*
X256583040Y-38850199D01*
X256584319Y-38853741D01*
X256590243Y-38876746D01*
X256590834Y-38880467D01*
X256590835Y-38880471D01*
X256592244Y-38889333D01*
X256596085Y-38897447D01*
X256610410Y-38927709D01*
X256615039Y-38938836D01*
X256616251Y-38942192D01*
X256629450Y-38978756D01*
X256634742Y-38986000D01*
X256634744Y-38986004D01*
X256636968Y-38989048D01*
X256649106Y-39009458D01*
X256650722Y-39012871D01*
X256650724Y-39012874D01*
X256654564Y-39020986D01*
X256660526Y-39027694D01*
X256682768Y-39052719D01*
X256690330Y-39062094D01*
X256695470Y-39069129D01*
X256709798Y-39083457D01*
X256714863Y-39088828D01*
X256751329Y-39129856D01*
X256758938Y-39134623D01*
X256765792Y-39140419D01*
X256765389Y-39140896D01*
X256774455Y-39148115D01*
X258271679Y-40645368D01*
X260496697Y-42870429D01*
X260502724Y-42876894D01*
X260536264Y-42915505D01*
X260578305Y-42942515D01*
X260585731Y-42947674D01*
X260625716Y-42977642D01*
X260634122Y-42980793D01*
X260641997Y-42985105D01*
X260641960Y-42985173D01*
X260643062Y-42985726D01*
X260643095Y-42985655D01*
X260651257Y-42989387D01*
X260658809Y-42994239D01*
X260667418Y-42996776D01*
X260667422Y-42996778D01*
X260706727Y-43008362D01*
X260715336Y-43011240D01*
X260753700Y-43025622D01*
X260753704Y-43025623D01*
X260762104Y-43028772D01*
X260771053Y-43029437D01*
X260779820Y-43031365D01*
X260779803Y-43031442D01*
X260781020Y-43031664D01*
X260781031Y-43031587D01*
X260789918Y-43032879D01*
X260798525Y-43035415D01*
X260807497Y-43035434D01*
X260807499Y-43035434D01*
X260848490Y-43035520D01*
X260857564Y-43035867D01*
X260898409Y-43038903D01*
X260898412Y-43038903D01*
X260907361Y-43039568D01*
X260916138Y-43037695D01*
X260925096Y-43037084D01*
X260925101Y-43037162D01*
X260926343Y-43037032D01*
X260926332Y-43036954D01*
X260929709Y-43036478D01*
X260930516Y-43036596D01*
X260938998Y-43035710D01*
X260944182Y-43035721D01*
X260944185Y-43035721D01*
X260944179Y-43038600D01*
X260999954Y-43046777D01*
X261053481Y-43093418D01*
X261073295Y-43161594D01*
X261071580Y-43176741D01*
X261071667Y-43176748D01*
X261070947Y-43185697D01*
X261068966Y-43194452D01*
X261069522Y-43203414D01*
X261069375Y-43205240D01*
X261068570Y-43225604D01*
X261068572Y-43227443D01*
X261067312Y-43236328D01*
X261074026Y-43282782D01*
X261075078Y-43292986D01*
X261077984Y-43339830D01*
X261081033Y-43348275D01*
X261081408Y-43350087D01*
X261086352Y-43369862D01*
X261086866Y-43371609D01*
X261088149Y-43380488D01*
X261107633Y-43423193D01*
X261111508Y-43432694D01*
X261127442Y-43476833D01*
X261132734Y-43484077D01*
X261133593Y-43485693D01*
X261143893Y-43503293D01*
X261144884Y-43504837D01*
X261148610Y-43513005D01*
X261154481Y-43519800D01*
X261154483Y-43519804D01*
X261179286Y-43548514D01*
X261185681Y-43556557D01*
X261190586Y-43563271D01*
X261190595Y-43563282D01*
X261193462Y-43567206D01*
X261204715Y-43578459D01*
X261210965Y-43585181D01*
X261243833Y-43623226D01*
X261251374Y-43628099D01*
X261258145Y-43633991D01*
X261258127Y-43634011D01*
X261269263Y-43643008D01*
X263222240Y-45596022D01*
X264994338Y-47368154D01*
X265002168Y-47376742D01*
X265017855Y-47395628D01*
X265030268Y-47410573D01*
X265050106Y-47423947D01*
X265077510Y-47442422D01*
X265082630Y-47446063D01*
X265128220Y-47480231D01*
X265136620Y-47483380D01*
X265140053Y-47485260D01*
X265143600Y-47486977D01*
X265151043Y-47491995D01*
X265205342Y-47509310D01*
X265211256Y-47511360D01*
X265264608Y-47531361D01*
X265273565Y-47532027D01*
X265277397Y-47532869D01*
X265281256Y-47533517D01*
X265289816Y-47536247D01*
X265337306Y-47537397D01*
X265346783Y-47537626D01*
X265353073Y-47537936D01*
X265400915Y-47541492D01*
X265400917Y-47541492D01*
X265409865Y-47542157D01*
X265418638Y-47540284D01*
X265422559Y-47540017D01*
X265426456Y-47539555D01*
X265435431Y-47539772D01*
X265439144Y-47538783D01*
X265506597Y-47550191D01*
X265559086Y-47597996D01*
X265577397Y-47666591D01*
X265575044Y-47685529D01*
X265574720Y-47689555D01*
X265572739Y-47698310D01*
X265573295Y-47707272D01*
X265572831Y-47713038D01*
X265572698Y-47718819D01*
X265571220Y-47727678D01*
X265572288Y-47736593D01*
X265577722Y-47781963D01*
X265578374Y-47789146D01*
X265581757Y-47843688D01*
X265584805Y-47852132D01*
X265585982Y-47857814D01*
X265587475Y-47863393D01*
X265588542Y-47872303D01*
X265610024Y-47922596D01*
X265612653Y-47929273D01*
X265631215Y-47980691D01*
X265636510Y-47987940D01*
X265639224Y-47993044D01*
X265642232Y-47997995D01*
X265645759Y-48006252D01*
X265651460Y-48013185D01*
X265651461Y-48013187D01*
X265680473Y-48048469D01*
X265684886Y-48054160D01*
X265697235Y-48071064D01*
X265703116Y-48076945D01*
X265711345Y-48086014D01*
X265738270Y-48118759D01*
X265749391Y-48126337D01*
X265767535Y-48141365D01*
X275772883Y-58146905D01*
X276884355Y-59258398D01*
X276884898Y-59258944D01*
X276933108Y-59307748D01*
X276933111Y-59307750D01*
X276939417Y-59314134D01*
X276965272Y-59328495D01*
X276979642Y-59337809D01*
X277003312Y-59355549D01*
X277025711Y-59363946D01*
X277027349Y-59364560D01*
X277044304Y-59372394D01*
X277066750Y-59384862D01*
X277075504Y-59386843D01*
X277095597Y-59391390D01*
X277112010Y-59396298D01*
X277139700Y-59406679D01*
X277148654Y-59407345D01*
X277148656Y-59407345D01*
X277165300Y-59408582D01*
X277183768Y-59411342D01*
X277208816Y-59417010D01*
X277223321Y-59416110D01*
X277238337Y-59415179D01*
X277255475Y-59415284D01*
X277276005Y-59416810D01*
X277276008Y-59416810D01*
X277284957Y-59417475D01*
X277293731Y-59415602D01*
X277293732Y-59415602D01*
X277310066Y-59412115D01*
X277328570Y-59409581D01*
X277334428Y-59409218D01*
X277345231Y-59408548D01*
X277345232Y-59408548D01*
X277354194Y-59407992D01*
X277382010Y-59397950D01*
X277398488Y-59393242D01*
X277410223Y-59390737D01*
X277418627Y-59388943D01*
X277418628Y-59388943D01*
X277427406Y-59387069D01*
X277450003Y-59374877D01*
X277467050Y-59367251D01*
X277482755Y-59361582D01*
X277482758Y-59361581D01*
X277491197Y-59358534D01*
X277515074Y-59341091D01*
X277529570Y-59331945D01*
X277547700Y-59322163D01*
X277547701Y-59322162D01*
X277555595Y-59317903D01*
X277580094Y-59293702D01*
X277580673Y-59293169D01*
X277581570Y-59292514D01*
X277603525Y-59270560D01*
X277604069Y-59270019D01*
X277615833Y-59258398D01*
X277659218Y-59215540D01*
X277659897Y-59214316D01*
X277660778Y-59213307D01*
X288727193Y-48147103D01*
X288738317Y-48138116D01*
X288738297Y-48138093D01*
X288745068Y-48132203D01*
X288752608Y-48127331D01*
X288785499Y-48089268D01*
X288791741Y-48082556D01*
X288800821Y-48073476D01*
X288805575Y-48067134D01*
X288809160Y-48062350D01*
X288814648Y-48055535D01*
X288841973Y-48023913D01*
X288847843Y-48017120D01*
X288851571Y-48008952D01*
X288856386Y-48001446D01*
X288860668Y-47993625D01*
X288866056Y-47986436D01*
X288883886Y-47938873D01*
X288887239Y-47930796D01*
X288904590Y-47892777D01*
X288904590Y-47892776D01*
X288908317Y-47884610D01*
X288909602Y-47875726D01*
X288912125Y-47867144D01*
X288914037Y-47858449D01*
X288917186Y-47850047D01*
X288920949Y-47799415D01*
X288921900Y-47790714D01*
X288927886Y-47749338D01*
X288927886Y-47749334D01*
X288929171Y-47740452D01*
X288927911Y-47731562D01*
X288927923Y-47722637D01*
X288927317Y-47713741D01*
X288927982Y-47704791D01*
X288924836Y-47690053D01*
X288930177Y-47619259D01*
X288972944Y-47562590D01*
X289039561Y-47538038D01*
X289052413Y-47538519D01*
X289052413Y-47538366D01*
X289052445Y-47538366D01*
X289054424Y-47538367D01*
X289057484Y-47538709D01*
X289065940Y-47539026D01*
X289068350Y-47539371D01*
X289075377Y-47539936D01*
X289084134Y-47541918D01*
X289135873Y-47538709D01*
X289137115Y-47538632D01*
X289144946Y-47538390D01*
X289189061Y-47538401D01*
X289189062Y-47538401D01*
X289198039Y-47538403D01*
X289206657Y-47535885D01*
X289213631Y-47534888D01*
X289220546Y-47533456D01*
X289229512Y-47532900D01*
X289279453Y-47514872D01*
X289286893Y-47512445D01*
X289329233Y-47500075D01*
X289329232Y-47500075D01*
X289337852Y-47497557D01*
X289345418Y-47492722D01*
X289351848Y-47489800D01*
X289358075Y-47486489D01*
X289366515Y-47483442D01*
X289389409Y-47466718D01*
X289409382Y-47452127D01*
X289415849Y-47447705D01*
X289453019Y-47423947D01*
X289460582Y-47419113D01*
X289494713Y-47380008D01*
X289500545Y-47373766D01*
X293227933Y-43646448D01*
X293236672Y-43638493D01*
X293239275Y-43636337D01*
X293246929Y-43631652D01*
X293254576Y-43623226D01*
X293286122Y-43588468D01*
X293290330Y-43584053D01*
X293301507Y-43572876D01*
X293301515Y-43572867D01*
X293304679Y-43569703D01*
X293308374Y-43564774D01*
X293315892Y-43555666D01*
X293338787Y-43530439D01*
X293344820Y-43523792D01*
X293348746Y-43515717D01*
X293350135Y-43512860D01*
X293362623Y-43492391D01*
X293364533Y-43489843D01*
X293364533Y-43489842D01*
X293369914Y-43482663D01*
X293385025Y-43442353D01*
X293389682Y-43431508D01*
X293408502Y-43392794D01*
X293410535Y-43380809D01*
X293416779Y-43357650D01*
X293417894Y-43354676D01*
X293421044Y-43346274D01*
X293424235Y-43303351D01*
X293425661Y-43291626D01*
X293427164Y-43282768D01*
X293432859Y-43249186D01*
X293431816Y-43240272D01*
X293431816Y-43240265D01*
X293431447Y-43237112D01*
X293430939Y-43213133D01*
X293431840Y-43201018D01*
X293429966Y-43192238D01*
X293428862Y-43187064D01*
X293434203Y-43116268D01*
X293476972Y-43059599D01*
X293543589Y-43035049D01*
X293568993Y-43037023D01*
X293569018Y-43036713D01*
X293577969Y-43037433D01*
X293586723Y-43039414D01*
X293606495Y-43038188D01*
X293632696Y-43036563D01*
X293643309Y-43036352D01*
X293680406Y-43037181D01*
X293680409Y-43037181D01*
X293689375Y-43037381D01*
X293698164Y-43035023D01*
X293723015Y-43030960D01*
X293732101Y-43030396D01*
X293775434Y-43014753D01*
X293785557Y-43011574D01*
X293830057Y-42999634D01*
X293837838Y-42994899D01*
X293860545Y-42984028D01*
X293869104Y-42980938D01*
X293906298Y-42953767D01*
X293915126Y-42947872D01*
X293946824Y-42928584D01*
X293954489Y-42923920D01*
X293994391Y-42880191D01*
X293998370Y-42876025D01*
X297726727Y-39147739D01*
X297733259Y-39141877D01*
X297739405Y-39138233D01*
X297782498Y-39092074D01*
X297785504Y-39088964D01*
X297802756Y-39071712D01*
X297805447Y-39068121D01*
X297808384Y-39064734D01*
X297808440Y-39064783D01*
X297812484Y-39059954D01*
X297819525Y-39052411D01*
X297838804Y-39031761D01*
X297842840Y-39023748D01*
X297842842Y-39023745D01*
X297846297Y-39016885D01*
X297858003Y-38997998D01*
X297862606Y-38991856D01*
X297867990Y-38984672D01*
X297881528Y-38948560D01*
X297886970Y-38936126D01*
X297904323Y-38901672D01*
X297905950Y-38892838D01*
X297907341Y-38885286D01*
X297913274Y-38863880D01*
X297915968Y-38856694D01*
X297915969Y-38856689D01*
X297919120Y-38848284D01*
X297921979Y-38809815D01*
X297923711Y-38796373D01*
X297930699Y-38758421D01*
X297928996Y-38741849D01*
X297928682Y-38719626D01*
X297929916Y-38703027D01*
X297927092Y-38689796D01*
X297932435Y-38619001D01*
X297975205Y-38562333D01*
X298041822Y-38537784D01*
X298066496Y-38539700D01*
X298066529Y-38539285D01*
X298075484Y-38540005D01*
X298084236Y-38541986D01*
X298126071Y-38539391D01*
X298138321Y-38539228D01*
X298167134Y-38540249D01*
X298171243Y-38540395D01*
X298180217Y-38540713D01*
X298193098Y-38537436D01*
X298216359Y-38533790D01*
X298220650Y-38533524D01*
X298220651Y-38533524D01*
X298229614Y-38532968D01*
X298238060Y-38529919D01*
X298269035Y-38518737D01*
X298280759Y-38515139D01*
X298301599Y-38509838D01*
X298321379Y-38504807D01*
X298329111Y-38500240D01*
X298329115Y-38500238D01*
X298332825Y-38498047D01*
X298354119Y-38488022D01*
X298358174Y-38486558D01*
X298358175Y-38486558D01*
X298366617Y-38483510D01*
X298373863Y-38478217D01*
X298373866Y-38478215D01*
X298400462Y-38458786D01*
X298410705Y-38452042D01*
X298419924Y-38446596D01*
X298446791Y-38430726D01*
X298452929Y-38424174D01*
X298490352Y-38384225D01*
X298493212Y-38381270D01*
X302929749Y-33944817D01*
X302933926Y-33941106D01*
X302938339Y-33938551D01*
X302984511Y-33890106D01*
X302986626Y-33887940D01*
X303002671Y-33871896D01*
X303005843Y-33868724D01*
X303008533Y-33865135D01*
X303008825Y-33864798D01*
X303012817Y-33860408D01*
X303032638Y-33839612D01*
X303032641Y-33839608D01*
X303038833Y-33833111D01*
X303042953Y-33825137D01*
X303042956Y-33825133D01*
X303047993Y-33815384D01*
X303059106Y-33797658D01*
X303065696Y-33788865D01*
X303071078Y-33781684D01*
X303083463Y-33748647D01*
X303089504Y-33735039D01*
X303101571Y-33711683D01*
X303105693Y-33703706D01*
X303109510Y-33684115D01*
X303115201Y-33663987D01*
X303119056Y-33653704D01*
X303119056Y-33653702D01*
X303122208Y-33645295D01*
X303123367Y-33629709D01*
X303124822Y-33610125D01*
X303126800Y-33595370D01*
X303131830Y-33569552D01*
X303131830Y-33569548D01*
X303133547Y-33560736D01*
X303131712Y-33540861D01*
X303131525Y-33519948D01*
X303132339Y-33508989D01*
X303132339Y-33508988D01*
X303133004Y-33500039D01*
X303125639Y-33465537D01*
X303123397Y-33450818D01*
X303120979Y-33424633D01*
X303120154Y-33415695D01*
X303112816Y-33397138D01*
X303106764Y-33377110D01*
X303104470Y-33366365D01*
X303102597Y-33357590D01*
X303085848Y-33326548D01*
X303079566Y-33313054D01*
X303069892Y-33288590D01*
X303069890Y-33288586D01*
X303066591Y-33280244D01*
X303054337Y-33264489D01*
X303042913Y-33246972D01*
X303033432Y-33229401D01*
X303008635Y-33204299D01*
X302998827Y-33193119D01*
X302980158Y-33169116D01*
X302980152Y-33169110D01*
X302977165Y-33165269D01*
X302968025Y-33156665D01*
X302965117Y-33154672D01*
X302963605Y-33153392D01*
X302069867Y-32357982D01*
X301510555Y-31891040D01*
X301147962Y-31588329D01*
X301147952Y-31588321D01*
X301147231Y-31587719D01*
X300200705Y-30847009D01*
X299632727Y-30430801D01*
X299232039Y-30137182D01*
X299232032Y-30137177D01*
X299231235Y-30136593D01*
X298239791Y-29457181D01*
X298238309Y-29456233D01*
X297228170Y-28809968D01*
X297228157Y-28809960D01*
X297227363Y-28809452D01*
X296194964Y-28194053D01*
X295379387Y-27742214D01*
X295144486Y-27612076D01*
X295144465Y-27612065D01*
X295143626Y-27611600D01*
X294074400Y-27062676D01*
X294073517Y-27062258D01*
X294073500Y-27062249D01*
X293110346Y-26605659D01*
X292988355Y-26547828D01*
X291897455Y-26072314D01*
X291887478Y-26067965D01*
X291887469Y-26067961D01*
X291886576Y-26067572D01*
X290770165Y-25622388D01*
X290121497Y-25387206D01*
X290079860Y-25372110D01*
X310336787Y-25372110D01*
X310336976Y-25375903D01*
X310338175Y-25400000D01*
X310349234Y-25622131D01*
X310352725Y-25692262D01*
X310353366Y-25695993D01*
X310353367Y-25696001D01*
X310366989Y-25775271D01*
X310407010Y-26008180D01*
X310408098Y-26011819D01*
X310408099Y-26011822D01*
X310430171Y-26085624D01*
X310498855Y-26315289D01*
X310626930Y-26609140D01*
X310789379Y-26885475D01*
X310983850Y-27140294D01*
X311207526Y-27369903D01*
X311457166Y-27570978D01*
X311729155Y-27740605D01*
X312019552Y-27876329D01*
X312324151Y-27976181D01*
X312638541Y-28038717D01*
X312642313Y-28039004D01*
X312642321Y-28039005D01*
X312954389Y-28062743D01*
X312954394Y-28062743D01*
X312958166Y-28063030D01*
X313278397Y-28048769D01*
X313282135Y-28048147D01*
X313282143Y-28048146D01*
X313590853Y-27996762D01*
X313590856Y-27996761D01*
X313594595Y-27996139D01*
X313902181Y-27905903D01*
X313905648Y-27904413D01*
X313905652Y-27904412D01*
X314193209Y-27780868D01*
X314196698Y-27779369D01*
X314199975Y-27777465D01*
X314199982Y-27777462D01*
X314360814Y-27684042D01*
X314473880Y-27618368D01*
X314476906Y-27616084D01*
X314476913Y-27616079D01*
X314726686Y-27427519D01*
X314729713Y-27425234D01*
X314960491Y-27202764D01*
X315013803Y-27137281D01*
X315160479Y-26957117D01*
X315160480Y-26957116D01*
X315162870Y-26954180D01*
X315194648Y-26903816D01*
X315331892Y-26686296D01*
X315331894Y-26686293D01*
X315333919Y-26683083D01*
X315471161Y-26393400D01*
X315480687Y-26364849D01*
X315571410Y-26092915D01*
X315572607Y-26089328D01*
X315636788Y-25775271D01*
X315662775Y-25455777D01*
X315663359Y-25400000D01*
X315661907Y-25375903D01*
X315644297Y-25083810D01*
X315644297Y-25083806D01*
X315644069Y-25080032D01*
X315609865Y-24892749D01*
X315587159Y-24768422D01*
X315587158Y-24768418D01*
X315586479Y-24764700D01*
X315491423Y-24458570D01*
X315479749Y-24432532D01*
X315375928Y-24200980D01*
X315360278Y-24166076D01*
X315194944Y-23891457D01*
X315192617Y-23888473D01*
X315192612Y-23888466D01*
X315000151Y-23641684D01*
X315000149Y-23641681D01*
X314997815Y-23638689D01*
X314771747Y-23411434D01*
X314520015Y-23212985D01*
X314246265Y-23046215D01*
X314129558Y-22993151D01*
X313957915Y-22915109D01*
X313957907Y-22915106D01*
X313954463Y-22913540D01*
X313648834Y-22816883D01*
X313333807Y-22757642D01*
X313013945Y-22736678D01*
X313010165Y-22736886D01*
X313010164Y-22736886D01*
X312918163Y-22741949D01*
X312693881Y-22754292D01*
X312690154Y-22754953D01*
X312690150Y-22754953D01*
X312440887Y-22799129D01*
X312378251Y-22810230D01*
X312374626Y-22811335D01*
X312374621Y-22811336D01*
X312175460Y-22872036D01*
X312071628Y-22903682D01*
X312068164Y-22905213D01*
X312068157Y-22905216D01*
X311887281Y-22985180D01*
X311778452Y-23033293D01*
X311775198Y-23035229D01*
X311775192Y-23035232D01*
X311532605Y-23179557D01*
X311502970Y-23197188D01*
X311499969Y-23199503D01*
X311499965Y-23199506D01*
X311427271Y-23255589D01*
X311249174Y-23392990D01*
X311246473Y-23395649D01*
X311246466Y-23395655D01*
X311119174Y-23520964D01*
X311020739Y-23617865D01*
X311018375Y-23620832D01*
X311018372Y-23620835D01*
X310892568Y-23778710D01*
X310820974Y-23868555D01*
X310652773Y-24141428D01*
X310518572Y-24432532D01*
X310517413Y-24436133D01*
X310517410Y-24436139D01*
X310447003Y-24654775D01*
X310420315Y-24737650D01*
X310419596Y-24741366D01*
X310419594Y-24741374D01*
X310360145Y-25048643D01*
X310360144Y-25048652D01*
X310359426Y-25052362D01*
X310359159Y-25056138D01*
X310359158Y-25056143D01*
X310348048Y-25213056D01*
X310336787Y-25372110D01*
X290079860Y-25372110D01*
X289641165Y-25213056D01*
X289641160Y-25213054D01*
X289640238Y-25212720D01*
X288662272Y-24892749D01*
X288498922Y-24839304D01*
X288498911Y-24839301D01*
X288497925Y-24838978D01*
X287801530Y-24635267D01*
X287345359Y-24501827D01*
X287345348Y-24501824D01*
X287344367Y-24501537D01*
X287342677Y-24501100D01*
X286688792Y-24332070D01*
X286180718Y-24200732D01*
X285993050Y-24158501D01*
X285009088Y-23937079D01*
X285009068Y-23937075D01*
X285008140Y-23936866D01*
X285007209Y-23936687D01*
X285007184Y-23936682D01*
X284184560Y-23778710D01*
X283827807Y-23710201D01*
X282640899Y-23520964D01*
X281448601Y-23369345D01*
X281447619Y-23369252D01*
X281447605Y-23369250D01*
X280253095Y-23255589D01*
X280253088Y-23255588D01*
X280252106Y-23255495D01*
X279052609Y-23179528D01*
X277851311Y-23141520D01*
X277250974Y-23141515D01*
X276650393Y-23141509D01*
X276649411Y-23141509D01*
X276648433Y-23141540D01*
X276648428Y-23141540D01*
X276428517Y-23148494D01*
X275448112Y-23179494D01*
X274248614Y-23255438D01*
X274247658Y-23255529D01*
X274247632Y-23255531D01*
X273053092Y-23369173D01*
X273053077Y-23369175D01*
X273052117Y-23369266D01*
X272865528Y-23392990D01*
X271860814Y-23520735D01*
X271860807Y-23520736D01*
X271859816Y-23520862D01*
X270929536Y-23669164D01*
X270673837Y-23709927D01*
X270673830Y-23709928D01*
X270672903Y-23710076D01*
X270672012Y-23710247D01*
X270671984Y-23710252D01*
X269493486Y-23936541D01*
X269493465Y-23936545D01*
X269492566Y-23936718D01*
X268319984Y-24200563D01*
X268319067Y-24200800D01*
X268319063Y-24200801D01*
X267157276Y-24501100D01*
X267157263Y-24501103D01*
X267156329Y-24501345D01*
X266002765Y-24838765D01*
X264860444Y-25212484D01*
X263730510Y-25622131D01*
X262614090Y-26067294D01*
X262613200Y-26067682D01*
X262613195Y-26067684D01*
X261690808Y-26469724D01*
X261512302Y-26547529D01*
X261375422Y-26612415D01*
X260427143Y-27061931D01*
X260427130Y-27061938D01*
X260426247Y-27062356D01*
X260425351Y-27062816D01*
X259357895Y-27610806D01*
X259357862Y-27610823D01*
X259357010Y-27611261D01*
X258305661Y-28193693D01*
X257273251Y-28809072D01*
X256260811Y-29456782D01*
X256259972Y-29457357D01*
X255512640Y-29969465D01*
X255269354Y-30136176D01*
X254299870Y-30846573D01*
X253353330Y-31587265D01*
X253352595Y-31587879D01*
X253352571Y-31587898D01*
X252431438Y-32356877D01*
X252430679Y-32357511D01*
X252429934Y-32358174D01*
X251547315Y-33143658D01*
X251543961Y-33146428D01*
X251541854Y-33147798D01*
X251532507Y-33156177D01*
X251529423Y-33159948D01*
X251529422Y-33159949D01*
X251507708Y-33186500D01*
X251498720Y-33196372D01*
X251470863Y-33223890D01*
X251466505Y-33231737D01*
X251463072Y-33237917D01*
X251450456Y-33256506D01*
X251445981Y-33261977D01*
X251445979Y-33261980D01*
X251440295Y-33268930D01*
X251436789Y-33277199D01*
X251425004Y-33304995D01*
X251419150Y-33316991D01*
X251400135Y-33351223D01*
X251398155Y-33359975D01*
X251396593Y-33366877D01*
X251389704Y-33388250D01*
X251386943Y-33394761D01*
X251386941Y-33394767D01*
X251383437Y-33403032D01*
X251378884Y-33441926D01*
X251376633Y-33455078D01*
X251367987Y-33493289D01*
X251368543Y-33502248D01*
X251368981Y-33509310D01*
X251368368Y-33531761D01*
X251366502Y-33547701D01*
X508500Y-33547701D01*
X508500Y-25372110D01*
X238836787Y-25372110D01*
X238836976Y-25375903D01*
X238838175Y-25400000D01*
X238849234Y-25622131D01*
X238852725Y-25692262D01*
X238853366Y-25695993D01*
X238853367Y-25696001D01*
X238866989Y-25775271D01*
X238907010Y-26008180D01*
X238908098Y-26011819D01*
X238908099Y-26011822D01*
X238930171Y-26085624D01*
X238998855Y-26315289D01*
X239126930Y-26609140D01*
X239289379Y-26885475D01*
X239483850Y-27140294D01*
X239707526Y-27369903D01*
X239957166Y-27570978D01*
X240229155Y-27740605D01*
X240519552Y-27876329D01*
X240824151Y-27976181D01*
X241138541Y-28038717D01*
X241142313Y-28039004D01*
X241142321Y-28039005D01*
X241454389Y-28062743D01*
X241454394Y-28062743D01*
X241458166Y-28063030D01*
X241778397Y-28048769D01*
X241782135Y-28048147D01*
X241782143Y-28048146D01*
X242090853Y-27996762D01*
X242090856Y-27996761D01*
X242094595Y-27996139D01*
X242402181Y-27905903D01*
X242405648Y-27904413D01*
X242405652Y-27904412D01*
X242693209Y-27780868D01*
X242696698Y-27779369D01*
X242699975Y-27777465D01*
X242699982Y-27777462D01*
X242860814Y-27684042D01*
X242973880Y-27618368D01*
X242976906Y-27616084D01*
X242976913Y-27616079D01*
X243226686Y-27427519D01*
X243229713Y-27425234D01*
X243460491Y-27202764D01*
X243513803Y-27137281D01*
X243660479Y-26957117D01*
X243660480Y-26957116D01*
X243662870Y-26954180D01*
X243694648Y-26903816D01*
X243831892Y-26686296D01*
X243831894Y-26686293D01*
X243833919Y-26683083D01*
X243971161Y-26393400D01*
X243980687Y-26364849D01*
X244071410Y-26092915D01*
X244072607Y-26089328D01*
X244136788Y-25775271D01*
X244162775Y-25455777D01*
X244163359Y-25400000D01*
X244161907Y-25375903D01*
X244144297Y-25083810D01*
X244144297Y-25083806D01*
X244144069Y-25080032D01*
X244109865Y-24892749D01*
X244087159Y-24768422D01*
X244087158Y-24768418D01*
X244086479Y-24764700D01*
X243991423Y-24458570D01*
X243979749Y-24432532D01*
X243875928Y-24200980D01*
X243860278Y-24166076D01*
X243694944Y-23891457D01*
X243692617Y-23888473D01*
X243692612Y-23888466D01*
X243500151Y-23641684D01*
X243500149Y-23641681D01*
X243497815Y-23638689D01*
X243271747Y-23411434D01*
X243020015Y-23212985D01*
X242746265Y-23046215D01*
X242629558Y-22993151D01*
X242457915Y-22915109D01*
X242457907Y-22915106D01*
X242454463Y-22913540D01*
X242148834Y-22816883D01*
X241833807Y-22757642D01*
X241513945Y-22736678D01*
X241510165Y-22736886D01*
X241510164Y-22736886D01*
X241418163Y-22741949D01*
X241193881Y-22754292D01*
X241190154Y-22754953D01*
X241190150Y-22754953D01*
X240940887Y-22799129D01*
X240878251Y-22810230D01*
X240874626Y-22811335D01*
X240874621Y-22811336D01*
X240675460Y-22872036D01*
X240571628Y-22903682D01*
X240568164Y-22905213D01*
X240568157Y-22905216D01*
X240387281Y-22985180D01*
X240278452Y-23033293D01*
X240275198Y-23035229D01*
X240275192Y-23035232D01*
X240032605Y-23179557D01*
X240002970Y-23197188D01*
X239999969Y-23199503D01*
X239999965Y-23199506D01*
X239927271Y-23255589D01*
X239749174Y-23392990D01*
X239746473Y-23395649D01*
X239746466Y-23395655D01*
X239619174Y-23520964D01*
X239520739Y-23617865D01*
X239518375Y-23620832D01*
X239518372Y-23620835D01*
X239392568Y-23778710D01*
X239320974Y-23868555D01*
X239152773Y-24141428D01*
X239018572Y-24432532D01*
X239017413Y-24436133D01*
X239017410Y-24436139D01*
X238947003Y-24654775D01*
X238920315Y-24737650D01*
X238919596Y-24741366D01*
X238919594Y-24741374D01*
X238860145Y-25048643D01*
X238860144Y-25048652D01*
X238859426Y-25052362D01*
X238859159Y-25056138D01*
X238859158Y-25056143D01*
X238848048Y-25213056D01*
X238836787Y-25372110D01*
X508500Y-25372110D01*
X508500Y-634500D01*
X528502Y-566379D01*
X582158Y-519886D01*
X634500Y-508500D01*
X402365500Y-508500D01*
X402433621Y-528502D01*
G37*
%TD.AperFunction*%
M02*
