%TF.GenerationSoftware,KiCad,Pcbnew,(6.0.5)*%
%TF.CreationDate,2022-12-19T16:28:52-07:00*%
%TF.ProjectId,Front_panel,46726f6e-745f-4706-916e-656c2e6b6963,rev?*%
%TF.SameCoordinates,Original*%
%TF.FileFunction,Soldermask,Top*%
%TF.FilePolarity,Negative*%
%FSLAX46Y46*%
G04 Gerber Fmt 4.6, Leading zero omitted, Abs format (unit mm)*
G04 Created by KiCad (PCBNEW (6.0.5)) date 2022-12-19 16:28:52*
%MOMM*%
%LPD*%
G01*
G04 APERTURE LIST*
G04 APERTURE END LIST*
G36*
X2196121Y-20002D02*
G01*
X2242614Y-73658D01*
X2254000Y-126000D01*
X2254000Y-1874000D01*
X2233998Y-1942121D01*
X2180342Y-1988614D01*
X2128000Y-2000000D01*
X2018115Y-2000000D01*
X2002876Y-2004475D01*
X2001671Y-2005865D01*
X2000000Y-2013548D01*
X2000000Y-120481885D01*
X2004475Y-120497124D01*
X2005865Y-120498329D01*
X2013548Y-120500000D01*
X2128000Y-120500000D01*
X2196121Y-120520002D01*
X2242614Y-120573658D01*
X2254000Y-120626000D01*
X2254000Y-122374000D01*
X2233998Y-122442121D01*
X2180342Y-122488614D01*
X2128000Y-122500000D01*
X126000Y-122500000D01*
X57879Y-122479998D01*
X11386Y-122426342D01*
X0Y-122374000D01*
X0Y-126000D01*
X20002Y-57879D01*
X73658Y-11386D01*
X126000Y0D01*
X2128000Y0D01*
X2196121Y-20002D01*
G37*
G36*
X1942121Y-120266002D02*
G01*
X1988614Y-120319658D01*
X2000000Y-120372000D01*
X2000000Y-120481885D01*
X2004475Y-120497124D01*
X2005865Y-120498329D01*
X2013548Y-120500000D01*
X400981885Y-120500000D01*
X400997124Y-120495525D01*
X400998329Y-120494135D01*
X401000000Y-120486452D01*
X401000000Y-120372000D01*
X401020002Y-120303879D01*
X401073658Y-120257386D01*
X401126000Y-120246000D01*
X402874000Y-120246000D01*
X402942121Y-120266002D01*
X402988614Y-120319658D01*
X403000000Y-120372000D01*
X403000000Y-122374000D01*
X402979998Y-122442121D01*
X402926342Y-122488614D01*
X402874000Y-122500000D01*
X126000Y-122500000D01*
X57879Y-122479998D01*
X11386Y-122426342D01*
X0Y-122374000D01*
X0Y-120372000D01*
X20002Y-120303879D01*
X73658Y-120257386D01*
X126000Y-120246000D01*
X1874000Y-120246000D01*
X1942121Y-120266002D01*
G37*
G36*
X402942121Y-20002D02*
G01*
X402988614Y-73658D01*
X403000000Y-126000D01*
X403000000Y-2128000D01*
X402979998Y-2196121D01*
X402926342Y-2242614D01*
X402874000Y-2254000D01*
X401126000Y-2254000D01*
X401057879Y-2233998D01*
X401011386Y-2180342D01*
X401000000Y-2128000D01*
X401000000Y-2018115D01*
X400995525Y-2002876D01*
X400994135Y-2001671D01*
X400986452Y-2000000D01*
X2018115Y-2000000D01*
X2002876Y-2004475D01*
X2001671Y-2005865D01*
X2000000Y-2013548D01*
X2000000Y-2128000D01*
X1979998Y-2196121D01*
X1926342Y-2242614D01*
X1874000Y-2254000D01*
X126000Y-2254000D01*
X57879Y-2233998D01*
X11386Y-2180342D01*
X0Y-2128000D01*
X0Y-126000D01*
X20002Y-57879D01*
X73658Y-11386D01*
X126000Y0D01*
X402874000Y0D01*
X402942121Y-20002D01*
G37*
G36*
X402942121Y-20002D02*
G01*
X402988614Y-73658D01*
X403000000Y-126000D01*
X403000000Y-122374000D01*
X402979998Y-122442121D01*
X402926342Y-122488614D01*
X402874000Y-122500000D01*
X401126000Y-122500000D01*
X401057879Y-122479998D01*
X401011386Y-122426342D01*
X401000000Y-122374000D01*
X401000000Y-2018115D01*
X400995525Y-2002876D01*
X400994135Y-2001671D01*
X400986452Y-2000000D01*
X400872000Y-2000000D01*
X400803879Y-1979998D01*
X400757386Y-1926342D01*
X400746000Y-1874000D01*
X400746000Y-126000D01*
X400766002Y-57879D01*
X400819658Y-11386D01*
X400872000Y0D01*
X402874000Y0D01*
X402942121Y-20002D01*
G37*
M02*
