%TF.GenerationSoftware,KiCad,Pcbnew,(6.0.5)*%
%TF.CreationDate,2022-12-19T16:28:52-07:00*%
%TF.ProjectId,Front_panel,46726f6e-745f-4706-916e-656c2e6b6963,rev?*%
%TF.SameCoordinates,Original*%
%TF.FileFunction,Legend,Bot*%
%TF.FilePolarity,Positive*%
%FSLAX46Y46*%
G04 Gerber Fmt 4.6, Leading zero omitted, Abs format (unit mm)*
G04 Created by KiCad (PCBNEW (6.0.5)) date 2022-12-19 16:28:52*
%MOMM*%
%LPD*%
G01*
G04 APERTURE LIST*
%ADD10C,0.150000*%
G04 APERTURE END LIST*
D10*
X145904761Y-65342380D02*
X146238095Y-64866190D01*
X146476190Y-65342380D02*
X146476190Y-64342380D01*
X146095238Y-64342380D01*
X146000000Y-64390000D01*
X145952380Y-64437619D01*
X145904761Y-64532857D01*
X145904761Y-64675714D01*
X145952380Y-64770952D01*
X146000000Y-64818571D01*
X146095238Y-64866190D01*
X146476190Y-64866190D01*
X145571428Y-64675714D02*
X145333333Y-65342380D01*
X145095238Y-64675714D02*
X145333333Y-65342380D01*
X145428571Y-65580476D01*
X145476190Y-65628095D01*
X145571428Y-65675714D01*
X144285714Y-65342380D02*
X144285714Y-64818571D01*
X144333333Y-64723333D01*
X144428571Y-64675714D01*
X144619047Y-64675714D01*
X144714285Y-64723333D01*
X144285714Y-65294761D02*
X144380952Y-65342380D01*
X144619047Y-65342380D01*
X144714285Y-65294761D01*
X144761904Y-65199523D01*
X144761904Y-65104285D01*
X144714285Y-65009047D01*
X144619047Y-64961428D01*
X144380952Y-64961428D01*
X144285714Y-64913809D01*
X143809523Y-64675714D02*
X143809523Y-65342380D01*
X143809523Y-64770952D02*
X143761904Y-64723333D01*
X143666666Y-64675714D01*
X143523809Y-64675714D01*
X143428571Y-64723333D01*
X143380952Y-64818571D01*
X143380952Y-65342380D01*
X142142857Y-65342380D02*
X142142857Y-64342380D01*
X141809523Y-65056666D01*
X141476190Y-64342380D01*
X141476190Y-65342380D01*
X140857142Y-65342380D02*
X140952380Y-65294761D01*
X141000000Y-65247142D01*
X141047619Y-65151904D01*
X141047619Y-64866190D01*
X141000000Y-64770952D01*
X140952380Y-64723333D01*
X140857142Y-64675714D01*
X140714285Y-64675714D01*
X140619047Y-64723333D01*
X140571428Y-64770952D01*
X140523809Y-64866190D01*
X140523809Y-65151904D01*
X140571428Y-65247142D01*
X140619047Y-65294761D01*
X140714285Y-65342380D01*
X140857142Y-65342380D01*
X140095238Y-65342380D02*
X140095238Y-64675714D01*
X140095238Y-64866190D02*
X140047619Y-64770952D01*
X140000000Y-64723333D01*
X139904761Y-64675714D01*
X139809523Y-64675714D01*
X139047619Y-64675714D02*
X139047619Y-65485238D01*
X139095238Y-65580476D01*
X139142857Y-65628095D01*
X139238095Y-65675714D01*
X139380952Y-65675714D01*
X139476190Y-65628095D01*
X139047619Y-65294761D02*
X139142857Y-65342380D01*
X139333333Y-65342380D01*
X139428571Y-65294761D01*
X139476190Y-65247142D01*
X139523809Y-65151904D01*
X139523809Y-64866190D01*
X139476190Y-64770952D01*
X139428571Y-64723333D01*
X139333333Y-64675714D01*
X139142857Y-64675714D01*
X139047619Y-64723333D01*
X138190476Y-65294761D02*
X138285714Y-65342380D01*
X138476190Y-65342380D01*
X138571428Y-65294761D01*
X138619047Y-65199523D01*
X138619047Y-64818571D01*
X138571428Y-64723333D01*
X138476190Y-64675714D01*
X138285714Y-64675714D01*
X138190476Y-64723333D01*
X138142857Y-64818571D01*
X138142857Y-64913809D01*
X138619047Y-65009047D01*
X137714285Y-64675714D02*
X137714285Y-65342380D01*
X137714285Y-64770952D02*
X137666666Y-64723333D01*
X137571428Y-64675714D01*
X137428571Y-64675714D01*
X137333333Y-64723333D01*
X137285714Y-64818571D01*
X137285714Y-65342380D01*
X136857142Y-65294761D02*
X136761904Y-65342380D01*
X136571428Y-65342380D01*
X136476190Y-65294761D01*
X136428571Y-65199523D01*
X136428571Y-65151904D01*
X136476190Y-65056666D01*
X136571428Y-65009047D01*
X136714285Y-65009047D01*
X136809523Y-64961428D01*
X136857142Y-64866190D01*
X136857142Y-64818571D01*
X136809523Y-64723333D01*
X136714285Y-64675714D01*
X136571428Y-64675714D01*
X136476190Y-64723333D01*
X136142857Y-64675714D02*
X135761904Y-64675714D01*
X136000000Y-64342380D02*
X136000000Y-65199523D01*
X135952380Y-65294761D01*
X135857142Y-65342380D01*
X135761904Y-65342380D01*
X135047619Y-65294761D02*
X135142857Y-65342380D01*
X135333333Y-65342380D01*
X135428571Y-65294761D01*
X135476190Y-65199523D01*
X135476190Y-64818571D01*
X135428571Y-64723333D01*
X135333333Y-64675714D01*
X135142857Y-64675714D01*
X135047619Y-64723333D01*
X135000000Y-64818571D01*
X135000000Y-64913809D01*
X135476190Y-65009047D01*
X134571428Y-65342380D02*
X134571428Y-64675714D01*
X134571428Y-64866190D02*
X134523809Y-64770952D01*
X134476190Y-64723333D01*
X134380952Y-64675714D01*
X134285714Y-64675714D01*
X133952380Y-64675714D02*
X133952380Y-65342380D01*
X133952380Y-64770952D02*
X133904761Y-64723333D01*
X133809523Y-64675714D01*
X133666666Y-64675714D01*
X133571428Y-64723333D01*
X133523809Y-64818571D01*
X133523809Y-65342380D01*
X143833333Y-66428571D02*
X144166666Y-66428571D01*
X144166666Y-66952380D02*
X144166666Y-65952380D01*
X143690476Y-65952380D01*
X143309523Y-66952380D02*
X143309523Y-66285714D01*
X143309523Y-66476190D02*
X143261904Y-66380952D01*
X143214285Y-66333333D01*
X143119047Y-66285714D01*
X143023809Y-66285714D01*
X142547619Y-66952380D02*
X142642857Y-66904761D01*
X142690476Y-66857142D01*
X142738095Y-66761904D01*
X142738095Y-66476190D01*
X142690476Y-66380952D01*
X142642857Y-66333333D01*
X142547619Y-66285714D01*
X142404761Y-66285714D01*
X142309523Y-66333333D01*
X142261904Y-66380952D01*
X142214285Y-66476190D01*
X142214285Y-66761904D01*
X142261904Y-66857142D01*
X142309523Y-66904761D01*
X142404761Y-66952380D01*
X142547619Y-66952380D01*
X141785714Y-66285714D02*
X141785714Y-66952380D01*
X141785714Y-66380952D02*
X141738095Y-66333333D01*
X141642857Y-66285714D01*
X141500000Y-66285714D01*
X141404761Y-66333333D01*
X141357142Y-66428571D01*
X141357142Y-66952380D01*
X141023809Y-66285714D02*
X140642857Y-66285714D01*
X140880952Y-65952380D02*
X140880952Y-66809523D01*
X140833333Y-66904761D01*
X140738095Y-66952380D01*
X140642857Y-66952380D01*
X139547619Y-66952380D02*
X139547619Y-65952380D01*
X139166666Y-65952380D01*
X139071428Y-66000000D01*
X139023809Y-66047619D01*
X138976190Y-66142857D01*
X138976190Y-66285714D01*
X139023809Y-66380952D01*
X139071428Y-66428571D01*
X139166666Y-66476190D01*
X139547619Y-66476190D01*
X138119047Y-66952380D02*
X138119047Y-66428571D01*
X138166666Y-66333333D01*
X138261904Y-66285714D01*
X138452380Y-66285714D01*
X138547619Y-66333333D01*
X138119047Y-66904761D02*
X138214285Y-66952380D01*
X138452380Y-66952380D01*
X138547619Y-66904761D01*
X138595238Y-66809523D01*
X138595238Y-66714285D01*
X138547619Y-66619047D01*
X138452380Y-66571428D01*
X138214285Y-66571428D01*
X138119047Y-66523809D01*
X137642857Y-66285714D02*
X137642857Y-66952380D01*
X137642857Y-66380952D02*
X137595238Y-66333333D01*
X137500000Y-66285714D01*
X137357142Y-66285714D01*
X137261904Y-66333333D01*
X137214285Y-66428571D01*
X137214285Y-66952380D01*
X136357142Y-66904761D02*
X136452380Y-66952380D01*
X136642857Y-66952380D01*
X136738095Y-66904761D01*
X136785714Y-66809523D01*
X136785714Y-66428571D01*
X136738095Y-66333333D01*
X136642857Y-66285714D01*
X136452380Y-66285714D01*
X136357142Y-66333333D01*
X136309523Y-66428571D01*
X136309523Y-66523809D01*
X136785714Y-66619047D01*
X135738095Y-66952380D02*
X135833333Y-66904761D01*
X135880952Y-66809523D01*
X135880952Y-65952380D01*
X143142857Y-68562380D02*
X143714285Y-68562380D01*
X143428571Y-68562380D02*
X143428571Y-67562380D01*
X143523809Y-67705238D01*
X143619047Y-67800476D01*
X143714285Y-67848095D01*
X142761904Y-67657619D02*
X142714285Y-67610000D01*
X142619047Y-67562380D01*
X142380952Y-67562380D01*
X142285714Y-67610000D01*
X142238095Y-67657619D01*
X142190476Y-67752857D01*
X142190476Y-67848095D01*
X142238095Y-67990952D01*
X142809523Y-68562380D01*
X142190476Y-68562380D01*
X141047619Y-67514761D02*
X141904761Y-68800476D01*
X140190476Y-68562380D02*
X140761904Y-68562380D01*
X140476190Y-68562380D02*
X140476190Y-67562380D01*
X140571428Y-67705238D01*
X140666666Y-67800476D01*
X140761904Y-67848095D01*
X139714285Y-68562380D02*
X139523809Y-68562380D01*
X139428571Y-68514761D01*
X139380952Y-68467142D01*
X139285714Y-68324285D01*
X139238095Y-68133809D01*
X139238095Y-67752857D01*
X139285714Y-67657619D01*
X139333333Y-67610000D01*
X139428571Y-67562380D01*
X139619047Y-67562380D01*
X139714285Y-67610000D01*
X139761904Y-67657619D01*
X139809523Y-67752857D01*
X139809523Y-67990952D01*
X139761904Y-68086190D01*
X139714285Y-68133809D01*
X139619047Y-68181428D01*
X139428571Y-68181428D01*
X139333333Y-68133809D01*
X139285714Y-68086190D01*
X139238095Y-67990952D01*
X138095238Y-67514761D02*
X138952380Y-68800476D01*
X137809523Y-67657619D02*
X137761904Y-67610000D01*
X137666666Y-67562380D01*
X137428571Y-67562380D01*
X137333333Y-67610000D01*
X137285714Y-67657619D01*
X137238095Y-67752857D01*
X137238095Y-67848095D01*
X137285714Y-67990952D01*
X137857142Y-68562380D01*
X137238095Y-68562380D01*
X136857142Y-67657619D02*
X136809523Y-67610000D01*
X136714285Y-67562380D01*
X136476190Y-67562380D01*
X136380952Y-67610000D01*
X136333333Y-67657619D01*
X136285714Y-67752857D01*
X136285714Y-67848095D01*
X136333333Y-67990952D01*
X136904761Y-68562380D01*
X136285714Y-68562380D01*
M02*
