%TF.GenerationSoftware,KiCad,Pcbnew,(6.0.5)*%
%TF.CreationDate,2022-12-19T16:28:52-07:00*%
%TF.ProjectId,Front_panel,46726f6e-745f-4706-916e-656c2e6b6963,rev?*%
%TF.SameCoordinates,Original*%
%TF.FileFunction,Profile,NP*%
%FSLAX46Y46*%
G04 Gerber Fmt 4.6, Leading zero omitted, Abs format (unit mm)*
G04 Created by KiCad (PCBNEW (6.0.5)) date 2022-12-19 16:28:52*
%MOMM*%
%LPD*%
G01*
G04 APERTURE LIST*
%TA.AperFunction,Profile*%
%ADD10C,0.250000*%
%TD*%
G04 APERTURE END LIST*
D10*
X266084558Y-74560273D02*
G75*
G03*
X288415187Y-74560485I11165442J13410273D01*
G01*
X292919300Y-43235954D02*
G75*
G03*
X261581040Y-43235657I-15669300J-17914046D01*
G01*
X403000000Y0D02*
X403000000Y-122500000D01*
X299662037Y-81317377D02*
G75*
G03*
X299662420Y-40983048I-22412037J20167377D01*
G01*
X295164343Y-45481040D02*
X291370382Y-49274929D01*
X295872660Y-77527928D02*
G75*
G03*
X295872971Y-44772425I-18622660J16377928D01*
G01*
X265374661Y-75270156D02*
G75*
G03*
X289125071Y-75270382I11875339J14120156D01*
G01*
X300370088Y-82025441D02*
X304865025Y-86520464D01*
X263129618Y-73025071D02*
X259335657Y-76818960D01*
X302620464Y-33534975D02*
G75*
G03*
X251880061Y-33534494I-25370464J-27615025D01*
G01*
X291370156Y-73025339D02*
X295164046Y-76819300D01*
X275004936Y-61149979D02*
X263839727Y-49984558D01*
X254129912Y-40274559D02*
G75*
G03*
X254129516Y-82025002I23120088J-20875441D01*
G01*
X315150000Y-96900000D02*
G75*
G03*
X315150000Y-96900000I-2150000J0D01*
G01*
X300370088Y-82025441D02*
G75*
G03*
X300370484Y-40274998I-23120088J20875441D01*
G01*
X293627928Y-42527340D02*
G75*
G03*
X260872425Y-42527029I-16377928J-18622660D01*
G01*
X258627340Y-44772072D02*
X254837963Y-40982623D01*
X261581040Y-43235657D02*
X265374929Y-47029618D01*
X302619939Y-88765506D02*
X298125002Y-84270484D01*
X275004936Y-61149979D02*
X263839515Y-72315187D01*
X243650000Y-96900000D02*
G75*
G03*
X243650000Y-96900000I-2150000J0D01*
G01*
X260872072Y-79772660D02*
X257082623Y-83562037D01*
X259335954Y-45480700D02*
G75*
G03*
X259335657Y-76818960I17914046J-15669300D01*
G01*
X289125339Y-47029844D02*
G75*
G03*
X265374929Y-47029618I-11875339J-14120156D01*
G01*
X315150000Y-25400000D02*
G75*
G03*
X315150000Y-25400000I-2150000J0D01*
G01*
X292918960Y-79064343D02*
X289125071Y-75270382D01*
X257083048Y-38737580D02*
X260872425Y-42527029D01*
X297417377Y-38737963D02*
G75*
G03*
X257083048Y-38737580I-20167377J-22412037D01*
G01*
X265374661Y-75270156D02*
X261580700Y-79064046D01*
X243650000Y-25400000D02*
G75*
G03*
X243650000Y-25400000I-2150000J0D01*
G01*
X302620464Y-33534975D02*
X298125441Y-38029912D01*
X277249979Y-63395064D02*
X266084558Y-74560273D01*
X258627340Y-44772072D02*
G75*
G03*
X258627029Y-77527575I18622660J-16377928D01*
G01*
X291370156Y-73025339D02*
G75*
G03*
X291370382Y-49274929I-14120156J11875339D01*
G01*
X260872072Y-79772660D02*
G75*
G03*
X293627575Y-79772971I16377928J18622660D01*
G01*
X254837963Y-40982623D02*
G75*
G03*
X254837580Y-81316952I22412037J-20167377D01*
G01*
X261580700Y-79064046D02*
G75*
G03*
X292918960Y-79064343I15669300J17914046D01*
G01*
X251879536Y-88765025D02*
G75*
G03*
X302619939Y-88765506I25370464J27615025D01*
G01*
X254129912Y-40274559D02*
X249634975Y-35779536D01*
X288415187Y-74560485D02*
X277249979Y-63395064D01*
X290660273Y-72315442D02*
G75*
G03*
X290660485Y-49984813I-13410273J11165442D01*
G01*
X254129516Y-82025002D02*
X249634494Y-86519939D01*
X249634975Y-35779536D02*
G75*
G03*
X249634494Y-86519939I27615025J-25370464D01*
G01*
X297417377Y-38737963D02*
X293627928Y-42527340D01*
X0Y0D02*
X403000000Y0D01*
X292919300Y-43235954D02*
X289125339Y-47029844D01*
X299662420Y-40983048D02*
X295872971Y-44772425D01*
X266084813Y-47739515D02*
X277250021Y-58904936D01*
X295164046Y-76819300D02*
G75*
G03*
X295164343Y-45481040I-17914046J15669300D01*
G01*
X304865025Y-86520464D02*
G75*
G03*
X304865506Y-35780061I-27615025J25370464D01*
G01*
X256374559Y-84270088D02*
G75*
G03*
X298125002Y-84270484I20875441J23120088D01*
G01*
X0Y-122500000D02*
X403000000Y-122500000D01*
X263839727Y-49984558D02*
G75*
G03*
X263839515Y-72315187I13410273J-11165442D01*
G01*
X263129844Y-49274661D02*
G75*
G03*
X263129618Y-73025071I14120156J-11875339D01*
G01*
X304865506Y-35780061D02*
X300370484Y-40274998D01*
X298125441Y-38029912D02*
G75*
G03*
X256374998Y-38029516I-20875441J-23120088D01*
G01*
X256374559Y-84270088D02*
X251879536Y-88765025D01*
X288415442Y-47739727D02*
G75*
G03*
X266084813Y-47739515I-11165442J-13410273D01*
G01*
X279495064Y-61150021D02*
X290660273Y-72315442D01*
X295872660Y-77527928D02*
X299662037Y-81317377D01*
X257082623Y-83562037D02*
G75*
G03*
X297416952Y-83562420I20167377J22412037D01*
G01*
X251880061Y-33534494D02*
X256374998Y-38029516D01*
X263129844Y-49274661D02*
X259335954Y-45480700D01*
X288415442Y-47739727D02*
X277250021Y-58904936D01*
X290660485Y-49984813D02*
X279495064Y-61150021D01*
X258627029Y-77527575D02*
X254837580Y-81316952D01*
X297416952Y-83562420D02*
X293627575Y-79772971D01*
X0Y0D02*
X0Y-122500000D01*
M02*
