M48
; DRILL file {KiCad (6.0.5)} date Mon Dec 19 16:40:24 2022
; FORMAT={-:-/ absolute / metric / decimal}
; #@! TF.CreationDate,2022-12-19T16:40:24-07:00
; #@! TF.GenerationSoftware,Kicad,Pcbnew,(6.0.5)
; #@! TF.FileFunction,Plated,1,2,PTH
FMAT,2
METRIC
; #@! TA.AperFunction,Plated,PTH,ViaDrill
T1C0.400
; #@! TA.AperFunction,Plated,PTH,ComponentDrill
T2C0.500
; #@! TA.AperFunction,Plated,PTH,ComponentDrill
T3C0.600
; #@! TA.AperFunction,Plated,PTH,ComponentDrill
T4C0.620
; #@! TA.AperFunction,Plated,PTH,ComponentDrill
T5C0.750
; #@! TA.AperFunction,Plated,PTH,ComponentDrill
T6C0.800
; #@! TA.AperFunction,Plated,PTH,ComponentDrill
T7C0.950
; #@! TA.AperFunction,Plated,PTH,ViaDrill
T8C1.000
; #@! TA.AperFunction,Plated,PTH,ComponentDrill
T9C1.000
; #@! TA.AperFunction,Plated,PTH,ComponentDrill
T10C1.100
; #@! TA.AperFunction,Plated,PTH,ComponentDrill
T11C1.300
; #@! TA.AperFunction,Plated,PTH,ComponentDrill
T12C2.000
; #@! TA.AperFunction,Plated,PTH,ComponentDrill
T13C2.200
; #@! TA.AperFunction,Plated,PTH,ComponentDrill
T14C2.500
; #@! TA.AperFunction,Plated,PTH,ComponentDrill
T15C2.700
; #@! TA.AperFunction,Plated,PTH,ComponentDrill
T16C3.200
; #@! TA.AperFunction,Plated,PTH,ComponentDrill
T17C5.300
; #@! TA.AperFunction,Plated,PTH,ComponentDrill
T18C6.500
%
G90
G05
T1
X76.3Y-25.977
X77.7Y-25.2
X78.4Y-24.4
X79.3Y-23.6
X81.7Y-28.874
X82.3Y-36.073
X82.8Y-28.874
X84.0Y-25.977
X84.6Y-36.073
X85.1Y-25.3
X86.1Y-24.4
X87.2Y-23.6
X95.0Y-37.247
X96.1Y-37.247
X97.1Y-37.247
X98.1Y-37.247
X130.853Y-24.103
X133.75Y-18.326
X134.025Y-21.649
X136.25Y-18.326
X143.364Y-22.523
X145.275Y-22.997
X151.0Y-16.078
X152.0Y-16.528
X152.1Y-23.871
X153.315Y-16.977
X154.2Y-23.871
X154.3Y-17.427
X157.3Y-23.871
X159.3Y-24.321
X184.675Y-12.325
X184.8Y-37.3
X185.5Y-14.175
X186.1Y-37.247
X186.7Y-15.629
X187.7Y-37.247
X189.1Y-14.9
X189.1Y-37.247
X209.9Y-151.076
X211.5Y-16.078
X213.6Y-16.528
X214.1Y-151.5
X215.2Y-16.977
X216.0Y-0.75
X216.5Y-17.427
X221.0Y-22.872
X222.137Y-21.137
X222.2Y-22.422
X222.858Y-20.444
X327.3Y-102.1
X327.976Y-19.2
X336.099Y-8.3
X336.5Y-100.9
T2
X20.9Y-3.2
X21.4Y-2.4
X21.9Y-3.2
X22.4Y-2.4
X22.9Y-3.2
X23.4Y-2.4
X23.9Y-3.2
X24.4Y-2.4
X24.9Y-3.2
X25.4Y-2.4
X25.9Y-3.2
X26.4Y-2.4
X26.9Y-3.2
X27.4Y-2.4
X27.9Y-3.2
X28.4Y-2.4
X28.9Y-3.2
X29.4Y-2.4
X29.9Y-3.2
X59.0Y-3.2
X59.5Y-2.4
X60.0Y-3.2
X60.5Y-2.4
X61.0Y-3.2
X61.5Y-2.4
X62.0Y-3.2
X62.5Y-2.4
X63.0Y-3.2
X63.5Y-2.4
X64.0Y-3.2
X64.5Y-2.4
X65.0Y-3.2
X65.5Y-2.4
X66.0Y-3.2
X66.5Y-2.4
X67.0Y-3.2
X67.5Y-2.4
X68.0Y-3.2
X97.1Y-3.2
X97.6Y-2.4
X98.1Y-3.2
X98.6Y-2.4
X99.1Y-3.2
X99.6Y-2.4
X100.1Y-3.2
X100.6Y-2.4
X101.1Y-3.2
X101.6Y-2.4
X102.1Y-3.2
X102.6Y-2.4
X103.1Y-3.2
X103.6Y-2.4
X104.1Y-3.2
X104.6Y-2.4
X105.1Y-3.2
X105.6Y-2.4
X106.1Y-3.2
X135.2Y-3.2
X135.7Y-2.4
X136.2Y-3.2
X136.7Y-2.4
X137.2Y-3.2
X137.7Y-2.4
X138.2Y-3.2
X138.7Y-2.4
X139.2Y-3.2
X139.7Y-2.4
X140.2Y-3.2
X140.7Y-2.4
X141.2Y-3.2
X141.7Y-2.4
X142.2Y-3.2
X142.7Y-2.4
X143.2Y-3.2
X143.7Y-2.4
X144.2Y-3.2
X173.3Y-3.2
X173.8Y-2.4
X174.3Y-3.2
X174.8Y-2.4
X175.3Y-3.2
X175.8Y-2.4
X176.3Y-3.2
X176.8Y-2.4
X177.3Y-3.2
X177.8Y-2.4
X178.3Y-3.2
X178.8Y-2.4
X179.3Y-3.2
X179.8Y-2.4
X180.3Y-3.2
X180.8Y-2.4
X181.3Y-3.2
X181.8Y-2.4
X182.3Y-3.2
X211.4Y-3.2
X211.9Y-2.4
X212.4Y-3.2
X212.9Y-2.4
X213.4Y-3.2
X213.9Y-2.4
X214.4Y-3.2
X214.9Y-2.4
X215.4Y-3.2
X215.9Y-2.4
X216.4Y-3.2
X216.9Y-2.4
X217.4Y-3.2
X217.9Y-2.4
X218.4Y-3.2
X218.9Y-2.4
X219.4Y-3.2
X219.9Y-2.4
X220.4Y-3.2
X249.5Y-3.2
X250.0Y-2.4
X250.5Y-3.2
X251.0Y-2.4
X251.5Y-3.2
X252.0Y-2.4
X252.5Y-3.2
X253.0Y-2.4
X253.5Y-3.2
X254.0Y-2.4
X254.5Y-3.2
X255.0Y-2.4
X255.5Y-3.2
X256.0Y-2.4
X256.5Y-3.2
X257.0Y-2.4
X257.5Y-3.2
X258.0Y-2.4
X258.5Y-3.2
X287.6Y-3.2
X288.1Y-2.4
X288.6Y-3.2
X289.1Y-2.4
X289.6Y-3.2
X290.1Y-2.4
X290.6Y-3.2
X291.1Y-2.4
X291.6Y-3.2
X292.1Y-2.4
X292.6Y-3.2
X293.1Y-2.4
X293.6Y-3.2
X294.1Y-2.4
X294.6Y-3.2
X295.1Y-2.4
X295.6Y-3.2
X296.1Y-2.4
X296.6Y-3.2
X325.7Y-3.2
X326.2Y-2.4
X326.7Y-3.2
X327.2Y-2.4
X327.7Y-3.2
X328.2Y-2.4
X328.7Y-3.2
X329.2Y-2.4
X329.7Y-3.2
X330.2Y-2.4
X330.7Y-3.2
X331.2Y-2.4
X331.7Y-3.2
X332.2Y-2.4
X332.7Y-3.2
X333.2Y-2.4
X333.7Y-3.2
X334.2Y-2.4
X334.7Y-3.2
T5
X-5.277Y-152.4
X-5.277Y-154.4
X81.0Y-150.0
X81.0Y-152.0
X115.86Y-1.288
X115.86Y-9.688
X117.86Y-1.288
X117.86Y-9.688
X175.0Y-61.0
X175.0Y-70.0
X175.0Y-79.0
X175.0Y-88.0
X177.0Y-61.0
X177.0Y-70.0
X177.0Y-79.0
X177.0Y-88.0
X195.94Y-1.293
X195.96Y-7.663
X197.94Y-1.293
X197.96Y-7.663
X223.0Y-147.0
X223.0Y-157.0
X225.0Y-147.0
X225.0Y-157.0
X229.0Y-166.0
X231.0Y-166.0
X235.0Y-147.0
X235.0Y-157.0
X237.0Y-147.0
X237.0Y-157.0
X241.95Y-104.3
X243.95Y-104.3
X307.585Y-12.413
X309.585Y-12.413
T7
X68.5Y-248.45
X71.0Y-248.45
X73.0Y-248.45
X75.5Y-248.45
T8
X217.9Y1.6
T9
X184.55Y-116.5
X184.55Y-119.04
X184.55Y-122.725
X184.55Y-125.265
X184.55Y-128.95
X184.55Y-131.49
X184.55Y-135.175
X184.55Y-137.715
X219.36Y-178.05
X219.36Y-180.59
X219.36Y-183.13
X219.36Y-185.67
X219.36Y-188.21
X219.36Y-190.75
X219.36Y-193.29
X226.47Y-113.66
X226.47Y-116.2
X226.47Y-118.74
X226.47Y-121.28
X226.47Y-123.82
X226.47Y-126.36
X226.47Y-128.9
X229.642Y-135.175
X232.182Y-135.175
X234.6Y-178.05
X234.6Y-180.59
X234.6Y-183.13
X234.6Y-185.67
X234.6Y-188.21
X234.6Y-190.75
X234.6Y-193.29
X234.722Y-135.175
X237.262Y-135.175
X239.802Y-135.175
X241.375Y-185.648
X241.375Y-188.188
X241.375Y-190.728
X241.71Y-113.66
X241.71Y-116.2
X241.71Y-118.74
X241.71Y-121.28
X241.71Y-123.82
X241.71Y-126.36
X241.71Y-128.9
X284.625Y-205.572
X284.625Y-208.112
X284.625Y-210.652
X292.8Y-203.01
X292.8Y-205.55
X292.8Y-208.09
X292.8Y-210.63
X292.8Y-213.17
X292.8Y-215.71
X292.8Y-218.25
X308.04Y-203.01
X308.04Y-205.55
X308.04Y-208.09
X308.04Y-210.63
X308.04Y-213.17
X308.04Y-215.71
X308.04Y-218.25
X315.975Y-205.544
X315.975Y-208.084
X315.975Y-210.624
X315.975Y-213.164
T11
X-0.205Y-4.625
T12
X72.0Y-230.595
X72.0Y-241.009
T13
X257.354Y-58.416
X257.354Y-91.416
X270.354Y-58.416
X270.354Y-91.416
X286.424Y-58.416
X286.424Y-91.416
X299.424Y-58.416
X299.424Y-91.416
X316.474Y-58.366
X316.474Y-91.366
X329.474Y-58.366
X329.474Y-91.366
T14
X65.575Y-250.55
X78.425Y-250.55
T15
X139.706Y-174.715
X139.706Y-202.715
X265.463Y-145.91
X265.463Y-180.91
X325.463Y-145.91
T16
X8.525Y-46.125
X8.525Y-163.125
X70.525Y-46.125
X70.525Y-163.125
X97.497Y-46.055
X97.497Y-163.055
X159.497Y-46.055
X159.497Y-163.055
X193.855Y-55.555
X193.855Y-92.555
X236.855Y-55.555
X236.855Y-92.555
T17
X25.0Y-35.0
X25.0Y-175.0
X72.15Y-106.0
X72.15Y-279.0
X176.35Y-106.0
X176.35Y-279.0
X216.0Y-44.0
X280.55Y-106.0
X280.55Y-279.0
X350.0Y-35.0
X350.0Y-150.0
T18
X176.215Y-242.965
X306.985Y-246.455
T3
X-3.925Y7.025G85X-3.925Y4.625
G05
X-0.205Y-0.675G85X-0.205Y-2.075
G05
X4.995Y-0.675G85X4.995Y-2.075
G05
X5.925Y7.025G85X5.925Y4.625
G05
X67.68Y-235.297G85X67.68Y-236.497
G05
X71.5Y-235.677G85X71.5Y-236.527
G05
X72.5Y-235.677G85X72.5Y-236.527
G05
X76.32Y-235.297G85X76.32Y-236.497
G05
T4
X70.48Y-235.687G85X70.48Y-236.517
G05
X73.52Y-235.687G85X73.52Y-236.517
G05
T6
X69.25Y-235.777G85X69.25Y-236.427
G05
X74.75Y-235.777G85X74.75Y-236.427
G05
T10
X18.15Y3.8G85X18.15Y2.6
G05
X18.15Y-1.94G85X18.15Y-3.74
G05
X32.65Y3.8G85X32.65Y2.6
G05
X32.65Y-1.94G85X32.65Y-3.74
G05
X56.25Y3.8G85X56.25Y2.6
G05
X56.25Y-1.94G85X56.25Y-3.74
G05
X70.75Y3.8G85X70.75Y2.6
G05
X70.75Y-1.94G85X70.75Y-3.74
G05
X94.35Y3.8G85X94.35Y2.6
G05
X94.35Y-1.94G85X94.35Y-3.74
G05
X108.85Y3.8G85X108.85Y2.6
G05
X108.85Y-1.94G85X108.85Y-3.74
G05
X132.45Y3.8G85X132.45Y2.6
G05
X132.45Y-1.94G85X132.45Y-3.74
G05
X146.95Y3.8G85X146.95Y2.6
G05
X146.95Y-1.94G85X146.95Y-3.74
G05
X170.55Y3.8G85X170.55Y2.6
G05
X170.55Y-1.94G85X170.55Y-3.74
G05
X185.05Y3.8G85X185.05Y2.6
G05
X185.05Y-1.94G85X185.05Y-3.74
G05
X208.65Y3.8G85X208.65Y2.6
G05
X208.65Y-1.94G85X208.65Y-3.74
G05
X223.15Y3.8G85X223.15Y2.6
G05
X223.15Y-1.94G85X223.15Y-3.74
G05
X246.75Y3.8G85X246.75Y2.6
G05
X246.75Y-1.94G85X246.75Y-3.74
G05
X261.25Y3.8G85X261.25Y2.6
G05
X261.25Y-1.94G85X261.25Y-3.74
G05
X284.85Y3.8G85X284.85Y2.6
G05
X284.85Y-1.94G85X284.85Y-3.74
G05
X299.35Y3.8G85X299.35Y2.6
G05
X299.35Y-1.94G85X299.35Y-3.74
G05
X322.95Y3.8G85X322.95Y2.6
G05
X322.95Y-1.94G85X322.95Y-3.74
G05
X337.45Y3.8G85X337.45Y2.6
G05
X337.45Y-1.94G85X337.45Y-3.74
G05
T0
M30
