M48
; DRILL file {KiCad (6.0.5)} date Fri Dec 30 15:28:47 2022
; FORMAT={-:-/ absolute / metric / decimal}
; #@! TF.CreationDate,2022-12-30T15:28:47-07:00
; #@! TF.GenerationSoftware,Kicad,Pcbnew,(6.0.5)
; #@! TF.FileFunction,Plated,1,2,PTH
FMAT,2
METRIC
; #@! TA.AperFunction,Plated,PTH,ViaDrill
T1C0.400
; #@! TA.AperFunction,Plated,PTH,ComponentDrill
T2C0.600
; #@! TA.AperFunction,Plated,PTH,ComponentDrill
T3C0.620
; #@! TA.AperFunction,Plated,PTH,ComponentDrill
T4C0.750
; #@! TA.AperFunction,Plated,PTH,ComponentDrill
T5C0.800
; #@! TA.AperFunction,Plated,PTH,ComponentDrill
T6C0.950
; #@! TA.AperFunction,Plated,PTH,ViaDrill
T7C1.000
; #@! TA.AperFunction,Plated,PTH,ComponentDrill
T8C1.000
; #@! TA.AperFunction,Plated,PTH,ComponentDrill
T9C1.300
; #@! TA.AperFunction,Plated,PTH,ComponentDrill
T10C2.000
; #@! TA.AperFunction,Plated,PTH,ComponentDrill
T11C2.200
; #@! TA.AperFunction,Plated,PTH,ComponentDrill
T12C2.500
; #@! TA.AperFunction,Plated,PTH,ComponentDrill
T13C2.700
; #@! TA.AperFunction,Plated,PTH,ComponentDrill
T14C3.200
; #@! TA.AperFunction,Plated,PTH,ComponentDrill
T15C5.300
; #@! TA.AperFunction,Plated,PTH,ComponentDrill
T16C6.500
%
G90
G05
T1
X76.3Y-25.977
X77.7Y-25.2
X78.4Y-24.4
X79.3Y-23.6
X81.7Y-28.874
X82.3Y-36.073
X82.8Y-28.874
X84.0Y-25.977
X84.6Y-36.073
X85.1Y-25.3
X86.1Y-24.4
X87.2Y-23.6
X95.0Y-37.247
X96.1Y-37.247
X97.1Y-37.247
X98.1Y-37.247
X130.853Y-24.103
X133.75Y-18.326
X134.025Y-21.649
X136.25Y-18.326
X143.364Y-22.523
X145.275Y-22.997
X151.0Y-16.078
X152.0Y-16.528
X152.1Y-23.871
X153.315Y-16.977
X154.2Y-23.871
X154.3Y-17.427
X157.3Y-23.871
X159.3Y-24.321
X184.675Y-12.325
X184.8Y-37.3
X185.5Y-14.175
X186.1Y-37.247
X186.7Y-15.629
X187.7Y-37.247
X189.1Y-14.9
X189.1Y-37.247
X209.9Y-151.076
X211.5Y-16.078
X213.6Y-16.528
X214.1Y-151.5
X215.2Y-16.977
X216.5Y-17.427
X221.0Y-22.872
X222.137Y-21.137
X222.2Y-22.422
X222.858Y-20.444
X327.3Y-102.1
X327.976Y-19.2
X336.099Y-8.3
X336.5Y-100.9
T2
X20.64Y-2.95
X21.39Y-1.45
X22.14Y0.05
X22.14Y-2.95
X22.89Y-1.45
X23.64Y0.05
X23.64Y-2.95
X24.39Y-1.45
X25.14Y0.05
X25.14Y-2.95
X25.89Y-1.45
X26.64Y0.05
X26.64Y-2.95
X27.39Y-1.45
X28.14Y0.05
X28.14Y-2.95
X28.89Y-1.45
X29.64Y0.05
X29.64Y-2.95
X58.74Y-2.95
X59.49Y-1.45
X60.24Y0.05
X60.24Y-2.95
X60.99Y-1.45
X61.74Y0.05
X61.74Y-2.95
X62.49Y-1.45
X63.24Y0.05
X63.24Y-2.95
X63.99Y-1.45
X64.74Y0.05
X64.74Y-2.95
X65.49Y-1.45
X66.24Y0.05
X66.24Y-2.95
X66.99Y-1.45
X67.74Y0.05
X67.74Y-2.95
X96.84Y-2.95
X97.59Y-1.45
X98.34Y0.05
X98.34Y-2.95
X99.09Y-1.45
X99.84Y0.05
X99.84Y-2.95
X100.59Y-1.45
X101.34Y0.05
X101.34Y-2.95
X102.09Y-1.45
X102.84Y0.05
X102.84Y-2.95
X103.59Y-1.45
X104.34Y0.05
X104.34Y-2.95
X105.09Y-1.45
X105.84Y0.05
X105.84Y-2.95
X134.94Y-2.95
X135.69Y-1.45
X136.44Y0.05
X136.44Y-2.95
X137.19Y-1.45
X137.94Y0.05
X137.94Y-2.95
X138.69Y-1.45
X139.44Y0.05
X139.44Y-2.95
X140.19Y-1.45
X140.94Y0.05
X140.94Y-2.95
X141.69Y-1.45
X142.44Y0.05
X142.44Y-2.95
X143.19Y-1.45
X143.94Y0.05
X143.94Y-2.95
X173.04Y-2.95
X173.79Y-1.45
X174.54Y0.05
X174.54Y-2.95
X175.29Y-1.45
X176.04Y0.05
X176.04Y-2.95
X176.79Y-1.45
X177.54Y0.05
X177.54Y-2.95
X178.29Y-1.45
X179.04Y0.05
X179.04Y-2.95
X179.79Y-1.45
X180.54Y0.05
X180.54Y-2.95
X181.29Y-1.45
X182.04Y0.05
X182.04Y-2.95
X211.14Y-2.95
X211.89Y-1.45
X212.64Y0.05
X212.64Y-2.95
X213.39Y-1.45
X214.14Y0.05
X214.14Y-2.95
X214.89Y-1.45
X215.64Y0.05
X215.64Y-2.95
X216.39Y-1.45
X217.14Y0.05
X217.14Y-2.95
X217.89Y-1.45
X218.64Y0.05
X218.64Y-2.95
X219.39Y-1.45
X220.14Y0.05
X220.14Y-2.95
X249.24Y-2.95
X249.99Y-1.45
X250.74Y0.05
X250.74Y-2.95
X251.49Y-1.45
X252.24Y0.05
X252.24Y-2.95
X252.99Y-1.45
X253.74Y0.05
X253.74Y-2.95
X254.49Y-1.45
X255.24Y0.05
X255.24Y-2.95
X255.99Y-1.45
X256.74Y0.05
X256.74Y-2.95
X257.49Y-1.45
X258.24Y0.05
X258.24Y-2.95
X287.34Y-2.95
X288.09Y-1.45
X288.84Y0.05
X288.84Y-2.95
X289.59Y-1.45
X290.34Y0.05
X290.34Y-2.95
X291.09Y-1.45
X291.84Y0.05
X291.84Y-2.95
X292.59Y-1.45
X293.34Y0.05
X293.34Y-2.95
X294.09Y-1.45
X294.84Y0.05
X294.84Y-2.95
X295.59Y-1.45
X296.34Y0.05
X296.34Y-2.95
X325.44Y-2.95
X326.19Y-1.45
X326.94Y0.05
X326.94Y-2.95
X327.69Y-1.45
X328.44Y0.05
X328.44Y-2.95
X329.19Y-1.45
X329.94Y0.05
X329.94Y-2.95
X330.69Y-1.45
X331.44Y0.05
X331.44Y-2.95
X332.19Y-1.45
X332.94Y0.05
X332.94Y-2.95
X333.69Y-1.45
X334.44Y0.05
X334.44Y-2.95
T4
X-5.277Y-152.4
X-5.277Y-154.4
X81.0Y-150.0
X81.0Y-152.0
X115.86Y-1.288
X115.86Y-9.688
X117.86Y-1.288
X117.86Y-9.688
X175.0Y-61.0
X175.0Y-70.0
X175.0Y-79.0
X175.0Y-88.0
X177.0Y-61.0
X177.0Y-70.0
X177.0Y-79.0
X177.0Y-88.0
X195.94Y-1.293
X195.96Y-7.663
X197.94Y-1.293
X197.96Y-7.663
X223.0Y-147.0
X223.0Y-157.0
X225.0Y-147.0
X225.0Y-157.0
X229.0Y-166.0
X231.0Y-166.0
X235.0Y-147.0
X235.0Y-157.0
X237.0Y-147.0
X237.0Y-157.0
X241.95Y-104.3
X243.95Y-104.3
X307.585Y-12.413
X309.585Y-12.413
T6
X68.5Y-248.45
X71.0Y-248.45
X73.0Y-248.45
X75.5Y-248.45
T7
X213.7Y3.0
T8
X184.55Y-116.5
X184.55Y-119.04
X184.55Y-122.725
X184.55Y-125.265
X184.55Y-128.95
X184.55Y-131.49
X184.55Y-135.175
X184.55Y-137.715
X219.36Y-178.05
X219.36Y-180.59
X219.36Y-183.13
X219.36Y-185.67
X219.36Y-188.21
X219.36Y-190.75
X219.36Y-193.29
X226.47Y-113.66
X226.47Y-116.2
X226.47Y-118.74
X226.47Y-121.28
X226.47Y-123.82
X226.47Y-126.36
X226.47Y-128.9
X229.642Y-135.175
X232.182Y-135.175
X234.6Y-178.05
X234.6Y-180.59
X234.6Y-183.13
X234.6Y-185.67
X234.6Y-188.21
X234.6Y-190.75
X234.6Y-193.29
X234.722Y-135.175
X237.262Y-135.175
X239.802Y-135.175
X241.375Y-185.648
X241.375Y-188.188
X241.375Y-190.728
X241.71Y-113.66
X241.71Y-116.2
X241.71Y-118.74
X241.71Y-121.28
X241.71Y-123.82
X241.71Y-126.36
X241.71Y-128.9
X284.625Y-205.572
X284.625Y-208.112
X284.625Y-210.652
X292.8Y-203.01
X292.8Y-205.55
X292.8Y-208.09
X292.8Y-210.63
X292.8Y-213.17
X292.8Y-215.71
X292.8Y-218.25
X308.04Y-203.01
X308.04Y-205.55
X308.04Y-208.09
X308.04Y-210.63
X308.04Y-213.17
X308.04Y-215.71
X308.04Y-218.25
X315.975Y-205.544
X315.975Y-208.084
X315.975Y-210.624
X315.975Y-213.164
T9
X-0.205Y-4.625
T10
X72.0Y-230.595
X72.0Y-241.009
T11
X257.354Y-58.416
X257.354Y-91.416
X270.354Y-58.416
X270.354Y-91.416
X286.424Y-58.416
X286.424Y-91.416
X299.424Y-58.416
X299.424Y-91.416
X316.474Y-58.366
X316.474Y-91.366
X329.474Y-58.366
X329.474Y-91.366
T12
X65.575Y-250.55
X78.425Y-250.55
T13
X139.706Y-174.715
X139.706Y-202.715
X265.463Y-145.91
X265.463Y-180.91
X325.463Y-145.91
T14
X8.525Y-46.125
X8.525Y-163.125
X70.525Y-46.125
X70.525Y-163.125
X97.497Y-46.055
X97.497Y-163.055
X159.497Y-46.055
X159.497Y-163.055
X193.855Y-55.555
X193.855Y-92.555
X236.855Y-55.555
X236.855Y-92.555
T15
X25.0Y-35.0
X25.0Y-175.0
X72.15Y-106.0
X72.15Y-279.0
X176.35Y-106.0
X176.35Y-279.0
X216.0Y-44.0
X280.55Y-106.0
X280.55Y-279.0
X350.0Y-35.0
X350.0Y-150.0
T16
X176.215Y-242.965
X306.985Y-246.455
T2
X-3.925Y7.025G85X-3.925Y4.625
G05
X-0.205Y-0.675G85X-0.205Y-2.075
G05
X4.995Y-0.675G85X4.995Y-2.075
G05
X5.925Y7.025G85X5.925Y4.625
G05
X67.68Y-235.297G85X67.68Y-236.497
G05
X71.5Y-235.677G85X71.5Y-236.527
G05
X72.5Y-235.677G85X72.5Y-236.527
G05
X76.32Y-235.297G85X76.32Y-236.497
G05
T3
X70.48Y-235.687G85X70.48Y-236.517
G05
X73.52Y-235.687G85X73.52Y-236.517
G05
T5
X69.25Y-235.777G85X69.25Y-236.427
G05
X74.75Y-235.777G85X74.75Y-236.427
G05
T8
X17.54Y5.05G85X17.54Y5.65
G05
X33.26Y5.05G85X33.26Y5.65
G05
X55.64Y5.05G85X55.64Y5.65
G05
X71.36Y5.05G85X71.36Y5.65
G05
X93.74Y5.05G85X93.74Y5.65
G05
X109.46Y5.05G85X109.46Y5.65
G05
X131.84Y5.05G85X131.84Y5.65
G05
X147.56Y5.05G85X147.56Y5.65
G05
X169.94Y5.05G85X169.94Y5.65
G05
X185.66Y5.05G85X185.66Y5.65
G05
X208.04Y5.05G85X208.04Y5.65
G05
X223.76Y5.05G85X223.76Y5.65
G05
X246.14Y5.05G85X246.14Y5.65
G05
X261.86Y5.05G85X261.86Y5.65
G05
X284.24Y5.05G85X284.24Y5.65
G05
X299.96Y5.05G85X299.96Y5.65
G05
X322.34Y5.05G85X322.34Y5.65
G05
X338.06Y5.05G85X338.06Y5.65
G05
T0
M30
