%TF.GenerationSoftware,KiCad,Pcbnew,(6.0.5)*%
%TF.CreationDate,2022-12-19T16:40:22-07:00*%
%TF.ProjectId,Thermometry_Enclosure,54686572-6d6f-46d6-9574-72795f456e63,rev?*%
%TF.SameCoordinates,Original*%
%TF.FileFunction,Soldermask,Top*%
%TF.FilePolarity,Negative*%
%FSLAX46Y46*%
G04 Gerber Fmt 4.6, Leading zero omitted, Abs format (unit mm)*
G04 Created by KiCad (PCBNEW (6.0.5)) date 2022-12-19 16:40:22*
%MOMM*%
%LPD*%
G01*
G04 APERTURE LIST*
G04 Aperture macros list*
%AMRoundRect*
0 Rectangle with rounded corners*
0 $1 Rounding radius*
0 $2 $3 $4 $5 $6 $7 $8 $9 X,Y pos of 4 corners*
0 Add a 4 corners polygon primitive as box body*
4,1,4,$2,$3,$4,$5,$6,$7,$8,$9,$2,$3,0*
0 Add four circle primitives for the rounded corners*
1,1,$1+$1,$2,$3*
1,1,$1+$1,$4,$5*
1,1,$1+$1,$6,$7*
1,1,$1+$1,$8,$9*
0 Add four rect primitives between the rounded corners*
20,1,$1+$1,$2,$3,$4,$5,0*
20,1,$1+$1,$4,$5,$6,$7,0*
20,1,$1+$1,$6,$7,$8,$9,0*
20,1,$1+$1,$8,$9,$2,$3,0*%
G04 Aperture macros list end*
%ADD10RoundRect,0.150000X0.150000X0.625000X-0.150000X0.625000X-0.150000X-0.625000X0.150000X-0.625000X0*%
%ADD11RoundRect,0.250000X0.350000X0.650000X-0.350000X0.650000X-0.350000X-0.650000X0.350000X-0.650000X0*%
%ADD12R,1.700000X1.700000*%
%ADD13O,1.700000X1.700000*%
%ADD14C,10.600000*%
%ADD15C,6.400000*%
%ADD16RoundRect,0.250000X-0.350000X-0.625000X0.350000X-0.625000X0.350000X0.625000X-0.350000X0.625000X0*%
%ADD17O,1.200000X1.750000*%
%ADD18RoundRect,0.150000X-0.150000X-0.625000X0.150000X-0.625000X0.150000X0.625000X-0.150000X0.625000X0*%
%ADD19RoundRect,0.250000X-0.350000X-0.650000X0.350000X-0.650000X0.350000X0.650000X-0.350000X0.650000X0*%
%ADD20C,0.700000*%
%ADD21O,1.900000X3.000000*%
%ADD22O,1.900000X3.700000*%
%ADD23C,4.400000*%
%ADD24R,1.800000X2.540000*%
%ADD25RoundRect,0.150000X-0.625000X0.150000X-0.625000X-0.150000X0.625000X-0.150000X0.625000X0.150000X0*%
%ADD26RoundRect,0.250000X-0.650000X0.350000X-0.650000X-0.350000X0.650000X-0.350000X0.650000X0.350000X0*%
%ADD27C,5.400000*%
%ADD28RoundRect,0.250000X0.350000X0.625000X-0.350000X0.625000X-0.350000X-0.625000X0.350000X-0.625000X0*%
%ADD29C,3.000000*%
%ADD30O,1.000000X2.200000*%
%ADD31O,0.800000X1.650000*%
%ADD32O,0.820000X1.650000*%
%ADD33O,1.020000X1.650000*%
%ADD34RoundRect,0.237500X-0.250000X-0.237500X0.250000X-0.237500X0.250000X0.237500X-0.250000X0.237500X0*%
%ADD35C,2.500000*%
%ADD36O,1.200000X3.800000*%
%ADD37O,1.200000X2.500000*%
%ADD38C,2.000000*%
%ADD39C,13.000000*%
%ADD40R,1.550000X1.524000*%
%ADD41C,1.550000*%
%ADD42RoundRect,0.250000X0.625000X-0.350000X0.625000X0.350000X-0.625000X0.350000X-0.625000X-0.350000X0*%
%ADD43O,1.750000X1.200000*%
G04 APERTURE END LIST*
D10*
%TO.C,J20*%
X132630000Y-27425000D03*
X131630000Y-27425000D03*
X130630000Y-27425000D03*
X129630000Y-27425000D03*
D11*
X133930000Y-29950000D03*
X128330000Y-29950000D03*
%TD*%
D12*
%TO.C,J50*%
X184550000Y-116500000D03*
D13*
X184550000Y-119040000D03*
%TD*%
D14*
%TO.C,H39*%
X25000000Y-35000000D03*
%TD*%
%TO.C,H38*%
X25000000Y-175000000D03*
%TD*%
D15*
%TO.C,H8*%
X70525000Y-163125000D03*
%TD*%
D16*
%TO.C,J38*%
X175000000Y-79000000D03*
D17*
X177000000Y-79000000D03*
%TD*%
D18*
%TO.C,J62*%
X205300000Y-144825000D03*
X206300000Y-144825000D03*
X207300000Y-144825000D03*
X208300000Y-144825000D03*
D19*
X204000000Y-142300000D03*
X209600000Y-142300000D03*
%TD*%
D20*
%TO.C,J9*%
X325700000Y-3200000D03*
X326200000Y-2400000D03*
X326700000Y-3200000D03*
X327200000Y-2400000D03*
X327700000Y-3200000D03*
X328200000Y-2400000D03*
X328700000Y-3200000D03*
X329200000Y-2400000D03*
X329700000Y-3200000D03*
X330200000Y-2400000D03*
X330700000Y-3200000D03*
X331200000Y-2400000D03*
X331700000Y-3200000D03*
X332200000Y-2400000D03*
X332700000Y-3200000D03*
X333200000Y-2400000D03*
X333700000Y-3200000D03*
X334200000Y-2400000D03*
X334700000Y-3200000D03*
D21*
X337450000Y3200000D03*
X322950000Y3200000D03*
D22*
X322950000Y-2840000D03*
X337450000Y-2840000D03*
%TD*%
D15*
%TO.C,H7*%
X70525000Y-46125000D03*
%TD*%
%TO.C,H13*%
X193855000Y-55555000D03*
%TD*%
D23*
%TO.C,H25*%
X257354000Y-91416000D03*
%TD*%
D15*
%TO.C,H5*%
X8525000Y-46125000D03*
%TD*%
D18*
%TO.C,J66*%
X205300000Y-108825000D03*
X206300000Y-108825000D03*
X207300000Y-108825000D03*
X208300000Y-108825000D03*
D19*
X209600000Y-106300000D03*
X204000000Y-106300000D03*
%TD*%
D16*
%TO.C,J43*%
X195960000Y-7663000D03*
D17*
X197960000Y-7663000D03*
%TD*%
D15*
%TO.C,H14*%
X236855000Y-55555000D03*
%TD*%
D12*
%TO.C,J53*%
X315975000Y-205544000D03*
D13*
X315975000Y-208084000D03*
X315975000Y-210624000D03*
X315975000Y-213164000D03*
%TD*%
D18*
%TO.C,J63*%
X205300000Y-135825000D03*
X206300000Y-135825000D03*
X207300000Y-135825000D03*
X208300000Y-135825000D03*
D19*
X204000000Y-133300000D03*
X209600000Y-133300000D03*
%TD*%
D12*
%TO.C,J57*%
X241710000Y-113660000D03*
D13*
X241710000Y-116200000D03*
X241710000Y-118740000D03*
X241710000Y-121280000D03*
X241710000Y-123820000D03*
X241710000Y-126360000D03*
X241710000Y-128900000D03*
%TD*%
D18*
%TO.C,J65*%
X205300000Y-117825000D03*
X206300000Y-117825000D03*
X207300000Y-117825000D03*
X208300000Y-117825000D03*
D19*
X204000000Y-115300000D03*
X209600000Y-115300000D03*
%TD*%
D15*
%TO.C,H6*%
X8525000Y-163125000D03*
%TD*%
%TO.C,H3*%
X159497000Y-46055000D03*
%TD*%
D14*
%TO.C,H37*%
X72150000Y-106000000D03*
%TD*%
D20*
%TO.C,J7*%
X249500000Y-3200000D03*
X250000000Y-2400000D03*
X250500000Y-3200000D03*
X251000000Y-2400000D03*
X251500000Y-3200000D03*
X252000000Y-2400000D03*
X252500000Y-3200000D03*
X253000000Y-2400000D03*
X253500000Y-3200000D03*
X254000000Y-2400000D03*
X254500000Y-3200000D03*
X255000000Y-2400000D03*
X255500000Y-3200000D03*
X256000000Y-2400000D03*
X256500000Y-3200000D03*
X257000000Y-2400000D03*
X257500000Y-3200000D03*
X258000000Y-2400000D03*
X258500000Y-3200000D03*
D22*
X246750000Y-2840000D03*
D21*
X261250000Y3200000D03*
X246750000Y3200000D03*
D22*
X261250000Y-2840000D03*
%TD*%
D18*
%TO.C,J64*%
X205300000Y-126825000D03*
X206300000Y-126825000D03*
X207300000Y-126825000D03*
X208300000Y-126825000D03*
D19*
X204000000Y-124300000D03*
X209600000Y-124300000D03*
%TD*%
D23*
%TO.C,H17*%
X286424000Y-91416000D03*
%TD*%
D16*
%TO.C,J36*%
X223000000Y-157000000D03*
D17*
X225000000Y-157000000D03*
%TD*%
D24*
%TO.C,D3*%
X282725000Y-218225000D03*
X287525000Y-218225000D03*
%TD*%
D14*
%TO.C,H40*%
X216000000Y-44000000D03*
%TD*%
D23*
%TO.C,H28*%
X316474000Y-91365999D03*
%TD*%
D25*
%TO.C,J10*%
X198675000Y-192500000D03*
X198675000Y-193500000D03*
X198675000Y-194500000D03*
X198675000Y-195500000D03*
D26*
X201200000Y-196800000D03*
X201200000Y-191200000D03*
%TD*%
D27*
%TO.C,H9*%
X139706000Y-174715000D03*
%TD*%
D15*
%TO.C,H1*%
X97497000Y-163055000D03*
%TD*%
D25*
%TO.C,J11*%
X206675000Y-192500000D03*
X206675000Y-193500000D03*
X206675000Y-194500000D03*
X206675000Y-195500000D03*
D26*
X209200000Y-191200000D03*
X209200000Y-196800000D03*
%TD*%
D15*
%TO.C,H2*%
X159497000Y-163055000D03*
%TD*%
D12*
%TO.C,J52*%
X184550000Y-128950000D03*
D13*
X184550000Y-131490000D03*
%TD*%
D16*
%TO.C,J39*%
X175000000Y-61000000D03*
D17*
X177000000Y-61000000D03*
%TD*%
D25*
%TO.C,J13*%
X198675000Y-176500000D03*
X198675000Y-177500000D03*
X198675000Y-178500000D03*
X198675000Y-179500000D03*
D26*
X201200000Y-175200000D03*
X201200000Y-180800000D03*
%TD*%
D12*
%TO.C,J48*%
X241375000Y-185648000D03*
D13*
X241375000Y-188188000D03*
X241375000Y-190728000D03*
%TD*%
D28*
%TO.C,J68*%
X243950000Y-104300000D03*
D17*
X241950000Y-104300000D03*
%TD*%
D16*
%TO.C,J33*%
X235000000Y-147000000D03*
D17*
X237000000Y-147000000D03*
%TD*%
D20*
%TO.C,J6*%
X211400000Y-3200000D03*
X211900000Y-2400000D03*
X212400000Y-3200000D03*
X212900000Y-2400000D03*
X213400000Y-3200000D03*
X213900000Y-2400000D03*
X214400000Y-3200000D03*
X214900000Y-2400000D03*
X215400000Y-3200000D03*
X215900000Y-2400000D03*
X216400000Y-3200000D03*
X216900000Y-2400000D03*
X217400000Y-3200000D03*
X217900000Y-2400000D03*
X218400000Y-3200000D03*
X218900000Y-2400000D03*
X219400000Y-3200000D03*
X219900000Y-2400000D03*
X220400000Y-3200000D03*
D21*
X208650000Y3200000D03*
X223150000Y3200000D03*
D22*
X208650000Y-2840000D03*
X223150000Y-2840000D03*
%TD*%
D27*
%TO.C,H21*%
X265463000Y-145910000D03*
%TD*%
D16*
%TO.C,J34*%
X223000000Y-147000000D03*
D17*
X225000000Y-147000000D03*
%TD*%
D16*
%TO.C,J35*%
X235000000Y-157000000D03*
D17*
X237000000Y-157000000D03*
%TD*%
D29*
%TO.C,USB1*%
X72000000Y-230595000D03*
X72000000Y-241009000D03*
D30*
X76320000Y-235897000D03*
X67680000Y-235897000D03*
D31*
X71500000Y-236102000D03*
D32*
X73520000Y-236102000D03*
D33*
X74750000Y-236102000D03*
D31*
X72500000Y-236102000D03*
D32*
X70480000Y-236102000D03*
D33*
X69250000Y-236102000D03*
%TD*%
D15*
%TO.C,H4*%
X97497000Y-46055000D03*
%TD*%
D12*
%TO.C,J60*%
X184550000Y-135175000D03*
D13*
X184550000Y-137715000D03*
%TD*%
D23*
%TO.C,H24*%
X270354000Y-91416000D03*
%TD*%
D14*
%TO.C,H31*%
X72150000Y-279000000D03*
%TD*%
D23*
%TO.C,H18*%
X299424000Y-91416000D03*
%TD*%
D12*
%TO.C,J58*%
X308040000Y-218250000D03*
D13*
X308040000Y-215710000D03*
X308040000Y-213170000D03*
X308040000Y-210630000D03*
X308040000Y-208090000D03*
X308040000Y-205550000D03*
X308040000Y-203010000D03*
%TD*%
D10*
%TO.C,J19*%
X69815000Y-28675000D03*
X68815000Y-28675000D03*
X67815000Y-28675000D03*
X66815000Y-28675000D03*
D11*
X71115000Y-31200000D03*
X65515000Y-31200000D03*
%TD*%
D27*
%TO.C,H19*%
X325463000Y-145910000D03*
%TD*%
D12*
%TO.C,J61*%
X284625000Y-210652000D03*
D13*
X284625000Y-208112000D03*
X284625000Y-205572000D03*
%TD*%
D18*
%TO.C,J29*%
X293160000Y-40468000D03*
X294160000Y-40468000D03*
X295160000Y-40468000D03*
X296160000Y-40468000D03*
D19*
X297460000Y-37943000D03*
X291860000Y-37943000D03*
%TD*%
D25*
%TO.C,J12*%
X206675000Y-176500000D03*
X206675000Y-177500000D03*
X206675000Y-178500000D03*
X206675000Y-179500000D03*
D26*
X209200000Y-180800000D03*
X209200000Y-175200000D03*
%TD*%
D10*
%TO.C,J18*%
X45200000Y-28675000D03*
X44200000Y-28675000D03*
X43200000Y-28675000D03*
X42200000Y-28675000D03*
D11*
X40900000Y-31200000D03*
X46500000Y-31200000D03*
%TD*%
D16*
%TO.C,J44*%
X115860000Y-9688000D03*
D17*
X117860000Y-9688000D03*
%TD*%
D16*
%TO.C,J46*%
X115860000Y-1288000D03*
D17*
X117860000Y-1288000D03*
%TD*%
D14*
%TO.C,H32*%
X176350000Y-279000000D03*
%TD*%
D23*
%TO.C,H23*%
X257354000Y-58416000D03*
%TD*%
D20*
%TO.C,J1*%
X20900000Y-3200000D03*
X21400000Y-2400000D03*
X21900000Y-3200000D03*
X22400000Y-2400000D03*
X22900000Y-3200000D03*
X23400000Y-2400000D03*
X23900000Y-3200000D03*
X24400000Y-2400000D03*
X24900000Y-3200000D03*
X25400000Y-2400000D03*
X25900000Y-3200000D03*
X26400000Y-2400000D03*
X26900000Y-3200000D03*
X27400000Y-2400000D03*
X27900000Y-3200000D03*
X28400000Y-2400000D03*
X28900000Y-3200000D03*
X29400000Y-2400000D03*
X29900000Y-3200000D03*
D21*
X32650000Y3200000D03*
D22*
X18150000Y-2840000D03*
D21*
X18150000Y3200000D03*
D22*
X32650000Y-2840000D03*
%TD*%
D10*
%TO.C,J21*%
X53400000Y-28675000D03*
X52400000Y-28675000D03*
X51400000Y-28675000D03*
X50400000Y-28675000D03*
D11*
X49100000Y-31200000D03*
X54700000Y-31200000D03*
%TD*%
D16*
%TO.C,J40*%
X175000000Y-88000000D03*
D17*
X177000000Y-88000000D03*
%TD*%
D34*
%TO.C,R2*%
X211807500Y-137953000D03*
X213632500Y-137953000D03*
%TD*%
D24*
%TO.C,D2*%
X251845000Y-113270000D03*
X247045000Y-113270000D03*
%TD*%
D12*
%TO.C,J51*%
X184550000Y-122725000D03*
D13*
X184550000Y-125265000D03*
%TD*%
D34*
%TO.C,R1*%
X211817500Y-140527000D03*
X213642500Y-140527000D03*
%TD*%
D18*
%TO.C,J23*%
X259910000Y-31968000D03*
X260910000Y-31968000D03*
X261910000Y-31968000D03*
X262910000Y-31968000D03*
D19*
X258610000Y-29443000D03*
X264210000Y-29443000D03*
%TD*%
D18*
%TO.C,J22*%
X283160000Y-31968000D03*
X284160000Y-31968000D03*
X285160000Y-31968000D03*
X286160000Y-31968000D03*
D19*
X281860000Y-29443000D03*
X287460000Y-29443000D03*
%TD*%
D18*
%TO.C,J25*%
X259910000Y-40468000D03*
X260910000Y-40468000D03*
X261910000Y-40468000D03*
X262910000Y-40468000D03*
D19*
X264210000Y-37943000D03*
X258610000Y-37943000D03*
%TD*%
D23*
%TO.C,H29*%
X329474000Y-91365999D03*
%TD*%
D15*
%TO.C,H12*%
X236855000Y-92555000D03*
%TD*%
D35*
%TO.C,DC1*%
X-205000Y4875000D03*
D36*
X5925000Y5825000D03*
D37*
X4995000Y-1375000D03*
X-205000Y-1375000D03*
D38*
X-205000Y-4625000D03*
D36*
X-3925000Y5825000D03*
%TD*%
D23*
%TO.C,H27*%
X329474000Y-58365999D03*
%TD*%
D20*
%TO.C,J8*%
X287600000Y-3200000D03*
X288100000Y-2400000D03*
X288600000Y-3200000D03*
X289100000Y-2400000D03*
X289600000Y-3200000D03*
X290100000Y-2400000D03*
X290600000Y-3200000D03*
X291100000Y-2400000D03*
X291600000Y-3200000D03*
X292100000Y-2400000D03*
X292600000Y-3200000D03*
X293100000Y-2400000D03*
X293600000Y-3200000D03*
X294100000Y-2400000D03*
X294600000Y-3200000D03*
X295100000Y-2400000D03*
X295600000Y-3200000D03*
X296100000Y-2400000D03*
X296600000Y-3200000D03*
D22*
X284850000Y-2840000D03*
D21*
X284850000Y3200000D03*
D22*
X299350000Y-2840000D03*
D21*
X299350000Y3200000D03*
%TD*%
D18*
%TO.C,J42*%
X317910000Y-33468000D03*
X318910000Y-33468000D03*
X319910000Y-33468000D03*
X320910000Y-33468000D03*
D19*
X316610000Y-30943000D03*
X322210000Y-30943000D03*
%TD*%
D20*
%TO.C,J2*%
X59000000Y-3200000D03*
X59500000Y-2400000D03*
X60000000Y-3200000D03*
X60500000Y-2400000D03*
X61000000Y-3200000D03*
X61500000Y-2400000D03*
X62000000Y-3200000D03*
X62500000Y-2400000D03*
X63000000Y-3200000D03*
X63500000Y-2400000D03*
X64000000Y-3200000D03*
X64500000Y-2400000D03*
X65000000Y-3200000D03*
X65500000Y-2400000D03*
X66000000Y-3200000D03*
X66500000Y-2400000D03*
X67000000Y-3200000D03*
X67500000Y-2400000D03*
X68000000Y-3200000D03*
D21*
X56250000Y3200000D03*
D22*
X56250000Y-2840000D03*
X70750000Y-2840000D03*
D21*
X70750000Y3200000D03*
%TD*%
D18*
%TO.C,J37*%
X317910000Y-40468000D03*
X318910000Y-40468000D03*
X319910000Y-40468000D03*
X320910000Y-40468000D03*
D19*
X322210000Y-37943000D03*
X316610000Y-37943000D03*
%TD*%
D10*
%TO.C,J17*%
X61600000Y-28675000D03*
X60600000Y-28675000D03*
X59600000Y-28675000D03*
X58600000Y-28675000D03*
D11*
X62900000Y-31200000D03*
X57300000Y-31200000D03*
%TD*%
D39*
%TO.C,H41*%
X306985000Y-246455000D03*
%TD*%
D16*
%TO.C,J30*%
X229000000Y-166000000D03*
D17*
X231000000Y-166000000D03*
%TD*%
D16*
%TO.C,J32*%
X307585000Y-12413000D03*
D17*
X309585000Y-12413000D03*
%TD*%
D12*
%TO.C,J14*%
X219360000Y-178050000D03*
D13*
X219360000Y-180590000D03*
X219360000Y-183130000D03*
X219360000Y-185670000D03*
X219360000Y-188210000D03*
X219360000Y-190750000D03*
X219360000Y-193290000D03*
%TD*%
D16*
%TO.C,J45*%
X195940000Y-1293000D03*
D17*
X197940000Y-1293000D03*
%TD*%
D14*
%TO.C,H30*%
X280550000Y-106000000D03*
%TD*%
%TO.C,H33*%
X280550000Y-279000000D03*
%TD*%
D20*
%TO.C,J4*%
X135200000Y-3200000D03*
X135700000Y-2400000D03*
X136200000Y-3200000D03*
X136700000Y-2400000D03*
X137200000Y-3200000D03*
X137700000Y-2400000D03*
X138200000Y-3200000D03*
X138700000Y-2400000D03*
X139200000Y-3200000D03*
X139700000Y-2400000D03*
X140200000Y-3200000D03*
X140700000Y-2400000D03*
X141200000Y-3200000D03*
X141700000Y-2400000D03*
X142200000Y-3200000D03*
X142700000Y-2400000D03*
X143200000Y-3200000D03*
X143700000Y-2400000D03*
X144200000Y-3200000D03*
D21*
X146950000Y3200000D03*
D22*
X146950000Y-2840000D03*
X132450000Y-2840000D03*
D21*
X132450000Y3200000D03*
%TD*%
D18*
%TO.C,J24*%
X283160000Y-40468000D03*
X284160000Y-40468000D03*
X285160000Y-40468000D03*
X286160000Y-40468000D03*
D19*
X281860000Y-37943000D03*
X287460000Y-37943000D03*
%TD*%
D10*
%TO.C,J49*%
X333300000Y-101273000D03*
X332300000Y-101273000D03*
X331300000Y-101273000D03*
X330300000Y-101273000D03*
D11*
X334600000Y-103798000D03*
X329000000Y-103798000D03*
%TD*%
D12*
%TO.C,J56*%
X239802000Y-135175000D03*
D13*
X237262000Y-135175000D03*
X234722000Y-135175000D03*
X232182000Y-135175000D03*
X229642000Y-135175000D03*
%TD*%
D14*
%TO.C,H35*%
X176350000Y-106000000D03*
%TD*%
D12*
%TO.C,J15*%
X234600000Y-178050000D03*
D13*
X234600000Y-180590000D03*
X234600000Y-183130000D03*
X234600000Y-185670000D03*
X234600000Y-188210000D03*
X234600000Y-190750000D03*
X234600000Y-193290000D03*
%TD*%
D24*
%TO.C,D1*%
X243800000Y-177975000D03*
X239000000Y-177975000D03*
%TD*%
D18*
%TO.C,J28*%
X269410000Y-31968000D03*
X270410000Y-31968000D03*
X271410000Y-31968000D03*
X272410000Y-31968000D03*
D19*
X273710000Y-29443000D03*
X268110000Y-29443000D03*
%TD*%
D14*
%TO.C,H34*%
X350000000Y-35000000D03*
%TD*%
D39*
%TO.C,H41*%
X176215000Y-242965000D03*
%TD*%
D23*
%TO.C,H22*%
X270354000Y-58416000D03*
%TD*%
D20*
%TO.C,J5*%
X173300000Y-3200000D03*
X173800000Y-2400000D03*
X174300000Y-3200000D03*
X174800000Y-2400000D03*
X175300000Y-3200000D03*
X175800000Y-2400000D03*
X176300000Y-3200000D03*
X176800000Y-2400000D03*
X177300000Y-3200000D03*
X177800000Y-2400000D03*
X178300000Y-3200000D03*
X178800000Y-2400000D03*
X179300000Y-3200000D03*
X179800000Y-2400000D03*
X180300000Y-3200000D03*
X180800000Y-2400000D03*
X181300000Y-3200000D03*
X181800000Y-2400000D03*
X182300000Y-3200000D03*
D21*
X170550000Y3200000D03*
D22*
X170550000Y-2840000D03*
D21*
X185050000Y3200000D03*
D22*
X185050000Y-2840000D03*
%TD*%
D27*
%TO.C,H20*%
X265463000Y-180910000D03*
%TD*%
D12*
%TO.C,J59*%
X292800000Y-218250000D03*
D13*
X292800000Y-215710000D03*
X292800000Y-213170000D03*
X292800000Y-210630000D03*
X292800000Y-208090000D03*
X292800000Y-205550000D03*
X292800000Y-203010000D03*
%TD*%
D12*
%TO.C,J55*%
X226470000Y-113660000D03*
D13*
X226470000Y-116200000D03*
X226470000Y-118740000D03*
X226470000Y-121280000D03*
X226470000Y-123820000D03*
X226470000Y-126360000D03*
X226470000Y-128900000D03*
%TD*%
D10*
%TO.C,J27*%
X140830000Y-27425000D03*
X139830000Y-27425000D03*
X138830000Y-27425000D03*
X137830000Y-27425000D03*
D11*
X136530000Y-29950000D03*
X142130000Y-29950000D03*
%TD*%
D10*
%TO.C,J16*%
X124425000Y-27425000D03*
X123425000Y-27425000D03*
X122425000Y-27425000D03*
X121425000Y-27425000D03*
D11*
X125725000Y-29950000D03*
X120125000Y-29950000D03*
%TD*%
D16*
%TO.C,J41*%
X175000000Y-70000000D03*
D17*
X177000000Y-70000000D03*
%TD*%
D27*
%TO.C,H10*%
X139706000Y-202715000D03*
%TD*%
D10*
%TO.C,J54*%
X324300000Y-101273000D03*
X323300000Y-101273000D03*
X322300000Y-101273000D03*
X321300000Y-101273000D03*
D11*
X320000000Y-103798000D03*
X325600000Y-103798000D03*
%TD*%
D23*
%TO.C,H15*%
X299424000Y-58416000D03*
%TD*%
D15*
%TO.C,H11*%
X193855000Y-92555000D03*
%TD*%
D23*
%TO.C,H16*%
X286424000Y-58416000D03*
%TD*%
D18*
%TO.C,J26*%
X293160000Y-31968000D03*
X294160000Y-31968000D03*
X295160000Y-31968000D03*
X296160000Y-31968000D03*
D19*
X297460000Y-29443000D03*
X291860000Y-29443000D03*
%TD*%
D14*
%TO.C,H36*%
X350000000Y-150000000D03*
%TD*%
D40*
%TO.C,USB2*%
X68500000Y-248450000D03*
D41*
X71000000Y-248450000D03*
X73000000Y-248450000D03*
X75500000Y-248450000D03*
D29*
X78425000Y-250550000D03*
X65575000Y-250550000D03*
%TD*%
D18*
%TO.C,J31*%
X269410000Y-40468000D03*
X270410000Y-40468000D03*
X271410000Y-40468000D03*
X272410000Y-40468000D03*
D19*
X273710000Y-37943000D03*
X268110000Y-37943000D03*
%TD*%
D42*
%TO.C,J67*%
X81000000Y-152000000D03*
D43*
X81000000Y-150000000D03*
%TD*%
D23*
%TO.C,H26*%
X316474000Y-58365999D03*
%TD*%
D42*
%TO.C,J47*%
X-5277000Y-154400000D03*
D43*
X-5277000Y-152400000D03*
%TD*%
D20*
%TO.C,J3*%
X97100000Y-3200000D03*
X97600000Y-2400000D03*
X98100000Y-3200000D03*
X98600000Y-2400000D03*
X99100000Y-3200000D03*
X99600000Y-2400000D03*
X100100000Y-3200000D03*
X100600000Y-2400000D03*
X101100000Y-3200000D03*
X101600000Y-2400000D03*
X102100000Y-3200000D03*
X102600000Y-2400000D03*
X103100000Y-3200000D03*
X103600000Y-2400000D03*
X104100000Y-3200000D03*
X104600000Y-2400000D03*
X105100000Y-3200000D03*
X105600000Y-2400000D03*
X106100000Y-3200000D03*
D22*
X94350000Y-2840000D03*
D21*
X108850000Y3200000D03*
X94350000Y3200000D03*
D22*
X108850000Y-2840000D03*
%TD*%
M02*
