%TF.GenerationSoftware,KiCad,Pcbnew,(6.0.5)*%
%TF.CreationDate,2022-12-30T15:28:45-07:00*%
%TF.ProjectId,Thermometry_Enclosure,54686572-6d6f-46d6-9574-72795f456e63,rev?*%
%TF.SameCoordinates,Original*%
%TF.FileFunction,Soldermask,Bot*%
%TF.FilePolarity,Negative*%
%FSLAX46Y46*%
G04 Gerber Fmt 4.6, Leading zero omitted, Abs format (unit mm)*
G04 Created by KiCad (PCBNEW (6.0.5)) date 2022-12-30 15:28:45*
%MOMM*%
%LPD*%
G01*
G04 APERTURE LIST*
G04 Aperture macros list*
%AMRoundRect*
0 Rectangle with rounded corners*
0 $1 Rounding radius*
0 $2 $3 $4 $5 $6 $7 $8 $9 X,Y pos of 4 corners*
0 Add a 4 corners polygon primitive as box body*
4,1,4,$2,$3,$4,$5,$6,$7,$8,$9,$2,$3,0*
0 Add four circle primitives for the rounded corners*
1,1,$1+$1,$2,$3*
1,1,$1+$1,$4,$5*
1,1,$1+$1,$6,$7*
1,1,$1+$1,$8,$9*
0 Add four rect primitives between the rounded corners*
20,1,$1+$1,$2,$3,$4,$5,0*
20,1,$1+$1,$4,$5,$6,$7,0*
20,1,$1+$1,$6,$7,$8,$9,0*
20,1,$1+$1,$8,$9,$2,$3,0*%
G04 Aperture macros list end*
%ADD10C,1.800000*%
%ADD11C,1.000000*%
%ADD12O,1.500000X2.200000*%
%ADD13R,1.700000X1.700000*%
%ADD14O,1.700000X1.700000*%
%ADD15C,10.600000*%
%ADD16C,6.400000*%
%ADD17RoundRect,0.250000X-0.350000X-0.625000X0.350000X-0.625000X0.350000X0.625000X-0.350000X0.625000X0*%
%ADD18O,1.200000X1.750000*%
%ADD19C,4.400000*%
%ADD20C,5.400000*%
%ADD21RoundRect,0.250000X0.350000X0.625000X-0.350000X0.625000X-0.350000X-0.625000X0.350000X-0.625000X0*%
%ADD22C,3.000000*%
%ADD23O,1.000000X2.200000*%
%ADD24O,0.800000X1.650000*%
%ADD25O,0.820000X1.650000*%
%ADD26O,1.020000X1.650000*%
%ADD27C,2.500000*%
%ADD28O,1.200000X3.800000*%
%ADD29O,1.200000X2.500000*%
%ADD30C,2.000000*%
%ADD31C,13.000000*%
%ADD32R,1.550000X1.524000*%
%ADD33C,1.550000*%
%ADD34RoundRect,0.250000X0.625000X-0.350000X0.625000X0.350000X-0.625000X0.350000X-0.625000X-0.350000X0*%
%ADD35O,1.750000X1.200000*%
G04 APERTURE END LIST*
D10*
%TO.C,J1*%
X25400000Y3550000D03*
D11*
X20640000Y-2950000D03*
X21390000Y-1450000D03*
X22140000Y-2950000D03*
X22140000Y50000D03*
X22890000Y-1450000D03*
X23640000Y50000D03*
X23640000Y-2950000D03*
X24390000Y-1450000D03*
X25140000Y-2950000D03*
X25140000Y50000D03*
X25890000Y-1450000D03*
X26640000Y50000D03*
X26640000Y-2950000D03*
X27390000Y-1450000D03*
X28140000Y-2950000D03*
X28140000Y50000D03*
X28890000Y-1450000D03*
X29640000Y50000D03*
X29640000Y-2950000D03*
D12*
X33260000Y5350000D03*
X17540000Y5350000D03*
%TD*%
D10*
%TO.C,J9*%
X330200000Y3550000D03*
D11*
X325440000Y-2950000D03*
X326190000Y-1450000D03*
X326940000Y-2950000D03*
X326940000Y50000D03*
X327690000Y-1450000D03*
X328440000Y50000D03*
X328440000Y-2950000D03*
X329190000Y-1450000D03*
X329940000Y-2950000D03*
X329940000Y50000D03*
X330690000Y-1450000D03*
X331440000Y50000D03*
X331440000Y-2950000D03*
X332190000Y-1450000D03*
X332940000Y-2950000D03*
X332940000Y50000D03*
X333690000Y-1450000D03*
X334440000Y50000D03*
X334440000Y-2950000D03*
D12*
X338060000Y5350000D03*
X322340000Y5350000D03*
%TD*%
D10*
%TO.C,J8*%
X292100000Y3550000D03*
D11*
X287340000Y-2950000D03*
X288090000Y-1450000D03*
X288840000Y-2950000D03*
X288840000Y50000D03*
X289590000Y-1450000D03*
X290340000Y50000D03*
X290340000Y-2950000D03*
X291090000Y-1450000D03*
X291840000Y-2950000D03*
X291840000Y50000D03*
X292590000Y-1450000D03*
X293340000Y50000D03*
X293340000Y-2950000D03*
X294090000Y-1450000D03*
X294840000Y-2950000D03*
X294840000Y50000D03*
X295590000Y-1450000D03*
X296340000Y50000D03*
X296340000Y-2950000D03*
D12*
X299960000Y5350000D03*
X284240000Y5350000D03*
%TD*%
D10*
%TO.C,J7*%
X254000000Y3550000D03*
D11*
X249240000Y-2950000D03*
X249990000Y-1450000D03*
X250740000Y-2950000D03*
X250740000Y50000D03*
X251490000Y-1450000D03*
X252240000Y50000D03*
X252240000Y-2950000D03*
X252990000Y-1450000D03*
X253740000Y-2950000D03*
X253740000Y50000D03*
X254490000Y-1450000D03*
X255240000Y50000D03*
X255240000Y-2950000D03*
X255990000Y-1450000D03*
X256740000Y-2950000D03*
X256740000Y50000D03*
X257490000Y-1450000D03*
X258240000Y50000D03*
X258240000Y-2950000D03*
D12*
X261860000Y5350000D03*
X246140000Y5350000D03*
%TD*%
%TO.C,J6*%
X208040000Y5350000D03*
X223760000Y5350000D03*
D11*
X220140000Y-2950000D03*
X220140000Y50000D03*
X219390000Y-1450000D03*
X218640000Y50000D03*
X218640000Y-2950000D03*
X217890000Y-1450000D03*
X217140000Y-2950000D03*
X217140000Y50000D03*
X216390000Y-1450000D03*
X215640000Y50000D03*
X215640000Y-2950000D03*
X214890000Y-1450000D03*
X214140000Y-2950000D03*
X214140000Y50000D03*
X213390000Y-1450000D03*
X212640000Y50000D03*
X212640000Y-2950000D03*
X211890000Y-1450000D03*
X211140000Y-2950000D03*
D10*
X215900000Y3550000D03*
%TD*%
%TO.C,J5*%
X177800000Y3550000D03*
D11*
X173040000Y-2950000D03*
X173790000Y-1450000D03*
X174540000Y-2950000D03*
X174540000Y50000D03*
X175290000Y-1450000D03*
X176040000Y50000D03*
X176040000Y-2950000D03*
X176790000Y-1450000D03*
X177540000Y-2950000D03*
X177540000Y50000D03*
X178290000Y-1450000D03*
X179040000Y50000D03*
X179040000Y-2950000D03*
X179790000Y-1450000D03*
X180540000Y-2950000D03*
X180540000Y50000D03*
X181290000Y-1450000D03*
X182040000Y50000D03*
X182040000Y-2950000D03*
D12*
X185660000Y5350000D03*
X169940000Y5350000D03*
%TD*%
D10*
%TO.C,J4*%
X139700000Y3550000D03*
D11*
X134940000Y-2950000D03*
X135690000Y-1450000D03*
X136440000Y-2950000D03*
X136440000Y50000D03*
X137190000Y-1450000D03*
X137940000Y50000D03*
X137940000Y-2950000D03*
X138690000Y-1450000D03*
X139440000Y-2950000D03*
X139440000Y50000D03*
X140190000Y-1450000D03*
X140940000Y50000D03*
X140940000Y-2950000D03*
X141690000Y-1450000D03*
X142440000Y-2950000D03*
X142440000Y50000D03*
X143190000Y-1450000D03*
X143940000Y50000D03*
X143940000Y-2950000D03*
D12*
X147560000Y5350000D03*
X131840000Y5350000D03*
%TD*%
D10*
%TO.C,J3*%
X101600000Y3550000D03*
D11*
X96840000Y-2950000D03*
X97590000Y-1450000D03*
X98340000Y-2950000D03*
X98340000Y50000D03*
X99090000Y-1450000D03*
X99840000Y50000D03*
X99840000Y-2950000D03*
X100590000Y-1450000D03*
X101340000Y-2950000D03*
X101340000Y50000D03*
X102090000Y-1450000D03*
X102840000Y50000D03*
X102840000Y-2950000D03*
X103590000Y-1450000D03*
X104340000Y-2950000D03*
X104340000Y50000D03*
X105090000Y-1450000D03*
X105840000Y50000D03*
X105840000Y-2950000D03*
D12*
X109460000Y5350000D03*
X93740000Y5350000D03*
%TD*%
%TO.C,J2*%
X55640000Y5350000D03*
X71360000Y5350000D03*
D11*
X67740000Y-2950000D03*
X67740000Y50000D03*
X66990000Y-1450000D03*
X66240000Y50000D03*
X66240000Y-2950000D03*
X65490000Y-1450000D03*
X64740000Y-2950000D03*
X64740000Y50000D03*
X63990000Y-1450000D03*
X63240000Y50000D03*
X63240000Y-2950000D03*
X62490000Y-1450000D03*
X61740000Y-2950000D03*
X61740000Y50000D03*
X60990000Y-1450000D03*
X60240000Y50000D03*
X60240000Y-2950000D03*
X59490000Y-1450000D03*
X58740000Y-2950000D03*
D10*
X63500000Y3550000D03*
%TD*%
D13*
%TO.C,J50*%
X184550000Y-116500000D03*
D14*
X184550000Y-119040000D03*
%TD*%
D15*
%TO.C,H39*%
X25000000Y-35000000D03*
%TD*%
%TO.C,H38*%
X25000000Y-175000000D03*
%TD*%
D16*
%TO.C,H8*%
X70525000Y-163125000D03*
%TD*%
D17*
%TO.C,J38*%
X175000000Y-79000000D03*
D18*
X177000000Y-79000000D03*
%TD*%
D16*
%TO.C,H7*%
X70525000Y-46125000D03*
%TD*%
%TO.C,H13*%
X193855000Y-55555000D03*
%TD*%
D19*
%TO.C,H25*%
X257354000Y-91416000D03*
%TD*%
D16*
%TO.C,H5*%
X8525000Y-46125000D03*
%TD*%
D17*
%TO.C,J43*%
X195960000Y-7663000D03*
D18*
X197960000Y-7663000D03*
%TD*%
D16*
%TO.C,H14*%
X236855000Y-55555000D03*
%TD*%
D13*
%TO.C,J53*%
X315975000Y-205544000D03*
D14*
X315975000Y-208084000D03*
X315975000Y-210624000D03*
X315975000Y-213164000D03*
%TD*%
D13*
%TO.C,J57*%
X241710000Y-113660000D03*
D14*
X241710000Y-116200000D03*
X241710000Y-118740000D03*
X241710000Y-121280000D03*
X241710000Y-123820000D03*
X241710000Y-126360000D03*
X241710000Y-128900000D03*
%TD*%
D16*
%TO.C,H6*%
X8525000Y-163125000D03*
%TD*%
%TO.C,H3*%
X159497000Y-46055000D03*
%TD*%
D15*
%TO.C,H37*%
X72150000Y-106000000D03*
%TD*%
D19*
%TO.C,H17*%
X286424000Y-91416000D03*
%TD*%
D17*
%TO.C,J36*%
X223000000Y-157000000D03*
D18*
X225000000Y-157000000D03*
%TD*%
D15*
%TO.C,H40*%
X216000000Y-44000000D03*
%TD*%
D19*
%TO.C,H28*%
X316474000Y-91365999D03*
%TD*%
D20*
%TO.C,H9*%
X139706000Y-174715000D03*
%TD*%
D16*
%TO.C,H1*%
X97497000Y-163055000D03*
%TD*%
%TO.C,H2*%
X159497000Y-163055000D03*
%TD*%
D13*
%TO.C,J52*%
X184550000Y-128950000D03*
D14*
X184550000Y-131490000D03*
%TD*%
D17*
%TO.C,J39*%
X175000000Y-61000000D03*
D18*
X177000000Y-61000000D03*
%TD*%
D13*
%TO.C,J48*%
X241375000Y-185648000D03*
D14*
X241375000Y-188188000D03*
X241375000Y-190728000D03*
%TD*%
D21*
%TO.C,J68*%
X243950000Y-104300000D03*
D18*
X241950000Y-104300000D03*
%TD*%
D17*
%TO.C,J33*%
X235000000Y-147000000D03*
D18*
X237000000Y-147000000D03*
%TD*%
D20*
%TO.C,H21*%
X265463000Y-145910000D03*
%TD*%
D17*
%TO.C,J34*%
X223000000Y-147000000D03*
D18*
X225000000Y-147000000D03*
%TD*%
D17*
%TO.C,J35*%
X235000000Y-157000000D03*
D18*
X237000000Y-157000000D03*
%TD*%
D22*
%TO.C,USB1*%
X72000000Y-230595000D03*
X72000000Y-241009000D03*
D23*
X76320000Y-235897000D03*
X67680000Y-235897000D03*
D24*
X71500000Y-236102000D03*
D25*
X73520000Y-236102000D03*
D26*
X74750000Y-236102000D03*
D24*
X72500000Y-236102000D03*
D25*
X70480000Y-236102000D03*
D26*
X69250000Y-236102000D03*
%TD*%
D16*
%TO.C,H4*%
X97497000Y-46055000D03*
%TD*%
D13*
%TO.C,J60*%
X184550000Y-135175000D03*
D14*
X184550000Y-137715000D03*
%TD*%
D19*
%TO.C,H24*%
X270354000Y-91416000D03*
%TD*%
D15*
%TO.C,H31*%
X72150000Y-279000000D03*
%TD*%
D19*
%TO.C,H18*%
X299424000Y-91416000D03*
%TD*%
D13*
%TO.C,J58*%
X308040000Y-218250000D03*
D14*
X308040000Y-215710000D03*
X308040000Y-213170000D03*
X308040000Y-210630000D03*
X308040000Y-208090000D03*
X308040000Y-205550000D03*
X308040000Y-203010000D03*
%TD*%
D20*
%TO.C,H19*%
X325463000Y-145910000D03*
%TD*%
D13*
%TO.C,J61*%
X284625000Y-210652000D03*
D14*
X284625000Y-208112000D03*
X284625000Y-205572000D03*
%TD*%
D17*
%TO.C,J44*%
X115860000Y-9688000D03*
D18*
X117860000Y-9688000D03*
%TD*%
D17*
%TO.C,J46*%
X115860000Y-1288000D03*
D18*
X117860000Y-1288000D03*
%TD*%
D15*
%TO.C,H32*%
X176350000Y-279000000D03*
%TD*%
D19*
%TO.C,H23*%
X257354000Y-58416000D03*
%TD*%
D17*
%TO.C,J40*%
X175000000Y-88000000D03*
D18*
X177000000Y-88000000D03*
%TD*%
D13*
%TO.C,J51*%
X184550000Y-122725000D03*
D14*
X184550000Y-125265000D03*
%TD*%
D19*
%TO.C,H29*%
X329474000Y-91365999D03*
%TD*%
D16*
%TO.C,H12*%
X236855000Y-92555000D03*
%TD*%
D27*
%TO.C,DC1*%
X-205000Y4875000D03*
D28*
X5925000Y5825000D03*
D29*
X4995000Y-1375000D03*
X-205000Y-1375000D03*
D30*
X-205000Y-4625000D03*
D28*
X-3925000Y5825000D03*
%TD*%
D19*
%TO.C,H27*%
X329474000Y-58365999D03*
%TD*%
D31*
%TO.C,H41*%
X306985000Y-246455000D03*
%TD*%
D17*
%TO.C,J30*%
X229000000Y-166000000D03*
D18*
X231000000Y-166000000D03*
%TD*%
D17*
%TO.C,J32*%
X307585000Y-12413000D03*
D18*
X309585000Y-12413000D03*
%TD*%
D13*
%TO.C,J14*%
X219360000Y-178050000D03*
D14*
X219360000Y-180590000D03*
X219360000Y-183130000D03*
X219360000Y-185670000D03*
X219360000Y-188210000D03*
X219360000Y-190750000D03*
X219360000Y-193290000D03*
%TD*%
D17*
%TO.C,J45*%
X195940000Y-1293000D03*
D18*
X197940000Y-1293000D03*
%TD*%
D15*
%TO.C,H30*%
X280550000Y-106000000D03*
%TD*%
%TO.C,H33*%
X280550000Y-279000000D03*
%TD*%
D13*
%TO.C,J56*%
X239802000Y-135175000D03*
D14*
X237262000Y-135175000D03*
X234722000Y-135175000D03*
X232182000Y-135175000D03*
X229642000Y-135175000D03*
%TD*%
D15*
%TO.C,H35*%
X176350000Y-106000000D03*
%TD*%
D13*
%TO.C,J15*%
X234600000Y-178050000D03*
D14*
X234600000Y-180590000D03*
X234600000Y-183130000D03*
X234600000Y-185670000D03*
X234600000Y-188210000D03*
X234600000Y-190750000D03*
X234600000Y-193290000D03*
%TD*%
D15*
%TO.C,H34*%
X350000000Y-35000000D03*
%TD*%
D31*
%TO.C,H41*%
X176215000Y-242965000D03*
%TD*%
D19*
%TO.C,H22*%
X270354000Y-58416000D03*
%TD*%
D20*
%TO.C,H20*%
X265463000Y-180910000D03*
%TD*%
D13*
%TO.C,J59*%
X292800000Y-218250000D03*
D14*
X292800000Y-215710000D03*
X292800000Y-213170000D03*
X292800000Y-210630000D03*
X292800000Y-208090000D03*
X292800000Y-205550000D03*
X292800000Y-203010000D03*
%TD*%
D13*
%TO.C,J55*%
X226470000Y-113660000D03*
D14*
X226470000Y-116200000D03*
X226470000Y-118740000D03*
X226470000Y-121280000D03*
X226470000Y-123820000D03*
X226470000Y-126360000D03*
X226470000Y-128900000D03*
%TD*%
D17*
%TO.C,J41*%
X175000000Y-70000000D03*
D18*
X177000000Y-70000000D03*
%TD*%
D20*
%TO.C,H10*%
X139706000Y-202715000D03*
%TD*%
D19*
%TO.C,H15*%
X299424000Y-58416000D03*
%TD*%
D16*
%TO.C,H11*%
X193855000Y-92555000D03*
%TD*%
D19*
%TO.C,H16*%
X286424000Y-58416000D03*
%TD*%
D15*
%TO.C,H36*%
X350000000Y-150000000D03*
%TD*%
D32*
%TO.C,USB2*%
X68500000Y-248450000D03*
D33*
X71000000Y-248450000D03*
X73000000Y-248450000D03*
X75500000Y-248450000D03*
D22*
X78425000Y-250550000D03*
X65575000Y-250550000D03*
%TD*%
D34*
%TO.C,J67*%
X81000000Y-152000000D03*
D35*
X81000000Y-150000000D03*
%TD*%
D19*
%TO.C,H26*%
X316474000Y-58365999D03*
%TD*%
D34*
%TO.C,J47*%
X-5277000Y-154400000D03*
D35*
X-5277000Y-152400000D03*
%TD*%
M02*
