%TF.GenerationSoftware,KiCad,Pcbnew,7.0.9*%
%TF.CreationDate,2024-10-01T20:54:17-06:00*%
%TF.ProjectId,motherboard_v1,6d6f7468-6572-4626-9f61-72645f76312e,rev?*%
%TF.SameCoordinates,Original*%
%TF.FileFunction,Soldermask,Top*%
%TF.FilePolarity,Negative*%
%FSLAX46Y46*%
G04 Gerber Fmt 4.6, Leading zero omitted, Abs format (unit mm)*
G04 Created by KiCad (PCBNEW 7.0.9) date 2024-10-01 20:54:17*
%MOMM*%
%LPD*%
G01*
G04 APERTURE LIST*
G04 Aperture macros list*
%AMRoundRect*
0 Rectangle with rounded corners*
0 $1 Rounding radius*
0 $2 $3 $4 $5 $6 $7 $8 $9 X,Y pos of 4 corners*
0 Add a 4 corners polygon primitive as box body*
4,1,4,$2,$3,$4,$5,$6,$7,$8,$9,$2,$3,0*
0 Add four circle primitives for the rounded corners*
1,1,$1+$1,$2,$3*
1,1,$1+$1,$4,$5*
1,1,$1+$1,$6,$7*
1,1,$1+$1,$8,$9*
0 Add four rect primitives between the rounded corners*
20,1,$1+$1,$2,$3,$4,$5,0*
20,1,$1+$1,$4,$5,$6,$7,0*
20,1,$1+$1,$6,$7,$8,$9,0*
20,1,$1+$1,$8,$9,$2,$3,0*%
%AMFreePoly0*
4,1,19,0.000000,0.744911,0.071157,0.744911,0.207708,0.704816,0.327430,0.627875,0.420627,0.520320,0.479746,0.390866,0.500000,0.250000,0.500000,-0.250000,0.479746,-0.390866,0.420627,-0.520320,0.327430,-0.627875,0.207708,-0.704816,0.071157,-0.744911,0.000000,-0.744911,0.000000,-0.750000,-0.500000,-0.750000,-0.500000,0.750000,0.000000,0.750000,0.000000,0.744911,0.000000,0.744911,
$1*%
%AMFreePoly1*
4,1,19,0.500000,-0.750000,0.000000,-0.750000,0.000000,-0.744911,-0.071157,-0.744911,-0.207708,-0.704816,-0.327430,-0.627875,-0.420627,-0.520320,-0.479746,-0.390866,-0.500000,-0.250000,-0.500000,0.250000,-0.479746,0.390866,-0.420627,0.520320,-0.327430,0.627875,-0.207708,0.704816,-0.071157,0.744911,0.000000,0.744911,0.000000,0.750000,0.500000,0.750000,0.500000,-0.750000,0.500000,-0.750000,
$1*%
G04 Aperture macros list end*
%ADD10O,1.700000X1.700000*%
%ADD11R,1.700000X1.700000*%
%ADD12RoundRect,0.250000X0.350000X0.650000X-0.350000X0.650000X-0.350000X-0.650000X0.350000X-0.650000X0*%
%ADD13RoundRect,0.150000X0.150000X0.625000X-0.150000X0.625000X-0.150000X-0.625000X0.150000X-0.625000X0*%
%ADD14RoundRect,0.250000X-0.650000X0.325000X-0.650000X-0.325000X0.650000X-0.325000X0.650000X0.325000X0*%
%ADD15O,5.600000X6.600000*%
%ADD16C,2.000000*%
%ADD17RoundRect,0.135000X-0.185000X0.135000X-0.185000X-0.135000X0.185000X-0.135000X0.185000X0.135000X0*%
%ADD18O,1.750000X1.200000*%
%ADD19RoundRect,0.250000X0.625000X-0.350000X0.625000X0.350000X-0.625000X0.350000X-0.625000X-0.350000X0*%
%ADD20O,1.200000X1.750000*%
%ADD21RoundRect,0.250000X-0.350000X-0.625000X0.350000X-0.625000X0.350000X0.625000X-0.350000X0.625000X0*%
%ADD22RoundRect,0.250000X-0.650000X0.350000X-0.650000X-0.350000X0.650000X-0.350000X0.650000X0.350000X0*%
%ADD23RoundRect,0.150000X-0.625000X0.150000X-0.625000X-0.150000X0.625000X-0.150000X0.625000X0.150000X0*%
%ADD24RoundRect,0.135000X-0.135000X-0.185000X0.135000X-0.185000X0.135000X0.185000X-0.135000X0.185000X0*%
%ADD25RoundRect,0.250000X-0.350000X-0.650000X0.350000X-0.650000X0.350000X0.650000X-0.350000X0.650000X0*%
%ADD26RoundRect,0.150000X-0.150000X-0.625000X0.150000X-0.625000X0.150000X0.625000X-0.150000X0.625000X0*%
%ADD27RoundRect,0.155000X-0.212500X-0.155000X0.212500X-0.155000X0.212500X0.155000X-0.212500X0.155000X0*%
%ADD28C,1.520000*%
%ADD29R,1.520000X1.520000*%
%ADD30C,1.270000*%
%ADD31C,1.800000*%
%ADD32R,1.800000X1.800000*%
%ADD33C,1.350000*%
%ADD34C,2.600000*%
%ADD35C,4.318000*%
%ADD36RoundRect,0.155000X-0.155000X0.212500X-0.155000X-0.212500X0.155000X-0.212500X0.155000X0.212500X0*%
%ADD37C,5.600000*%
%ADD38O,2.000000X0.900000*%
%ADD39RoundRect,0.250000X-1.000000X-0.650000X1.000000X-0.650000X1.000000X0.650000X-1.000000X0.650000X0*%
%ADD40RoundRect,0.250000X-0.325000X-0.650000X0.325000X-0.650000X0.325000X0.650000X-0.325000X0.650000X0*%
%ADD41RoundRect,0.225000X0.225000X0.250000X-0.225000X0.250000X-0.225000X-0.250000X0.225000X-0.250000X0*%
%ADD42C,3.000000*%
%ADD43FreePoly0,270.000000*%
%ADD44FreePoly1,270.000000*%
%ADD45RoundRect,0.237500X0.237500X-0.287500X0.237500X0.287500X-0.237500X0.287500X-0.237500X-0.287500X0*%
%ADD46RoundRect,0.155000X0.212500X0.155000X-0.212500X0.155000X-0.212500X-0.155000X0.212500X-0.155000X0*%
%ADD47C,6.000000*%
%ADD48R,2.047000X2.192000*%
%ADD49FreePoly0,180.000000*%
%ADD50FreePoly1,180.000000*%
%ADD51RoundRect,0.250000X0.650000X-0.350000X0.650000X0.350000X-0.650000X0.350000X-0.650000X-0.350000X0*%
%ADD52RoundRect,0.150000X0.625000X-0.150000X0.625000X0.150000X-0.625000X0.150000X-0.625000X-0.150000X0*%
%ADD53RoundRect,0.250000X-1.950000X-1.000000X1.950000X-1.000000X1.950000X1.000000X-1.950000X1.000000X0*%
%ADD54R,3.320000X2.150000*%
%ADD55RoundRect,0.155000X0.155000X-0.212500X0.155000X0.212500X-0.155000X0.212500X-0.155000X-0.212500X0*%
%ADD56RoundRect,0.225000X0.250000X-0.225000X0.250000X0.225000X-0.250000X0.225000X-0.250000X-0.225000X0*%
G04 APERTURE END LIST*
D10*
%TO.C,q8*%
X-30735000Y-247635000D03*
X-30735000Y-245095000D03*
X-30735000Y-242555000D03*
X-30735000Y-240015000D03*
X-30735000Y-237475000D03*
X-30735000Y-234935000D03*
D11*
X-30735000Y-232395000D03*
%TD*%
D10*
%TO.C,q6*%
X-35335000Y-247635000D03*
X-35335000Y-245095000D03*
X-35335000Y-242555000D03*
X-35335000Y-240015000D03*
X-35335000Y-237475000D03*
X-35335000Y-234935000D03*
D11*
X-35335000Y-232395000D03*
%TD*%
D10*
%TO.C,q7*%
X-39935000Y-247635000D03*
X-39935000Y-245095000D03*
X-39935000Y-242555000D03*
X-39935000Y-240015000D03*
X-39935000Y-237475000D03*
X-39935000Y-234935000D03*
D11*
X-39935000Y-232395000D03*
%TD*%
D10*
%TO.C,q5*%
X-44535000Y-247635000D03*
X-44535000Y-245095000D03*
X-44535000Y-242555000D03*
X-44535000Y-240015000D03*
X-44535000Y-237475000D03*
X-44535000Y-234935000D03*
D11*
X-44535000Y-232395000D03*
%TD*%
D12*
%TO.C,J26-Lock-in6*%
X117800000Y-46925000D03*
X123400000Y-46925000D03*
D13*
X119100000Y-44400000D03*
X120100000Y-44400000D03*
X121100000Y-44400000D03*
X122100000Y-44400000D03*
%TD*%
D14*
%TO.C,C12*%
X366000000Y-37000000D03*
X366000000Y-34050000D03*
%TD*%
D15*
%TO.C,H9*%
X265050000Y-290000000D03*
%TD*%
D16*
%TO.C,U1*%
X371420000Y-70560000D03*
X381580000Y-70560000D03*
X391740000Y-70560000D03*
X389200000Y-24840000D03*
X379040000Y-24840000D03*
X373960000Y-24840000D03*
%TD*%
D17*
%TO.C,R2*%
X398085002Y-14465000D03*
X398085002Y-13445000D03*
%TD*%
D18*
%TO.C,UartMux1*%
X219000000Y-235000000D03*
D19*
X219000000Y-237000000D03*
%TD*%
D20*
%TO.C,J31-HighPower4*%
X310000000Y-83491726D03*
D21*
X308000000Y-83491726D03*
%TD*%
D22*
%TO.C,C4*%
X284525000Y-251308274D03*
X284525000Y-245708274D03*
D23*
X282000000Y-250008274D03*
X282000000Y-249008274D03*
X282000000Y-248008274D03*
X282000000Y-247008274D03*
%TD*%
D12*
%TO.C,J33-Diode10*%
X246500000Y-68400000D03*
X252100000Y-68400000D03*
D13*
X247800000Y-65875000D03*
X248800000Y-65875000D03*
X249800000Y-65875000D03*
X250800000Y-65875000D03*
%TD*%
D24*
%TO.C,R3*%
X309385000Y-166605000D03*
X308365000Y-166605000D03*
%TD*%
D25*
%TO.C,C2*%
X254000000Y-218000000D03*
X248400000Y-218000000D03*
D26*
X252700000Y-220525000D03*
X251700000Y-220525000D03*
X250700000Y-220525000D03*
X249700000Y-220525000D03*
%TD*%
D27*
%TO.C,C18*%
X347344500Y-48361000D03*
X346209500Y-48361000D03*
%TD*%
D28*
%TO.C,J12*%
X344500003Y-42000000D03*
X347500002Y-42000000D03*
X350500001Y-42000000D03*
D29*
X353500000Y-42000000D03*
D30*
X356499999Y-43960000D03*
X341500029Y-43960000D03*
%TD*%
D12*
%TO.C,C7*%
X34250000Y-287800000D03*
X39850000Y-287800000D03*
D13*
X35550000Y-285275000D03*
X36550000Y-285275000D03*
X37550000Y-285275000D03*
X38550000Y-285275000D03*
%TD*%
D31*
%TO.C,J11*%
X351000000Y-172451726D03*
D32*
X354000000Y-172451726D03*
D33*
X357000000Y-174411726D03*
X348000000Y-174411726D03*
%TD*%
D25*
%TO.C,C5*%
X73050000Y-207125000D03*
X67450000Y-207125000D03*
D26*
X71750000Y-209650000D03*
X70750000Y-209650000D03*
X69750000Y-209650000D03*
X68750000Y-209650000D03*
%TD*%
D12*
%TO.C,J14-Lock-in4*%
X63800000Y-46925000D03*
X69400000Y-46925000D03*
D13*
X65100000Y-44400000D03*
X66100000Y-44400000D03*
X67100000Y-44400000D03*
X68100000Y-44400000D03*
%TD*%
D20*
%TO.C,J101*%
X115475000Y-290025000D03*
D21*
X113475000Y-290025000D03*
%TD*%
D34*
%TO.C,J1*%
X311000000Y-40000000D03*
%TD*%
D15*
%TO.C,H6*%
X273050000Y-52000000D03*
%TD*%
D12*
%TO.C,J32-Lock-in8*%
X147800000Y-46925000D03*
X153400000Y-46925000D03*
D13*
X149100000Y-44400000D03*
X150100000Y-44400000D03*
X151100000Y-44400000D03*
X152100000Y-44400000D03*
%TD*%
D10*
%TO.C,J16*%
X53625000Y-258877000D03*
X53625000Y-256337000D03*
D11*
X53625000Y-253797000D03*
%TD*%
D35*
%TO.C,D-Sub(2)1*%
X308607000Y-18000000D03*
X308607000Y-9592600D03*
X247393000Y-18000000D03*
X247393000Y-9592600D03*
D16*
X255851200Y-15155200D03*
X258619800Y-15155200D03*
X261388400Y-15155200D03*
X264157000Y-15155200D03*
X266925600Y-15155200D03*
X269694200Y-15155200D03*
X272462800Y-15155200D03*
X275231400Y-15155200D03*
X278000000Y-15155200D03*
X280768600Y-15155200D03*
X283537200Y-15155200D03*
X286305800Y-15155200D03*
X289074400Y-15155200D03*
X291843000Y-15155200D03*
X294611600Y-15155200D03*
X297380200Y-15155200D03*
X300148800Y-15155200D03*
X257235500Y-18000000D03*
X260004100Y-18000000D03*
X262772700Y-18000000D03*
X265541300Y-18000000D03*
X268309900Y-18000000D03*
X271078500Y-18000000D03*
X273847100Y-18000000D03*
X276615700Y-18000000D03*
X279384300Y-18000000D03*
X282152900Y-18000000D03*
X284921500Y-18000000D03*
X287690100Y-18000000D03*
X290458700Y-18000000D03*
X293227300Y-18000000D03*
X295995900Y-18000000D03*
X298764500Y-18000000D03*
X255851200Y-20844800D03*
X258619800Y-20844800D03*
X261388400Y-20844800D03*
X264157000Y-20844800D03*
X266925600Y-20844800D03*
X269694200Y-20844800D03*
X272462800Y-20844800D03*
X275231400Y-20844800D03*
X278000000Y-20844800D03*
X280768600Y-20844800D03*
X283537200Y-20844800D03*
X286305800Y-20844800D03*
X289074400Y-20844800D03*
X291843000Y-20844800D03*
X294611600Y-20844800D03*
X297380200Y-20844800D03*
X300148800Y-20844800D03*
%TD*%
D20*
%TO.C,J4-LowPower1*%
X302000000Y-197491726D03*
D21*
X300000000Y-197491726D03*
%TD*%
D20*
%TO.C,HPHpower1*%
X331490000Y-165796726D03*
D21*
X329490000Y-165796726D03*
%TD*%
D20*
%TO.C,J15-LowPower3*%
X327000000Y-197491726D03*
D21*
X325000000Y-197491726D03*
%TD*%
D10*
%TO.C,J99*%
X167080000Y-47000000D03*
X164540000Y-47000000D03*
D11*
X162000000Y-47000000D03*
%TD*%
D34*
%TO.C,J3*%
X345490000Y-28070000D03*
%TD*%
D35*
%TO.C,D-Sub(1)1*%
X169607000Y-18000000D03*
X169607000Y-9592600D03*
X108393000Y-18000000D03*
X108393000Y-9592600D03*
D16*
X116851200Y-15155200D03*
X119619800Y-15155200D03*
X122388400Y-15155200D03*
X125157000Y-15155200D03*
X127925600Y-15155200D03*
X130694200Y-15155200D03*
X133462800Y-15155200D03*
X136231400Y-15155200D03*
X139000000Y-15155200D03*
X141768600Y-15155200D03*
X144537200Y-15155200D03*
X147305800Y-15155200D03*
X150074400Y-15155200D03*
X152843000Y-15155200D03*
X155611600Y-15155200D03*
X158380200Y-15155200D03*
X161148800Y-15155200D03*
X118235500Y-18000000D03*
X121004100Y-18000000D03*
X123772700Y-18000000D03*
X126541300Y-18000000D03*
X129309900Y-18000000D03*
X132078500Y-18000000D03*
X134847100Y-18000000D03*
X137615700Y-18000000D03*
X140384300Y-18000000D03*
X143152900Y-18000000D03*
X145921500Y-18000000D03*
X148690100Y-18000000D03*
X151458700Y-18000000D03*
X154227300Y-18000000D03*
X156995900Y-18000000D03*
X159764500Y-18000000D03*
X116851200Y-20844800D03*
X119619800Y-20844800D03*
X122388400Y-20844800D03*
X125157000Y-20844800D03*
X127925600Y-20844800D03*
X130694200Y-20844800D03*
X133462800Y-20844800D03*
X136231400Y-20844800D03*
X139000000Y-20844800D03*
X141768600Y-20844800D03*
X144537200Y-20844800D03*
X147305800Y-20844800D03*
X150074400Y-20844800D03*
X152843000Y-20844800D03*
X155611600Y-20844800D03*
X158380200Y-20844800D03*
X161148800Y-20844800D03*
%TD*%
D20*
%TO.C,WU_D_GND1*%
X398625000Y-172925000D03*
D21*
X396625000Y-172925000D03*
%TD*%
D31*
%TO.C,RV1*%
X386990000Y-6203000D03*
X379490000Y-6203000D03*
%TD*%
D10*
%TO.C,J8*%
X343539000Y-48935000D03*
X343539000Y-51475000D03*
D11*
X343539000Y-54015000D03*
%TD*%
D15*
%TO.C,H14*%
X55050000Y-245000000D03*
%TD*%
D20*
%TO.C,J30-LowPower6*%
X366000000Y-197491726D03*
D21*
X364000000Y-197491726D03*
%TD*%
D12*
%TO.C,J13-Lock-in3*%
X49800000Y-46925000D03*
X55400000Y-46925000D03*
D13*
X51100000Y-44400000D03*
X52100000Y-44400000D03*
X53100000Y-44400000D03*
X54100000Y-44400000D03*
%TD*%
D25*
%TO.C,C3*%
X19990000Y-211625000D03*
X14390000Y-211625000D03*
D26*
X18690000Y-214150000D03*
X17690000Y-214150000D03*
X16690000Y-214150000D03*
X15690000Y-214150000D03*
%TD*%
D12*
%TO.C,J2-Diode1*%
X209700000Y-78600000D03*
X215300000Y-78600000D03*
D13*
X211000000Y-76075000D03*
X212000000Y-76075000D03*
X213000000Y-76075000D03*
X214000000Y-76075000D03*
%TD*%
D12*
%TO.C,J3-Diode2*%
X209700000Y-68600000D03*
X215300000Y-68600000D03*
D13*
X211000000Y-66075000D03*
X212000000Y-66075000D03*
X213000000Y-66075000D03*
X214000000Y-66075000D03*
%TD*%
D15*
%TO.C,H11*%
X350050000Y-52000000D03*
%TD*%
D12*
%TO.C,J28-Diode8*%
X228700000Y-48600000D03*
X234300000Y-48600000D03*
D13*
X230000000Y-46075000D03*
X231000000Y-46075000D03*
X232000000Y-46075000D03*
X233000000Y-46075000D03*
%TD*%
D20*
%TO.C,J35-LowPower7*%
X379000000Y-197491726D03*
D21*
X377000000Y-197491726D03*
%TD*%
D36*
%TO.C,C22*%
X293517000Y-177926500D03*
X293517000Y-176791500D03*
%TD*%
D22*
%TO.C,C17*%
X284525000Y-270791726D03*
X284525000Y-265191726D03*
D23*
X282000000Y-269491726D03*
X282000000Y-268491726D03*
X282000000Y-267491726D03*
X282000000Y-266491726D03*
%TD*%
D12*
%TO.C,J22-Diode6*%
X228500000Y-68400000D03*
X234100000Y-68400000D03*
D13*
X229800000Y-65875000D03*
X230800000Y-65875000D03*
X231800000Y-65875000D03*
X232800000Y-65875000D03*
%TD*%
D12*
%TO.C,J34-Diode11*%
X246500000Y-58600000D03*
X252100000Y-58600000D03*
D13*
X247800000Y-56075000D03*
X248800000Y-56075000D03*
X249800000Y-56075000D03*
X250800000Y-56075000D03*
%TD*%
D37*
%TO.C,H16*%
X393300000Y-275591726D03*
X393300000Y-231591726D03*
X298300000Y-275591726D03*
X298300000Y-231591726D03*
%TD*%
%TO.C,L1*%
X77000000Y-77000000D03*
X15000000Y-77000000D03*
X77000000Y-194000000D03*
X15000000Y-194000000D03*
%TD*%
D12*
%TO.C,J9-Diode4*%
X209700000Y-48600000D03*
X215300000Y-48600000D03*
D13*
X211000000Y-46075000D03*
X212000000Y-46075000D03*
X213000000Y-46075000D03*
X214000000Y-46075000D03*
%TD*%
D20*
%TO.C,C1-HP1-1*%
X273000000Y-102491726D03*
D21*
X271000000Y-102491726D03*
%TD*%
D10*
%TO.C,J10*%
X270641000Y-283645000D03*
X273181000Y-283645000D03*
D11*
X275721000Y-283645000D03*
%TD*%
D31*
%TO.C,J13*%
X365000000Y-172491726D03*
D32*
X368000000Y-172491726D03*
D33*
X371000000Y-174451726D03*
X362000000Y-174451726D03*
%TD*%
D20*
%TO.C,J10-LowPower2*%
X314000000Y-197491726D03*
D21*
X312000000Y-197491726D03*
%TD*%
D12*
%TO.C,J39-Lockin-in9*%
X125300000Y-38600000D03*
X130900000Y-38600000D03*
D13*
X126600000Y-36075000D03*
X127600000Y-36075000D03*
X128600000Y-36075000D03*
X129600000Y-36075000D03*
%TD*%
D12*
%TO.C,J1-Lock-in1*%
X21800000Y-46925000D03*
X27400000Y-46925000D03*
D13*
X23100000Y-44400000D03*
X24100000Y-44400000D03*
X25100000Y-44400000D03*
X26100000Y-44400000D03*
%TD*%
D38*
%TO.C,U2*%
X319440001Y-164030000D03*
X319440001Y-166570000D03*
X312440001Y-166570000D03*
X312440001Y-164030000D03*
%TD*%
D15*
%TO.C,H12*%
X193050000Y-52000000D03*
%TD*%
D37*
%TO.C,D2*%
X228266548Y-98991726D03*
X215266548Y-98991726D03*
X228266548Y-131991726D03*
X215266548Y-131991726D03*
%TD*%
D39*
%TO.C,D4*%
X365750000Y-60750000D03*
X361750000Y-60750000D03*
%TD*%
D40*
%TO.C,C13*%
X365750000Y-63750000D03*
X362800000Y-63750000D03*
%TD*%
D17*
%TO.C,R1*%
X328665000Y-20215000D03*
X328665000Y-19195000D03*
%TD*%
D37*
%TO.C,D1*%
X198433274Y-98991726D03*
X185433274Y-98991726D03*
X198433274Y-131991726D03*
X185433274Y-131991726D03*
%TD*%
D12*
%TO.C,J23-Diode7*%
X228700000Y-58600000D03*
X234300000Y-58600000D03*
D13*
X230000000Y-56075000D03*
X231000000Y-56075000D03*
X232000000Y-56075000D03*
X233000000Y-56075000D03*
%TD*%
D12*
%TO.C,C14*%
X116450000Y-209625000D03*
X122050000Y-209625000D03*
D13*
X117750000Y-207100000D03*
X118750000Y-207100000D03*
X119750000Y-207100000D03*
X120750000Y-207100000D03*
%TD*%
D41*
%TO.C,C9*%
X364832600Y-4826000D03*
X366382600Y-4826000D03*
%TD*%
D15*
%TO.C,H13*%
X85050000Y-42000000D03*
%TD*%
D20*
%TO.C,J20-3K-Warmup1*%
X361000000Y-81990000D03*
D21*
X359000000Y-81990000D03*
%TD*%
D42*
%TO.C,F1*%
X378100000Y-97800000D03*
X378100000Y-75200000D03*
%TD*%
D15*
%TO.C,H8*%
X340050000Y-128000000D03*
%TD*%
D10*
%TO.C,J17*%
X91825000Y-292405000D03*
X91825000Y-289865000D03*
D11*
X91825000Y-287325000D03*
%TD*%
D20*
%TO.C,J17-LowPower4*%
X340000000Y-197491726D03*
D21*
X338000000Y-197491726D03*
%TD*%
D43*
%TO.C,JP2*%
X398055000Y-21125000D03*
D44*
X398055000Y-19825000D03*
%TD*%
D37*
%TO.C,L2*%
X157200000Y-77000000D03*
X95200000Y-77000000D03*
X157200000Y-194000000D03*
X95200000Y-194000000D03*
%TD*%
D10*
%TO.C,q4*%
X76350000Y-293240000D03*
X76350000Y-290700000D03*
X76350000Y-288160000D03*
X76350000Y-285620000D03*
X76350000Y-283080000D03*
X76350000Y-280540000D03*
D11*
X76350000Y-278000000D03*
D10*
X61110000Y-293240000D03*
X61110000Y-290700000D03*
X61110000Y-288160000D03*
X61110000Y-285620000D03*
X61110000Y-283080000D03*
X61110000Y-280540000D03*
D11*
X61110000Y-278000000D03*
%TD*%
D20*
%TO.C,J5-HighPower1*%
X326000000Y-92491726D03*
D21*
X324000000Y-92491726D03*
%TD*%
D20*
%TO.C,WU_D_GND2*%
X398625000Y-179875000D03*
D21*
X396625000Y-179875000D03*
%TD*%
D20*
%TO.C,C4-HP4-1*%
X273000000Y-129000000D03*
D21*
X271000000Y-129000000D03*
%TD*%
D45*
%TO.C,D7*%
X398115002Y-16065000D03*
X398115002Y-17815000D03*
%TD*%
D46*
%TO.C,C23*%
X53861500Y-261613000D03*
X54996500Y-261613000D03*
%TD*%
D20*
%TO.C,J19-50K-Warmup1*%
X361000000Y-96990000D03*
D21*
X359000000Y-96990000D03*
%TD*%
D12*
%TO.C,C16*%
X386200000Y-173691726D03*
X391800000Y-173691726D03*
D13*
X387500000Y-171166726D03*
X388500000Y-171166726D03*
X389500000Y-171166726D03*
X390500000Y-171166726D03*
%TD*%
D12*
%TO.C,J27-Lock-in7*%
X132800000Y-46925000D03*
X138400000Y-46925000D03*
D13*
X134100000Y-44400000D03*
X135100000Y-44400000D03*
X136100000Y-44400000D03*
X137100000Y-44400000D03*
%TD*%
D37*
%TO.C,M2*%
X136900000Y-239500000D03*
X136900000Y-262500000D03*
X136900000Y-280500000D03*
X200900000Y-239500000D03*
X200900000Y-280500000D03*
%TD*%
D12*
%TO.C,J37-Diode12*%
X246500000Y-48600000D03*
X252100000Y-48600000D03*
D13*
X247800000Y-46075000D03*
X248800000Y-46075000D03*
X249800000Y-46075000D03*
X250800000Y-46075000D03*
%TD*%
D47*
%TO.C,W1*%
X350500000Y-112491726D03*
X350500000Y-157491726D03*
X390500000Y-112491726D03*
X390500000Y-157491726D03*
%TD*%
D15*
%TO.C,H5*%
X86050000Y-170000000D03*
%TD*%
D43*
%TO.C,JP1*%
X328545000Y-27245000D03*
D44*
X328545000Y-25945000D03*
%TD*%
D48*
%TO.C,D5*%
X79369000Y-278080000D03*
X84091000Y-278080000D03*
%TD*%
D10*
%TO.C,q1*%
X28070000Y-213510000D03*
X28070000Y-216050000D03*
X28070000Y-218590000D03*
X28070000Y-221130000D03*
X28070000Y-223670000D03*
X28070000Y-226210000D03*
D11*
X28070000Y-228750000D03*
D10*
X43310000Y-213510000D03*
X43310000Y-216050000D03*
X43310000Y-218590000D03*
X43310000Y-221130000D03*
X43310000Y-223670000D03*
X43310000Y-226210000D03*
D11*
X43310000Y-228750000D03*
%TD*%
D18*
%TO.C,UartMux2*%
X219000000Y-245000000D03*
D19*
X219000000Y-247000000D03*
%TD*%
D22*
%TO.C,C1*%
X284525000Y-260800000D03*
X284525000Y-255200000D03*
D23*
X282000000Y-259500000D03*
X282000000Y-258500000D03*
X282000000Y-257500000D03*
X282000000Y-256500000D03*
%TD*%
D10*
%TO.C,J98*%
X179080000Y-47000000D03*
X176540000Y-47000000D03*
D11*
X174000000Y-47000000D03*
%TD*%
D10*
%TO.C,q2*%
X82010000Y-213360000D03*
X82010000Y-215900000D03*
X82010000Y-218440000D03*
X82010000Y-220980000D03*
X82010000Y-223520000D03*
X82010000Y-226060000D03*
D11*
X82010000Y-228600000D03*
D10*
X97250000Y-213360000D03*
X97250000Y-215900000D03*
X97250000Y-218440000D03*
X97250000Y-220980000D03*
X97250000Y-223520000D03*
X97250000Y-226060000D03*
D11*
X97250000Y-228600000D03*
%TD*%
D20*
%TO.C,C3-HP3-1*%
X273000000Y-120000000D03*
D21*
X271000000Y-120000000D03*
%TD*%
D49*
%TO.C,JP3*%
X323325000Y-172875000D03*
D50*
X324625000Y-172875000D03*
%TD*%
D51*
%TO.C,C6*%
X267800000Y-139691726D03*
X267800000Y-145291726D03*
D52*
X270325000Y-140991726D03*
X270325000Y-141991726D03*
X270325000Y-142991726D03*
X270325000Y-143991726D03*
%TD*%
D53*
%TO.C,C8*%
X387750000Y-15750000D03*
X379350000Y-15750000D03*
%TD*%
D12*
%TO.C,J6-50K-Diode1*%
X190800000Y-68600000D03*
X196400000Y-68600000D03*
D13*
X192100000Y-66075000D03*
X193100000Y-66075000D03*
X194100000Y-66075000D03*
X195100000Y-66075000D03*
%TD*%
D12*
%TO.C,C15*%
X377200000Y-173691726D03*
X382800000Y-173691726D03*
D13*
X378500000Y-171166726D03*
X379500000Y-171166726D03*
X380500000Y-171166726D03*
X381500000Y-171166726D03*
%TD*%
D37*
%TO.C,M1*%
X250500000Y-204950000D03*
X250500000Y-169950000D03*
X190500000Y-204950000D03*
X190500000Y-169950000D03*
%TD*%
D46*
%TO.C,C21*%
X95631500Y-46059000D03*
X96766500Y-46059000D03*
%TD*%
D20*
%TO.C,J11-HighPower2*%
X326000000Y-83491726D03*
D21*
X324000000Y-83491726D03*
%TD*%
D10*
%TO.C,J9*%
X86003000Y-179455000D03*
X86003000Y-181995000D03*
D11*
X86003000Y-184535000D03*
%TD*%
D36*
%TO.C,C20*%
X270279000Y-280796500D03*
X270279000Y-279661500D03*
%TD*%
D12*
%TO.C,J21-Lock-in5*%
X102800000Y-46925000D03*
X108400000Y-46925000D03*
D13*
X104100000Y-44400000D03*
X105100000Y-44400000D03*
X106100000Y-44400000D03*
X107100000Y-44400000D03*
%TD*%
D12*
%TO.C,J12-3K-Diode1*%
X190800000Y-78600000D03*
X196400000Y-78600000D03*
D13*
X192100000Y-76075000D03*
X193100000Y-76075000D03*
X194100000Y-76075000D03*
X195100000Y-76075000D03*
%TD*%
D15*
%TO.C,H7*%
X86050000Y-88000000D03*
%TD*%
%TO.C,H1*%
X245050000Y-90000000D03*
%TD*%
%TO.C,H2*%
X406150000Y-242650000D03*
%TD*%
D54*
%TO.C,L3*%
X372217500Y-20013000D03*
X372217500Y-14187000D03*
%TD*%
D55*
%TO.C,C19*%
X89701000Y-178943500D03*
X89701000Y-180078500D03*
%TD*%
D15*
%TO.C,H3*%
X175050000Y-150000000D03*
%TD*%
D34*
%TO.C,J2*%
X325800000Y-40000000D03*
%TD*%
D10*
%TO.C,J15*%
X290913000Y-177669000D03*
X290913000Y-175129000D03*
D11*
X290913000Y-172589000D03*
%TD*%
D10*
%TO.C,J14*%
X92207000Y-45589000D03*
X92207000Y-43049000D03*
D11*
X92207000Y-40509000D03*
%TD*%
D56*
%TO.C,C10*%
X366770000Y-23065000D03*
X366770000Y-24615000D03*
%TD*%
D20*
%TO.C,J36-HighPower5*%
X310100000Y-92166726D03*
D21*
X308100000Y-92166726D03*
%TD*%
D42*
%TO.C,F2*%
X363000000Y-13647500D03*
X340400000Y-13647500D03*
%TD*%
D34*
%TO.C,J4*%
X353630000Y-21900000D03*
%TD*%
D14*
%TO.C,C11*%
X361600000Y-36975000D03*
X361600000Y-34025000D03*
%TD*%
D45*
%TO.C,D6*%
X328545000Y-22155000D03*
X328545000Y-23905000D03*
%TD*%
D15*
%TO.C,H10*%
X151880000Y-290870000D03*
%TD*%
D12*
%TO.C,J8-Diode3*%
X209700000Y-58600000D03*
X215300000Y-58600000D03*
D13*
X211000000Y-56075000D03*
X212000000Y-56075000D03*
X213000000Y-56075000D03*
X214000000Y-56075000D03*
%TD*%
D20*
%TO.C,J100*%
X297975000Y-291225000D03*
D21*
X295975000Y-291225000D03*
%TD*%
D37*
%TO.C,H15*%
X331100000Y-152166726D03*
X331100000Y-115166726D03*
X288100000Y-152166726D03*
X288100000Y-115166726D03*
%TD*%
D20*
%TO.C,J38-LowPower8*%
X392000000Y-197491726D03*
D21*
X390000000Y-197491726D03*
%TD*%
D20*
%TO.C,C2-HP2-1*%
X273000000Y-111491726D03*
D21*
X271000000Y-111491726D03*
%TD*%
D12*
%TO.C,J29-Diode9*%
X246500000Y-78600000D03*
X252100000Y-78600000D03*
D13*
X247800000Y-76075000D03*
X248800000Y-76075000D03*
X249800000Y-76075000D03*
X250800000Y-76075000D03*
%TD*%
D20*
%TO.C,J25-HighPower3*%
X326000000Y-74491726D03*
D21*
X324000000Y-74491726D03*
%TD*%
D12*
%TO.C,J7-Lock-in2*%
X35800000Y-46925000D03*
X41400000Y-46925000D03*
D13*
X37100000Y-44400000D03*
X38100000Y-44400000D03*
X39100000Y-44400000D03*
X40100000Y-44400000D03*
%TD*%
D10*
%TO.C,J7*%
X83235000Y-292385000D03*
X83235000Y-289845000D03*
D11*
X83235000Y-287305000D03*
%TD*%
D20*
%TO.C,J24-LowPower5*%
X353000000Y-197491726D03*
D21*
X351000000Y-197491726D03*
%TD*%
D37*
%TO.C,D3*%
X257433274Y-98991726D03*
X244433274Y-98991726D03*
X257433274Y-131991726D03*
X244433274Y-131991726D03*
%TD*%
D10*
%TO.C,q3*%
X22850000Y-286240000D03*
X22850000Y-283700000D03*
X22850000Y-281160000D03*
X22850000Y-278620000D03*
X22850000Y-276080000D03*
X22850000Y-273540000D03*
D11*
X22850000Y-271000000D03*
D10*
X7610000Y-286240000D03*
X7610000Y-283700000D03*
X7610000Y-281160000D03*
X7610000Y-278620000D03*
X7610000Y-276080000D03*
X7610000Y-273540000D03*
D11*
X7610000Y-271000000D03*
%TD*%
D15*
%TO.C,H4*%
X285050000Y-175000000D03*
%TD*%
D12*
%TO.C,J16-Diode5*%
X228700000Y-78600000D03*
X234300000Y-78600000D03*
D13*
X230000000Y-76075000D03*
X231000000Y-76075000D03*
X232000000Y-76075000D03*
X233000000Y-76075000D03*
%TD*%
M02*
