M48
; DRILL file {KiCad 7.0.9} date Tue Oct  1 20:54:17 2024
; FORMAT={-:-/ absolute / inch / decimal}
; #@! TF.CreationDate,2024-10-01T20:54:17-06:00
; #@! TF.GenerationSoftware,Kicad,Pcbnew,7.0.9
; #@! TF.FileFunction,Plated,1,6,PTH
FMAT,2
INCH
; #@! TA.AperFunction,Plated,PTH,ViaDrill
T1C0.0157
; #@! TA.AperFunction,Plated,PTH,ViaDrill
T2C0.0197
; #@! TA.AperFunction,Plated,PTH,ComponentDrill
T3C0.0295
; #@! TA.AperFunction,Plated,PTH,ComponentDrill
T4C0.0394
; #@! TA.AperFunction,Plated,PTH,ComponentDrill
T5C0.0402
; #@! TA.AperFunction,Plated,PTH,ComponentDrill
T6C0.0470
; #@! TA.AperFunction,Plated,PTH,ComponentDrill
T7C0.0472
; #@! TA.AperFunction,Plated,PTH,ComponentDrill
T8C0.0472
; #@! TA.AperFunction,Plated,PTH,ComponentDrill
T9C0.0531
; #@! TA.AperFunction,Plated,PTH,ComponentDrill
T10C0.0591
; #@! TA.AperFunction,Plated,PTH,ComponentDrill
T11C0.0630
; #@! TA.AperFunction,Plated,PTH,ViaDrill
T12C0.0787
; #@! TA.AperFunction,Plated,PTH,ComponentDrill
T13C0.1200
; #@! TA.AperFunction,Plated,PTH,ComponentDrill
T14C0.1260
; #@! TA.AperFunction,Plated,PTH,ComponentDrill
T15C0.1264
%
G90
G05
T1
X0.955Y-1.9705
X1.0314Y-2.069
X1.2402Y-1.7224
X1.5Y-1.8898
X1.5807Y-2.0256
X1.7717Y-1.6634
X1.8012Y-1.5334
X1.9528Y-1.6378
X2.2539Y-1.5945
X2.4803Y-10.5413
X2.4902Y-10.7283
X2.6043Y-1.8937
X2.626Y-1.9783
X2.6673Y-1.5453
X2.9921Y-8.3071
X4.0846Y-8.0315
X4.1339Y-7.6083
X4.4783Y-0.4134
X4.498Y-0.6496
X4.5079Y-0.2165
X4.5768Y-8.9272
X4.5768Y-8.9764
X4.5768Y-9.0354
X4.626Y-0.1083
X4.6555Y-0.4724
X4.6654Y-0.315
X4.7638Y-0.4232
X4.7736Y-8.9272
X4.7736Y-8.9764
X4.7736Y-9.0354
X4.7835Y-2.0374
X4.8031Y-0.187
X4.8917Y-0.315
X4.8917Y-0.4823
X4.9823Y-0.8996
X4.9902Y-0.187
X5.0Y-2.5289
X5.0098Y-0.4429
X5.0394Y-1.9783
X5.061Y-1.5079
X5.0965Y-0.9055
X5.1122Y-2.0647
X5.128Y-0.3051
X5.1319Y-2.5289
X5.1476Y-0.933
X5.1654Y-1.6061
X5.2165Y-0.1772
X5.2539Y-0.933
X5.2697Y-2.5289
X5.3445Y-0.3051
X5.3445Y-1.437
X5.3858Y-2.5289
X5.4035Y-0.187
X5.4606Y-0.937
X5.502Y-0.4429
X5.6201Y-0.1772
X5.6496Y-0.315
X5.6949Y-2.6752
X5.7237Y-2.6484
X5.878Y-1.6752
X5.9055Y-0.1772
X5.9252Y-0.3051
X5.9311Y-1.5571
X5.9331Y-1.4974
X5.9764Y-1.9983
X6.0197Y-1.4642
X6.0531Y-1.4309
X6.1319Y-2.059
X6.1417Y-1.7224
X6.1775Y-2.0679
X6.1811Y-0.187
X6.2205Y-1.0138
X6.2343Y-2.0413
X6.2402Y-0.3051
X6.3157Y-1.6496
X6.3642Y-1.6083
X6.3839Y-2.0551
X6.5059Y-0.187
X6.5354Y-0.3248
X6.6024Y-1.9466
X6.6142Y-1.378
X6.7323Y-0.8366
X6.7717Y-0.187
X6.811Y-0.502
X6.8839Y-0.6929
X6.8898Y-1.1713
X6.9193Y-0.3051
X6.9313Y-0.6636
X6.9685Y-0.128
X7.0338Y-0.9177
X7.0472Y-0.2165
X7.0669Y-0.5118
X7.0906Y-0.8819
X7.126Y-0.374
X7.1713Y-1.0802
X7.2638Y-1.6043
X7.2776Y-1.1929
X7.2795Y-2.1913
X7.3228Y-1.4764
X7.4016Y-1.2992
X7.4311Y-0.6693
X7.4606Y-0.9154
X7.4626Y-2.4645
X7.4941Y-2.8701
X7.5322Y-0.7192
X7.5689Y-0.3839
X7.6575Y-1.6043
X7.6752Y-2.4803
X7.7165Y-0.9252
X7.8642Y-1.3386
X7.8858Y-1.1043
X7.9823Y-0.935
X8.061Y-1.2815
X8.1299Y-10.315
X8.189Y-1.0925
X8.2874Y-1.4764
X8.3071Y-2.8996
X8.3366Y-0.9449
X8.3366Y-1.5945
X8.3465Y-1.7264
X8.376Y-1.3386
X8.4252Y-1.7244
X8.4252Y-2.878
X8.6909Y-1.6142
X8.75Y-0.935
X8.7795Y-1.5059
X8.8386Y-1.0925
X8.878Y-1.378
X9.0748Y-1.0236
X9.0748Y-1.3287
X9.124Y-1.624
X9.2028Y-0.4134
X9.3209Y-2.0276
X9.3504Y-1.5945
X9.3602Y-1.3189
X9.439Y-2.3622
X9.5079Y-2.0079
X9.5571Y-0.6299
X9.6063Y-1.8504
X9.6063Y-2.3327
X9.6161Y-2.5591
X9.6752Y-1.6437
X9.8031Y-1.5496
X9.8091Y-1.3558
X9.9331Y-1.5496
X9.9528Y-1.3558
X10.0098Y-2.5197
X10.0262Y-0.3482
X10.0689Y-2.0374
X10.0689Y-2.3031
X10.0787Y-3.002
X10.1772Y-2.8937
X10.2135Y-0.385
X10.2756Y-3.189
X10.374Y-2.6083
X10.4035Y-2.9134
X10.4429Y-2.372
X10.4823Y-3.1988
X10.5413Y-3.4055
X10.6142Y-1.1201
X10.6791Y-2.9035
X10.7185Y-2.6476
X10.7209Y-8.002
X10.7335Y-1.0367
X10.748Y-3.1299
X10.7527Y-1.294
X10.7542Y-7.1161
X10.7874Y-7.0472
X10.7874Y-7.9823
X10.8307Y-1.2402
X10.8366Y-6.9882
X10.8366Y-7.8937
X10.9055Y-3.4154
X10.9941Y-10.5315
X11.0433Y-2.7362
X11.063Y-1.1417
X11.2598Y-2.9232
X11.2894Y-3.4055
X11.3091Y-3.1398
X11.4567Y-3.3661
X11.4764Y-2.7461
X11.4961Y-3.6319
X11.6142Y-3.3071
X11.7323Y-3.6319
X11.7913Y-3.8878
X11.9587Y-3.8583
X11.9587Y-4.0551
X11.9783Y-3.6614
X11.9882Y-2.9232
X11.998Y-2.7264
X12.1949Y-3.8878
X12.3819Y-4.0354
X12.5984Y-3.8878
X12.6673Y-2.7362
X12.9035Y-4.0453
X12.9429Y-0.6693
X13.0118Y-3.7402
X13.0906Y-2.9232
X13.2087Y-3.8976
X13.3071Y-3.75
X13.3268Y-2.7461
X13.4055Y-4.0453
X13.5236Y-2.9921
X13.5335Y-3.8976
X13.6516Y-2.8543
X13.6811Y-3.75
X13.8484Y-4.0354
X13.8583Y-2.9232
X13.8681Y-3.0807
X13.8878Y-3.8878
X13.9665Y-3.6122
X13.9764Y-3.8189
X14.124Y-2.9232
X14.124Y-3.9961
X14.2028Y-3.6417
X15.1378Y-6.9193
T2
X0.8882Y-1.9224
X1.6413Y-1.9445
X2.2039Y-1.9402
X2.6878Y-1.9531
X4.91Y-1.94
X6.3118Y-1.0457
X7.44Y-2.96
X7.7343Y-1.0974
X8.2697Y-4.0677
X8.3173Y-4.4256
X8.8Y-2.14
X9.09Y-3.09
X9.84Y-2.75
X11.7372Y-1.252
T3
X4.4675Y-11.4183
X4.5463Y-11.4183
X8.622Y-9.252
X8.622Y-9.3307
X8.622Y-9.6457
X8.622Y-9.7244
X10.6693Y-4.0351
X10.6693Y-4.3894
X10.6693Y-4.7244
X10.6693Y-5.0787
X10.748Y-4.0351
X10.748Y-4.3894
X10.748Y-4.7244
X10.748Y-5.0787
X11.6526Y-11.4656
X11.7313Y-11.4656
X11.811Y-7.7753
X11.8898Y-7.7753
X12.126Y-3.2871
X12.1299Y-3.6286
X12.2047Y-3.2871
X12.2087Y-3.6286
X12.2835Y-7.7753
X12.3622Y-7.7753
X12.7559Y-2.9327
X12.7559Y-3.2871
X12.7559Y-3.6414
X12.7953Y-7.7753
X12.8346Y-2.9327
X12.8346Y-3.2871
X12.8346Y-3.6414
X12.874Y-7.7753
X12.972Y-6.5274
X13.0508Y-6.5274
X13.3071Y-7.7753
X13.3858Y-7.7753
X13.8189Y-7.7753
X13.8976Y-7.7753
X14.1339Y-3.228
X14.1339Y-3.8185
X14.2126Y-3.228
X14.2126Y-3.8185
X14.3307Y-7.7753
X14.4094Y-7.7753
X14.8425Y-7.7753
X14.9213Y-7.7753
X15.3543Y-7.7753
X15.4331Y-7.7753
X15.6152Y-6.8081
X15.6152Y-7.0817
X15.6939Y-6.8081
X15.6939Y-7.0817
T4
X-1.7533Y-9.1494
X-1.7533Y-9.2494
X-1.7533Y-9.3494
X-1.7533Y-9.4494
X-1.7533Y-9.5494
X-1.7533Y-9.6494
X-1.7533Y-9.7494
X-1.5722Y-9.1494
X-1.5722Y-9.2494
X-1.5722Y-9.3494
X-1.5722Y-9.4494
X-1.5722Y-9.5494
X-1.5722Y-9.6494
X-1.5722Y-9.7494
X-1.3911Y-9.1494
X-1.3911Y-9.2494
X-1.3911Y-9.3494
X-1.3911Y-9.4494
X-1.3911Y-9.5494
X-1.3911Y-9.6494
X-1.3911Y-9.7494
X-1.21Y-9.1494
X-1.21Y-9.2494
X-1.21Y-9.3494
X-1.21Y-9.4494
X-1.21Y-9.5494
X-1.21Y-9.6494
X-1.21Y-9.7494
X0.2996Y-10.6693
X0.2996Y-10.7693
X0.2996Y-10.8693
X0.2996Y-10.9693
X0.2996Y-11.0693
X0.2996Y-11.1693
X0.2996Y-11.2693
X0.8996Y-10.6693
X0.8996Y-10.7693
X0.8996Y-10.8693
X0.8996Y-10.9693
X0.8996Y-11.0693
X0.8996Y-11.1693
X0.8996Y-11.2693
X1.1051Y-8.4059
X1.1051Y-8.5059
X1.1051Y-8.6059
X1.1051Y-8.7059
X1.1051Y-8.8059
X1.1051Y-8.9059
X1.1051Y-9.0059
X1.7051Y-8.4059
X1.7051Y-8.5059
X1.7051Y-8.6059
X1.7051Y-8.7059
X1.7051Y-8.8059
X1.7051Y-8.9059
X1.7051Y-9.0059
X2.1112Y-9.992
X2.1112Y-10.092
X2.1112Y-10.192
X2.4059Y-10.9449
X2.4059Y-11.0449
X2.4059Y-11.1449
X2.4059Y-11.2449
X2.4059Y-11.3449
X2.4059Y-11.4449
X2.4059Y-11.5449
X3.0059Y-10.9449
X3.0059Y-11.0449
X3.0059Y-11.1449
X3.0059Y-11.2449
X3.0059Y-11.3449
X3.0059Y-11.4449
X3.0059Y-11.5449
X3.2287Y-8.4
X3.2287Y-8.5
X3.2287Y-8.6
X3.2287Y-8.7
X3.2287Y-8.8
X3.2287Y-8.9
X3.2287Y-9.0
X3.277Y-11.3112
X3.277Y-11.4112
X3.277Y-11.5112
X3.3859Y-7.0652
X3.3859Y-7.1652
X3.3859Y-7.2652
X3.6152Y-11.312
X3.6152Y-11.412
X3.6152Y-11.512
X3.6302Y-1.5948
X3.6302Y-1.6948
X3.6302Y-1.7948
X3.8287Y-8.4
X3.8287Y-8.5
X3.8287Y-8.6
X3.8287Y-8.7
X3.8287Y-8.8
X3.8287Y-8.9
X3.8287Y-9.0
X6.378Y-1.8504
X6.478Y-1.8504
X6.578Y-1.8504
X6.8504Y-1.8504
X6.9504Y-1.8504
X7.0504Y-1.8504
X10.6552Y-11.1671
X10.7552Y-11.1671
X10.8552Y-11.1671
X11.4533Y-6.7948
X11.4533Y-6.8948
X11.4533Y-6.9948
X13.5252Y-1.9266
X13.5252Y-2.0266
X13.5252Y-2.1266
T5
X13.563Y-1.6535
X13.6811Y-1.6535
X13.7992Y-1.6535
X13.9173Y-1.6535
T6
X4.6004Y-0.5967
X4.6004Y-0.8207
X4.6549Y-0.7087
X4.7094Y-0.5967
X4.7094Y-0.8207
X4.7639Y-0.7087
X4.8184Y-0.5967
X4.8184Y-0.8207
X4.8729Y-0.7087
X4.9274Y-0.5967
X4.9274Y-0.8207
X4.9819Y-0.7087
X5.0364Y-0.5967
X5.0364Y-0.8207
X5.0909Y-0.7087
X5.1454Y-0.5967
X5.1454Y-0.8207
X5.1999Y-0.7087
X5.2544Y-0.5967
X5.2544Y-0.8207
X5.3089Y-0.7087
X5.3634Y-0.5967
X5.3634Y-0.8207
X5.4179Y-0.7087
X5.4724Y-0.5967
X5.4724Y-0.8207
X5.5269Y-0.7087
X5.5814Y-0.5967
X5.5814Y-0.8207
X5.6359Y-0.7087
X5.6904Y-0.5967
X5.6904Y-0.8207
X5.7449Y-0.7087
X5.7994Y-0.5967
X5.7994Y-0.8207
X5.8539Y-0.7087
X5.9084Y-0.5967
X5.9084Y-0.8207
X5.9629Y-0.7087
X6.0174Y-0.5967
X6.0174Y-0.8207
X6.0719Y-0.7087
X6.1264Y-0.5967
X6.1264Y-0.8207
X6.1809Y-0.7087
X6.2354Y-0.5967
X6.2354Y-0.8207
X6.2899Y-0.7087
X6.3444Y-0.5967
X6.3444Y-0.8207
X10.0729Y-0.5967
X10.0729Y-0.8207
X10.1274Y-0.7087
X10.1819Y-0.5967
X10.1819Y-0.8207
X10.2364Y-0.7087
X10.2909Y-0.5967
X10.2909Y-0.8207
X10.3454Y-0.7087
X10.3999Y-0.5967
X10.3999Y-0.8207
X10.4544Y-0.7087
X10.5089Y-0.5967
X10.5089Y-0.8207
X10.5634Y-0.7087
X10.6179Y-0.5967
X10.6179Y-0.8207
X10.6724Y-0.7087
X10.7269Y-0.5967
X10.7269Y-0.8207
X10.7814Y-0.7087
X10.8359Y-0.5967
X10.8359Y-0.8207
X10.8904Y-0.7087
X10.9449Y-0.5967
X10.9449Y-0.8207
X10.9994Y-0.7087
X11.0539Y-0.5967
X11.0539Y-0.8207
X11.1084Y-0.7087
X11.1629Y-0.5967
X11.1629Y-0.8207
X11.2174Y-0.7087
X11.2719Y-0.5967
X11.2719Y-0.8207
X11.3264Y-0.7087
X11.3809Y-0.5967
X11.3809Y-0.8207
X11.4354Y-0.7087
X11.4899Y-0.5967
X11.4899Y-0.8207
X11.5444Y-0.7087
X11.5989Y-0.5967
X11.5989Y-0.8207
X11.6534Y-0.7087
X11.7079Y-0.5967
X11.7079Y-0.8207
X11.7624Y-0.7087
X11.8169Y-0.5967
X11.8169Y-0.8207
T7
X13.8189Y-6.7894
X13.937Y-6.7894
X14.3701Y-6.791
X14.4882Y-6.791
T8
X14.6228Y-2.778
X14.7228Y-0.978
X14.9228Y-0.978
X14.9406Y-0.2442
X15.0228Y-2.778
X15.2358Y-0.2442
X15.3228Y-0.978
X15.4228Y-2.778
T9
X13.7008Y-6.8666
X14.0551Y-6.8666
X14.252Y-6.8682
X14.6063Y-6.8682
T10
X13.4016Y-0.5373
X14.2913Y-0.5373
X14.8858Y-2.9606
X14.8858Y-3.8504
T11
X12.2441Y-1.5748
X12.8268Y-1.5748
X13.602Y-1.1051
X13.9224Y-0.8622
T12
X12.6417Y-6.6732
X13.7795Y-1.378
X14.8567Y-0.5311
X15.7972Y-0.2559
X16.0925Y-0.7874
X16.0925Y-1.5945
T13
X4.2674Y-0.3777
X4.2674Y-0.7087
X6.6774Y-0.3777
X6.6774Y-0.7087
X9.7399Y-0.3777
X9.7399Y-0.7087
X12.1499Y-0.3777
X12.1499Y-0.7087
T14
X0.5906Y-3.0315
X0.5906Y-7.6378
X3.0315Y-3.0315
X3.0315Y-7.6378
X3.748Y-3.0315
X3.748Y-7.6378
X5.3898Y-9.4291
X5.3898Y-10.3346
X5.3898Y-11.0433
X6.189Y-3.0315
X6.189Y-7.6378
X7.3005Y-3.8973
X7.3005Y-5.1965
X7.5Y-6.6909
X7.5Y-8.0689
X7.8123Y-3.8973
X7.8123Y-5.1965
X7.9094Y-9.4291
X7.9094Y-11.0433
X8.4751Y-3.8973
X8.4751Y-5.1965
X8.9869Y-3.8973
X8.9869Y-5.1965
X9.6234Y-3.8973
X9.6234Y-5.1965
X9.8622Y-6.6909
X9.8622Y-8.0689
X10.1352Y-3.8973
X10.1352Y-5.1965
X11.3425Y-4.5341
X11.7441Y-9.1178
X11.7441Y-10.8501
X13.0354Y-4.5341
X13.0354Y-5.9908
X13.7992Y-4.4288
X13.7992Y-6.2005
X15.374Y-4.4288
X15.374Y-6.2005
X15.4843Y-9.1178
X15.4843Y-10.8501
T15
X11.3425Y-5.9908
T14
G00X2.1673Y-9.626
M15
G01X2.1673Y-9.6654
M16
G05
G00X3.3484Y-1.6339
M15
G01X3.3484Y-1.6732
M16
G05
G00X3.3878Y-3.4449
M15
G01X3.3878Y-3.4843
M16
G05
G00X3.3878Y-6.6732
M15
G01X3.3878Y-6.7126
M16
G05
G00X5.9795Y-11.4319
M15
G01X5.9795Y-11.4713
M16
G05
G00X6.8917Y-5.8858
M15
G01X6.8917Y-5.9252
M16
G05
G00X7.6004Y-2.0276
M15
G01X7.6004Y-2.0669
M16
G05
G00X9.6476Y-3.5236
M15
G01X9.6476Y-3.563
M16
G05
G00X10.435Y-11.3976
M15
G01X10.435Y-11.437
M16
G05
G00X10.75Y-2.0276
M15
G01X10.75Y-2.0669
M16
G05
G00X11.2224Y-6.8701
M15
G01X11.2224Y-6.9094
M16
G05
G00X13.3878Y-5.0197
M15
G01X13.3878Y-5.0591
M16
G05
G00X13.7815Y-2.0276
M15
G01X13.7815Y-2.0669
M16
G05
G00X15.9902Y-9.5335
M15
G01X15.9902Y-9.5728
M16
G05
T0
M30
