%TF.GenerationSoftware,KiCad,Pcbnew,7.0.9*%
%TF.CreationDate,2024-10-01T20:54:17-06:00*%
%TF.ProjectId,motherboard_v1,6d6f7468-6572-4626-9f61-72645f76312e,rev?*%
%TF.SameCoordinates,Original*%
%TF.FileFunction,Paste,Top*%
%TF.FilePolarity,Positive*%
%FSLAX46Y46*%
G04 Gerber Fmt 4.6, Leading zero omitted, Abs format (unit mm)*
G04 Created by KiCad (PCBNEW 7.0.9) date 2024-10-01 20:54:17*
%MOMM*%
%LPD*%
G01*
G04 APERTURE LIST*
G04 Aperture macros list*
%AMRoundRect*
0 Rectangle with rounded corners*
0 $1 Rounding radius*
0 $2 $3 $4 $5 $6 $7 $8 $9 X,Y pos of 4 corners*
0 Add a 4 corners polygon primitive as box body*
4,1,4,$2,$3,$4,$5,$6,$7,$8,$9,$2,$3,0*
0 Add four circle primitives for the rounded corners*
1,1,$1+$1,$2,$3*
1,1,$1+$1,$4,$5*
1,1,$1+$1,$6,$7*
1,1,$1+$1,$8,$9*
0 Add four rect primitives between the rounded corners*
20,1,$1+$1,$2,$3,$4,$5,0*
20,1,$1+$1,$4,$5,$6,$7,0*
20,1,$1+$1,$6,$7,$8,$9,0*
20,1,$1+$1,$8,$9,$2,$3,0*%
G04 Aperture macros list end*
%ADD10RoundRect,0.250000X0.350000X0.650000X-0.350000X0.650000X-0.350000X-0.650000X0.350000X-0.650000X0*%
%ADD11RoundRect,0.150000X0.150000X0.625000X-0.150000X0.625000X-0.150000X-0.625000X0.150000X-0.625000X0*%
%ADD12RoundRect,0.250000X-0.650000X0.325000X-0.650000X-0.325000X0.650000X-0.325000X0.650000X0.325000X0*%
%ADD13RoundRect,0.135000X-0.185000X0.135000X-0.185000X-0.135000X0.185000X-0.135000X0.185000X0.135000X0*%
%ADD14RoundRect,0.250000X-0.650000X0.350000X-0.650000X-0.350000X0.650000X-0.350000X0.650000X0.350000X0*%
%ADD15RoundRect,0.150000X-0.625000X0.150000X-0.625000X-0.150000X0.625000X-0.150000X0.625000X0.150000X0*%
%ADD16RoundRect,0.135000X-0.135000X-0.185000X0.135000X-0.185000X0.135000X0.185000X-0.135000X0.185000X0*%
%ADD17RoundRect,0.250000X-0.350000X-0.650000X0.350000X-0.650000X0.350000X0.650000X-0.350000X0.650000X0*%
%ADD18RoundRect,0.150000X-0.150000X-0.625000X0.150000X-0.625000X0.150000X0.625000X-0.150000X0.625000X0*%
%ADD19RoundRect,0.155000X-0.212500X-0.155000X0.212500X-0.155000X0.212500X0.155000X-0.212500X0.155000X0*%
%ADD20RoundRect,0.155000X-0.155000X0.212500X-0.155000X-0.212500X0.155000X-0.212500X0.155000X0.212500X0*%
%ADD21O,2.000000X0.900000*%
%ADD22RoundRect,0.250000X-1.000000X-0.650000X1.000000X-0.650000X1.000000X0.650000X-1.000000X0.650000X0*%
%ADD23RoundRect,0.250000X-0.325000X-0.650000X0.325000X-0.650000X0.325000X0.650000X-0.325000X0.650000X0*%
%ADD24RoundRect,0.225000X0.225000X0.250000X-0.225000X0.250000X-0.225000X-0.250000X0.225000X-0.250000X0*%
%ADD25RoundRect,0.237500X0.237500X-0.287500X0.237500X0.287500X-0.237500X0.287500X-0.237500X-0.287500X0*%
%ADD26RoundRect,0.155000X0.212500X0.155000X-0.212500X0.155000X-0.212500X-0.155000X0.212500X-0.155000X0*%
%ADD27R,2.047000X2.192000*%
%ADD28RoundRect,0.250000X0.650000X-0.350000X0.650000X0.350000X-0.650000X0.350000X-0.650000X-0.350000X0*%
%ADD29RoundRect,0.150000X0.625000X-0.150000X0.625000X0.150000X-0.625000X0.150000X-0.625000X-0.150000X0*%
%ADD30RoundRect,0.250000X-1.950000X-1.000000X1.950000X-1.000000X1.950000X1.000000X-1.950000X1.000000X0*%
%ADD31R,3.320000X2.150000*%
%ADD32RoundRect,0.155000X0.155000X-0.212500X0.155000X0.212500X-0.155000X0.212500X-0.155000X-0.212500X0*%
%ADD33RoundRect,0.225000X0.250000X-0.225000X0.250000X0.225000X-0.250000X0.225000X-0.250000X-0.225000X0*%
G04 APERTURE END LIST*
D10*
%TO.C,J26-Lock-in6*%
X117800000Y-46925000D03*
X123400000Y-46925000D03*
D11*
X119100000Y-44400000D03*
X120100000Y-44400000D03*
X121100000Y-44400000D03*
X122100000Y-44400000D03*
%TD*%
D12*
%TO.C,C12*%
X366000000Y-37000000D03*
X366000000Y-34050000D03*
%TD*%
D13*
%TO.C,R2*%
X398085002Y-14465000D03*
X398085002Y-13445000D03*
%TD*%
D14*
%TO.C,C4*%
X284525000Y-251308274D03*
X284525000Y-245708274D03*
D15*
X282000000Y-250008274D03*
X282000000Y-249008274D03*
X282000000Y-248008274D03*
X282000000Y-247008274D03*
%TD*%
D10*
%TO.C,J33-Diode10*%
X246500000Y-68400000D03*
X252100000Y-68400000D03*
D11*
X247800000Y-65875000D03*
X248800000Y-65875000D03*
X249800000Y-65875000D03*
X250800000Y-65875000D03*
%TD*%
D16*
%TO.C,R3*%
X309385000Y-166605000D03*
X308365000Y-166605000D03*
%TD*%
D17*
%TO.C,C2*%
X254000000Y-218000000D03*
X248400000Y-218000000D03*
D18*
X252700000Y-220525000D03*
X251700000Y-220525000D03*
X250700000Y-220525000D03*
X249700000Y-220525000D03*
%TD*%
D19*
%TO.C,C18*%
X347344500Y-48361000D03*
X346209500Y-48361000D03*
%TD*%
D10*
%TO.C,C7*%
X34250000Y-287800000D03*
X39850000Y-287800000D03*
D11*
X35550000Y-285275000D03*
X36550000Y-285275000D03*
X37550000Y-285275000D03*
X38550000Y-285275000D03*
%TD*%
D17*
%TO.C,C5*%
X73050000Y-207125000D03*
X67450000Y-207125000D03*
D18*
X71750000Y-209650000D03*
X70750000Y-209650000D03*
X69750000Y-209650000D03*
X68750000Y-209650000D03*
%TD*%
D10*
%TO.C,J14-Lock-in4*%
X63800000Y-46925000D03*
X69400000Y-46925000D03*
D11*
X65100000Y-44400000D03*
X66100000Y-44400000D03*
X67100000Y-44400000D03*
X68100000Y-44400000D03*
%TD*%
D10*
%TO.C,J32-Lock-in8*%
X147800000Y-46925000D03*
X153400000Y-46925000D03*
D11*
X149100000Y-44400000D03*
X150100000Y-44400000D03*
X151100000Y-44400000D03*
X152100000Y-44400000D03*
%TD*%
D10*
%TO.C,J13-Lock-in3*%
X49800000Y-46925000D03*
X55400000Y-46925000D03*
D11*
X51100000Y-44400000D03*
X52100000Y-44400000D03*
X53100000Y-44400000D03*
X54100000Y-44400000D03*
%TD*%
D17*
%TO.C,C3*%
X19990000Y-211625000D03*
X14390000Y-211625000D03*
D18*
X18690000Y-214150000D03*
X17690000Y-214150000D03*
X16690000Y-214150000D03*
X15690000Y-214150000D03*
%TD*%
D10*
%TO.C,J2-Diode1*%
X209700000Y-78600000D03*
X215300000Y-78600000D03*
D11*
X211000000Y-76075000D03*
X212000000Y-76075000D03*
X213000000Y-76075000D03*
X214000000Y-76075000D03*
%TD*%
D10*
%TO.C,J3-Diode2*%
X209700000Y-68600000D03*
X215300000Y-68600000D03*
D11*
X211000000Y-66075000D03*
X212000000Y-66075000D03*
X213000000Y-66075000D03*
X214000000Y-66075000D03*
%TD*%
D10*
%TO.C,J28-Diode8*%
X228700000Y-48600000D03*
X234300000Y-48600000D03*
D11*
X230000000Y-46075000D03*
X231000000Y-46075000D03*
X232000000Y-46075000D03*
X233000000Y-46075000D03*
%TD*%
D20*
%TO.C,C22*%
X293517000Y-177926500D03*
X293517000Y-176791500D03*
%TD*%
D14*
%TO.C,C17*%
X284525000Y-270791726D03*
X284525000Y-265191726D03*
D15*
X282000000Y-269491726D03*
X282000000Y-268491726D03*
X282000000Y-267491726D03*
X282000000Y-266491726D03*
%TD*%
D10*
%TO.C,J22-Diode6*%
X228500000Y-68400000D03*
X234100000Y-68400000D03*
D11*
X229800000Y-65875000D03*
X230800000Y-65875000D03*
X231800000Y-65875000D03*
X232800000Y-65875000D03*
%TD*%
D10*
%TO.C,J34-Diode11*%
X246500000Y-58600000D03*
X252100000Y-58600000D03*
D11*
X247800000Y-56075000D03*
X248800000Y-56075000D03*
X249800000Y-56075000D03*
X250800000Y-56075000D03*
%TD*%
D10*
%TO.C,J9-Diode4*%
X209700000Y-48600000D03*
X215300000Y-48600000D03*
D11*
X211000000Y-46075000D03*
X212000000Y-46075000D03*
X213000000Y-46075000D03*
X214000000Y-46075000D03*
%TD*%
D10*
%TO.C,J39-Lockin-in9*%
X125300000Y-38600000D03*
X130900000Y-38600000D03*
D11*
X126600000Y-36075000D03*
X127600000Y-36075000D03*
X128600000Y-36075000D03*
X129600000Y-36075000D03*
%TD*%
D10*
%TO.C,J1-Lock-in1*%
X21800000Y-46925000D03*
X27400000Y-46925000D03*
D11*
X23100000Y-44400000D03*
X24100000Y-44400000D03*
X25100000Y-44400000D03*
X26100000Y-44400000D03*
%TD*%
D21*
%TO.C,U2*%
X319440001Y-164030000D03*
X319440001Y-166570000D03*
X312440001Y-166570000D03*
X312440001Y-164030000D03*
%TD*%
D22*
%TO.C,D4*%
X365750000Y-60750000D03*
X361750000Y-60750000D03*
%TD*%
D23*
%TO.C,C13*%
X365750000Y-63750000D03*
X362800000Y-63750000D03*
%TD*%
D13*
%TO.C,R1*%
X328665000Y-20215000D03*
X328665000Y-19195000D03*
%TD*%
D10*
%TO.C,J23-Diode7*%
X228700000Y-58600000D03*
X234300000Y-58600000D03*
D11*
X230000000Y-56075000D03*
X231000000Y-56075000D03*
X232000000Y-56075000D03*
X233000000Y-56075000D03*
%TD*%
D10*
%TO.C,C14*%
X116450000Y-209625000D03*
X122050000Y-209625000D03*
D11*
X117750000Y-207100000D03*
X118750000Y-207100000D03*
X119750000Y-207100000D03*
X120750000Y-207100000D03*
%TD*%
D24*
%TO.C,C9*%
X364832600Y-4826000D03*
X366382600Y-4826000D03*
%TD*%
D25*
%TO.C,D7*%
X398115002Y-16065000D03*
X398115002Y-17815000D03*
%TD*%
D26*
%TO.C,C23*%
X53861500Y-261613000D03*
X54996500Y-261613000D03*
%TD*%
D10*
%TO.C,C16*%
X386200000Y-173691726D03*
X391800000Y-173691726D03*
D11*
X387500000Y-171166726D03*
X388500000Y-171166726D03*
X389500000Y-171166726D03*
X390500000Y-171166726D03*
%TD*%
D10*
%TO.C,J27-Lock-in7*%
X132800000Y-46925000D03*
X138400000Y-46925000D03*
D11*
X134100000Y-44400000D03*
X135100000Y-44400000D03*
X136100000Y-44400000D03*
X137100000Y-44400000D03*
%TD*%
D10*
%TO.C,J37-Diode12*%
X246500000Y-48600000D03*
X252100000Y-48600000D03*
D11*
X247800000Y-46075000D03*
X248800000Y-46075000D03*
X249800000Y-46075000D03*
X250800000Y-46075000D03*
%TD*%
D27*
%TO.C,D5*%
X79369000Y-278080000D03*
X84091000Y-278080000D03*
%TD*%
D14*
%TO.C,C1*%
X284525000Y-260800000D03*
X284525000Y-255200000D03*
D15*
X282000000Y-259500000D03*
X282000000Y-258500000D03*
X282000000Y-257500000D03*
X282000000Y-256500000D03*
%TD*%
D28*
%TO.C,C6*%
X267800000Y-139691726D03*
X267800000Y-145291726D03*
D29*
X270325000Y-140991726D03*
X270325000Y-141991726D03*
X270325000Y-142991726D03*
X270325000Y-143991726D03*
%TD*%
D30*
%TO.C,C8*%
X387750000Y-15750000D03*
X379350000Y-15750000D03*
%TD*%
D10*
%TO.C,J6-50K-Diode1*%
X190800000Y-68600000D03*
X196400000Y-68600000D03*
D11*
X192100000Y-66075000D03*
X193100000Y-66075000D03*
X194100000Y-66075000D03*
X195100000Y-66075000D03*
%TD*%
D10*
%TO.C,C15*%
X377200000Y-173691726D03*
X382800000Y-173691726D03*
D11*
X378500000Y-171166726D03*
X379500000Y-171166726D03*
X380500000Y-171166726D03*
X381500000Y-171166726D03*
%TD*%
D26*
%TO.C,C21*%
X95631500Y-46059000D03*
X96766500Y-46059000D03*
%TD*%
D20*
%TO.C,C20*%
X270279000Y-280796500D03*
X270279000Y-279661500D03*
%TD*%
D10*
%TO.C,J21-Lock-in5*%
X102800000Y-46925000D03*
X108400000Y-46925000D03*
D11*
X104100000Y-44400000D03*
X105100000Y-44400000D03*
X106100000Y-44400000D03*
X107100000Y-44400000D03*
%TD*%
D10*
%TO.C,J12-3K-Diode1*%
X190800000Y-78600000D03*
X196400000Y-78600000D03*
D11*
X192100000Y-76075000D03*
X193100000Y-76075000D03*
X194100000Y-76075000D03*
X195100000Y-76075000D03*
%TD*%
D31*
%TO.C,L3*%
X372217500Y-20013000D03*
X372217500Y-14187000D03*
%TD*%
D32*
%TO.C,C19*%
X89701000Y-178943500D03*
X89701000Y-180078500D03*
%TD*%
D33*
%TO.C,C10*%
X366770000Y-23065000D03*
X366770000Y-24615000D03*
%TD*%
D12*
%TO.C,C11*%
X361600000Y-36975000D03*
X361600000Y-34025000D03*
%TD*%
D25*
%TO.C,D6*%
X328545000Y-22155000D03*
X328545000Y-23905000D03*
%TD*%
D10*
%TO.C,J8-Diode3*%
X209700000Y-58600000D03*
X215300000Y-58600000D03*
D11*
X211000000Y-56075000D03*
X212000000Y-56075000D03*
X213000000Y-56075000D03*
X214000000Y-56075000D03*
%TD*%
D10*
%TO.C,J29-Diode9*%
X246500000Y-78600000D03*
X252100000Y-78600000D03*
D11*
X247800000Y-76075000D03*
X248800000Y-76075000D03*
X249800000Y-76075000D03*
X250800000Y-76075000D03*
%TD*%
D10*
%TO.C,J7-Lock-in2*%
X35800000Y-46925000D03*
X41400000Y-46925000D03*
D11*
X37100000Y-44400000D03*
X38100000Y-44400000D03*
X39100000Y-44400000D03*
X40100000Y-44400000D03*
%TD*%
D10*
%TO.C,J16-Diode5*%
X228700000Y-78600000D03*
X234300000Y-78600000D03*
D11*
X230000000Y-76075000D03*
X231000000Y-76075000D03*
X232000000Y-76075000D03*
X233000000Y-76075000D03*
%TD*%
M02*
