%TF.GenerationSoftware,KiCad,Pcbnew,7.0.9*%
%TF.CreationDate,2024-10-01T20:54:17-06:00*%
%TF.ProjectId,motherboard_v1,6d6f7468-6572-4626-9f61-72645f76312e,rev?*%
%TF.SameCoordinates,Original*%
%TF.FileFunction,Other,Comment*%
%FSLAX46Y46*%
G04 Gerber Fmt 4.6, Leading zero omitted, Abs format (unit mm)*
G04 Created by KiCad (PCBNEW 7.0.9) date 2024-10-01 20:54:17*
%MOMM*%
%LPD*%
G01*
G04 APERTURE LIST*
%ADD10C,0.150000*%
%ADD11C,0.400000*%
G04 APERTURE END LIST*
D10*
X331404764Y-53569818D02*
X331404764Y-52569818D01*
X331404764Y-52569818D02*
X331976192Y-53569818D01*
X331976192Y-53569818D02*
X331976192Y-52569818D01*
X332452383Y-53569818D02*
X332452383Y-52569818D01*
X332452383Y-52569818D02*
X332833335Y-52569818D01*
X332833335Y-52569818D02*
X332928573Y-52617437D01*
X332928573Y-52617437D02*
X332976192Y-52665056D01*
X332976192Y-52665056D02*
X333023811Y-52760294D01*
X333023811Y-52760294D02*
X333023811Y-52903151D01*
X333023811Y-52903151D02*
X332976192Y-52998389D01*
X332976192Y-52998389D02*
X332928573Y-53046008D01*
X332928573Y-53046008D02*
X332833335Y-53093627D01*
X332833335Y-53093627D02*
X332452383Y-53093627D01*
X333309526Y-52569818D02*
X333880954Y-52569818D01*
X333595240Y-53569818D02*
X333595240Y-52569818D01*
X334214288Y-53569818D02*
X334214288Y-52569818D01*
X334214288Y-53046008D02*
X334785716Y-53046008D01*
X334785716Y-53569818D02*
X334785716Y-52569818D01*
X335023812Y-53665056D02*
X335785716Y-53665056D01*
X336023812Y-53569818D02*
X336023812Y-52569818D01*
X336023812Y-52569818D02*
X336261907Y-52569818D01*
X336261907Y-52569818D02*
X336404764Y-52617437D01*
X336404764Y-52617437D02*
X336500002Y-52712675D01*
X336500002Y-52712675D02*
X336547621Y-52807913D01*
X336547621Y-52807913D02*
X336595240Y-52998389D01*
X336595240Y-52998389D02*
X336595240Y-53141246D01*
X336595240Y-53141246D02*
X336547621Y-53331722D01*
X336547621Y-53331722D02*
X336500002Y-53426960D01*
X336500002Y-53426960D02*
X336404764Y-53522199D01*
X336404764Y-53522199D02*
X336261907Y-53569818D01*
X336261907Y-53569818D02*
X336023812Y-53569818D01*
X337595240Y-53569818D02*
X337261907Y-53093627D01*
X337023812Y-53569818D02*
X337023812Y-52569818D01*
X337023812Y-52569818D02*
X337404764Y-52569818D01*
X337404764Y-52569818D02*
X337500002Y-52617437D01*
X337500002Y-52617437D02*
X337547621Y-52665056D01*
X337547621Y-52665056D02*
X337595240Y-52760294D01*
X337595240Y-52760294D02*
X337595240Y-52903151D01*
X337595240Y-52903151D02*
X337547621Y-52998389D01*
X337547621Y-52998389D02*
X337500002Y-53046008D01*
X337500002Y-53046008D02*
X337404764Y-53093627D01*
X337404764Y-53093627D02*
X337023812Y-53093627D01*
X338023812Y-53569818D02*
X338023812Y-52569818D01*
X338976192Y-53569818D02*
X338500002Y-53569818D01*
X338500002Y-53569818D02*
X338500002Y-52569818D01*
X339785716Y-53569818D02*
X339309526Y-53569818D01*
X339309526Y-53569818D02*
X339309526Y-52569818D01*
X339880955Y-53665056D02*
X340642859Y-53665056D01*
X340833336Y-53522199D02*
X340976193Y-53569818D01*
X340976193Y-53569818D02*
X341214288Y-53569818D01*
X341214288Y-53569818D02*
X341309526Y-53522199D01*
X341309526Y-53522199D02*
X341357145Y-53474579D01*
X341357145Y-53474579D02*
X341404764Y-53379341D01*
X341404764Y-53379341D02*
X341404764Y-53284103D01*
X341404764Y-53284103D02*
X341357145Y-53188865D01*
X341357145Y-53188865D02*
X341309526Y-53141246D01*
X341309526Y-53141246D02*
X341214288Y-53093627D01*
X341214288Y-53093627D02*
X341023812Y-53046008D01*
X341023812Y-53046008D02*
X340928574Y-52998389D01*
X340928574Y-52998389D02*
X340880955Y-52950770D01*
X340880955Y-52950770D02*
X340833336Y-52855532D01*
X340833336Y-52855532D02*
X340833336Y-52760294D01*
X340833336Y-52760294D02*
X340880955Y-52665056D01*
X340880955Y-52665056D02*
X340928574Y-52617437D01*
X340928574Y-52617437D02*
X341023812Y-52569818D01*
X341023812Y-52569818D02*
X341261907Y-52569818D01*
X341261907Y-52569818D02*
X341404764Y-52617437D01*
X341833336Y-53569818D02*
X341833336Y-52569818D01*
X342214288Y-52569818D02*
X342880954Y-52569818D01*
X342880954Y-52569818D02*
X342214288Y-53569818D01*
X342214288Y-53569818D02*
X342880954Y-53569818D01*
X343261907Y-53046008D02*
X343595240Y-53046008D01*
X343738097Y-53569818D02*
X343261907Y-53569818D01*
X343261907Y-53569818D02*
X343261907Y-52569818D01*
X343261907Y-52569818D02*
X343738097Y-52569818D01*
X344166669Y-53474579D02*
X344214288Y-53522199D01*
X344214288Y-53522199D02*
X344166669Y-53569818D01*
X344166669Y-53569818D02*
X344119050Y-53522199D01*
X344119050Y-53522199D02*
X344166669Y-53474579D01*
X344166669Y-53474579D02*
X344166669Y-53569818D01*
X344166669Y-52950770D02*
X344214288Y-52998389D01*
X344214288Y-52998389D02*
X344166669Y-53046008D01*
X344166669Y-53046008D02*
X344119050Y-52998389D01*
X344119050Y-52998389D02*
X344166669Y-52950770D01*
X344166669Y-52950770D02*
X344166669Y-53046008D01*
X344404764Y-53665056D02*
X345166668Y-53665056D01*
X345928573Y-53569818D02*
X345357145Y-53569818D01*
X345642859Y-53569818D02*
X345642859Y-52569818D01*
X345642859Y-52569818D02*
X345547621Y-52712675D01*
X345547621Y-52712675D02*
X345452383Y-52807913D01*
X345452383Y-52807913D02*
X345357145Y-52855532D01*
X346357145Y-53474579D02*
X346404764Y-53522199D01*
X346404764Y-53522199D02*
X346357145Y-53569818D01*
X346357145Y-53569818D02*
X346309526Y-53522199D01*
X346309526Y-53522199D02*
X346357145Y-53474579D01*
X346357145Y-53474579D02*
X346357145Y-53569818D01*
X346785716Y-52665056D02*
X346833335Y-52617437D01*
X346833335Y-52617437D02*
X346928573Y-52569818D01*
X346928573Y-52569818D02*
X347166668Y-52569818D01*
X347166668Y-52569818D02*
X347261906Y-52617437D01*
X347261906Y-52617437D02*
X347309525Y-52665056D01*
X347309525Y-52665056D02*
X347357144Y-52760294D01*
X347357144Y-52760294D02*
X347357144Y-52855532D01*
X347357144Y-52855532D02*
X347309525Y-52998389D01*
X347309525Y-52998389D02*
X346738097Y-53569818D01*
X346738097Y-53569818D02*
X347357144Y-53569818D01*
X347690478Y-52569818D02*
X348357144Y-52569818D01*
X348357144Y-52569818D02*
X347928573Y-53569818D01*
X348500002Y-53665056D02*
X349261906Y-53665056D01*
X349500002Y-53569818D02*
X349500002Y-52569818D01*
X349500002Y-52569818D02*
X349833335Y-53284103D01*
X349833335Y-53284103D02*
X350166668Y-52569818D01*
X350166668Y-52569818D02*
X350166668Y-53569818D01*
X350642859Y-53569818D02*
X350642859Y-52569818D01*
X350642859Y-52569818D02*
X350976192Y-53284103D01*
X350976192Y-53284103D02*
X351309525Y-52569818D01*
X351309525Y-52569818D02*
X351309525Y-53569818D01*
X351833335Y-53522199D02*
X351833335Y-53569818D01*
X351833335Y-53569818D02*
X351785716Y-53665056D01*
X351785716Y-53665056D02*
X351738097Y-53712675D01*
X352023811Y-53665056D02*
X352785715Y-53665056D01*
X352880954Y-52569818D02*
X353452382Y-52569818D01*
X353166668Y-53569818D02*
X353166668Y-52569818D01*
X353976192Y-52569818D02*
X354166668Y-52569818D01*
X354166668Y-52569818D02*
X354261906Y-52617437D01*
X354261906Y-52617437D02*
X354357144Y-52712675D01*
X354357144Y-52712675D02*
X354404763Y-52903151D01*
X354404763Y-52903151D02*
X354404763Y-53236484D01*
X354404763Y-53236484D02*
X354357144Y-53426960D01*
X354357144Y-53426960D02*
X354261906Y-53522199D01*
X354261906Y-53522199D02*
X354166668Y-53569818D01*
X354166668Y-53569818D02*
X353976192Y-53569818D01*
X353976192Y-53569818D02*
X353880954Y-53522199D01*
X353880954Y-53522199D02*
X353785716Y-53426960D01*
X353785716Y-53426960D02*
X353738097Y-53236484D01*
X353738097Y-53236484D02*
X353738097Y-52903151D01*
X353738097Y-52903151D02*
X353785716Y-52712675D01*
X353785716Y-52712675D02*
X353880954Y-52617437D01*
X353880954Y-52617437D02*
X353976192Y-52569818D01*
X355309525Y-53569818D02*
X354833335Y-53569818D01*
X354833335Y-53569818D02*
X354833335Y-52569818D01*
X355642859Y-53474579D02*
X355690478Y-53522199D01*
X355690478Y-53522199D02*
X355642859Y-53569818D01*
X355642859Y-53569818D02*
X355595240Y-53522199D01*
X355595240Y-53522199D02*
X355642859Y-53474579D01*
X355642859Y-53474579D02*
X355642859Y-53569818D01*
X355642859Y-52950770D02*
X355690478Y-52998389D01*
X355690478Y-52998389D02*
X355642859Y-53046008D01*
X355642859Y-53046008D02*
X355595240Y-52998389D01*
X355595240Y-52998389D02*
X355642859Y-52950770D01*
X355642859Y-52950770D02*
X355642859Y-53046008D01*
X355880954Y-53665056D02*
X356642858Y-53665056D01*
X356880954Y-53188865D02*
X357642859Y-53188865D01*
X357261906Y-53569818D02*
X357261906Y-52807913D01*
X358309525Y-52569818D02*
X358404763Y-52569818D01*
X358404763Y-52569818D02*
X358500001Y-52617437D01*
X358500001Y-52617437D02*
X358547620Y-52665056D01*
X358547620Y-52665056D02*
X358595239Y-52760294D01*
X358595239Y-52760294D02*
X358642858Y-52950770D01*
X358642858Y-52950770D02*
X358642858Y-53188865D01*
X358642858Y-53188865D02*
X358595239Y-53379341D01*
X358595239Y-53379341D02*
X358547620Y-53474579D01*
X358547620Y-53474579D02*
X358500001Y-53522199D01*
X358500001Y-53522199D02*
X358404763Y-53569818D01*
X358404763Y-53569818D02*
X358309525Y-53569818D01*
X358309525Y-53569818D02*
X358214287Y-53522199D01*
X358214287Y-53522199D02*
X358166668Y-53474579D01*
X358166668Y-53474579D02*
X358119049Y-53379341D01*
X358119049Y-53379341D02*
X358071430Y-53188865D01*
X358071430Y-53188865D02*
X358071430Y-52950770D01*
X358071430Y-52950770D02*
X358119049Y-52760294D01*
X358119049Y-52760294D02*
X358166668Y-52665056D01*
X358166668Y-52665056D02*
X358214287Y-52617437D01*
X358214287Y-52617437D02*
X358309525Y-52569818D01*
X359071430Y-53474579D02*
X359119049Y-53522199D01*
X359119049Y-53522199D02*
X359071430Y-53569818D01*
X359071430Y-53569818D02*
X359023811Y-53522199D01*
X359023811Y-53522199D02*
X359071430Y-53474579D01*
X359071430Y-53474579D02*
X359071430Y-53569818D01*
X359738096Y-52569818D02*
X359833334Y-52569818D01*
X359833334Y-52569818D02*
X359928572Y-52617437D01*
X359928572Y-52617437D02*
X359976191Y-52665056D01*
X359976191Y-52665056D02*
X360023810Y-52760294D01*
X360023810Y-52760294D02*
X360071429Y-52950770D01*
X360071429Y-52950770D02*
X360071429Y-53188865D01*
X360071429Y-53188865D02*
X360023810Y-53379341D01*
X360023810Y-53379341D02*
X359976191Y-53474579D01*
X359976191Y-53474579D02*
X359928572Y-53522199D01*
X359928572Y-53522199D02*
X359833334Y-53569818D01*
X359833334Y-53569818D02*
X359738096Y-53569818D01*
X359738096Y-53569818D02*
X359642858Y-53522199D01*
X359642858Y-53522199D02*
X359595239Y-53474579D01*
X359595239Y-53474579D02*
X359547620Y-53379341D01*
X359547620Y-53379341D02*
X359500001Y-53188865D01*
X359500001Y-53188865D02*
X359500001Y-52950770D01*
X359500001Y-52950770D02*
X359547620Y-52760294D01*
X359547620Y-52760294D02*
X359595239Y-52665056D01*
X359595239Y-52665056D02*
X359642858Y-52617437D01*
X359642858Y-52617437D02*
X359738096Y-52569818D01*
X360976191Y-52569818D02*
X360500001Y-52569818D01*
X360500001Y-52569818D02*
X360452382Y-53046008D01*
X360452382Y-53046008D02*
X360500001Y-52998389D01*
X360500001Y-52998389D02*
X360595239Y-52950770D01*
X360595239Y-52950770D02*
X360833334Y-52950770D01*
X360833334Y-52950770D02*
X360928572Y-52998389D01*
X360928572Y-52998389D02*
X360976191Y-53046008D01*
X360976191Y-53046008D02*
X361023810Y-53141246D01*
X361023810Y-53141246D02*
X361023810Y-53379341D01*
X361023810Y-53379341D02*
X360976191Y-53474579D01*
X360976191Y-53474579D02*
X360928572Y-53522199D01*
X360928572Y-53522199D02*
X360833334Y-53569818D01*
X360833334Y-53569818D02*
X360595239Y-53569818D01*
X360595239Y-53569818D02*
X360500001Y-53522199D01*
X360500001Y-53522199D02*
X360452382Y-53474579D01*
X362166667Y-52522199D02*
X361309525Y-53807913D01*
X362500001Y-53188865D02*
X363261906Y-53188865D01*
X363928572Y-52569818D02*
X364023810Y-52569818D01*
X364023810Y-52569818D02*
X364119048Y-52617437D01*
X364119048Y-52617437D02*
X364166667Y-52665056D01*
X364166667Y-52665056D02*
X364214286Y-52760294D01*
X364214286Y-52760294D02*
X364261905Y-52950770D01*
X364261905Y-52950770D02*
X364261905Y-53188865D01*
X364261905Y-53188865D02*
X364214286Y-53379341D01*
X364214286Y-53379341D02*
X364166667Y-53474579D01*
X364166667Y-53474579D02*
X364119048Y-53522199D01*
X364119048Y-53522199D02*
X364023810Y-53569818D01*
X364023810Y-53569818D02*
X363928572Y-53569818D01*
X363928572Y-53569818D02*
X363833334Y-53522199D01*
X363833334Y-53522199D02*
X363785715Y-53474579D01*
X363785715Y-53474579D02*
X363738096Y-53379341D01*
X363738096Y-53379341D02*
X363690477Y-53188865D01*
X363690477Y-53188865D02*
X363690477Y-52950770D01*
X363690477Y-52950770D02*
X363738096Y-52760294D01*
X363738096Y-52760294D02*
X363785715Y-52665056D01*
X363785715Y-52665056D02*
X363833334Y-52617437D01*
X363833334Y-52617437D02*
X363928572Y-52569818D01*
X364690477Y-53474579D02*
X364738096Y-53522199D01*
X364738096Y-53522199D02*
X364690477Y-53569818D01*
X364690477Y-53569818D02*
X364642858Y-53522199D01*
X364642858Y-53522199D02*
X364690477Y-53474579D01*
X364690477Y-53474579D02*
X364690477Y-53569818D01*
X365357143Y-52569818D02*
X365452381Y-52569818D01*
X365452381Y-52569818D02*
X365547619Y-52617437D01*
X365547619Y-52617437D02*
X365595238Y-52665056D01*
X365595238Y-52665056D02*
X365642857Y-52760294D01*
X365642857Y-52760294D02*
X365690476Y-52950770D01*
X365690476Y-52950770D02*
X365690476Y-53188865D01*
X365690476Y-53188865D02*
X365642857Y-53379341D01*
X365642857Y-53379341D02*
X365595238Y-53474579D01*
X365595238Y-53474579D02*
X365547619Y-53522199D01*
X365547619Y-53522199D02*
X365452381Y-53569818D01*
X365452381Y-53569818D02*
X365357143Y-53569818D01*
X365357143Y-53569818D02*
X365261905Y-53522199D01*
X365261905Y-53522199D02*
X365214286Y-53474579D01*
X365214286Y-53474579D02*
X365166667Y-53379341D01*
X365166667Y-53379341D02*
X365119048Y-53188865D01*
X365119048Y-53188865D02*
X365119048Y-52950770D01*
X365119048Y-52950770D02*
X365166667Y-52760294D01*
X365166667Y-52760294D02*
X365214286Y-52665056D01*
X365214286Y-52665056D02*
X365261905Y-52617437D01*
X365261905Y-52617437D02*
X365357143Y-52569818D01*
X366595238Y-52569818D02*
X366119048Y-52569818D01*
X366119048Y-52569818D02*
X366071429Y-53046008D01*
X366071429Y-53046008D02*
X366119048Y-52998389D01*
X366119048Y-52998389D02*
X366214286Y-52950770D01*
X366214286Y-52950770D02*
X366452381Y-52950770D01*
X366452381Y-52950770D02*
X366547619Y-52998389D01*
X366547619Y-52998389D02*
X366595238Y-53046008D01*
X366595238Y-53046008D02*
X366642857Y-53141246D01*
X366642857Y-53141246D02*
X366642857Y-53379341D01*
X366642857Y-53379341D02*
X366595238Y-53474579D01*
X366595238Y-53474579D02*
X366547619Y-53522199D01*
X366547619Y-53522199D02*
X366452381Y-53569818D01*
X366452381Y-53569818D02*
X366214286Y-53569818D01*
X366214286Y-53569818D02*
X366119048Y-53522199D01*
X366119048Y-53522199D02*
X366071429Y-53474579D01*
X331928573Y-51029818D02*
X331928573Y-50029818D01*
X331928573Y-50029818D02*
X332309525Y-50029818D01*
X332309525Y-50029818D02*
X332404763Y-50077437D01*
X332404763Y-50077437D02*
X332452382Y-50125056D01*
X332452382Y-50125056D02*
X332500001Y-50220294D01*
X332500001Y-50220294D02*
X332500001Y-50363151D01*
X332500001Y-50363151D02*
X332452382Y-50458389D01*
X332452382Y-50458389D02*
X332404763Y-50506008D01*
X332404763Y-50506008D02*
X332309525Y-50553627D01*
X332309525Y-50553627D02*
X331928573Y-50553627D01*
X332785716Y-50029818D02*
X333357144Y-50029818D01*
X333071430Y-51029818D02*
X333071430Y-50029818D01*
X333690478Y-51029818D02*
X333690478Y-50029818D01*
X333690478Y-50506008D02*
X334261906Y-50506008D01*
X334261906Y-51029818D02*
X334261906Y-50029818D01*
X334500002Y-51125056D02*
X335261906Y-51125056D01*
X335500002Y-51029818D02*
X335500002Y-50029818D01*
X335500002Y-50029818D02*
X335738097Y-50029818D01*
X335738097Y-50029818D02*
X335880954Y-50077437D01*
X335880954Y-50077437D02*
X335976192Y-50172675D01*
X335976192Y-50172675D02*
X336023811Y-50267913D01*
X336023811Y-50267913D02*
X336071430Y-50458389D01*
X336071430Y-50458389D02*
X336071430Y-50601246D01*
X336071430Y-50601246D02*
X336023811Y-50791722D01*
X336023811Y-50791722D02*
X335976192Y-50886960D01*
X335976192Y-50886960D02*
X335880954Y-50982199D01*
X335880954Y-50982199D02*
X335738097Y-51029818D01*
X335738097Y-51029818D02*
X335500002Y-51029818D01*
X337071430Y-51029818D02*
X336738097Y-50553627D01*
X336500002Y-51029818D02*
X336500002Y-50029818D01*
X336500002Y-50029818D02*
X336880954Y-50029818D01*
X336880954Y-50029818D02*
X336976192Y-50077437D01*
X336976192Y-50077437D02*
X337023811Y-50125056D01*
X337023811Y-50125056D02*
X337071430Y-50220294D01*
X337071430Y-50220294D02*
X337071430Y-50363151D01*
X337071430Y-50363151D02*
X337023811Y-50458389D01*
X337023811Y-50458389D02*
X336976192Y-50506008D01*
X336976192Y-50506008D02*
X336880954Y-50553627D01*
X336880954Y-50553627D02*
X336500002Y-50553627D01*
X337500002Y-51029818D02*
X337500002Y-50029818D01*
X338452382Y-51029818D02*
X337976192Y-51029818D01*
X337976192Y-51029818D02*
X337976192Y-50029818D01*
X339261906Y-51029818D02*
X338785716Y-51029818D01*
X338785716Y-51029818D02*
X338785716Y-50029818D01*
X339357145Y-51125056D02*
X340119049Y-51125056D01*
X340309526Y-50982199D02*
X340452383Y-51029818D01*
X340452383Y-51029818D02*
X340690478Y-51029818D01*
X340690478Y-51029818D02*
X340785716Y-50982199D01*
X340785716Y-50982199D02*
X340833335Y-50934579D01*
X340833335Y-50934579D02*
X340880954Y-50839341D01*
X340880954Y-50839341D02*
X340880954Y-50744103D01*
X340880954Y-50744103D02*
X340833335Y-50648865D01*
X340833335Y-50648865D02*
X340785716Y-50601246D01*
X340785716Y-50601246D02*
X340690478Y-50553627D01*
X340690478Y-50553627D02*
X340500002Y-50506008D01*
X340500002Y-50506008D02*
X340404764Y-50458389D01*
X340404764Y-50458389D02*
X340357145Y-50410770D01*
X340357145Y-50410770D02*
X340309526Y-50315532D01*
X340309526Y-50315532D02*
X340309526Y-50220294D01*
X340309526Y-50220294D02*
X340357145Y-50125056D01*
X340357145Y-50125056D02*
X340404764Y-50077437D01*
X340404764Y-50077437D02*
X340500002Y-50029818D01*
X340500002Y-50029818D02*
X340738097Y-50029818D01*
X340738097Y-50029818D02*
X340880954Y-50077437D01*
X341309526Y-51029818D02*
X341309526Y-50029818D01*
X341690478Y-50029818D02*
X342357144Y-50029818D01*
X342357144Y-50029818D02*
X341690478Y-51029818D01*
X341690478Y-51029818D02*
X342357144Y-51029818D01*
X342738097Y-50506008D02*
X343071430Y-50506008D01*
X343214287Y-51029818D02*
X342738097Y-51029818D01*
X342738097Y-51029818D02*
X342738097Y-50029818D01*
X342738097Y-50029818D02*
X343214287Y-50029818D01*
X343642859Y-50934579D02*
X343690478Y-50982199D01*
X343690478Y-50982199D02*
X343642859Y-51029818D01*
X343642859Y-51029818D02*
X343595240Y-50982199D01*
X343595240Y-50982199D02*
X343642859Y-50934579D01*
X343642859Y-50934579D02*
X343642859Y-51029818D01*
X343642859Y-50410770D02*
X343690478Y-50458389D01*
X343690478Y-50458389D02*
X343642859Y-50506008D01*
X343642859Y-50506008D02*
X343595240Y-50458389D01*
X343595240Y-50458389D02*
X343642859Y-50410770D01*
X343642859Y-50410770D02*
X343642859Y-50506008D01*
X343880954Y-51125056D02*
X344642858Y-51125056D01*
X345404763Y-51029818D02*
X344833335Y-51029818D01*
X345119049Y-51029818D02*
X345119049Y-50029818D01*
X345119049Y-50029818D02*
X345023811Y-50172675D01*
X345023811Y-50172675D02*
X344928573Y-50267913D01*
X344928573Y-50267913D02*
X344833335Y-50315532D01*
X345833335Y-50934579D02*
X345880954Y-50982199D01*
X345880954Y-50982199D02*
X345833335Y-51029818D01*
X345833335Y-51029818D02*
X345785716Y-50982199D01*
X345785716Y-50982199D02*
X345833335Y-50934579D01*
X345833335Y-50934579D02*
X345833335Y-51029818D01*
X346500001Y-50029818D02*
X346595239Y-50029818D01*
X346595239Y-50029818D02*
X346690477Y-50077437D01*
X346690477Y-50077437D02*
X346738096Y-50125056D01*
X346738096Y-50125056D02*
X346785715Y-50220294D01*
X346785715Y-50220294D02*
X346833334Y-50410770D01*
X346833334Y-50410770D02*
X346833334Y-50648865D01*
X346833334Y-50648865D02*
X346785715Y-50839341D01*
X346785715Y-50839341D02*
X346738096Y-50934579D01*
X346738096Y-50934579D02*
X346690477Y-50982199D01*
X346690477Y-50982199D02*
X346595239Y-51029818D01*
X346595239Y-51029818D02*
X346500001Y-51029818D01*
X346500001Y-51029818D02*
X346404763Y-50982199D01*
X346404763Y-50982199D02*
X346357144Y-50934579D01*
X346357144Y-50934579D02*
X346309525Y-50839341D01*
X346309525Y-50839341D02*
X346261906Y-50648865D01*
X346261906Y-50648865D02*
X346261906Y-50410770D01*
X346261906Y-50410770D02*
X346309525Y-50220294D01*
X346309525Y-50220294D02*
X346357144Y-50125056D01*
X346357144Y-50125056D02*
X346404763Y-50077437D01*
X346404763Y-50077437D02*
X346500001Y-50029818D01*
X347214287Y-50125056D02*
X347261906Y-50077437D01*
X347261906Y-50077437D02*
X347357144Y-50029818D01*
X347357144Y-50029818D02*
X347595239Y-50029818D01*
X347595239Y-50029818D02*
X347690477Y-50077437D01*
X347690477Y-50077437D02*
X347738096Y-50125056D01*
X347738096Y-50125056D02*
X347785715Y-50220294D01*
X347785715Y-50220294D02*
X347785715Y-50315532D01*
X347785715Y-50315532D02*
X347738096Y-50458389D01*
X347738096Y-50458389D02*
X347166668Y-51029818D01*
X347166668Y-51029818D02*
X347785715Y-51029818D01*
X347976192Y-51125056D02*
X348738096Y-51125056D01*
X348976192Y-51029818D02*
X348976192Y-50029818D01*
X348976192Y-50029818D02*
X349309525Y-50744103D01*
X349309525Y-50744103D02*
X349642858Y-50029818D01*
X349642858Y-50029818D02*
X349642858Y-51029818D01*
X350119049Y-51029818D02*
X350119049Y-50029818D01*
X350119049Y-50029818D02*
X350452382Y-50744103D01*
X350452382Y-50744103D02*
X350785715Y-50029818D01*
X350785715Y-50029818D02*
X350785715Y-51029818D01*
X351309525Y-50982199D02*
X351309525Y-51029818D01*
X351309525Y-51029818D02*
X351261906Y-51125056D01*
X351261906Y-51125056D02*
X351214287Y-51172675D01*
X351500001Y-51125056D02*
X352261905Y-51125056D01*
X352357144Y-50029818D02*
X352928572Y-50029818D01*
X352642858Y-51029818D02*
X352642858Y-50029818D01*
X353452382Y-50029818D02*
X353642858Y-50029818D01*
X353642858Y-50029818D02*
X353738096Y-50077437D01*
X353738096Y-50077437D02*
X353833334Y-50172675D01*
X353833334Y-50172675D02*
X353880953Y-50363151D01*
X353880953Y-50363151D02*
X353880953Y-50696484D01*
X353880953Y-50696484D02*
X353833334Y-50886960D01*
X353833334Y-50886960D02*
X353738096Y-50982199D01*
X353738096Y-50982199D02*
X353642858Y-51029818D01*
X353642858Y-51029818D02*
X353452382Y-51029818D01*
X353452382Y-51029818D02*
X353357144Y-50982199D01*
X353357144Y-50982199D02*
X353261906Y-50886960D01*
X353261906Y-50886960D02*
X353214287Y-50696484D01*
X353214287Y-50696484D02*
X353214287Y-50363151D01*
X353214287Y-50363151D02*
X353261906Y-50172675D01*
X353261906Y-50172675D02*
X353357144Y-50077437D01*
X353357144Y-50077437D02*
X353452382Y-50029818D01*
X354785715Y-51029818D02*
X354309525Y-51029818D01*
X354309525Y-51029818D02*
X354309525Y-50029818D01*
X355119049Y-50934579D02*
X355166668Y-50982199D01*
X355166668Y-50982199D02*
X355119049Y-51029818D01*
X355119049Y-51029818D02*
X355071430Y-50982199D01*
X355071430Y-50982199D02*
X355119049Y-50934579D01*
X355119049Y-50934579D02*
X355119049Y-51029818D01*
X355119049Y-50410770D02*
X355166668Y-50458389D01*
X355166668Y-50458389D02*
X355119049Y-50506008D01*
X355119049Y-50506008D02*
X355071430Y-50458389D01*
X355071430Y-50458389D02*
X355119049Y-50410770D01*
X355119049Y-50410770D02*
X355119049Y-50506008D01*
X355357144Y-51125056D02*
X356119048Y-51125056D01*
X356357144Y-50648865D02*
X357119049Y-50648865D01*
X356738096Y-51029818D02*
X356738096Y-50267913D01*
X357785715Y-50029818D02*
X357880953Y-50029818D01*
X357880953Y-50029818D02*
X357976191Y-50077437D01*
X357976191Y-50077437D02*
X358023810Y-50125056D01*
X358023810Y-50125056D02*
X358071429Y-50220294D01*
X358071429Y-50220294D02*
X358119048Y-50410770D01*
X358119048Y-50410770D02*
X358119048Y-50648865D01*
X358119048Y-50648865D02*
X358071429Y-50839341D01*
X358071429Y-50839341D02*
X358023810Y-50934579D01*
X358023810Y-50934579D02*
X357976191Y-50982199D01*
X357976191Y-50982199D02*
X357880953Y-51029818D01*
X357880953Y-51029818D02*
X357785715Y-51029818D01*
X357785715Y-51029818D02*
X357690477Y-50982199D01*
X357690477Y-50982199D02*
X357642858Y-50934579D01*
X357642858Y-50934579D02*
X357595239Y-50839341D01*
X357595239Y-50839341D02*
X357547620Y-50648865D01*
X357547620Y-50648865D02*
X357547620Y-50410770D01*
X357547620Y-50410770D02*
X357595239Y-50220294D01*
X357595239Y-50220294D02*
X357642858Y-50125056D01*
X357642858Y-50125056D02*
X357690477Y-50077437D01*
X357690477Y-50077437D02*
X357785715Y-50029818D01*
X358547620Y-50934579D02*
X358595239Y-50982199D01*
X358595239Y-50982199D02*
X358547620Y-51029818D01*
X358547620Y-51029818D02*
X358500001Y-50982199D01*
X358500001Y-50982199D02*
X358547620Y-50934579D01*
X358547620Y-50934579D02*
X358547620Y-51029818D01*
X359214286Y-50029818D02*
X359309524Y-50029818D01*
X359309524Y-50029818D02*
X359404762Y-50077437D01*
X359404762Y-50077437D02*
X359452381Y-50125056D01*
X359452381Y-50125056D02*
X359500000Y-50220294D01*
X359500000Y-50220294D02*
X359547619Y-50410770D01*
X359547619Y-50410770D02*
X359547619Y-50648865D01*
X359547619Y-50648865D02*
X359500000Y-50839341D01*
X359500000Y-50839341D02*
X359452381Y-50934579D01*
X359452381Y-50934579D02*
X359404762Y-50982199D01*
X359404762Y-50982199D02*
X359309524Y-51029818D01*
X359309524Y-51029818D02*
X359214286Y-51029818D01*
X359214286Y-51029818D02*
X359119048Y-50982199D01*
X359119048Y-50982199D02*
X359071429Y-50934579D01*
X359071429Y-50934579D02*
X359023810Y-50839341D01*
X359023810Y-50839341D02*
X358976191Y-50648865D01*
X358976191Y-50648865D02*
X358976191Y-50410770D01*
X358976191Y-50410770D02*
X359023810Y-50220294D01*
X359023810Y-50220294D02*
X359071429Y-50125056D01*
X359071429Y-50125056D02*
X359119048Y-50077437D01*
X359119048Y-50077437D02*
X359214286Y-50029818D01*
X360452381Y-50029818D02*
X359976191Y-50029818D01*
X359976191Y-50029818D02*
X359928572Y-50506008D01*
X359928572Y-50506008D02*
X359976191Y-50458389D01*
X359976191Y-50458389D02*
X360071429Y-50410770D01*
X360071429Y-50410770D02*
X360309524Y-50410770D01*
X360309524Y-50410770D02*
X360404762Y-50458389D01*
X360404762Y-50458389D02*
X360452381Y-50506008D01*
X360452381Y-50506008D02*
X360500000Y-50601246D01*
X360500000Y-50601246D02*
X360500000Y-50839341D01*
X360500000Y-50839341D02*
X360452381Y-50934579D01*
X360452381Y-50934579D02*
X360404762Y-50982199D01*
X360404762Y-50982199D02*
X360309524Y-51029818D01*
X360309524Y-51029818D02*
X360071429Y-51029818D01*
X360071429Y-51029818D02*
X359976191Y-50982199D01*
X359976191Y-50982199D02*
X359928572Y-50934579D01*
X361642857Y-49982199D02*
X360785715Y-51267913D01*
X361976191Y-50648865D02*
X362738096Y-50648865D01*
X363404762Y-50029818D02*
X363500000Y-50029818D01*
X363500000Y-50029818D02*
X363595238Y-50077437D01*
X363595238Y-50077437D02*
X363642857Y-50125056D01*
X363642857Y-50125056D02*
X363690476Y-50220294D01*
X363690476Y-50220294D02*
X363738095Y-50410770D01*
X363738095Y-50410770D02*
X363738095Y-50648865D01*
X363738095Y-50648865D02*
X363690476Y-50839341D01*
X363690476Y-50839341D02*
X363642857Y-50934579D01*
X363642857Y-50934579D02*
X363595238Y-50982199D01*
X363595238Y-50982199D02*
X363500000Y-51029818D01*
X363500000Y-51029818D02*
X363404762Y-51029818D01*
X363404762Y-51029818D02*
X363309524Y-50982199D01*
X363309524Y-50982199D02*
X363261905Y-50934579D01*
X363261905Y-50934579D02*
X363214286Y-50839341D01*
X363214286Y-50839341D02*
X363166667Y-50648865D01*
X363166667Y-50648865D02*
X363166667Y-50410770D01*
X363166667Y-50410770D02*
X363214286Y-50220294D01*
X363214286Y-50220294D02*
X363261905Y-50125056D01*
X363261905Y-50125056D02*
X363309524Y-50077437D01*
X363309524Y-50077437D02*
X363404762Y-50029818D01*
X364166667Y-50934579D02*
X364214286Y-50982199D01*
X364214286Y-50982199D02*
X364166667Y-51029818D01*
X364166667Y-51029818D02*
X364119048Y-50982199D01*
X364119048Y-50982199D02*
X364166667Y-50934579D01*
X364166667Y-50934579D02*
X364166667Y-51029818D01*
X364833333Y-50029818D02*
X364928571Y-50029818D01*
X364928571Y-50029818D02*
X365023809Y-50077437D01*
X365023809Y-50077437D02*
X365071428Y-50125056D01*
X365071428Y-50125056D02*
X365119047Y-50220294D01*
X365119047Y-50220294D02*
X365166666Y-50410770D01*
X365166666Y-50410770D02*
X365166666Y-50648865D01*
X365166666Y-50648865D02*
X365119047Y-50839341D01*
X365119047Y-50839341D02*
X365071428Y-50934579D01*
X365071428Y-50934579D02*
X365023809Y-50982199D01*
X365023809Y-50982199D02*
X364928571Y-51029818D01*
X364928571Y-51029818D02*
X364833333Y-51029818D01*
X364833333Y-51029818D02*
X364738095Y-50982199D01*
X364738095Y-50982199D02*
X364690476Y-50934579D01*
X364690476Y-50934579D02*
X364642857Y-50839341D01*
X364642857Y-50839341D02*
X364595238Y-50648865D01*
X364595238Y-50648865D02*
X364595238Y-50410770D01*
X364595238Y-50410770D02*
X364642857Y-50220294D01*
X364642857Y-50220294D02*
X364690476Y-50125056D01*
X364690476Y-50125056D02*
X364738095Y-50077437D01*
X364738095Y-50077437D02*
X364833333Y-50029818D01*
X366071428Y-50029818D02*
X365595238Y-50029818D01*
X365595238Y-50029818D02*
X365547619Y-50506008D01*
X365547619Y-50506008D02*
X365595238Y-50458389D01*
X365595238Y-50458389D02*
X365690476Y-50410770D01*
X365690476Y-50410770D02*
X365928571Y-50410770D01*
X365928571Y-50410770D02*
X366023809Y-50458389D01*
X366023809Y-50458389D02*
X366071428Y-50506008D01*
X366071428Y-50506008D02*
X366119047Y-50601246D01*
X366119047Y-50601246D02*
X366119047Y-50839341D01*
X366119047Y-50839341D02*
X366071428Y-50934579D01*
X366071428Y-50934579D02*
X366023809Y-50982199D01*
X366023809Y-50982199D02*
X365928571Y-51029818D01*
X365928571Y-51029818D02*
X365690476Y-51029818D01*
X365690476Y-51029818D02*
X365595238Y-50982199D01*
X365595238Y-50982199D02*
X365547619Y-50934579D01*
%TO.C,H9*%
X267850000Y-290000000D02*
G75*
G03*
X267850000Y-290000000I-2800000J0D01*
G01*
%TO.C,H6*%
X275850000Y-52000000D02*
G75*
G03*
X275850000Y-52000000I-2800000J0D01*
G01*
%TO.C,H14*%
X57850000Y-245000000D02*
G75*
G03*
X57850000Y-245000000I-2800000J0D01*
G01*
%TO.C,H11*%
X352850000Y-52000000D02*
G75*
G03*
X352850000Y-52000000I-2800000J0D01*
G01*
%TO.C,L1*%
X79800000Y-77000000D02*
G75*
G03*
X79800000Y-77000000I-2800000J0D01*
G01*
X17800000Y-77000000D02*
G75*
G03*
X17800000Y-77000000I-2800000J0D01*
G01*
X79800000Y-194000000D02*
G75*
G03*
X79800000Y-194000000I-2800000J0D01*
G01*
X17800000Y-194000000D02*
G75*
G03*
X17800000Y-194000000I-2800000J0D01*
G01*
D11*
%TO.C,U2*%
X311570001Y-164030000D02*
G75*
G03*
X311570001Y-164030000I-200000J0D01*
G01*
D10*
%TO.C,H12*%
X195850000Y-52000000D02*
G75*
G03*
X195850000Y-52000000I-2800000J0D01*
G01*
%TO.C,D2*%
X230466548Y-98991726D02*
G75*
G03*
X230466548Y-98991726I-2200000J0D01*
G01*
X217466548Y-98991726D02*
G75*
G03*
X217466548Y-98991726I-2200000J0D01*
G01*
X230466548Y-131991726D02*
G75*
G03*
X230466548Y-131991726I-2200000J0D01*
G01*
X217466548Y-131991726D02*
G75*
G03*
X217466548Y-131991726I-2200000J0D01*
G01*
%TO.C,D1*%
X200633274Y-98991726D02*
G75*
G03*
X200633274Y-98991726I-2200000J0D01*
G01*
X187633274Y-98991726D02*
G75*
G03*
X187633274Y-98991726I-2200000J0D01*
G01*
X200633274Y-131991726D02*
G75*
G03*
X200633274Y-131991726I-2200000J0D01*
G01*
X187633274Y-131991726D02*
G75*
G03*
X187633274Y-131991726I-2200000J0D01*
G01*
%TO.C,H13*%
X87850000Y-42000000D02*
G75*
G03*
X87850000Y-42000000I-2800000J0D01*
G01*
%TO.C,H8*%
X342850000Y-128000000D02*
G75*
G03*
X342850000Y-128000000I-2800000J0D01*
G01*
%TO.C,L2*%
X160000000Y-77000000D02*
G75*
G03*
X160000000Y-77000000I-2800000J0D01*
G01*
X98000000Y-77000000D02*
G75*
G03*
X98000000Y-77000000I-2800000J0D01*
G01*
X160000000Y-194000000D02*
G75*
G03*
X160000000Y-194000000I-2800000J0D01*
G01*
X98000000Y-194000000D02*
G75*
G03*
X98000000Y-194000000I-2800000J0D01*
G01*
%TO.C,M2*%
X139600000Y-239500000D02*
G75*
G03*
X139600000Y-239500000I-2700000J0D01*
G01*
X139600000Y-262500000D02*
G75*
G03*
X139600000Y-262500000I-2700000J0D01*
G01*
X139600000Y-280500000D02*
G75*
G03*
X139600000Y-280500000I-2700000J0D01*
G01*
X203600000Y-239500000D02*
G75*
G03*
X203600000Y-239500000I-2700000J0D01*
G01*
X203600000Y-280500000D02*
G75*
G03*
X203600000Y-280500000I-2700000J0D01*
G01*
%TO.C,H5*%
X88850000Y-170000000D02*
G75*
G03*
X88850000Y-170000000I-2800000J0D01*
G01*
%TO.C,M1*%
X252700000Y-204950000D02*
G75*
G03*
X252700000Y-204950000I-2200000J0D01*
G01*
X252700000Y-169950000D02*
G75*
G03*
X252700000Y-169950000I-2200000J0D01*
G01*
X192700000Y-204950000D02*
G75*
G03*
X192700000Y-204950000I-2200000J0D01*
G01*
X192700000Y-169950000D02*
G75*
G03*
X192700000Y-169950000I-2200000J0D01*
G01*
%TO.C,H7*%
X88850000Y-88000000D02*
G75*
G03*
X88850000Y-88000000I-2800000J0D01*
G01*
%TO.C,H1*%
X247850000Y-90000000D02*
G75*
G03*
X247850000Y-90000000I-2800000J0D01*
G01*
%TO.C,H2*%
X408950000Y-242650000D02*
G75*
G03*
X408950000Y-242650000I-2800000J0D01*
G01*
%TO.C,H3*%
X177850000Y-150000000D02*
G75*
G03*
X177850000Y-150000000I-2800000J0D01*
G01*
%TO.C,H10*%
X154680000Y-290870000D02*
G75*
G03*
X154680000Y-290870000I-2800000J0D01*
G01*
%TO.C,H15*%
X333300000Y-152166726D02*
G75*
G03*
X333300000Y-152166726I-2200000J0D01*
G01*
X333300000Y-115166726D02*
G75*
G03*
X333300000Y-115166726I-2200000J0D01*
G01*
X290300000Y-152166726D02*
G75*
G03*
X290300000Y-152166726I-2200000J0D01*
G01*
X290300000Y-115166726D02*
G75*
G03*
X290300000Y-115166726I-2200000J0D01*
G01*
%TO.C,D3*%
X259633274Y-98991726D02*
G75*
G03*
X259633274Y-98991726I-2200000J0D01*
G01*
X246633274Y-98991726D02*
G75*
G03*
X246633274Y-98991726I-2200000J0D01*
G01*
X259633274Y-131991726D02*
G75*
G03*
X259633274Y-131991726I-2200000J0D01*
G01*
X246633274Y-131991726D02*
G75*
G03*
X246633274Y-131991726I-2200000J0D01*
G01*
%TO.C,H4*%
X287850000Y-175000000D02*
G75*
G03*
X287850000Y-175000000I-2800000J0D01*
G01*
%TD*%
M02*
