%TF.GenerationSoftware,KiCad,Pcbnew,8.0.4*%
%TF.CreationDate,2025-04-25T16:11:04-06:00*%
%TF.ProjectId,motherboard_v1,6d6f7468-6572-4626-9f61-72645f76312e,rev?*%
%TF.SameCoordinates,Original*%
%TF.FileFunction,Other,Comment*%
%FSLAX46Y46*%
G04 Gerber Fmt 4.6, Leading zero omitted, Abs format (unit mm)*
G04 Created by KiCad (PCBNEW 8.0.4) date 2025-04-25 16:11:04*
%MOMM*%
%LPD*%
G01*
G04 APERTURE LIST*
%ADD10C,0.150000*%
%ADD11C,0.500000*%
%ADD12C,0.820000*%
%ADD13C,0.300000*%
%ADD14C,0.400000*%
G04 APERTURE END LIST*
D10*
%TO.C,H7*%
X267850000Y-288150000D02*
G75*
G02*
X262250000Y-288150000I-2800000J0D01*
G01*
X262250000Y-288150000D02*
G75*
G02*
X267850000Y-288150000I2800000J0D01*
G01*
D11*
%TO.C,J7*%
X240160000Y-10630000D02*
G75*
G02*
X239660000Y-10630000I-250000J0D01*
G01*
X239660000Y-10630000D02*
G75*
G02*
X240160000Y-10630000I250000J0D01*
G01*
D12*
X245910000Y-3900000D02*
G75*
G02*
X245090000Y-3900000I-410000J0D01*
G01*
X245090000Y-3900000D02*
G75*
G02*
X245910000Y-3900000I410000J0D01*
G01*
D11*
%TO.C,J3*%
X87760000Y-10630000D02*
G75*
G02*
X87260000Y-10630000I-250000J0D01*
G01*
X87260000Y-10630000D02*
G75*
G02*
X87760000Y-10630000I250000J0D01*
G01*
D12*
X93510000Y-3900000D02*
G75*
G02*
X92690000Y-3900000I-410000J0D01*
G01*
X92690000Y-3900000D02*
G75*
G02*
X93510000Y-3900000I410000J0D01*
G01*
D10*
%TO.C,H12*%
X275850000Y-50150000D02*
G75*
G02*
X270250000Y-50150000I-2800000J0D01*
G01*
X270250000Y-50150000D02*
G75*
G02*
X275850000Y-50150000I2800000J0D01*
G01*
D11*
%TO.C,J1*%
X11560000Y-10630000D02*
G75*
G02*
X11060000Y-10630000I-250000J0D01*
G01*
X11060000Y-10630000D02*
G75*
G02*
X11560000Y-10630000I250000J0D01*
G01*
D12*
X17310000Y-3900000D02*
G75*
G02*
X16490000Y-3900000I-410000J0D01*
G01*
X16490000Y-3900000D02*
G75*
G02*
X17310000Y-3900000I410000J0D01*
G01*
D10*
%TO.C,H8*%
X57850000Y-243150000D02*
G75*
G02*
X52250000Y-243150000I-2800000J0D01*
G01*
X52250000Y-243150000D02*
G75*
G02*
X57850000Y-243150000I2800000J0D01*
G01*
D13*
%TO.C,DC1*%
X351780000Y-11390000D02*
G75*
G02*
X351480000Y-11390000I-150000J0D01*
G01*
X351480000Y-11390000D02*
G75*
G02*
X351780000Y-11390000I150000J0D01*
G01*
D10*
%TO.C,H2*%
X352850000Y-50150000D02*
G75*
G02*
X347250000Y-50150000I-2800000J0D01*
G01*
X347250000Y-50150000D02*
G75*
G02*
X352850000Y-50150000I2800000J0D01*
G01*
D11*
%TO.C,J6*%
X202060000Y-10630000D02*
G75*
G02*
X201560000Y-10630000I-250000J0D01*
G01*
X201560000Y-10630000D02*
G75*
G02*
X202060000Y-10630000I250000J0D01*
G01*
D12*
X207810000Y-3900000D02*
G75*
G02*
X206990000Y-3900000I-410000J0D01*
G01*
X206990000Y-3900000D02*
G75*
G02*
X207810000Y-3900000I410000J0D01*
G01*
D10*
%TO.C,L1*%
X17800000Y-75150000D02*
G75*
G02*
X12200000Y-75150000I-2800000J0D01*
G01*
X12200000Y-75150000D02*
G75*
G02*
X17800000Y-75150000I2800000J0D01*
G01*
X17800000Y-192150000D02*
G75*
G02*
X12200000Y-192150000I-2800000J0D01*
G01*
X12200000Y-192150000D02*
G75*
G02*
X17800000Y-192150000I2800000J0D01*
G01*
X79800000Y-75150000D02*
G75*
G02*
X74200000Y-75150000I-2800000J0D01*
G01*
X74200000Y-75150000D02*
G75*
G02*
X79800000Y-75150000I2800000J0D01*
G01*
X79800000Y-192150000D02*
G75*
G02*
X74200000Y-192150000I-2800000J0D01*
G01*
X74200000Y-192150000D02*
G75*
G02*
X79800000Y-192150000I2800000J0D01*
G01*
D11*
%TO.C,J4*%
X125860000Y-10630000D02*
G75*
G02*
X125360000Y-10630000I-250000J0D01*
G01*
X125360000Y-10630000D02*
G75*
G02*
X125860000Y-10630000I250000J0D01*
G01*
D12*
X131610000Y-3900000D02*
G75*
G02*
X130790000Y-3900000I-410000J0D01*
G01*
X130790000Y-3900000D02*
G75*
G02*
X131610000Y-3900000I410000J0D01*
G01*
D14*
%TO.C,U1*%
X311570001Y-162180000D02*
G75*
G02*
X311170001Y-162180000I-200000J0D01*
G01*
X311170001Y-162180000D02*
G75*
G02*
X311570001Y-162180000I200000J0D01*
G01*
D10*
%TO.C,H9*%
X195850000Y-50150000D02*
G75*
G02*
X190250000Y-50150000I-2800000J0D01*
G01*
X190250000Y-50150000D02*
G75*
G02*
X195850000Y-50150000I2800000J0D01*
G01*
%TO.C,D3*%
X217466548Y-97141726D02*
G75*
G02*
X213066548Y-97141726I-2200000J0D01*
G01*
X213066548Y-97141726D02*
G75*
G02*
X217466548Y-97141726I2200000J0D01*
G01*
X217466548Y-130141726D02*
G75*
G02*
X213066548Y-130141726I-2200000J0D01*
G01*
X213066548Y-130141726D02*
G75*
G02*
X217466548Y-130141726I2200000J0D01*
G01*
X230466548Y-97141726D02*
G75*
G02*
X226066548Y-97141726I-2200000J0D01*
G01*
X226066548Y-97141726D02*
G75*
G02*
X230466548Y-97141726I2200000J0D01*
G01*
X230466548Y-130141726D02*
G75*
G02*
X226066548Y-130141726I-2200000J0D01*
G01*
X226066548Y-130141726D02*
G75*
G02*
X230466548Y-130141726I2200000J0D01*
G01*
%TO.C,D4*%
X187633274Y-97141726D02*
G75*
G02*
X183233274Y-97141726I-2200000J0D01*
G01*
X183233274Y-97141726D02*
G75*
G02*
X187633274Y-97141726I2200000J0D01*
G01*
X187633274Y-130141726D02*
G75*
G02*
X183233274Y-130141726I-2200000J0D01*
G01*
X183233274Y-130141726D02*
G75*
G02*
X187633274Y-130141726I2200000J0D01*
G01*
X200633274Y-97141726D02*
G75*
G02*
X196233274Y-97141726I-2200000J0D01*
G01*
X196233274Y-97141726D02*
G75*
G02*
X200633274Y-97141726I2200000J0D01*
G01*
X200633274Y-130141726D02*
G75*
G02*
X196233274Y-130141726I-2200000J0D01*
G01*
X196233274Y-130141726D02*
G75*
G02*
X200633274Y-130141726I2200000J0D01*
G01*
%TO.C,H1*%
X87850000Y-40150000D02*
G75*
G02*
X82250000Y-40150000I-2800000J0D01*
G01*
X82250000Y-40150000D02*
G75*
G02*
X87850000Y-40150000I2800000J0D01*
G01*
%TO.C,H13*%
X342850000Y-126150000D02*
G75*
G02*
X337250000Y-126150000I-2800000J0D01*
G01*
X337250000Y-126150000D02*
G75*
G02*
X342850000Y-126150000I2800000J0D01*
G01*
%TO.C,L2*%
X98000000Y-75150000D02*
G75*
G02*
X92400000Y-75150000I-2800000J0D01*
G01*
X92400000Y-75150000D02*
G75*
G02*
X98000000Y-75150000I2800000J0D01*
G01*
X98000000Y-192150000D02*
G75*
G02*
X92400000Y-192150000I-2800000J0D01*
G01*
X92400000Y-192150000D02*
G75*
G02*
X98000000Y-192150000I2800000J0D01*
G01*
X160000000Y-75150000D02*
G75*
G02*
X154400000Y-75150000I-2800000J0D01*
G01*
X154400000Y-75150000D02*
G75*
G02*
X160000000Y-75150000I2800000J0D01*
G01*
X160000000Y-192150000D02*
G75*
G02*
X154400000Y-192150000I-2800000J0D01*
G01*
X154400000Y-192150000D02*
G75*
G02*
X160000000Y-192150000I2800000J0D01*
G01*
D11*
%TO.C,J2*%
X49660000Y-10630000D02*
G75*
G02*
X49160000Y-10630000I-250000J0D01*
G01*
X49160000Y-10630000D02*
G75*
G02*
X49660000Y-10630000I250000J0D01*
G01*
D12*
X55410000Y-3900000D02*
G75*
G02*
X54590000Y-3900000I-410000J0D01*
G01*
X54590000Y-3900000D02*
G75*
G02*
X55410000Y-3900000I410000J0D01*
G01*
D10*
%TO.C,M1*%
X139600000Y-237650000D02*
G75*
G02*
X134200000Y-237650000I-2700000J0D01*
G01*
X134200000Y-237650000D02*
G75*
G02*
X139600000Y-237650000I2700000J0D01*
G01*
X139600000Y-260650000D02*
G75*
G02*
X134200000Y-260650000I-2700000J0D01*
G01*
X134200000Y-260650000D02*
G75*
G02*
X139600000Y-260650000I2700000J0D01*
G01*
X139600000Y-278650000D02*
G75*
G02*
X134200000Y-278650000I-2700000J0D01*
G01*
X134200000Y-278650000D02*
G75*
G02*
X139600000Y-278650000I2700000J0D01*
G01*
X203600000Y-237650000D02*
G75*
G02*
X198200000Y-237650000I-2700000J0D01*
G01*
X198200000Y-237650000D02*
G75*
G02*
X203600000Y-237650000I2700000J0D01*
G01*
X203600000Y-278650000D02*
G75*
G02*
X198200000Y-278650000I-2700000J0D01*
G01*
X198200000Y-278650000D02*
G75*
G02*
X203600000Y-278650000I2700000J0D01*
G01*
%TO.C,H5*%
X88850000Y-168150000D02*
G75*
G02*
X83250000Y-168150000I-2800000J0D01*
G01*
X83250000Y-168150000D02*
G75*
G02*
X88850000Y-168150000I2800000J0D01*
G01*
D11*
%TO.C,J9*%
X316360000Y-10630000D02*
G75*
G02*
X315860000Y-10630000I-250000J0D01*
G01*
X315860000Y-10630000D02*
G75*
G02*
X316360000Y-10630000I250000J0D01*
G01*
D12*
X322110000Y-3900000D02*
G75*
G02*
X321290000Y-3900000I-410000J0D01*
G01*
X321290000Y-3900000D02*
G75*
G02*
X322110000Y-3900000I410000J0D01*
G01*
D11*
%TO.C,J8*%
X278260000Y-10630000D02*
G75*
G02*
X277760000Y-10630000I-250000J0D01*
G01*
X277760000Y-10630000D02*
G75*
G02*
X278260000Y-10630000I250000J0D01*
G01*
D12*
X284010000Y-3900000D02*
G75*
G02*
X283190000Y-3900000I-410000J0D01*
G01*
X283190000Y-3900000D02*
G75*
G02*
X284010000Y-3900000I410000J0D01*
G01*
D10*
%TO.C,M2*%
X192700000Y-168100000D02*
G75*
G02*
X188300000Y-168100000I-2200000J0D01*
G01*
X188300000Y-168100000D02*
G75*
G02*
X192700000Y-168100000I2200000J0D01*
G01*
X192700000Y-203100000D02*
G75*
G02*
X188300000Y-203100000I-2200000J0D01*
G01*
X188300000Y-203100000D02*
G75*
G02*
X192700000Y-203100000I2200000J0D01*
G01*
X252700000Y-168100000D02*
G75*
G02*
X248300000Y-168100000I-2200000J0D01*
G01*
X248300000Y-168100000D02*
G75*
G02*
X252700000Y-168100000I2200000J0D01*
G01*
X252700000Y-203100000D02*
G75*
G02*
X248300000Y-203100000I-2200000J0D01*
G01*
X248300000Y-203100000D02*
G75*
G02*
X252700000Y-203100000I2200000J0D01*
G01*
%TO.C,H6*%
X88850000Y-86150000D02*
G75*
G02*
X83250000Y-86150000I-2800000J0D01*
G01*
X83250000Y-86150000D02*
G75*
G02*
X88850000Y-86150000I2800000J0D01*
G01*
%TO.C,H3*%
X247850000Y-88150000D02*
G75*
G02*
X242250000Y-88150000I-2800000J0D01*
G01*
X242250000Y-88150000D02*
G75*
G02*
X247850000Y-88150000I2800000J0D01*
G01*
%TO.C,H10*%
X408950000Y-240800000D02*
G75*
G02*
X403350000Y-240800000I-2800000J0D01*
G01*
X403350000Y-240800000D02*
G75*
G02*
X408950000Y-240800000I2800000J0D01*
G01*
%TO.C,H4*%
X177850000Y-148150000D02*
G75*
G02*
X172250000Y-148150000I-2800000J0D01*
G01*
X172250000Y-148150000D02*
G75*
G02*
X177850000Y-148150000I2800000J0D01*
G01*
%TO.C,H14*%
X154680000Y-289020000D02*
G75*
G02*
X149080000Y-289020000I-2800000J0D01*
G01*
X149080000Y-289020000D02*
G75*
G02*
X154680000Y-289020000I2800000J0D01*
G01*
%TO.C,H16*%
X290300000Y-113316726D02*
G75*
G02*
X285900000Y-113316726I-2200000J0D01*
G01*
X285900000Y-113316726D02*
G75*
G02*
X290300000Y-113316726I2200000J0D01*
G01*
X290300000Y-150316726D02*
G75*
G02*
X285900000Y-150316726I-2200000J0D01*
G01*
X285900000Y-150316726D02*
G75*
G02*
X290300000Y-150316726I2200000J0D01*
G01*
X333300000Y-113316726D02*
G75*
G02*
X328900000Y-113316726I-2200000J0D01*
G01*
X328900000Y-113316726D02*
G75*
G02*
X333300000Y-113316726I2200000J0D01*
G01*
X333300000Y-150316726D02*
G75*
G02*
X328900000Y-150316726I-2200000J0D01*
G01*
X328900000Y-150316726D02*
G75*
G02*
X333300000Y-150316726I2200000J0D01*
G01*
D11*
%TO.C,J5*%
X163960000Y-10630000D02*
G75*
G02*
X163460000Y-10630000I-250000J0D01*
G01*
X163460000Y-10630000D02*
G75*
G02*
X163960000Y-10630000I250000J0D01*
G01*
D12*
X169710000Y-3900000D02*
G75*
G02*
X168890000Y-3900000I-410000J0D01*
G01*
X168890000Y-3900000D02*
G75*
G02*
X169710000Y-3900000I410000J0D01*
G01*
D10*
%TO.C,D2*%
X246633274Y-97141726D02*
G75*
G02*
X242233274Y-97141726I-2200000J0D01*
G01*
X242233274Y-97141726D02*
G75*
G02*
X246633274Y-97141726I2200000J0D01*
G01*
X246633274Y-130141726D02*
G75*
G02*
X242233274Y-130141726I-2200000J0D01*
G01*
X242233274Y-130141726D02*
G75*
G02*
X246633274Y-130141726I2200000J0D01*
G01*
X259633274Y-97141726D02*
G75*
G02*
X255233274Y-97141726I-2200000J0D01*
G01*
X255233274Y-97141726D02*
G75*
G02*
X259633274Y-97141726I2200000J0D01*
G01*
X259633274Y-130141726D02*
G75*
G02*
X255233274Y-130141726I-2200000J0D01*
G01*
X255233274Y-130141726D02*
G75*
G02*
X259633274Y-130141726I2200000J0D01*
G01*
%TO.C,H11*%
X287850000Y-173150000D02*
G75*
G02*
X282250000Y-173150000I-2800000J0D01*
G01*
X282250000Y-173150000D02*
G75*
G02*
X287850000Y-173150000I2800000J0D01*
G01*
%TD*%
M02*
