%TF.GenerationSoftware,KiCad,Pcbnew,7.0.9*%
%TF.CreationDate,2024-10-01T20:54:17-06:00*%
%TF.ProjectId,motherboard_v1,6d6f7468-6572-4626-9f61-72645f76312e,rev?*%
%TF.SameCoordinates,Original*%
%TF.FileFunction,Soldermask,Bot*%
%TF.FilePolarity,Negative*%
%FSLAX46Y46*%
G04 Gerber Fmt 4.6, Leading zero omitted, Abs format (unit mm)*
G04 Created by KiCad (PCBNEW 7.0.9) date 2024-10-01 20:54:17*
%MOMM*%
%LPD*%
G01*
G04 APERTURE LIST*
G04 Aperture macros list*
%AMRoundRect*
0 Rectangle with rounded corners*
0 $1 Rounding radius*
0 $2 $3 $4 $5 $6 $7 $8 $9 X,Y pos of 4 corners*
0 Add a 4 corners polygon primitive as box body*
4,1,4,$2,$3,$4,$5,$6,$7,$8,$9,$2,$3,0*
0 Add four circle primitives for the rounded corners*
1,1,$1+$1,$2,$3*
1,1,$1+$1,$4,$5*
1,1,$1+$1,$6,$7*
1,1,$1+$1,$8,$9*
0 Add four rect primitives between the rounded corners*
20,1,$1+$1,$2,$3,$4,$5,0*
20,1,$1+$1,$4,$5,$6,$7,0*
20,1,$1+$1,$6,$7,$8,$9,0*
20,1,$1+$1,$8,$9,$2,$3,0*%
G04 Aperture macros list end*
%ADD10O,1.700000X1.700000*%
%ADD11R,1.700000X1.700000*%
%ADD12O,5.600000X6.600000*%
%ADD13C,2.000000*%
%ADD14O,1.750000X1.200000*%
%ADD15RoundRect,0.250000X0.625000X-0.350000X0.625000X0.350000X-0.625000X0.350000X-0.625000X-0.350000X0*%
%ADD16O,1.200000X1.750000*%
%ADD17RoundRect,0.250000X-0.350000X-0.625000X0.350000X-0.625000X0.350000X0.625000X-0.350000X0.625000X0*%
%ADD18C,1.520000*%
%ADD19R,1.520000X1.520000*%
%ADD20C,1.270000*%
%ADD21C,1.800000*%
%ADD22R,1.800000X1.800000*%
%ADD23C,1.350000*%
%ADD24C,2.600000*%
%ADD25C,4.318000*%
%ADD26C,5.600000*%
%ADD27C,3.000000*%
%ADD28C,6.000000*%
G04 APERTURE END LIST*
D10*
%TO.C,q8*%
X-30735000Y-247635000D03*
X-30735000Y-245095000D03*
X-30735000Y-242555000D03*
X-30735000Y-240015000D03*
X-30735000Y-237475000D03*
X-30735000Y-234935000D03*
D11*
X-30735000Y-232395000D03*
%TD*%
D10*
%TO.C,q6*%
X-35335000Y-247635000D03*
X-35335000Y-245095000D03*
X-35335000Y-242555000D03*
X-35335000Y-240015000D03*
X-35335000Y-237475000D03*
X-35335000Y-234935000D03*
D11*
X-35335000Y-232395000D03*
%TD*%
D10*
%TO.C,q7*%
X-39935000Y-247635000D03*
X-39935000Y-245095000D03*
X-39935000Y-242555000D03*
X-39935000Y-240015000D03*
X-39935000Y-237475000D03*
X-39935000Y-234935000D03*
D11*
X-39935000Y-232395000D03*
%TD*%
D10*
%TO.C,q5*%
X-44535000Y-247635000D03*
X-44535000Y-245095000D03*
X-44535000Y-242555000D03*
X-44535000Y-240015000D03*
X-44535000Y-237475000D03*
X-44535000Y-234935000D03*
D11*
X-44535000Y-232395000D03*
%TD*%
D12*
%TO.C,H9*%
X265050000Y-290000000D03*
%TD*%
D13*
%TO.C,U1*%
X371420000Y-70560000D03*
X381580000Y-70560000D03*
X391740000Y-70560000D03*
X389200000Y-24840000D03*
X379040000Y-24840000D03*
X373960000Y-24840000D03*
%TD*%
D14*
%TO.C,UartMux1*%
X219000000Y-235000000D03*
D15*
X219000000Y-237000000D03*
%TD*%
D16*
%TO.C,J31-HighPower4*%
X310000000Y-83491726D03*
D17*
X308000000Y-83491726D03*
%TD*%
D18*
%TO.C,J12*%
X344500003Y-42000000D03*
X347500002Y-42000000D03*
X350500001Y-42000000D03*
D19*
X353500000Y-42000000D03*
D20*
X356499999Y-43960000D03*
X341500029Y-43960000D03*
%TD*%
D21*
%TO.C,J11*%
X351000000Y-172451726D03*
D22*
X354000000Y-172451726D03*
D23*
X357000000Y-174411726D03*
X348000000Y-174411726D03*
%TD*%
D16*
%TO.C,J101*%
X115475000Y-290025000D03*
D17*
X113475000Y-290025000D03*
%TD*%
D24*
%TO.C,J1*%
X311000000Y-40000000D03*
%TD*%
D12*
%TO.C,H6*%
X273050000Y-52000000D03*
%TD*%
D10*
%TO.C,J16*%
X53625000Y-258877000D03*
X53625000Y-256337000D03*
D11*
X53625000Y-253797000D03*
%TD*%
D25*
%TO.C,D-Sub(2)1*%
X308607000Y-18000000D03*
X308607000Y-9592600D03*
X247393000Y-18000000D03*
X247393000Y-9592600D03*
D13*
X255851200Y-15155200D03*
X258619800Y-15155200D03*
X261388400Y-15155200D03*
X264157000Y-15155200D03*
X266925600Y-15155200D03*
X269694200Y-15155200D03*
X272462800Y-15155200D03*
X275231400Y-15155200D03*
X278000000Y-15155200D03*
X280768600Y-15155200D03*
X283537200Y-15155200D03*
X286305800Y-15155200D03*
X289074400Y-15155200D03*
X291843000Y-15155200D03*
X294611600Y-15155200D03*
X297380200Y-15155200D03*
X300148800Y-15155200D03*
X257235500Y-18000000D03*
X260004100Y-18000000D03*
X262772700Y-18000000D03*
X265541300Y-18000000D03*
X268309900Y-18000000D03*
X271078500Y-18000000D03*
X273847100Y-18000000D03*
X276615700Y-18000000D03*
X279384300Y-18000000D03*
X282152900Y-18000000D03*
X284921500Y-18000000D03*
X287690100Y-18000000D03*
X290458700Y-18000000D03*
X293227300Y-18000000D03*
X295995900Y-18000000D03*
X298764500Y-18000000D03*
X255851200Y-20844800D03*
X258619800Y-20844800D03*
X261388400Y-20844800D03*
X264157000Y-20844800D03*
X266925600Y-20844800D03*
X269694200Y-20844800D03*
X272462800Y-20844800D03*
X275231400Y-20844800D03*
X278000000Y-20844800D03*
X280768600Y-20844800D03*
X283537200Y-20844800D03*
X286305800Y-20844800D03*
X289074400Y-20844800D03*
X291843000Y-20844800D03*
X294611600Y-20844800D03*
X297380200Y-20844800D03*
X300148800Y-20844800D03*
%TD*%
D16*
%TO.C,J4-LowPower1*%
X302000000Y-197491726D03*
D17*
X300000000Y-197491726D03*
%TD*%
D16*
%TO.C,HPHpower1*%
X331490000Y-165796726D03*
D17*
X329490000Y-165796726D03*
%TD*%
D16*
%TO.C,J15-LowPower3*%
X327000000Y-197491726D03*
D17*
X325000000Y-197491726D03*
%TD*%
D10*
%TO.C,J99*%
X167080000Y-47000000D03*
X164540000Y-47000000D03*
D11*
X162000000Y-47000000D03*
%TD*%
D24*
%TO.C,J3*%
X345490000Y-28070000D03*
%TD*%
D25*
%TO.C,D-Sub(1)1*%
X169607000Y-18000000D03*
X169607000Y-9592600D03*
X108393000Y-18000000D03*
X108393000Y-9592600D03*
D13*
X116851200Y-15155200D03*
X119619800Y-15155200D03*
X122388400Y-15155200D03*
X125157000Y-15155200D03*
X127925600Y-15155200D03*
X130694200Y-15155200D03*
X133462800Y-15155200D03*
X136231400Y-15155200D03*
X139000000Y-15155200D03*
X141768600Y-15155200D03*
X144537200Y-15155200D03*
X147305800Y-15155200D03*
X150074400Y-15155200D03*
X152843000Y-15155200D03*
X155611600Y-15155200D03*
X158380200Y-15155200D03*
X161148800Y-15155200D03*
X118235500Y-18000000D03*
X121004100Y-18000000D03*
X123772700Y-18000000D03*
X126541300Y-18000000D03*
X129309900Y-18000000D03*
X132078500Y-18000000D03*
X134847100Y-18000000D03*
X137615700Y-18000000D03*
X140384300Y-18000000D03*
X143152900Y-18000000D03*
X145921500Y-18000000D03*
X148690100Y-18000000D03*
X151458700Y-18000000D03*
X154227300Y-18000000D03*
X156995900Y-18000000D03*
X159764500Y-18000000D03*
X116851200Y-20844800D03*
X119619800Y-20844800D03*
X122388400Y-20844800D03*
X125157000Y-20844800D03*
X127925600Y-20844800D03*
X130694200Y-20844800D03*
X133462800Y-20844800D03*
X136231400Y-20844800D03*
X139000000Y-20844800D03*
X141768600Y-20844800D03*
X144537200Y-20844800D03*
X147305800Y-20844800D03*
X150074400Y-20844800D03*
X152843000Y-20844800D03*
X155611600Y-20844800D03*
X158380200Y-20844800D03*
X161148800Y-20844800D03*
%TD*%
D16*
%TO.C,WU_D_GND1*%
X398625000Y-172925000D03*
D17*
X396625000Y-172925000D03*
%TD*%
D21*
%TO.C,RV1*%
X386990000Y-6203000D03*
X379490000Y-6203000D03*
%TD*%
D10*
%TO.C,J8*%
X343539000Y-48935000D03*
X343539000Y-51475000D03*
D11*
X343539000Y-54015000D03*
%TD*%
D12*
%TO.C,H14*%
X55050000Y-245000000D03*
%TD*%
D16*
%TO.C,J30-LowPower6*%
X366000000Y-197491726D03*
D17*
X364000000Y-197491726D03*
%TD*%
D12*
%TO.C,H11*%
X350050000Y-52000000D03*
%TD*%
D16*
%TO.C,J35-LowPower7*%
X379000000Y-197491726D03*
D17*
X377000000Y-197491726D03*
%TD*%
D26*
%TO.C,H16*%
X393300000Y-275591726D03*
X393300000Y-231591726D03*
X298300000Y-275591726D03*
X298300000Y-231591726D03*
%TD*%
%TO.C,L1*%
X77000000Y-77000000D03*
X15000000Y-77000000D03*
X77000000Y-194000000D03*
X15000000Y-194000000D03*
%TD*%
D16*
%TO.C,C1-HP1-1*%
X273000000Y-102491726D03*
D17*
X271000000Y-102491726D03*
%TD*%
D10*
%TO.C,J10*%
X270641000Y-283645000D03*
X273181000Y-283645000D03*
D11*
X275721000Y-283645000D03*
%TD*%
D21*
%TO.C,J13*%
X365000000Y-172491726D03*
D22*
X368000000Y-172491726D03*
D23*
X371000000Y-174451726D03*
X362000000Y-174451726D03*
%TD*%
D16*
%TO.C,J10-LowPower2*%
X314000000Y-197491726D03*
D17*
X312000000Y-197491726D03*
%TD*%
D12*
%TO.C,H12*%
X193050000Y-52000000D03*
%TD*%
D26*
%TO.C,D2*%
X228266548Y-98991726D03*
X215266548Y-98991726D03*
X228266548Y-131991726D03*
X215266548Y-131991726D03*
%TD*%
%TO.C,D1*%
X198433274Y-98991726D03*
X185433274Y-98991726D03*
X198433274Y-131991726D03*
X185433274Y-131991726D03*
%TD*%
D12*
%TO.C,H13*%
X85050000Y-42000000D03*
%TD*%
D16*
%TO.C,J20-3K-Warmup1*%
X361000000Y-81990000D03*
D17*
X359000000Y-81990000D03*
%TD*%
D27*
%TO.C,F1*%
X378100000Y-97800000D03*
X378100000Y-75200000D03*
%TD*%
D12*
%TO.C,H8*%
X340050000Y-128000000D03*
%TD*%
D10*
%TO.C,J17*%
X91825000Y-292405000D03*
X91825000Y-289865000D03*
D11*
X91825000Y-287325000D03*
%TD*%
D16*
%TO.C,J17-LowPower4*%
X340000000Y-197491726D03*
D17*
X338000000Y-197491726D03*
%TD*%
D26*
%TO.C,L2*%
X157200000Y-77000000D03*
X95200000Y-77000000D03*
X157200000Y-194000000D03*
X95200000Y-194000000D03*
%TD*%
D10*
%TO.C,q4*%
X76350000Y-293240000D03*
X76350000Y-290700000D03*
X76350000Y-288160000D03*
X76350000Y-285620000D03*
X76350000Y-283080000D03*
X76350000Y-280540000D03*
D11*
X76350000Y-278000000D03*
D10*
X61110000Y-293240000D03*
X61110000Y-290700000D03*
X61110000Y-288160000D03*
X61110000Y-285620000D03*
X61110000Y-283080000D03*
X61110000Y-280540000D03*
D11*
X61110000Y-278000000D03*
%TD*%
D16*
%TO.C,J5-HighPower1*%
X326000000Y-92491726D03*
D17*
X324000000Y-92491726D03*
%TD*%
D16*
%TO.C,WU_D_GND2*%
X398625000Y-179875000D03*
D17*
X396625000Y-179875000D03*
%TD*%
D16*
%TO.C,C4-HP4-1*%
X273000000Y-129000000D03*
D17*
X271000000Y-129000000D03*
%TD*%
D16*
%TO.C,J19-50K-Warmup1*%
X361000000Y-96990000D03*
D17*
X359000000Y-96990000D03*
%TD*%
D26*
%TO.C,M2*%
X136900000Y-239500000D03*
X136900000Y-262500000D03*
X136900000Y-280500000D03*
X200900000Y-239500000D03*
X200900000Y-280500000D03*
%TD*%
D28*
%TO.C,W1*%
X350500000Y-112491726D03*
X350500000Y-157491726D03*
X390500000Y-112491726D03*
X390500000Y-157491726D03*
%TD*%
D12*
%TO.C,H5*%
X86050000Y-170000000D03*
%TD*%
D10*
%TO.C,q1*%
X28070000Y-213510000D03*
X28070000Y-216050000D03*
X28070000Y-218590000D03*
X28070000Y-221130000D03*
X28070000Y-223670000D03*
X28070000Y-226210000D03*
D11*
X28070000Y-228750000D03*
D10*
X43310000Y-213510000D03*
X43310000Y-216050000D03*
X43310000Y-218590000D03*
X43310000Y-221130000D03*
X43310000Y-223670000D03*
X43310000Y-226210000D03*
D11*
X43310000Y-228750000D03*
%TD*%
D14*
%TO.C,UartMux2*%
X219000000Y-245000000D03*
D15*
X219000000Y-247000000D03*
%TD*%
D10*
%TO.C,J98*%
X179080000Y-47000000D03*
X176540000Y-47000000D03*
D11*
X174000000Y-47000000D03*
%TD*%
D10*
%TO.C,q2*%
X82010000Y-213360000D03*
X82010000Y-215900000D03*
X82010000Y-218440000D03*
X82010000Y-220980000D03*
X82010000Y-223520000D03*
X82010000Y-226060000D03*
D11*
X82010000Y-228600000D03*
D10*
X97250000Y-213360000D03*
X97250000Y-215900000D03*
X97250000Y-218440000D03*
X97250000Y-220980000D03*
X97250000Y-223520000D03*
X97250000Y-226060000D03*
D11*
X97250000Y-228600000D03*
%TD*%
D16*
%TO.C,C3-HP3-1*%
X273000000Y-120000000D03*
D17*
X271000000Y-120000000D03*
%TD*%
D26*
%TO.C,M1*%
X250500000Y-204950000D03*
X250500000Y-169950000D03*
X190500000Y-204950000D03*
X190500000Y-169950000D03*
%TD*%
D16*
%TO.C,J11-HighPower2*%
X326000000Y-83491726D03*
D17*
X324000000Y-83491726D03*
%TD*%
D10*
%TO.C,J9*%
X86003000Y-179455000D03*
X86003000Y-181995000D03*
D11*
X86003000Y-184535000D03*
%TD*%
D12*
%TO.C,H7*%
X86050000Y-88000000D03*
%TD*%
%TO.C,H1*%
X245050000Y-90000000D03*
%TD*%
%TO.C,H2*%
X406150000Y-242650000D03*
%TD*%
%TO.C,H3*%
X175050000Y-150000000D03*
%TD*%
D24*
%TO.C,J2*%
X325800000Y-40000000D03*
%TD*%
D10*
%TO.C,J15*%
X290913000Y-177669000D03*
X290913000Y-175129000D03*
D11*
X290913000Y-172589000D03*
%TD*%
D10*
%TO.C,J14*%
X92207000Y-45589000D03*
X92207000Y-43049000D03*
D11*
X92207000Y-40509000D03*
%TD*%
D16*
%TO.C,J36-HighPower5*%
X310100000Y-92166726D03*
D17*
X308100000Y-92166726D03*
%TD*%
D27*
%TO.C,F2*%
X363000000Y-13647500D03*
X340400000Y-13647500D03*
%TD*%
D24*
%TO.C,J4*%
X353630000Y-21900000D03*
%TD*%
D12*
%TO.C,H10*%
X151880000Y-290870000D03*
%TD*%
D16*
%TO.C,J100*%
X297975000Y-291225000D03*
D17*
X295975000Y-291225000D03*
%TD*%
D26*
%TO.C,H15*%
X331100000Y-152166726D03*
X331100000Y-115166726D03*
X288100000Y-152166726D03*
X288100000Y-115166726D03*
%TD*%
D16*
%TO.C,J38-LowPower8*%
X392000000Y-197491726D03*
D17*
X390000000Y-197491726D03*
%TD*%
D16*
%TO.C,C2-HP2-1*%
X273000000Y-111491726D03*
D17*
X271000000Y-111491726D03*
%TD*%
D16*
%TO.C,J25-HighPower3*%
X326000000Y-74491726D03*
D17*
X324000000Y-74491726D03*
%TD*%
D10*
%TO.C,J7*%
X83235000Y-292385000D03*
X83235000Y-289845000D03*
D11*
X83235000Y-287305000D03*
%TD*%
D16*
%TO.C,J24-LowPower5*%
X353000000Y-197491726D03*
D17*
X351000000Y-197491726D03*
%TD*%
D26*
%TO.C,D3*%
X257433274Y-98991726D03*
X244433274Y-98991726D03*
X257433274Y-131991726D03*
X244433274Y-131991726D03*
%TD*%
D10*
%TO.C,q3*%
X22850000Y-286240000D03*
X22850000Y-283700000D03*
X22850000Y-281160000D03*
X22850000Y-278620000D03*
X22850000Y-276080000D03*
X22850000Y-273540000D03*
D11*
X22850000Y-271000000D03*
D10*
X7610000Y-286240000D03*
X7610000Y-283700000D03*
X7610000Y-281160000D03*
X7610000Y-278620000D03*
X7610000Y-276080000D03*
X7610000Y-273540000D03*
D11*
X7610000Y-271000000D03*
%TD*%
D12*
%TO.C,H4*%
X285050000Y-175000000D03*
%TD*%
M02*
