M48
; DRILL file {KiCad 8.0.4} date 2025-04-25T16:11:04-0600
; FORMAT={-:-/ absolute / inch / decimal}
; #@! TF.CreationDate,2025-04-25T16:11:04-06:00
; #@! TF.GenerationSoftware,Kicad,Pcbnew,8.0.4
; #@! TF.FileFunction,Plated,1,6,PTH
FMAT,2
INCH
; #@! TA.AperFunction,Plated,PTH,ViaDrill
T1C0.0157
; #@! TA.AperFunction,Plated,PTH,ComponentDrill
T2C0.0236
; #@! TA.AperFunction,Plated,PTH,ComponentDrill
T3C0.0295
; #@! TA.AperFunction,Plated,PTH,ComponentDrill
T4C0.0394
; #@! TA.AperFunction,Plated,PTH,ComponentDrill
T5C0.0472
; #@! TA.AperFunction,Plated,PTH,ComponentDrill
T6C0.0472
; #@! TA.AperFunction,Plated,PTH,ComponentDrill
T7C0.0512
; #@! TA.AperFunction,Plated,PTH,ComponentDrill
T8C0.0531
; #@! TA.AperFunction,Plated,PTH,ComponentDrill
T9C0.0551
; #@! TA.AperFunction,Plated,PTH,ComponentDrill
T10C0.0591
; #@! TA.AperFunction,Plated,PTH,ComponentDrill
T11C0.0630
; #@! TA.AperFunction,Plated,PTH,ComponentDrill
T12C0.0669
; #@! TA.AperFunction,Plated,PTH,ViaDrill
T13C0.0787
; #@! TA.AperFunction,Plated,PTH,ComponentDrill
T14C0.0984
; #@! TA.AperFunction,Plated,PTH,ComponentDrill
T15C0.1260
; #@! TA.AperFunction,Plated,PTH,ComponentDrill
T16C0.1264
%
G90
G05
T1
X0.4035Y-0.2579
X0.5118Y-0.7087
X1.1201Y-10.437
X1.1614Y-0.5906
X1.2795Y-1.9291
X1.2795Y-2.2638
X1.3189Y-1.9291
X1.3189Y-2.2638
X1.624Y-1.5059
X1.7106Y-3.0492
X1.7323Y-1.122
X1.8898Y-0.2559
X2.0472Y-0.4921
X2.0472Y-2.4803
X2.1358Y-1.9685
X2.2441Y-1.9094
X2.2441Y-2.2638
X2.2835Y-1.9094
X2.2835Y-2.2638
X2.3937Y-0.5374
X2.4685Y-3.6909
X2.6732Y-5.4902
X2.9528Y-8.5307
X3.0846Y-3.4528
X3.2795Y-0.3543
X3.4232Y-1.0079
X3.6713Y-2.7638
X3.7953Y-1.1969
X3.8169Y-2.6516
X4.1555Y-2.1555
X4.2835Y-2.4626
X4.4902Y-2.1614
X4.5295Y-2.1614
X4.5689Y-2.1614
X4.5768Y-8.8543
X4.5768Y-8.9035
X4.5768Y-8.9626
X4.6102Y-2.1614
X4.7736Y-8.8543
X4.7736Y-8.9035
X4.7744Y-8.9626
X4.9114Y-1.4764
X4.9606Y-0.5472
X5.0039Y-1.5413
X5.0039Y-1.9035
X5.0079Y-2.2736
X5.0433Y-1.5413
X5.0433Y-1.9035
X5.0472Y-2.2736
X5.0826Y-1.9014
X5.0827Y-1.5413
X5.0866Y-2.2736
X5.1219Y-1.8994
X5.122Y-1.5413
X5.126Y-2.2736
X5.2047Y-0.5
X5.315Y-0.5236
X5.7638Y-1.4528
X5.7638Y-1.6024
X5.7677Y-1.5276
X6.1535Y-3.25
X6.2205Y-3.2598
X6.2441Y-1.9409
X6.313Y-3.2559
X6.437Y-2.5394
X6.4429Y-0.624
X6.4429Y-3.2618
X6.5965Y-2.6024
X6.6496Y-2.6142
X6.7075Y-4.3492
X6.7244Y-2.6339
X6.7677Y-1.7598
X6.8445Y-2.6378
X7.185Y-3.0138
X7.1929Y-3.4075
X7.2638Y-2.3425
X7.3701Y-2.0354
X7.4528Y-2.4311
X7.5866Y-3.187
X7.6654Y-2.8248
X8.2126Y-0.6772
X8.2756Y-0.5512
X8.2894Y-1.1831
X8.3465Y-2.2598
X8.4409Y-0.5433
X8.498Y-3.0689
X8.815Y-3.4843
X8.8701Y-0.3012
X8.9331Y-2.5551
X9.1949Y-0.502
X9.2539Y-0.5925
X9.5531Y-0.1102
X9.8732Y-2.6291
X9.8752Y-2.435
X10.1276Y-2.5846
X10.378Y-2.8992
X10.7209Y-7.9291
X10.7542Y-7.0433
X10.7756Y-2.4626
X10.7874Y-6.9744
X10.7874Y-7.9094
X10.8366Y-6.9154
X10.8366Y-7.8209
X10.9055Y-3.6319
X10.9941Y-10.4587
X11.0157Y-0.9307
X11.4898Y-1.3701
X11.4941Y-3.2933
X12.5646Y-0.5031
X12.6583Y-0.6201
X12.9528Y-0.6299
X14.3898Y-0.7677
X14.4094Y-0.6496
T2
X0.4783Y-0.4094
X0.5079Y-0.3504
X0.5374Y-0.2913
X0.5374Y-0.4094
X0.5669Y-0.3504
X0.5965Y-0.2913
X0.5965Y-0.4094
X0.626Y-0.3504
X0.6555Y-0.2913
X0.6555Y-0.4094
X0.685Y-0.3504
X0.7146Y-0.2913
X0.7146Y-0.4094
X0.7441Y-0.3504
X0.7736Y-0.2913
X0.7736Y-0.4094
X0.8031Y-0.3504
X0.8327Y-0.2913
X0.8327Y-0.4094
X1.9783Y-0.4094
X2.0079Y-0.3504
X2.0374Y-0.2913
X2.0374Y-0.4094
X2.0669Y-0.3504
X2.0965Y-0.2913
X2.0965Y-0.4094
X2.126Y-0.3504
X2.1555Y-0.2913
X2.1555Y-0.4094
X2.185Y-0.3504
X2.2146Y-0.2913
X2.2146Y-0.4094
X2.2441Y-0.3504
X2.2736Y-0.2913
X2.2736Y-0.4094
X2.3031Y-0.3504
X2.3327Y-0.2913
X2.3327Y-0.4094
X3.4783Y-0.4094
X3.5079Y-0.3504
X3.5374Y-0.2913
X3.5374Y-0.4094
X3.5669Y-0.3504
X3.5965Y-0.2913
X3.5965Y-0.4094
X3.626Y-0.3504
X3.6555Y-0.2913
X3.6555Y-0.4094
X3.685Y-0.3504
X3.7146Y-0.2913
X3.7146Y-0.4094
X3.7441Y-0.3504
X3.7736Y-0.2913
X3.7736Y-0.4094
X3.8031Y-0.3504
X3.8327Y-0.2913
X3.8327Y-0.4094
X4.9783Y-0.4094
X5.0079Y-0.3504
X5.0374Y-0.2913
X5.0374Y-0.4094
X5.0669Y-0.3504
X5.0965Y-0.2913
X5.0965Y-0.4094
X5.126Y-0.3504
X5.1555Y-0.2913
X5.1555Y-0.4094
X5.185Y-0.3504
X5.2146Y-0.2913
X5.2146Y-0.4094
X5.2441Y-0.3504
X5.2736Y-0.2913
X5.2736Y-0.4094
X5.3031Y-0.3504
X5.3327Y-0.2913
X5.3327Y-0.4094
X6.4783Y-0.4094
X6.5079Y-0.3504
X6.5374Y-0.2913
X6.5374Y-0.4094
X6.5669Y-0.3504
X6.5965Y-0.2913
X6.5965Y-0.4094
X6.626Y-0.3504
X6.6555Y-0.2913
X6.6555Y-0.4094
X6.685Y-0.3504
X6.7146Y-0.2913
X6.7146Y-0.4094
X6.7441Y-0.3504
X6.7736Y-0.2913
X6.7736Y-0.4094
X6.8031Y-0.3504
X6.8327Y-0.2913
X6.8327Y-0.4094
X7.9783Y-0.4094
X8.0079Y-0.3504
X8.0374Y-0.2913
X8.0374Y-0.4094
X8.0669Y-0.3504
X8.0965Y-0.2913
X8.0965Y-0.4094
X8.126Y-0.3504
X8.1555Y-0.2913
X8.1555Y-0.4094
X8.185Y-0.3504
X8.2146Y-0.2913
X8.2146Y-0.4094
X8.2441Y-0.3504
X8.2736Y-0.2913
X8.2736Y-0.4094
X8.3031Y-0.3504
X8.3327Y-0.2913
X8.3327Y-0.4094
X9.4783Y-0.4094
X9.5079Y-0.3504
X9.5374Y-0.2913
X9.5374Y-0.4094
X9.5669Y-0.3504
X9.5965Y-0.2913
X9.5965Y-0.4094
X9.626Y-0.3504
X9.6555Y-0.2913
X9.6555Y-0.4094
X9.685Y-0.3504
X9.7146Y-0.2913
X9.7146Y-0.4094
X9.7441Y-0.3504
X9.7736Y-0.2913
X9.7736Y-0.4094
X9.8031Y-0.3504
X9.8327Y-0.2913
X9.8327Y-0.4094
X10.9783Y-0.4094
X11.0079Y-0.3504
X11.0374Y-0.2913
X11.0374Y-0.4094
X11.0669Y-0.3504
X11.0965Y-0.2913
X11.0965Y-0.4094
X11.126Y-0.3504
X11.1555Y-0.2913
X11.1555Y-0.4094
X11.185Y-0.3504
X11.2146Y-0.2913
X11.2146Y-0.4094
X11.2441Y-0.3504
X11.2736Y-0.2913
X11.2736Y-0.4094
X11.3031Y-0.3504
X11.3327Y-0.2913
X11.3327Y-0.4094
X12.4783Y-0.4094
X12.5079Y-0.3504
X12.5374Y-0.2913
X12.5374Y-0.4094
X12.5669Y-0.3504
X12.5965Y-0.2913
X12.5965Y-0.4094
X12.626Y-0.3504
X12.6555Y-0.2913
X12.6555Y-0.4094
X12.685Y-0.3504
X12.7146Y-0.2913
X12.7146Y-0.4094
X12.7441Y-0.3504
X12.7736Y-0.2913
X12.7736Y-0.4094
X12.8031Y-0.3504
X12.8327Y-0.2913
X12.8327Y-0.4094
T3
X4.4675Y-11.3455
X4.5463Y-11.3455
X8.622Y-9.1791
X8.622Y-9.2579
X8.622Y-9.5728
X8.622Y-9.6516
X10.6693Y-3.9623
X10.6693Y-4.3166
X10.6693Y-4.6516
X10.6693Y-5.0059
X10.748Y-3.9623
X10.748Y-4.3166
X10.748Y-4.6516
X10.748Y-5.0059
X11.6526Y-11.3927
X11.6535Y-3.2283
X11.6535Y-3.622
X11.7313Y-11.3927
X11.7323Y-3.2283
X11.7323Y-3.622
X11.811Y-7.7165
X11.8898Y-7.7165
X12.2047Y-7.7165
X12.2835Y-7.7165
X12.5984Y-3.2677
X12.5984Y-3.622
X12.5984Y-7.7165
X12.6772Y-3.2677
X12.6772Y-3.622
X12.6772Y-7.7165
X12.972Y-6.4546
X12.9921Y-7.7165
X13.0508Y-6.4546
X13.0709Y-7.7165
X13.3858Y-7.7165
X13.4646Y-7.7165
X13.7795Y-7.7165
X13.8583Y-7.7165
X15.6152Y-6.7352
X15.6152Y-7.0089
X15.6939Y-6.7352
X15.6939Y-7.0089
T4
X0.2996Y-10.5965
X0.2996Y-10.6965
X0.2996Y-10.7965
X0.2996Y-10.8965
X0.2996Y-10.9965
X0.2996Y-11.0965
X0.2996Y-11.1965
X0.8996Y-10.5965
X0.8996Y-10.6965
X0.8996Y-10.7965
X0.8996Y-10.8965
X0.8996Y-10.9965
X0.8996Y-11.0965
X0.8996Y-11.1965
X1.1051Y-8.3331
X1.1051Y-8.3331
X1.1051Y-8.4331
X1.1051Y-8.4331
X1.1051Y-8.5331
X1.1051Y-8.5331
X1.1051Y-8.6331
X1.1051Y-8.6331
X1.1051Y-8.7331
X1.1051Y-8.7331
X1.1051Y-8.8331
X1.1051Y-8.8331
X1.1051Y-8.9331
X1.1051Y-8.9331
X1.7051Y-8.3331
X1.7051Y-8.3331
X1.7051Y-8.4331
X1.7051Y-8.4331
X1.7051Y-8.5331
X1.7051Y-8.5331
X1.7051Y-8.6331
X1.7051Y-8.6331
X1.7051Y-8.7331
X1.7051Y-8.7331
X1.7051Y-8.8331
X1.7051Y-8.8331
X1.7051Y-8.9331
X1.7051Y-8.9331
X2.1112Y-9.9192
X2.1112Y-10.0192
X2.1112Y-10.1192
X2.4059Y-10.872
X2.4059Y-10.972
X2.4059Y-11.072
X2.4059Y-11.172
X2.4059Y-11.272
X2.4059Y-11.372
X2.4059Y-11.472
X3.0059Y-10.872
X3.0059Y-10.972
X3.0059Y-11.072
X3.0059Y-11.172
X3.0059Y-11.272
X3.0059Y-11.372
X3.0059Y-11.472
X3.1102Y-1.4929
X3.1102Y-1.5929
X3.1102Y-1.6929
X3.2287Y-8.3272
X3.2287Y-8.3272
X3.2287Y-8.4272
X3.2287Y-8.4272
X3.2287Y-8.5272
X3.2287Y-8.5272
X3.2287Y-8.6272
X3.2287Y-8.6272
X3.2287Y-8.7272
X3.2287Y-8.7272
X3.2287Y-8.8272
X3.2287Y-8.8272
X3.2287Y-8.9272
X3.2287Y-8.9272
X3.277Y-11.2384
X3.277Y-11.3384
X3.277Y-11.4384
X3.3859Y-6.9923
X3.3859Y-7.0923
X3.3859Y-7.1923
X3.6152Y-11.2392
X3.6152Y-11.3392
X3.6152Y-11.4392
X3.8287Y-8.3272
X3.8287Y-8.3272
X3.8287Y-8.4272
X3.8287Y-8.4272
X3.8287Y-8.5272
X3.8287Y-8.5272
X3.8287Y-8.6272
X3.8287Y-8.6272
X3.8287Y-8.7272
X3.8287Y-8.7272
X3.8287Y-8.8272
X3.8287Y-8.8272
X3.8287Y-8.9272
X3.8287Y-8.9272
X10.6552Y-11.0943
X10.7552Y-11.0943
X10.8552Y-11.0943
X11.4533Y-6.722
X11.4533Y-6.822
X11.4533Y-6.922
X13.5252Y-1.8537
X13.5252Y-1.9537
X13.5252Y-2.0537
T5
X13.8189Y-6.7166
X13.937Y-6.7166
X14.3701Y-6.7182
X14.4882Y-6.7182
T6
X14.6228Y-2.7051
X14.7228Y-0.9051
X14.9228Y-0.9051
X14.9406Y-0.1714
X15.0228Y-2.7051
X15.2358Y-0.1714
X15.3228Y-0.9051
X15.4228Y-2.7051
T7
X13.8476Y-0.4906
T8
X13.7008Y-6.7938
X14.0551Y-6.7938
X14.252Y-6.7953
X14.6063Y-6.7953
T9
X0.3563Y-0.0827
X0.9744Y-0.0827
X1.8563Y-0.0827
X2.4744Y-0.0827
X3.3563Y-0.0827
X3.9744Y-0.0827
X4.8563Y-0.0827
X5.4744Y-0.0827
X6.3563Y-0.0827
X6.9744Y-0.0827
X7.8563Y-0.0827
X8.4744Y-0.0827
X9.3563Y-0.0827
X9.9744Y-0.0827
X10.8563Y-0.0827
X11.4744Y-0.0827
X12.3563Y-0.0827
X12.9744Y-0.0827
T10
X13.3228Y-0.748
X14.2126Y-0.748
X14.8858Y-2.8878
X14.8858Y-3.7776
T11
X12.2441Y-1.502
X12.8268Y-1.502
X13.3803Y-1.4634
X13.7008Y-1.2205
T12
X0.6654Y-0.1535
X2.1654Y-0.1535
X3.6654Y-0.1535
X5.1654Y-0.1535
X6.6654Y-0.1535
X8.1654Y-0.1535
X9.6654Y-0.1535
X11.1654Y-0.1535
X12.6654Y-0.1535
T13
X12.5197Y-6.7323
X14.3307Y-3.7008
T14
X13.8476Y-0.1165
T15
X0.5906Y-2.9587
X0.5906Y-7.565
X3.0315Y-2.9587
X3.0315Y-7.565
X3.748Y-2.9587
X3.748Y-7.565
X5.3898Y-9.3563
X5.3898Y-10.2618
X5.3898Y-10.9705
X6.189Y-2.9587
X6.189Y-7.565
X7.3005Y-3.8245
X7.3005Y-5.1237
X7.5Y-6.6181
X7.5Y-7.9961
X7.8123Y-3.8245
X7.8123Y-5.1237
X7.9094Y-9.3563
X7.9094Y-10.9705
X8.4751Y-3.8245
X8.4751Y-5.1237
X8.9869Y-3.8245
X8.9869Y-5.1237
X9.6234Y-3.8245
X9.6234Y-5.1237
X9.8622Y-6.6181
X9.8622Y-7.9961
X10.1352Y-3.8245
X10.1352Y-5.1237
X11.3425Y-4.4613
X11.7441Y-9.0449
X11.7441Y-10.7772
X13.0354Y-4.4613
X13.0354Y-5.918
X13.7992Y-4.356
X13.7992Y-6.1276
X15.374Y-4.356
X15.374Y-6.1276
X15.4843Y-9.0449
X15.4843Y-10.7772
T16
X11.3425Y-5.918
T2
G00X13.7008Y-0.0315
M15
G01X13.7008Y-0.126
M16
G05
G00X13.8476Y-0.335
M15
G01X13.8476Y-0.3902
M16
G05
G00X14.0524Y-0.335
M15
G01X14.0524Y-0.3902
M16
G05
G00X14.089Y-0.0315
M15
G01X14.089Y-0.126
M16
G05
T15
G00X2.1673Y-9.5531
M15
G01X2.1673Y-9.5925
M16
G05
G00X3.3484Y-1.561
M15
G01X3.3484Y-1.6004
M16
G05
G00X3.3878Y-3.372
M15
G01X3.3878Y-3.4114
M16
G05
G00X3.3878Y-6.6004
M15
G01X3.3878Y-6.6398
M16
G05
G00X5.9795Y-11.3591
M15
G01X5.9795Y-11.3984
M16
G05
G00X6.8917Y-5.813
M15
G01X6.8917Y-5.8524
M16
G05
G00X7.6004Y-1.9547
M15
G01X7.6004Y-1.9941
M16
G05
G00X9.6476Y-3.4508
M15
G01X9.6476Y-3.4902
M16
G05
G00X10.435Y-11.3248
M15
G01X10.435Y-11.3642
M16
G05
G00X10.75Y-1.9547
M15
G01X10.75Y-1.9941
M16
G05
G00X11.2224Y-6.7972
M15
G01X11.2224Y-6.8366
M16
G05
G00X13.3878Y-4.9469
M15
G01X13.3878Y-4.9862
M16
G05
G00X13.7815Y-1.9547
M15
G01X13.7815Y-1.9941
M16
G05
G00X15.9902Y-9.4606
M15
G01X15.9902Y-9.5
M16
G05
M30
