%TF.GenerationSoftware,KiCad,Pcbnew,8.0.4*%
%TF.CreationDate,2025-04-25T16:11:04-06:00*%
%TF.ProjectId,motherboard_v1,6d6f7468-6572-4626-9f61-72645f76312e,rev?*%
%TF.SameCoordinates,Original*%
%TF.FileFunction,Paste,Top*%
%TF.FilePolarity,Positive*%
%FSLAX46Y46*%
G04 Gerber Fmt 4.6, Leading zero omitted, Abs format (unit mm)*
G04 Created by KiCad (PCBNEW 8.0.4) date 2025-04-25 16:11:04*
%MOMM*%
%LPD*%
G01*
G04 APERTURE LIST*
G04 Aperture macros list*
%AMRoundRect*
0 Rectangle with rounded corners*
0 $1 Rounding radius*
0 $2 $3 $4 $5 $6 $7 $8 $9 X,Y pos of 4 corners*
0 Add a 4 corners polygon primitive as box body*
4,1,4,$2,$3,$4,$5,$6,$7,$8,$9,$2,$3,0*
0 Add four circle primitives for the rounded corners*
1,1,$1+$1,$2,$3*
1,1,$1+$1,$4,$5*
1,1,$1+$1,$6,$7*
1,1,$1+$1,$8,$9*
0 Add four rect primitives between the rounded corners*
20,1,$1+$1,$2,$3,$4,$5,0*
20,1,$1+$1,$4,$5,$6,$7,0*
20,1,$1+$1,$6,$7,$8,$9,0*
20,1,$1+$1,$8,$9,$2,$3,0*%
G04 Aperture macros list end*
%ADD10RoundRect,0.250000X-0.650000X0.325000X-0.650000X-0.325000X0.650000X-0.325000X0.650000X0.325000X0*%
%ADD11RoundRect,0.135000X-0.185000X0.135000X-0.185000X-0.135000X0.185000X-0.135000X0.185000X0.135000X0*%
%ADD12RoundRect,0.150000X-0.625000X0.150000X-0.625000X-0.150000X0.625000X-0.150000X0.625000X0.150000X0*%
%ADD13RoundRect,0.250000X-0.650000X0.350000X-0.650000X-0.350000X0.650000X-0.350000X0.650000X0.350000X0*%
%ADD14RoundRect,0.150000X-0.150000X-0.625000X0.150000X-0.625000X0.150000X0.625000X-0.150000X0.625000X0*%
%ADD15RoundRect,0.250000X-0.350000X-0.650000X0.350000X-0.650000X0.350000X0.650000X-0.350000X0.650000X0*%
%ADD16RoundRect,0.135000X-0.135000X-0.185000X0.135000X-0.185000X0.135000X0.185000X-0.135000X0.185000X0*%
%ADD17RoundRect,0.155000X0.212500X0.155000X-0.212500X0.155000X-0.212500X-0.155000X0.212500X-0.155000X0*%
%ADD18RoundRect,0.150000X0.150000X0.625000X-0.150000X0.625000X-0.150000X-0.625000X0.150000X-0.625000X0*%
%ADD19RoundRect,0.250000X0.350000X0.650000X-0.350000X0.650000X-0.350000X-0.650000X0.350000X-0.650000X0*%
%ADD20RoundRect,0.155000X-0.155000X0.212500X-0.155000X-0.212500X0.155000X-0.212500X0.155000X0.212500X0*%
%ADD21O,2.000000X0.900000*%
%ADD22RoundRect,0.250000X-1.000000X-0.650000X1.000000X-0.650000X1.000000X0.650000X-1.000000X0.650000X0*%
%ADD23RoundRect,0.250000X-0.325000X-0.650000X0.325000X-0.650000X0.325000X0.650000X-0.325000X0.650000X0*%
%ADD24RoundRect,0.225000X0.225000X0.250000X-0.225000X0.250000X-0.225000X-0.250000X0.225000X-0.250000X0*%
%ADD25RoundRect,0.237500X0.237500X-0.287500X0.237500X0.287500X-0.237500X0.287500X-0.237500X-0.287500X0*%
%ADD26R,2.047000X2.192000*%
%ADD27RoundRect,0.150000X0.625000X-0.150000X0.625000X0.150000X-0.625000X0.150000X-0.625000X-0.150000X0*%
%ADD28RoundRect,0.250000X0.650000X-0.350000X0.650000X0.350000X-0.650000X0.350000X-0.650000X-0.350000X0*%
%ADD29RoundRect,0.250000X-1.950000X-1.000000X1.950000X-1.000000X1.950000X1.000000X-1.950000X1.000000X0*%
%ADD30R,3.320000X2.150000*%
%ADD31RoundRect,0.155000X0.155000X-0.212500X0.155000X0.212500X-0.155000X0.212500X-0.155000X-0.212500X0*%
%ADD32RoundRect,0.225000X0.250000X-0.225000X0.250000X0.225000X-0.250000X0.225000X-0.250000X-0.225000X0*%
G04 APERTURE END LIST*
D10*
%TO.C,C16*%
X366000000Y-32200000D03*
X366000000Y-35150000D03*
%TD*%
D11*
%TO.C,R1*%
X398085002Y-11595000D03*
X398085002Y-12615000D03*
%TD*%
D12*
%TO.C,C10*%
X282000000Y-245158274D03*
X282000000Y-246158274D03*
X282000000Y-247158274D03*
X282000000Y-248158274D03*
D13*
X284525000Y-243858274D03*
X284525000Y-249458274D03*
%TD*%
D14*
%TO.C,J40*%
X250000000Y-65000000D03*
X251000000Y-65000000D03*
X252000000Y-65000000D03*
X253000000Y-65000000D03*
D15*
X248700000Y-62475000D03*
X254300000Y-62475000D03*
%TD*%
D16*
%TO.C,R3*%
X308365000Y-164755000D03*
X309385000Y-164755000D03*
%TD*%
D14*
%TO.C,C6*%
X249700000Y-218675000D03*
X250700000Y-218675000D03*
X251700000Y-218675000D03*
X252700000Y-218675000D03*
D15*
X248400000Y-216150000D03*
X254000000Y-216150000D03*
%TD*%
D14*
%TO.C,J31*%
X188500000Y-77525000D03*
X189500000Y-77525000D03*
X190500000Y-77525000D03*
X191500000Y-77525000D03*
D15*
X187200000Y-75000000D03*
X192800000Y-75000000D03*
%TD*%
D17*
%TO.C,C18*%
X347344500Y-46511000D03*
X346209500Y-46511000D03*
%TD*%
D18*
%TO.C,C5*%
X38550000Y-283425000D03*
X37550000Y-283425000D03*
X36550000Y-283425000D03*
X35550000Y-283425000D03*
D19*
X39850000Y-285950000D03*
X34250000Y-285950000D03*
%TD*%
D14*
%TO.C,J27*%
X219500000Y-68525000D03*
X220500000Y-68525000D03*
X221500000Y-68525000D03*
X222500000Y-68525000D03*
D15*
X218200000Y-66000000D03*
X223800000Y-66000000D03*
%TD*%
D14*
%TO.C,C11*%
X68750000Y-207800000D03*
X69750000Y-207800000D03*
X70750000Y-207800000D03*
X71750000Y-207800000D03*
D15*
X67450000Y-205275000D03*
X73050000Y-205275000D03*
%TD*%
D14*
%TO.C,J29*%
X127000000Y-56000000D03*
X128000000Y-56000000D03*
X129000000Y-56000000D03*
X130000000Y-56000000D03*
D15*
X125700000Y-53475000D03*
X131300000Y-53475000D03*
%TD*%
D14*
%TO.C,J33*%
X219500000Y-86525000D03*
X220500000Y-86525000D03*
X221500000Y-86525000D03*
X222500000Y-86525000D03*
D15*
X218200000Y-84000000D03*
X223800000Y-84000000D03*
%TD*%
D14*
%TO.C,J26*%
X188500000Y-59525000D03*
X189500000Y-59525000D03*
X190500000Y-59525000D03*
X191500000Y-59525000D03*
D15*
X187200000Y-57000000D03*
X192800000Y-57000000D03*
%TD*%
D14*
%TO.C,J23*%
X55700000Y-55025000D03*
X56700000Y-55025000D03*
X57700000Y-55025000D03*
X58700000Y-55025000D03*
D15*
X54400000Y-52500000D03*
X60000000Y-52500000D03*
%TD*%
D14*
%TO.C,J25*%
X219500000Y-59525000D03*
X220500000Y-59525000D03*
X221500000Y-59525000D03*
X222500000Y-59525000D03*
D15*
X218200000Y-57000000D03*
X223800000Y-57000000D03*
%TD*%
D14*
%TO.C,C7*%
X15690000Y-212300000D03*
X16690000Y-212300000D03*
X17690000Y-212300000D03*
X18690000Y-212300000D03*
D15*
X14390000Y-209775000D03*
X19990000Y-209775000D03*
%TD*%
D20*
%TO.C,C22*%
X293517000Y-174941500D03*
X293517000Y-176076500D03*
%TD*%
D12*
%TO.C,C9*%
X282000000Y-264641726D03*
X282000000Y-265641726D03*
X282000000Y-266641726D03*
X282000000Y-267641726D03*
D13*
X284525000Y-263341726D03*
X284525000Y-268941726D03*
%TD*%
D14*
%TO.C,J34*%
X188500000Y-86525000D03*
X189500000Y-86525000D03*
X190500000Y-86525000D03*
X191500000Y-86525000D03*
D15*
X187200000Y-84000000D03*
X192800000Y-84000000D03*
%TD*%
D14*
%TO.C,J20*%
X55700000Y-46525000D03*
X56700000Y-46525000D03*
X57700000Y-46525000D03*
X58700000Y-46525000D03*
D15*
X54400000Y-44000000D03*
X60000000Y-44000000D03*
%TD*%
D20*
%TO.C,C21*%
X75000000Y-38432500D03*
X75000000Y-39567500D03*
%TD*%
D14*
%TO.C,J30*%
X219500000Y-77525000D03*
X220500000Y-77525000D03*
X221500000Y-77525000D03*
X222500000Y-77525000D03*
D15*
X218200000Y-75000000D03*
X223800000Y-75000000D03*
%TD*%
D21*
%TO.C,U1*%
X312440001Y-162180000D03*
X312440001Y-164720000D03*
X319440001Y-164720000D03*
X319440001Y-162180000D03*
%TD*%
D14*
%TO.C,J22*%
X127000000Y-46000000D03*
X128000000Y-46000000D03*
X129000000Y-46000000D03*
X130000000Y-46000000D03*
D15*
X125700000Y-43475000D03*
X131300000Y-43475000D03*
%TD*%
D22*
%TO.C,D7*%
X361750000Y-58900000D03*
X365750000Y-58900000D03*
%TD*%
D23*
%TO.C,C17*%
X362800000Y-61900000D03*
X365750000Y-61900000D03*
%TD*%
D11*
%TO.C,R2*%
X328665000Y-17345000D03*
X328665000Y-18365000D03*
%TD*%
D14*
%TO.C,J46*%
X250150000Y-56675000D03*
X251150000Y-56675000D03*
X252150000Y-56675000D03*
X253150000Y-56675000D03*
D15*
X248850000Y-54150000D03*
X254450000Y-54150000D03*
%TD*%
D18*
%TO.C,C3*%
X120750000Y-205250000D03*
X119750000Y-205250000D03*
X118750000Y-205250000D03*
X117750000Y-205250000D03*
D19*
X122050000Y-207775000D03*
X116450000Y-207775000D03*
%TD*%
D14*
%TO.C,J43*%
X250000000Y-75000000D03*
X251000000Y-75000000D03*
X252000000Y-75000000D03*
X253000000Y-75000000D03*
D15*
X248700000Y-72475000D03*
X254300000Y-72475000D03*
%TD*%
D24*
%TO.C,C13*%
X366382600Y-2976000D03*
X364832600Y-2976000D03*
%TD*%
D14*
%TO.C,J14*%
X114050000Y-52750000D03*
X115050000Y-52750000D03*
X116050000Y-52750000D03*
X117050000Y-52750000D03*
D15*
X112750000Y-50225000D03*
X118350000Y-50225000D03*
%TD*%
D25*
%TO.C,D5*%
X398115002Y-15965000D03*
X398115002Y-14215000D03*
%TD*%
D17*
%TO.C,C23*%
X54996500Y-259763000D03*
X53861500Y-259763000D03*
%TD*%
D18*
%TO.C,C4*%
X390500000Y-169316726D03*
X389500000Y-169316726D03*
X388500000Y-169316726D03*
X387500000Y-169316726D03*
D19*
X391800000Y-171841726D03*
X386200000Y-171841726D03*
%TD*%
D26*
%TO.C,D1*%
X84091000Y-276230000D03*
X79369000Y-276230000D03*
%TD*%
D12*
%TO.C,C2*%
X282000000Y-254650000D03*
X282000000Y-255650000D03*
X282000000Y-256650000D03*
X282000000Y-257650000D03*
D13*
X284525000Y-253350000D03*
X284525000Y-258950000D03*
%TD*%
D14*
%TO.C,J24*%
X31700000Y-55050000D03*
X32700000Y-55050000D03*
X33700000Y-55050000D03*
X34700000Y-55050000D03*
D15*
X30400000Y-52525000D03*
X36000000Y-52525000D03*
%TD*%
D27*
%TO.C,C8*%
X270325000Y-142141726D03*
X270325000Y-141141726D03*
X270325000Y-140141726D03*
X270325000Y-139141726D03*
D28*
X267800000Y-143441726D03*
X267800000Y-137841726D03*
%TD*%
D14*
%TO.C,J28*%
X188500000Y-68525000D03*
X189500000Y-68525000D03*
X190500000Y-68525000D03*
X191500000Y-68525000D03*
D15*
X187200000Y-66000000D03*
X192800000Y-66000000D03*
%TD*%
D29*
%TO.C,C12*%
X379350000Y-13900000D03*
X387750000Y-13900000D03*
%TD*%
D18*
%TO.C,C1*%
X381500000Y-169316726D03*
X380500000Y-169316726D03*
X379500000Y-169316726D03*
X378500000Y-169316726D03*
D19*
X382800000Y-171841726D03*
X377200000Y-171841726D03*
%TD*%
D20*
%TO.C,C20*%
X270279000Y-277811500D03*
X270279000Y-278946500D03*
%TD*%
D30*
%TO.C,L3*%
X372217500Y-12337000D03*
X372217500Y-18163000D03*
%TD*%
D14*
%TO.C,J21*%
X31700000Y-46525000D03*
X32700000Y-46525000D03*
X33700000Y-46525000D03*
X34700000Y-46525000D03*
D15*
X30400000Y-44000000D03*
X36000000Y-44000000D03*
%TD*%
D31*
%TO.C,C19*%
X89701000Y-178228500D03*
X89701000Y-177093500D03*
%TD*%
D14*
%TO.C,J19*%
X127000000Y-37000000D03*
X128000000Y-37000000D03*
X129000000Y-37000000D03*
X130000000Y-37000000D03*
D15*
X125700000Y-34475000D03*
X131300000Y-34475000D03*
%TD*%
D32*
%TO.C,C14*%
X366770000Y-22765000D03*
X366770000Y-21215000D03*
%TD*%
D10*
%TO.C,C15*%
X361600000Y-32175000D03*
X361600000Y-35125000D03*
%TD*%
D25*
%TO.C,D6*%
X328545000Y-22055000D03*
X328545000Y-20305000D03*
%TD*%
M02*
