%TF.GenerationSoftware,KiCad,Pcbnew,8.0.4*%
%TF.CreationDate,2025-04-25T16:11:04-06:00*%
%TF.ProjectId,motherboard_v1,6d6f7468-6572-4626-9f61-72645f76312e,rev?*%
%TF.SameCoordinates,Original*%
%TF.FileFunction,Legend,Bot*%
%TF.FilePolarity,Positive*%
%FSLAX46Y46*%
G04 Gerber Fmt 4.6, Leading zero omitted, Abs format (unit mm)*
G04 Created by KiCad (PCBNEW 8.0.4) date 2025-04-25 16:11:04*
%MOMM*%
%LPD*%
G01*
G04 APERTURE LIST*
G04 Aperture macros list*
%AMRoundRect*
0 Rectangle with rounded corners*
0 $1 Rounding radius*
0 $2 $3 $4 $5 $6 $7 $8 $9 X,Y pos of 4 corners*
0 Add a 4 corners polygon primitive as box body*
4,1,4,$2,$3,$4,$5,$6,$7,$8,$9,$2,$3,0*
0 Add four circle primitives for the rounded corners*
1,1,$1+$1,$2,$3*
1,1,$1+$1,$4,$5*
1,1,$1+$1,$6,$7*
1,1,$1+$1,$8,$9*
0 Add four rect primitives between the rounded corners*
20,1,$1+$1,$2,$3,$4,$5,0*
20,1,$1+$1,$4,$5,$6,$7,0*
20,1,$1+$1,$6,$7,$8,$9,0*
20,1,$1+$1,$8,$9,$2,$3,0*%
G04 Aperture macros list end*
%ADD10C,0.300000*%
%ADD11O,5.600000X6.600000*%
%ADD12C,2.000000*%
%ADD13C,1.700000*%
%ADD14C,1.000000*%
%ADD15RoundRect,0.250000X0.625000X-0.350000X0.625000X0.350000X-0.625000X0.350000X-0.625000X-0.350000X0*%
%ADD16O,1.750000X1.200000*%
%ADD17RoundRect,0.250000X-0.350000X-0.625000X0.350000X-0.625000X0.350000X0.625000X-0.350000X0.625000X0*%
%ADD18O,1.200000X1.750000*%
%ADD19C,1.350000*%
%ADD20R,1.800000X1.800000*%
%ADD21C,1.800000*%
%ADD22R,1.700000X1.700000*%
%ADD23O,1.700000X1.700000*%
%ADD24C,2.600000*%
%ADD25C,2.500000*%
%ADD26O,1.200000X3.800000*%
%ADD27O,1.200000X2.500000*%
%ADD28C,5.600000*%
%ADD29C,3.000000*%
%ADD30C,6.000000*%
G04 APERTURE END LIST*
D10*
X262207393Y-273603867D02*
X262207393Y-271103867D01*
X262207393Y-271103867D02*
X260778822Y-273603867D01*
X260778822Y-273603867D02*
X260778822Y-271103867D01*
X259588345Y-273603867D02*
X259588345Y-271103867D01*
X258516917Y-273484820D02*
X258159774Y-273603867D01*
X258159774Y-273603867D02*
X257564536Y-273603867D01*
X257564536Y-273603867D02*
X257326441Y-273484820D01*
X257326441Y-273484820D02*
X257207393Y-273365772D01*
X257207393Y-273365772D02*
X257088346Y-273127677D01*
X257088346Y-273127677D02*
X257088346Y-272889581D01*
X257088346Y-272889581D02*
X257207393Y-272651486D01*
X257207393Y-272651486D02*
X257326441Y-272532439D01*
X257326441Y-272532439D02*
X257564536Y-272413391D01*
X257564536Y-272413391D02*
X258040727Y-272294343D01*
X258040727Y-272294343D02*
X258278822Y-272175296D01*
X258278822Y-272175296D02*
X258397869Y-272056248D01*
X258397869Y-272056248D02*
X258516917Y-271818153D01*
X258516917Y-271818153D02*
X258516917Y-271580058D01*
X258516917Y-271580058D02*
X258397869Y-271341962D01*
X258397869Y-271341962D02*
X258278822Y-271222915D01*
X258278822Y-271222915D02*
X258040727Y-271103867D01*
X258040727Y-271103867D02*
X257445488Y-271103867D01*
X257445488Y-271103867D02*
X257088346Y-271222915D01*
X256374060Y-271103867D02*
X254945489Y-271103867D01*
X255659775Y-273603867D02*
X255659775Y-271103867D01*
X261374060Y-276319203D02*
X261016917Y-276438251D01*
X261016917Y-276438251D02*
X260897870Y-276557299D01*
X260897870Y-276557299D02*
X260778822Y-276795394D01*
X260778822Y-276795394D02*
X260778822Y-277152537D01*
X260778822Y-277152537D02*
X260897870Y-277390632D01*
X260897870Y-277390632D02*
X261016917Y-277509680D01*
X261016917Y-277509680D02*
X261255012Y-277628727D01*
X261255012Y-277628727D02*
X262207393Y-277628727D01*
X262207393Y-277628727D02*
X262207393Y-275128727D01*
X262207393Y-275128727D02*
X261374060Y-275128727D01*
X261374060Y-275128727D02*
X261135965Y-275247775D01*
X261135965Y-275247775D02*
X261016917Y-275366822D01*
X261016917Y-275366822D02*
X260897870Y-275604918D01*
X260897870Y-275604918D02*
X260897870Y-275843013D01*
X260897870Y-275843013D02*
X261016917Y-276081108D01*
X261016917Y-276081108D02*
X261135965Y-276200156D01*
X261135965Y-276200156D02*
X261374060Y-276319203D01*
X261374060Y-276319203D02*
X262207393Y-276319203D01*
X259231203Y-275128727D02*
X258755012Y-275128727D01*
X258755012Y-275128727D02*
X258516917Y-275247775D01*
X258516917Y-275247775D02*
X258278822Y-275485870D01*
X258278822Y-275485870D02*
X258159774Y-275962060D01*
X258159774Y-275962060D02*
X258159774Y-276795394D01*
X258159774Y-276795394D02*
X258278822Y-277271584D01*
X258278822Y-277271584D02*
X258516917Y-277509680D01*
X258516917Y-277509680D02*
X258755012Y-277628727D01*
X258755012Y-277628727D02*
X259231203Y-277628727D01*
X259231203Y-277628727D02*
X259469298Y-277509680D01*
X259469298Y-277509680D02*
X259707393Y-277271584D01*
X259707393Y-277271584D02*
X259826441Y-276795394D01*
X259826441Y-276795394D02*
X259826441Y-275962060D01*
X259826441Y-275962060D02*
X259707393Y-275485870D01*
X259707393Y-275485870D02*
X259469298Y-275247775D01*
X259469298Y-275247775D02*
X259231203Y-275128727D01*
X257088345Y-275128727D02*
X257088345Y-277152537D01*
X257088345Y-277152537D02*
X256969298Y-277390632D01*
X256969298Y-277390632D02*
X256850250Y-277509680D01*
X256850250Y-277509680D02*
X256612155Y-277628727D01*
X256612155Y-277628727D02*
X256135964Y-277628727D01*
X256135964Y-277628727D02*
X255897869Y-277509680D01*
X255897869Y-277509680D02*
X255778822Y-277390632D01*
X255778822Y-277390632D02*
X255659774Y-277152537D01*
X255659774Y-277152537D02*
X255659774Y-275128727D01*
X253278821Y-277628727D02*
X254469297Y-277628727D01*
X254469297Y-277628727D02*
X254469297Y-275128727D01*
X252445487Y-277628727D02*
X252445487Y-275128727D01*
X252445487Y-275128727D02*
X251850249Y-275128727D01*
X251850249Y-275128727D02*
X251493106Y-275247775D01*
X251493106Y-275247775D02*
X251255011Y-275485870D01*
X251255011Y-275485870D02*
X251135964Y-275723965D01*
X251135964Y-275723965D02*
X251016916Y-276200156D01*
X251016916Y-276200156D02*
X251016916Y-276557299D01*
X251016916Y-276557299D02*
X251135964Y-277033489D01*
X251135964Y-277033489D02*
X251255011Y-277271584D01*
X251255011Y-277271584D02*
X251493106Y-277509680D01*
X251493106Y-277509680D02*
X251850249Y-277628727D01*
X251850249Y-277628727D02*
X252445487Y-277628727D01*
X249945487Y-276319203D02*
X249112154Y-276319203D01*
X248755011Y-277628727D02*
X249945487Y-277628727D01*
X249945487Y-277628727D02*
X249945487Y-275128727D01*
X249945487Y-275128727D02*
X248755011Y-275128727D01*
X246255011Y-277628727D02*
X247088344Y-276438251D01*
X247683582Y-277628727D02*
X247683582Y-275128727D01*
X247683582Y-275128727D02*
X246731201Y-275128727D01*
X246731201Y-275128727D02*
X246493106Y-275247775D01*
X246493106Y-275247775D02*
X246374059Y-275366822D01*
X246374059Y-275366822D02*
X246255011Y-275604918D01*
X246255011Y-275604918D02*
X246255011Y-275962060D01*
X246255011Y-275962060D02*
X246374059Y-276200156D01*
X246374059Y-276200156D02*
X246493106Y-276319203D01*
X246493106Y-276319203D02*
X246731201Y-276438251D01*
X246731201Y-276438251D02*
X247683582Y-276438251D01*
X241850249Y-277390632D02*
X241969297Y-277509680D01*
X241969297Y-277509680D02*
X242326439Y-277628727D01*
X242326439Y-277628727D02*
X242564535Y-277628727D01*
X242564535Y-277628727D02*
X242921678Y-277509680D01*
X242921678Y-277509680D02*
X243159773Y-277271584D01*
X243159773Y-277271584D02*
X243278820Y-277033489D01*
X243278820Y-277033489D02*
X243397868Y-276557299D01*
X243397868Y-276557299D02*
X243397868Y-276200156D01*
X243397868Y-276200156D02*
X243278820Y-275723965D01*
X243278820Y-275723965D02*
X243159773Y-275485870D01*
X243159773Y-275485870D02*
X242921678Y-275247775D01*
X242921678Y-275247775D02*
X242564535Y-275128727D01*
X242564535Y-275128727D02*
X242326439Y-275128727D01*
X242326439Y-275128727D02*
X241969297Y-275247775D01*
X241969297Y-275247775D02*
X241850249Y-275366822D01*
X240302630Y-275128727D02*
X239826439Y-275128727D01*
X239826439Y-275128727D02*
X239588344Y-275247775D01*
X239588344Y-275247775D02*
X239350249Y-275485870D01*
X239350249Y-275485870D02*
X239231201Y-275962060D01*
X239231201Y-275962060D02*
X239231201Y-276795394D01*
X239231201Y-276795394D02*
X239350249Y-277271584D01*
X239350249Y-277271584D02*
X239588344Y-277509680D01*
X239588344Y-277509680D02*
X239826439Y-277628727D01*
X239826439Y-277628727D02*
X240302630Y-277628727D01*
X240302630Y-277628727D02*
X240540725Y-277509680D01*
X240540725Y-277509680D02*
X240778820Y-277271584D01*
X240778820Y-277271584D02*
X240897868Y-276795394D01*
X240897868Y-276795394D02*
X240897868Y-275962060D01*
X240897868Y-275962060D02*
X240778820Y-275485870D01*
X240778820Y-275485870D02*
X240540725Y-275247775D01*
X240540725Y-275247775D02*
X240302630Y-275128727D01*
X236969296Y-277628727D02*
X238159772Y-277628727D01*
X238159772Y-277628727D02*
X238159772Y-275128727D01*
X235659772Y-275128727D02*
X235183581Y-275128727D01*
X235183581Y-275128727D02*
X234945486Y-275247775D01*
X234945486Y-275247775D02*
X234707391Y-275485870D01*
X234707391Y-275485870D02*
X234588343Y-275962060D01*
X234588343Y-275962060D02*
X234588343Y-276795394D01*
X234588343Y-276795394D02*
X234707391Y-277271584D01*
X234707391Y-277271584D02*
X234945486Y-277509680D01*
X234945486Y-277509680D02*
X235183581Y-277628727D01*
X235183581Y-277628727D02*
X235659772Y-277628727D01*
X235659772Y-277628727D02*
X235897867Y-277509680D01*
X235897867Y-277509680D02*
X236135962Y-277271584D01*
X236135962Y-277271584D02*
X236255010Y-276795394D01*
X236255010Y-276795394D02*
X236255010Y-275962060D01*
X236255010Y-275962060D02*
X236135962Y-275485870D01*
X236135962Y-275485870D02*
X235897867Y-275247775D01*
X235897867Y-275247775D02*
X235659772Y-275128727D01*
X232088343Y-277628727D02*
X232921676Y-276438251D01*
X233516914Y-277628727D02*
X233516914Y-275128727D01*
X233516914Y-275128727D02*
X232564533Y-275128727D01*
X232564533Y-275128727D02*
X232326438Y-275247775D01*
X232326438Y-275247775D02*
X232207391Y-275366822D01*
X232207391Y-275366822D02*
X232088343Y-275604918D01*
X232088343Y-275604918D02*
X232088343Y-275962060D01*
X232088343Y-275962060D02*
X232207391Y-276200156D01*
X232207391Y-276200156D02*
X232326438Y-276319203D01*
X232326438Y-276319203D02*
X232564533Y-276438251D01*
X232564533Y-276438251D02*
X233516914Y-276438251D01*
X231135962Y-276914441D02*
X229945486Y-276914441D01*
X231374057Y-277628727D02*
X230540724Y-275128727D01*
X230540724Y-275128727D02*
X229707391Y-277628727D01*
X228874057Y-277628727D02*
X228874057Y-275128727D01*
X228874057Y-275128727D02*
X228278819Y-275128727D01*
X228278819Y-275128727D02*
X227921676Y-275247775D01*
X227921676Y-275247775D02*
X227683581Y-275485870D01*
X227683581Y-275485870D02*
X227564534Y-275723965D01*
X227564534Y-275723965D02*
X227445486Y-276200156D01*
X227445486Y-276200156D02*
X227445486Y-276557299D01*
X227445486Y-276557299D02*
X227564534Y-277033489D01*
X227564534Y-277033489D02*
X227683581Y-277271584D01*
X227683581Y-277271584D02*
X227921676Y-277509680D01*
X227921676Y-277509680D02*
X228278819Y-277628727D01*
X228278819Y-277628727D02*
X228874057Y-277628727D01*
X225897867Y-275128727D02*
X225421676Y-275128727D01*
X225421676Y-275128727D02*
X225183581Y-275247775D01*
X225183581Y-275247775D02*
X224945486Y-275485870D01*
X224945486Y-275485870D02*
X224826438Y-275962060D01*
X224826438Y-275962060D02*
X224826438Y-276795394D01*
X224826438Y-276795394D02*
X224945486Y-277271584D01*
X224945486Y-277271584D02*
X225183581Y-277509680D01*
X225183581Y-277509680D02*
X225421676Y-277628727D01*
X225421676Y-277628727D02*
X225897867Y-277628727D01*
X225897867Y-277628727D02*
X226135962Y-277509680D01*
X226135962Y-277509680D02*
X226374057Y-277271584D01*
X226374057Y-277271584D02*
X226493105Y-276795394D01*
X226493105Y-276795394D02*
X226493105Y-275962060D01*
X226493105Y-275962060D02*
X226374057Y-275485870D01*
X226374057Y-275485870D02*
X226135962Y-275247775D01*
X226135962Y-275247775D02*
X225897867Y-275128727D01*
X221850247Y-275128727D02*
X221850247Y-277152537D01*
X221850247Y-277152537D02*
X221731200Y-277390632D01*
X221731200Y-277390632D02*
X221612152Y-277509680D01*
X221612152Y-277509680D02*
X221374057Y-277628727D01*
X221374057Y-277628727D02*
X220897866Y-277628727D01*
X220897866Y-277628727D02*
X220659771Y-277509680D01*
X220659771Y-277509680D02*
X220540724Y-277390632D01*
X220540724Y-277390632D02*
X220421676Y-277152537D01*
X220421676Y-277152537D02*
X220421676Y-275128727D01*
X219350247Y-277509680D02*
X218993104Y-277628727D01*
X218993104Y-277628727D02*
X218397866Y-277628727D01*
X218397866Y-277628727D02*
X218159771Y-277509680D01*
X218159771Y-277509680D02*
X218040723Y-277390632D01*
X218040723Y-277390632D02*
X217921676Y-277152537D01*
X217921676Y-277152537D02*
X217921676Y-276914441D01*
X217921676Y-276914441D02*
X218040723Y-276676346D01*
X218040723Y-276676346D02*
X218159771Y-276557299D01*
X218159771Y-276557299D02*
X218397866Y-276438251D01*
X218397866Y-276438251D02*
X218874057Y-276319203D01*
X218874057Y-276319203D02*
X219112152Y-276200156D01*
X219112152Y-276200156D02*
X219231199Y-276081108D01*
X219231199Y-276081108D02*
X219350247Y-275843013D01*
X219350247Y-275843013D02*
X219350247Y-275604918D01*
X219350247Y-275604918D02*
X219231199Y-275366822D01*
X219231199Y-275366822D02*
X219112152Y-275247775D01*
X219112152Y-275247775D02*
X218874057Y-275128727D01*
X218874057Y-275128727D02*
X218278818Y-275128727D01*
X218278818Y-275128727D02*
X217921676Y-275247775D01*
X216969295Y-276914441D02*
X215778819Y-276914441D01*
X217207390Y-277628727D02*
X216374057Y-275128727D01*
X216374057Y-275128727D02*
X215540724Y-277628727D01*
X260778822Y-281653587D02*
X261612155Y-280463111D01*
X262207393Y-281653587D02*
X262207393Y-279153587D01*
X262207393Y-279153587D02*
X261255012Y-279153587D01*
X261255012Y-279153587D02*
X261016917Y-279272635D01*
X261016917Y-279272635D02*
X260897870Y-279391682D01*
X260897870Y-279391682D02*
X260778822Y-279629778D01*
X260778822Y-279629778D02*
X260778822Y-279986920D01*
X260778822Y-279986920D02*
X260897870Y-280225016D01*
X260897870Y-280225016D02*
X261016917Y-280344063D01*
X261016917Y-280344063D02*
X261255012Y-280463111D01*
X261255012Y-280463111D02*
X262207393Y-280463111D01*
X259945489Y-279986920D02*
X259350251Y-281653587D01*
X258755012Y-279986920D02*
X259350251Y-281653587D01*
X259350251Y-281653587D02*
X259588346Y-282248825D01*
X259588346Y-282248825D02*
X259707393Y-282367873D01*
X259707393Y-282367873D02*
X259945489Y-282486920D01*
X256731203Y-281653587D02*
X256731203Y-280344063D01*
X256731203Y-280344063D02*
X256850250Y-280105968D01*
X256850250Y-280105968D02*
X257088346Y-279986920D01*
X257088346Y-279986920D02*
X257564536Y-279986920D01*
X257564536Y-279986920D02*
X257802631Y-280105968D01*
X256731203Y-281534540D02*
X256969298Y-281653587D01*
X256969298Y-281653587D02*
X257564536Y-281653587D01*
X257564536Y-281653587D02*
X257802631Y-281534540D01*
X257802631Y-281534540D02*
X257921679Y-281296444D01*
X257921679Y-281296444D02*
X257921679Y-281058349D01*
X257921679Y-281058349D02*
X257802631Y-280820254D01*
X257802631Y-280820254D02*
X257564536Y-280701206D01*
X257564536Y-280701206D02*
X256969298Y-280701206D01*
X256969298Y-280701206D02*
X256731203Y-280582159D01*
X255540726Y-279986920D02*
X255540726Y-281653587D01*
X255540726Y-280225016D02*
X255421679Y-280105968D01*
X255421679Y-280105968D02*
X255183584Y-279986920D01*
X255183584Y-279986920D02*
X254826441Y-279986920D01*
X254826441Y-279986920D02*
X254588345Y-280105968D01*
X254588345Y-280105968D02*
X254469298Y-280344063D01*
X254469298Y-280344063D02*
X254469298Y-281653587D01*
X251374059Y-281653587D02*
X251374059Y-279153587D01*
X251374059Y-279153587D02*
X250540726Y-280939301D01*
X250540726Y-280939301D02*
X249707393Y-279153587D01*
X249707393Y-279153587D02*
X249707393Y-281653587D01*
X248159774Y-281653587D02*
X248397869Y-281534540D01*
X248397869Y-281534540D02*
X248516916Y-281415492D01*
X248516916Y-281415492D02*
X248635964Y-281177397D01*
X248635964Y-281177397D02*
X248635964Y-280463111D01*
X248635964Y-280463111D02*
X248516916Y-280225016D01*
X248516916Y-280225016D02*
X248397869Y-280105968D01*
X248397869Y-280105968D02*
X248159774Y-279986920D01*
X248159774Y-279986920D02*
X247802631Y-279986920D01*
X247802631Y-279986920D02*
X247564535Y-280105968D01*
X247564535Y-280105968D02*
X247445488Y-280225016D01*
X247445488Y-280225016D02*
X247326440Y-280463111D01*
X247326440Y-280463111D02*
X247326440Y-281177397D01*
X247326440Y-281177397D02*
X247445488Y-281415492D01*
X247445488Y-281415492D02*
X247564535Y-281534540D01*
X247564535Y-281534540D02*
X247802631Y-281653587D01*
X247802631Y-281653587D02*
X248159774Y-281653587D01*
X246255011Y-281653587D02*
X246255011Y-279986920D01*
X246255011Y-280463111D02*
X246135964Y-280225016D01*
X246135964Y-280225016D02*
X246016916Y-280105968D01*
X246016916Y-280105968D02*
X245778821Y-279986920D01*
X245778821Y-279986920D02*
X245540726Y-279986920D01*
X243635964Y-279986920D02*
X243635964Y-282010730D01*
X243635964Y-282010730D02*
X243755011Y-282248825D01*
X243755011Y-282248825D02*
X243874059Y-282367873D01*
X243874059Y-282367873D02*
X244112154Y-282486920D01*
X244112154Y-282486920D02*
X244469297Y-282486920D01*
X244469297Y-282486920D02*
X244707392Y-282367873D01*
X243635964Y-281534540D02*
X243874059Y-281653587D01*
X243874059Y-281653587D02*
X244350250Y-281653587D01*
X244350250Y-281653587D02*
X244588345Y-281534540D01*
X244588345Y-281534540D02*
X244707392Y-281415492D01*
X244707392Y-281415492D02*
X244826440Y-281177397D01*
X244826440Y-281177397D02*
X244826440Y-280463111D01*
X244826440Y-280463111D02*
X244707392Y-280225016D01*
X244707392Y-280225016D02*
X244588345Y-280105968D01*
X244588345Y-280105968D02*
X244350250Y-279986920D01*
X244350250Y-279986920D02*
X243874059Y-279986920D01*
X243874059Y-279986920D02*
X243635964Y-280105968D01*
X241493106Y-281534540D02*
X241731202Y-281653587D01*
X241731202Y-281653587D02*
X242207392Y-281653587D01*
X242207392Y-281653587D02*
X242445487Y-281534540D01*
X242445487Y-281534540D02*
X242564535Y-281296444D01*
X242564535Y-281296444D02*
X242564535Y-280344063D01*
X242564535Y-280344063D02*
X242445487Y-280105968D01*
X242445487Y-280105968D02*
X242207392Y-279986920D01*
X242207392Y-279986920D02*
X241731202Y-279986920D01*
X241731202Y-279986920D02*
X241493106Y-280105968D01*
X241493106Y-280105968D02*
X241374059Y-280344063D01*
X241374059Y-280344063D02*
X241374059Y-280582159D01*
X241374059Y-280582159D02*
X242564535Y-280820254D01*
X240302630Y-279986920D02*
X240302630Y-281653587D01*
X240302630Y-280225016D02*
X240183583Y-280105968D01*
X240183583Y-280105968D02*
X239945488Y-279986920D01*
X239945488Y-279986920D02*
X239588345Y-279986920D01*
X239588345Y-279986920D02*
X239350249Y-280105968D01*
X239350249Y-280105968D02*
X239231202Y-280344063D01*
X239231202Y-280344063D02*
X239231202Y-281653587D01*
X238159773Y-281534540D02*
X237921678Y-281653587D01*
X237921678Y-281653587D02*
X237445487Y-281653587D01*
X237445487Y-281653587D02*
X237207392Y-281534540D01*
X237207392Y-281534540D02*
X237088344Y-281296444D01*
X237088344Y-281296444D02*
X237088344Y-281177397D01*
X237088344Y-281177397D02*
X237207392Y-280939301D01*
X237207392Y-280939301D02*
X237445487Y-280820254D01*
X237445487Y-280820254D02*
X237802630Y-280820254D01*
X237802630Y-280820254D02*
X238040725Y-280701206D01*
X238040725Y-280701206D02*
X238159773Y-280463111D01*
X238159773Y-280463111D02*
X238159773Y-280344063D01*
X238159773Y-280344063D02*
X238040725Y-280105968D01*
X238040725Y-280105968D02*
X237802630Y-279986920D01*
X237802630Y-279986920D02*
X237445487Y-279986920D01*
X237445487Y-279986920D02*
X237207392Y-280105968D01*
X236374058Y-279986920D02*
X235421677Y-279986920D01*
X236016915Y-279153587D02*
X236016915Y-281296444D01*
X236016915Y-281296444D02*
X235897868Y-281534540D01*
X235897868Y-281534540D02*
X235659773Y-281653587D01*
X235659773Y-281653587D02*
X235421677Y-281653587D01*
X233635963Y-281534540D02*
X233874059Y-281653587D01*
X233874059Y-281653587D02*
X234350249Y-281653587D01*
X234350249Y-281653587D02*
X234588344Y-281534540D01*
X234588344Y-281534540D02*
X234707392Y-281296444D01*
X234707392Y-281296444D02*
X234707392Y-280344063D01*
X234707392Y-280344063D02*
X234588344Y-280105968D01*
X234588344Y-280105968D02*
X234350249Y-279986920D01*
X234350249Y-279986920D02*
X233874059Y-279986920D01*
X233874059Y-279986920D02*
X233635963Y-280105968D01*
X233635963Y-280105968D02*
X233516916Y-280344063D01*
X233516916Y-280344063D02*
X233516916Y-280582159D01*
X233516916Y-280582159D02*
X234707392Y-280820254D01*
X232445487Y-281653587D02*
X232445487Y-279986920D01*
X232445487Y-280463111D02*
X232326440Y-280225016D01*
X232326440Y-280225016D02*
X232207392Y-280105968D01*
X232207392Y-280105968D02*
X231969297Y-279986920D01*
X231969297Y-279986920D02*
X231731202Y-279986920D01*
X230897868Y-279986920D02*
X230897868Y-281653587D01*
X230897868Y-280225016D02*
X230778821Y-280105968D01*
X230778821Y-280105968D02*
X230540726Y-279986920D01*
X230540726Y-279986920D02*
X230183583Y-279986920D01*
X230183583Y-279986920D02*
X229945487Y-280105968D01*
X229945487Y-280105968D02*
X229826440Y-280344063D01*
X229826440Y-280344063D02*
X229826440Y-281653587D01*
X224707392Y-281653587D02*
X224826440Y-281653587D01*
X224826440Y-281653587D02*
X225064535Y-281534540D01*
X225064535Y-281534540D02*
X225421678Y-281177397D01*
X225421678Y-281177397D02*
X226016916Y-280463111D01*
X226016916Y-280463111D02*
X226255011Y-280105968D01*
X226255011Y-280105968D02*
X226374059Y-279748825D01*
X226374059Y-279748825D02*
X226374059Y-279510730D01*
X226374059Y-279510730D02*
X226255011Y-279272635D01*
X226255011Y-279272635D02*
X226016916Y-279153587D01*
X226016916Y-279153587D02*
X225897868Y-279153587D01*
X225897868Y-279153587D02*
X225659773Y-279272635D01*
X225659773Y-279272635D02*
X225540725Y-279510730D01*
X225540725Y-279510730D02*
X225540725Y-279629778D01*
X225540725Y-279629778D02*
X225659773Y-279867873D01*
X225659773Y-279867873D02*
X225778820Y-279986920D01*
X225778820Y-279986920D02*
X226493106Y-280463111D01*
X226493106Y-280463111D02*
X226612154Y-280582159D01*
X226612154Y-280582159D02*
X226731201Y-280820254D01*
X226731201Y-280820254D02*
X226731201Y-281177397D01*
X226731201Y-281177397D02*
X226612154Y-281415492D01*
X226612154Y-281415492D02*
X226493106Y-281534540D01*
X226493106Y-281534540D02*
X226255011Y-281653587D01*
X226255011Y-281653587D02*
X225897868Y-281653587D01*
X225897868Y-281653587D02*
X225659773Y-281534540D01*
X225659773Y-281534540D02*
X225540725Y-281415492D01*
X225540725Y-281415492D02*
X225183582Y-280939301D01*
X225183582Y-280939301D02*
X225064535Y-280582159D01*
X225064535Y-280582159D02*
X225064535Y-280344063D01*
X221850249Y-281534540D02*
X221493106Y-281653587D01*
X221493106Y-281653587D02*
X220897868Y-281653587D01*
X220897868Y-281653587D02*
X220659773Y-281534540D01*
X220659773Y-281534540D02*
X220540725Y-281415492D01*
X220540725Y-281415492D02*
X220421678Y-281177397D01*
X220421678Y-281177397D02*
X220421678Y-280939301D01*
X220421678Y-280939301D02*
X220540725Y-280701206D01*
X220540725Y-280701206D02*
X220659773Y-280582159D01*
X220659773Y-280582159D02*
X220897868Y-280463111D01*
X220897868Y-280463111D02*
X221374059Y-280344063D01*
X221374059Y-280344063D02*
X221612154Y-280225016D01*
X221612154Y-280225016D02*
X221731201Y-280105968D01*
X221731201Y-280105968D02*
X221850249Y-279867873D01*
X221850249Y-279867873D02*
X221850249Y-279629778D01*
X221850249Y-279629778D02*
X221731201Y-279391682D01*
X221731201Y-279391682D02*
X221612154Y-279272635D01*
X221612154Y-279272635D02*
X221374059Y-279153587D01*
X221374059Y-279153587D02*
X220778820Y-279153587D01*
X220778820Y-279153587D02*
X220421678Y-279272635D01*
X219350249Y-281415492D02*
X219231202Y-281534540D01*
X219231202Y-281534540D02*
X219350249Y-281653587D01*
X219350249Y-281653587D02*
X219469297Y-281534540D01*
X219469297Y-281534540D02*
X219350249Y-281415492D01*
X219350249Y-281415492D02*
X219350249Y-281653587D01*
X218397869Y-279153587D02*
X217802631Y-281653587D01*
X217802631Y-281653587D02*
X217326440Y-279867873D01*
X217326440Y-279867873D02*
X216850250Y-281653587D01*
X216850250Y-281653587D02*
X216255012Y-279153587D01*
X215302630Y-281415492D02*
X215183583Y-281534540D01*
X215183583Y-281534540D02*
X215302630Y-281653587D01*
X215302630Y-281653587D02*
X215421678Y-281534540D01*
X215421678Y-281534540D02*
X215302630Y-281415492D01*
X215302630Y-281415492D02*
X215302630Y-281653587D01*
X214112154Y-281653587D02*
X214112154Y-279153587D01*
X214112154Y-279153587D02*
X212683583Y-281653587D01*
X212683583Y-281653587D02*
X212683583Y-279153587D01*
X260778822Y-285440352D02*
X260897870Y-285559400D01*
X260897870Y-285559400D02*
X261255012Y-285678447D01*
X261255012Y-285678447D02*
X261493108Y-285678447D01*
X261493108Y-285678447D02*
X261850251Y-285559400D01*
X261850251Y-285559400D02*
X262088346Y-285321304D01*
X262088346Y-285321304D02*
X262207393Y-285083209D01*
X262207393Y-285083209D02*
X262326441Y-284607019D01*
X262326441Y-284607019D02*
X262326441Y-284249876D01*
X262326441Y-284249876D02*
X262207393Y-283773685D01*
X262207393Y-283773685D02*
X262088346Y-283535590D01*
X262088346Y-283535590D02*
X261850251Y-283297495D01*
X261850251Y-283297495D02*
X261493108Y-283178447D01*
X261493108Y-283178447D02*
X261255012Y-283178447D01*
X261255012Y-283178447D02*
X260897870Y-283297495D01*
X260897870Y-283297495D02*
X260778822Y-283416542D01*
X258278822Y-285678447D02*
X259112155Y-284487971D01*
X259707393Y-285678447D02*
X259707393Y-283178447D01*
X259707393Y-283178447D02*
X258755012Y-283178447D01*
X258755012Y-283178447D02*
X258516917Y-283297495D01*
X258516917Y-283297495D02*
X258397870Y-283416542D01*
X258397870Y-283416542D02*
X258278822Y-283654638D01*
X258278822Y-283654638D02*
X258278822Y-284011780D01*
X258278822Y-284011780D02*
X258397870Y-284249876D01*
X258397870Y-284249876D02*
X258516917Y-284368923D01*
X258516917Y-284368923D02*
X258755012Y-284487971D01*
X258755012Y-284487971D02*
X259707393Y-284487971D01*
X255778822Y-285440352D02*
X255897870Y-285559400D01*
X255897870Y-285559400D02*
X256255012Y-285678447D01*
X256255012Y-285678447D02*
X256493108Y-285678447D01*
X256493108Y-285678447D02*
X256850251Y-285559400D01*
X256850251Y-285559400D02*
X257088346Y-285321304D01*
X257088346Y-285321304D02*
X257207393Y-285083209D01*
X257207393Y-285083209D02*
X257326441Y-284607019D01*
X257326441Y-284607019D02*
X257326441Y-284249876D01*
X257326441Y-284249876D02*
X257207393Y-283773685D01*
X257207393Y-283773685D02*
X257088346Y-283535590D01*
X257088346Y-283535590D02*
X256850251Y-283297495D01*
X256850251Y-283297495D02*
X256493108Y-283178447D01*
X256493108Y-283178447D02*
X256255012Y-283178447D01*
X256255012Y-283178447D02*
X255897870Y-283297495D01*
X255897870Y-283297495D02*
X255778822Y-283416542D01*
X252802631Y-285678447D02*
X252802631Y-283178447D01*
X252802631Y-283178447D02*
X252207393Y-283178447D01*
X252207393Y-283178447D02*
X251850250Y-283297495D01*
X251850250Y-283297495D02*
X251612155Y-283535590D01*
X251612155Y-283535590D02*
X251493108Y-283773685D01*
X251493108Y-283773685D02*
X251374060Y-284249876D01*
X251374060Y-284249876D02*
X251374060Y-284607019D01*
X251374060Y-284607019D02*
X251493108Y-285083209D01*
X251493108Y-285083209D02*
X251612155Y-285321304D01*
X251612155Y-285321304D02*
X251850250Y-285559400D01*
X251850250Y-285559400D02*
X252207393Y-285678447D01*
X252207393Y-285678447D02*
X252802631Y-285678447D01*
X248874060Y-285678447D02*
X249707393Y-284487971D01*
X250302631Y-285678447D02*
X250302631Y-283178447D01*
X250302631Y-283178447D02*
X249350250Y-283178447D01*
X249350250Y-283178447D02*
X249112155Y-283297495D01*
X249112155Y-283297495D02*
X248993108Y-283416542D01*
X248993108Y-283416542D02*
X248874060Y-283654638D01*
X248874060Y-283654638D02*
X248874060Y-284011780D01*
X248874060Y-284011780D02*
X248993108Y-284249876D01*
X248993108Y-284249876D02*
X249112155Y-284368923D01*
X249112155Y-284368923D02*
X249350250Y-284487971D01*
X249350250Y-284487971D02*
X250302631Y-284487971D01*
X245897869Y-285678447D02*
X245897869Y-283178447D01*
X245897869Y-283178447D02*
X245064536Y-284964161D01*
X245064536Y-284964161D02*
X244231203Y-283178447D01*
X244231203Y-283178447D02*
X244231203Y-285678447D01*
X242683584Y-285678447D02*
X242921679Y-285559400D01*
X242921679Y-285559400D02*
X243040726Y-285440352D01*
X243040726Y-285440352D02*
X243159774Y-285202257D01*
X243159774Y-285202257D02*
X243159774Y-284487971D01*
X243159774Y-284487971D02*
X243040726Y-284249876D01*
X243040726Y-284249876D02*
X242921679Y-284130828D01*
X242921679Y-284130828D02*
X242683584Y-284011780D01*
X242683584Y-284011780D02*
X242326441Y-284011780D01*
X242326441Y-284011780D02*
X242088345Y-284130828D01*
X242088345Y-284130828D02*
X241969298Y-284249876D01*
X241969298Y-284249876D02*
X241850250Y-284487971D01*
X241850250Y-284487971D02*
X241850250Y-285202257D01*
X241850250Y-285202257D02*
X241969298Y-285440352D01*
X241969298Y-285440352D02*
X242088345Y-285559400D01*
X242088345Y-285559400D02*
X242326441Y-285678447D01*
X242326441Y-285678447D02*
X242683584Y-285678447D01*
X241135964Y-284011780D02*
X240183583Y-284011780D01*
X240778821Y-283178447D02*
X240778821Y-285321304D01*
X240778821Y-285321304D02*
X240659774Y-285559400D01*
X240659774Y-285559400D02*
X240421679Y-285678447D01*
X240421679Y-285678447D02*
X240183583Y-285678447D01*
X239350250Y-285678447D02*
X239350250Y-283178447D01*
X238278822Y-285678447D02*
X238278822Y-284368923D01*
X238278822Y-284368923D02*
X238397869Y-284130828D01*
X238397869Y-284130828D02*
X238635965Y-284011780D01*
X238635965Y-284011780D02*
X238993108Y-284011780D01*
X238993108Y-284011780D02*
X239231203Y-284130828D01*
X239231203Y-284130828D02*
X239350250Y-284249876D01*
X236135964Y-285559400D02*
X236374060Y-285678447D01*
X236374060Y-285678447D02*
X236850250Y-285678447D01*
X236850250Y-285678447D02*
X237088345Y-285559400D01*
X237088345Y-285559400D02*
X237207393Y-285321304D01*
X237207393Y-285321304D02*
X237207393Y-284368923D01*
X237207393Y-284368923D02*
X237088345Y-284130828D01*
X237088345Y-284130828D02*
X236850250Y-284011780D01*
X236850250Y-284011780D02*
X236374060Y-284011780D01*
X236374060Y-284011780D02*
X236135964Y-284130828D01*
X236135964Y-284130828D02*
X236016917Y-284368923D01*
X236016917Y-284368923D02*
X236016917Y-284607019D01*
X236016917Y-284607019D02*
X237207393Y-284845114D01*
X234945488Y-285678447D02*
X234945488Y-284011780D01*
X234945488Y-284487971D02*
X234826441Y-284249876D01*
X234826441Y-284249876D02*
X234707393Y-284130828D01*
X234707393Y-284130828D02*
X234469298Y-284011780D01*
X234469298Y-284011780D02*
X234231203Y-284011780D01*
X233397869Y-285678447D02*
X233397869Y-283178447D01*
X233397869Y-284130828D02*
X233159774Y-284011780D01*
X233159774Y-284011780D02*
X232683584Y-284011780D01*
X232683584Y-284011780D02*
X232445488Y-284130828D01*
X232445488Y-284130828D02*
X232326441Y-284249876D01*
X232326441Y-284249876D02*
X232207393Y-284487971D01*
X232207393Y-284487971D02*
X232207393Y-285202257D01*
X232207393Y-285202257D02*
X232326441Y-285440352D01*
X232326441Y-285440352D02*
X232445488Y-285559400D01*
X232445488Y-285559400D02*
X232683584Y-285678447D01*
X232683584Y-285678447D02*
X233159774Y-285678447D01*
X233159774Y-285678447D02*
X233397869Y-285559400D01*
X230778822Y-285678447D02*
X231016917Y-285559400D01*
X231016917Y-285559400D02*
X231135964Y-285440352D01*
X231135964Y-285440352D02*
X231255012Y-285202257D01*
X231255012Y-285202257D02*
X231255012Y-284487971D01*
X231255012Y-284487971D02*
X231135964Y-284249876D01*
X231135964Y-284249876D02*
X231016917Y-284130828D01*
X231016917Y-284130828D02*
X230778822Y-284011780D01*
X230778822Y-284011780D02*
X230421679Y-284011780D01*
X230421679Y-284011780D02*
X230183583Y-284130828D01*
X230183583Y-284130828D02*
X230064536Y-284249876D01*
X230064536Y-284249876D02*
X229945488Y-284487971D01*
X229945488Y-284487971D02*
X229945488Y-285202257D01*
X229945488Y-285202257D02*
X230064536Y-285440352D01*
X230064536Y-285440352D02*
X230183583Y-285559400D01*
X230183583Y-285559400D02*
X230421679Y-285678447D01*
X230421679Y-285678447D02*
X230778822Y-285678447D01*
X227802631Y-285678447D02*
X227802631Y-284368923D01*
X227802631Y-284368923D02*
X227921678Y-284130828D01*
X227921678Y-284130828D02*
X228159774Y-284011780D01*
X228159774Y-284011780D02*
X228635964Y-284011780D01*
X228635964Y-284011780D02*
X228874059Y-284130828D01*
X227802631Y-285559400D02*
X228040726Y-285678447D01*
X228040726Y-285678447D02*
X228635964Y-285678447D01*
X228635964Y-285678447D02*
X228874059Y-285559400D01*
X228874059Y-285559400D02*
X228993107Y-285321304D01*
X228993107Y-285321304D02*
X228993107Y-285083209D01*
X228993107Y-285083209D02*
X228874059Y-284845114D01*
X228874059Y-284845114D02*
X228635964Y-284726066D01*
X228635964Y-284726066D02*
X228040726Y-284726066D01*
X228040726Y-284726066D02*
X227802631Y-284607019D01*
X226612154Y-285678447D02*
X226612154Y-284011780D01*
X226612154Y-284487971D02*
X226493107Y-284249876D01*
X226493107Y-284249876D02*
X226374059Y-284130828D01*
X226374059Y-284130828D02*
X226135964Y-284011780D01*
X226135964Y-284011780D02*
X225897869Y-284011780D01*
X223993107Y-285678447D02*
X223993107Y-283178447D01*
X223993107Y-285559400D02*
X224231202Y-285678447D01*
X224231202Y-285678447D02*
X224707393Y-285678447D01*
X224707393Y-285678447D02*
X224945488Y-285559400D01*
X224945488Y-285559400D02*
X225064535Y-285440352D01*
X225064535Y-285440352D02*
X225183583Y-285202257D01*
X225183583Y-285202257D02*
X225183583Y-284487971D01*
X225183583Y-284487971D02*
X225064535Y-284249876D01*
X225064535Y-284249876D02*
X224945488Y-284130828D01*
X224945488Y-284130828D02*
X224707393Y-284011780D01*
X224707393Y-284011780D02*
X224231202Y-284011780D01*
X224231202Y-284011780D02*
X223993107Y-284130828D01*
%LPC*%
D11*
%TO.C,H7*%
X265050000Y-288150000D03*
%TD*%
D12*
%TO.C,U2*%
X373960000Y-22990000D03*
X379040000Y-22990000D03*
X389200000Y-22990000D03*
X391740000Y-68710000D03*
X381580000Y-68710000D03*
X371420000Y-68710000D03*
%TD*%
D13*
%TO.C,J7*%
X245500000Y-3900000D03*
D14*
X240750000Y-10400000D03*
X241500000Y-8900000D03*
X242250000Y-10400000D03*
X242250000Y-7400000D03*
X243000000Y-8900000D03*
X243750000Y-7400000D03*
X243750000Y-10400000D03*
X244500000Y-8900000D03*
X245250000Y-10400000D03*
X245250000Y-7400000D03*
X246000000Y-8900000D03*
X246750000Y-7400000D03*
X246750000Y-10400000D03*
X247500000Y-8900000D03*
X248250000Y-10400000D03*
X248250000Y-7400000D03*
X249000000Y-8900000D03*
X249750000Y-7400000D03*
X249750000Y-10400000D03*
D12*
X253350000Y-2100000D03*
X237650000Y-2100000D03*
%TD*%
D15*
%TO.C,UartMux1*%
X219000000Y-235150000D03*
D16*
X219000000Y-233150000D03*
%TD*%
D17*
%TO.C,J45*%
X296000000Y-92000000D03*
D18*
X298000000Y-92000000D03*
%TD*%
D13*
%TO.C,J3*%
X93100000Y-3900000D03*
D14*
X88350000Y-10400000D03*
X89100000Y-8900000D03*
X89850000Y-10400000D03*
X89850000Y-7400000D03*
X90600000Y-8900000D03*
X91350000Y-7400000D03*
X91350000Y-10400000D03*
X92100000Y-8900000D03*
X92850000Y-10400000D03*
X92850000Y-7400000D03*
X93600000Y-8900000D03*
X94350000Y-7400000D03*
X94350000Y-10400000D03*
X95100000Y-8900000D03*
X95850000Y-10400000D03*
X95850000Y-7400000D03*
X96600000Y-8900000D03*
X97350000Y-7400000D03*
X97350000Y-10400000D03*
D12*
X100950000Y-2100000D03*
X85250000Y-2100000D03*
%TD*%
D19*
%TO.C,J10*%
X348000000Y-172561726D03*
X357000000Y-172561726D03*
D20*
X354000000Y-170601726D03*
D21*
X351000000Y-170601726D03*
%TD*%
D22*
%TO.C,q10*%
X43310000Y-226900000D03*
D23*
X43310000Y-224360000D03*
X43310000Y-221820000D03*
X43310000Y-219280000D03*
X43310000Y-216740000D03*
X43310000Y-214200000D03*
X43310000Y-211660000D03*
%TD*%
D17*
%TO.C,J18*%
X113475000Y-288175000D03*
D18*
X115475000Y-288175000D03*
%TD*%
D24*
%TO.C,J51*%
X311000000Y-38150000D03*
%TD*%
D17*
%TO.C,J35*%
X350000000Y-196000000D03*
D18*
X352000000Y-196000000D03*
%TD*%
D11*
%TO.C,H12*%
X273050000Y-50150000D03*
%TD*%
D22*
%TO.C,J57*%
X53625000Y-251947000D03*
D23*
X53625000Y-254487000D03*
X53625000Y-257027000D03*
%TD*%
D17*
%TO.C,HPHpower1*%
X329490000Y-163946726D03*
D18*
X331490000Y-163946726D03*
%TD*%
D13*
%TO.C,J1*%
X16900000Y-3900000D03*
D14*
X12150000Y-10400000D03*
X12900000Y-8900000D03*
X13650000Y-10400000D03*
X13650000Y-7400000D03*
X14400000Y-8900000D03*
X15150000Y-7400000D03*
X15150000Y-10400000D03*
X15900000Y-8900000D03*
X16650000Y-10400000D03*
X16650000Y-7400000D03*
X17400000Y-8900000D03*
X18150000Y-7400000D03*
X18150000Y-10400000D03*
X18900000Y-8900000D03*
X19650000Y-10400000D03*
X19650000Y-7400000D03*
X20400000Y-8900000D03*
X21150000Y-7400000D03*
X21150000Y-10400000D03*
D12*
X24750000Y-2100000D03*
X9050000Y-2100000D03*
%TD*%
D24*
%TO.C,J16*%
X339860000Y-37170000D03*
%TD*%
D17*
%TO.C,WU_D_GND1*%
X396625000Y-171075000D03*
D18*
X398625000Y-171075000D03*
%TD*%
D17*
%TO.C,J41*%
X320000000Y-83000000D03*
D18*
X322000000Y-83000000D03*
%TD*%
D22*
%TO.C,q9*%
X28070000Y-226900000D03*
D23*
X28070000Y-224360000D03*
X28070000Y-221820000D03*
X28070000Y-219280000D03*
X28070000Y-216740000D03*
X28070000Y-214200000D03*
X28070000Y-211660000D03*
%TD*%
D21*
%TO.C,RV1*%
X379490000Y-4353000D03*
X386990000Y-4353000D03*
%TD*%
D22*
%TO.C,J52*%
X343539000Y-52165000D03*
D23*
X343539000Y-49625000D03*
X343539000Y-47085000D03*
%TD*%
D11*
%TO.C,H8*%
X55050000Y-243150000D03*
%TD*%
D25*
%TO.C,DC1*%
X351730000Y-2960000D03*
D26*
X357860000Y-2000000D03*
D27*
X356930000Y-9210000D03*
X351730000Y-9210000D03*
D12*
X351730000Y-12460000D03*
D26*
X348000000Y-2000000D03*
%TD*%
D11*
%TO.C,H2*%
X350050000Y-50150000D03*
%TD*%
D28*
%TO.C,H15*%
X298300000Y-229741726D03*
X298300000Y-273741726D03*
X393300000Y-229741726D03*
X393300000Y-273741726D03*
%TD*%
D13*
%TO.C,J6*%
X207400000Y-3900000D03*
D14*
X202650000Y-10400000D03*
X203400000Y-8900000D03*
X204150000Y-10400000D03*
X204150000Y-7400000D03*
X204900000Y-8900000D03*
X205650000Y-7400000D03*
X205650000Y-10400000D03*
X206400000Y-8900000D03*
X207150000Y-10400000D03*
X207150000Y-7400000D03*
X207900000Y-8900000D03*
X208650000Y-7400000D03*
X208650000Y-10400000D03*
X209400000Y-8900000D03*
X210150000Y-10400000D03*
X210150000Y-7400000D03*
X210900000Y-8900000D03*
X211650000Y-7400000D03*
X211650000Y-10400000D03*
D12*
X215250000Y-2100000D03*
X199550000Y-2100000D03*
%TD*%
D28*
%TO.C,L1*%
X15000000Y-192150000D03*
X77000000Y-192150000D03*
X15000000Y-75150000D03*
X77000000Y-75150000D03*
%TD*%
D22*
%TO.C,J55*%
X79000000Y-37920000D03*
D23*
X79000000Y-40460000D03*
X79000000Y-43000000D03*
%TD*%
D17*
%TO.C,C1-HP1-1*%
X271000000Y-100641726D03*
D18*
X273000000Y-100641726D03*
%TD*%
D22*
%TO.C,J54*%
X275721000Y-281795000D03*
D23*
X273181000Y-281795000D03*
X270641000Y-281795000D03*
%TD*%
D19*
%TO.C,J11*%
X362000000Y-172601726D03*
X371000000Y-172601726D03*
D20*
X368000000Y-170641726D03*
D21*
X365000000Y-170641726D03*
%TD*%
D13*
%TO.C,J4*%
X131200000Y-3900000D03*
D14*
X126450000Y-10400000D03*
X127200000Y-8900000D03*
X127950000Y-10400000D03*
X127950000Y-7400000D03*
X128700000Y-8900000D03*
X129450000Y-7400000D03*
X129450000Y-10400000D03*
X130200000Y-8900000D03*
X130950000Y-10400000D03*
X130950000Y-7400000D03*
X131700000Y-8900000D03*
X132450000Y-7400000D03*
X132450000Y-10400000D03*
X133200000Y-8900000D03*
X133950000Y-10400000D03*
X133950000Y-7400000D03*
X134700000Y-8900000D03*
X135450000Y-7400000D03*
X135450000Y-10400000D03*
D12*
X139050000Y-2100000D03*
X123350000Y-2100000D03*
%TD*%
D11*
%TO.C,H9*%
X193050000Y-50150000D03*
%TD*%
D17*
%TO.C,J38*%
X330000000Y-196000000D03*
D18*
X332000000Y-196000000D03*
%TD*%
D28*
%TO.C,D3*%
X215266548Y-130141726D03*
X228266548Y-130141726D03*
X215266548Y-97141726D03*
X228266548Y-97141726D03*
%TD*%
%TO.C,D4*%
X185433274Y-130141726D03*
X198433274Y-130141726D03*
X185433274Y-97141726D03*
X198433274Y-97141726D03*
%TD*%
D11*
%TO.C,H1*%
X85050000Y-40150000D03*
%TD*%
D17*
%TO.C,J44*%
X320000000Y-92000000D03*
D18*
X322000000Y-92000000D03*
%TD*%
D29*
%TO.C,F2*%
X378100000Y-73350000D03*
X378100000Y-95950000D03*
%TD*%
D17*
%TO.C,J32*%
X340000000Y-196000000D03*
D18*
X342000000Y-196000000D03*
%TD*%
D11*
%TO.C,H13*%
X340050000Y-126150000D03*
%TD*%
D22*
%TO.C,J12*%
X91825000Y-285475000D03*
D23*
X91825000Y-288015000D03*
X91825000Y-290555000D03*
%TD*%
D17*
%TO.C,J42*%
X296000000Y-82000000D03*
D18*
X298000000Y-82000000D03*
%TD*%
D28*
%TO.C,L2*%
X95200000Y-192150000D03*
X157200000Y-192150000D03*
X95200000Y-75150000D03*
X157200000Y-75150000D03*
%TD*%
D22*
%TO.C,q2*%
X61110000Y-276150000D03*
D23*
X61110000Y-278690000D03*
X61110000Y-281230000D03*
X61110000Y-283770000D03*
X61110000Y-286310000D03*
X61110000Y-288850000D03*
X61110000Y-291390000D03*
D22*
X76350000Y-276150000D03*
D23*
X76350000Y-278690000D03*
X76350000Y-281230000D03*
X76350000Y-283770000D03*
X76350000Y-286310000D03*
X76350000Y-288850000D03*
X76350000Y-291390000D03*
%TD*%
D17*
%TO.C,WU_D_GND2*%
X396625000Y-178025000D03*
D18*
X398625000Y-178025000D03*
%TD*%
D17*
%TO.C,C4-HP4-1*%
X271000000Y-127150000D03*
D18*
X273000000Y-127150000D03*
%TD*%
D13*
%TO.C,J2*%
X55000000Y-3900000D03*
D14*
X50250000Y-10400000D03*
X51000000Y-8900000D03*
X51750000Y-10400000D03*
X51750000Y-7400000D03*
X52500000Y-8900000D03*
X53250000Y-7400000D03*
X53250000Y-10400000D03*
X54000000Y-8900000D03*
X54750000Y-10400000D03*
X54750000Y-7400000D03*
X55500000Y-8900000D03*
X56250000Y-7400000D03*
X56250000Y-10400000D03*
X57000000Y-8900000D03*
X57750000Y-10400000D03*
X57750000Y-7400000D03*
X58500000Y-8900000D03*
X59250000Y-7400000D03*
X59250000Y-10400000D03*
D12*
X62850000Y-2100000D03*
X47150000Y-2100000D03*
%TD*%
D28*
%TO.C,M1*%
X200900000Y-278650000D03*
X200900000Y-237650000D03*
X136900000Y-278650000D03*
X136900000Y-260650000D03*
X136900000Y-237650000D03*
%TD*%
D17*
%TO.C,J36*%
X320000000Y-196000000D03*
D18*
X322000000Y-196000000D03*
%TD*%
D30*
%TO.C,W1*%
X390500000Y-155641726D03*
X390500000Y-110641726D03*
X350500000Y-155641726D03*
X350500000Y-110641726D03*
%TD*%
D11*
%TO.C,H5*%
X86050000Y-168150000D03*
%TD*%
D17*
%TO.C,J37*%
X300000000Y-196000000D03*
D18*
X302000000Y-196000000D03*
%TD*%
D22*
%TO.C,q3*%
X43310000Y-226900000D03*
D23*
X43310000Y-224360000D03*
X43310000Y-221820000D03*
X43310000Y-219280000D03*
X43310000Y-216740000D03*
X43310000Y-214200000D03*
X43310000Y-211660000D03*
D22*
X28070000Y-226900000D03*
D23*
X28070000Y-224360000D03*
X28070000Y-221820000D03*
X28070000Y-219280000D03*
X28070000Y-216740000D03*
X28070000Y-214200000D03*
X28070000Y-211660000D03*
%TD*%
D15*
%TO.C,UartMux2*%
X219000000Y-245150000D03*
D16*
X219000000Y-243150000D03*
%TD*%
D13*
%TO.C,J9*%
X321700000Y-3900000D03*
D14*
X316950000Y-10400000D03*
X317700000Y-8900000D03*
X318450000Y-10400000D03*
X318450000Y-7400000D03*
X319200000Y-8900000D03*
X319950000Y-7400000D03*
X319950000Y-10400000D03*
X320700000Y-8900000D03*
X321450000Y-10400000D03*
X321450000Y-7400000D03*
X322200000Y-8900000D03*
X322950000Y-7400000D03*
X322950000Y-10400000D03*
X323700000Y-8900000D03*
X324450000Y-10400000D03*
X324450000Y-7400000D03*
X325200000Y-8900000D03*
X325950000Y-7400000D03*
X325950000Y-10400000D03*
D12*
X329550000Y-2100000D03*
X313850000Y-2100000D03*
%TD*%
D22*
%TO.C,q7*%
X97250000Y-226750000D03*
D23*
X97250000Y-224210000D03*
X97250000Y-221670000D03*
X97250000Y-219130000D03*
X97250000Y-216590000D03*
X97250000Y-214050000D03*
X97250000Y-211510000D03*
D22*
X82010000Y-226750000D03*
D23*
X82010000Y-224210000D03*
X82010000Y-221670000D03*
X82010000Y-219130000D03*
X82010000Y-216590000D03*
X82010000Y-214050000D03*
X82010000Y-211510000D03*
%TD*%
D17*
%TO.C,C3-HP3-1*%
X271000000Y-118150000D03*
D18*
X273000000Y-118150000D03*
%TD*%
D13*
%TO.C,J8*%
X283600000Y-3900000D03*
D14*
X278850000Y-10400000D03*
X279600000Y-8900000D03*
X280350000Y-10400000D03*
X280350000Y-7400000D03*
X281100000Y-8900000D03*
X281850000Y-7400000D03*
X281850000Y-10400000D03*
X282600000Y-8900000D03*
X283350000Y-10400000D03*
X283350000Y-7400000D03*
X284100000Y-8900000D03*
X284850000Y-7400000D03*
X284850000Y-10400000D03*
X285600000Y-8900000D03*
X286350000Y-10400000D03*
X286350000Y-7400000D03*
X287100000Y-8900000D03*
X287850000Y-7400000D03*
X287850000Y-10400000D03*
D12*
X291450000Y-2100000D03*
X275750000Y-2100000D03*
%TD*%
D28*
%TO.C,M2*%
X190500000Y-168100000D03*
X190500000Y-203100000D03*
X250500000Y-168100000D03*
X250500000Y-203100000D03*
%TD*%
D22*
%TO.C,J53*%
X86003000Y-182685000D03*
D23*
X86003000Y-180145000D03*
X86003000Y-177605000D03*
%TD*%
D17*
%TO.C,J39*%
X310000000Y-196000000D03*
D18*
X312000000Y-196000000D03*
%TD*%
D22*
%TO.C,q4*%
X82010000Y-226750000D03*
D23*
X82010000Y-224210000D03*
X82010000Y-221670000D03*
X82010000Y-219130000D03*
X82010000Y-216590000D03*
X82010000Y-214050000D03*
X82010000Y-211510000D03*
%TD*%
D11*
%TO.C,H6*%
X86050000Y-86150000D03*
%TD*%
%TO.C,H3*%
X245050000Y-88150000D03*
%TD*%
%TO.C,H10*%
X406150000Y-240800000D03*
%TD*%
%TO.C,H4*%
X175050000Y-148150000D03*
%TD*%
D24*
%TO.C,J50*%
X325800000Y-38150000D03*
%TD*%
D22*
%TO.C,J56*%
X290913000Y-170739000D03*
D23*
X290913000Y-173279000D03*
X290913000Y-175819000D03*
%TD*%
D22*
%TO.C,q8*%
X97250000Y-226750000D03*
D23*
X97250000Y-224210000D03*
X97250000Y-221670000D03*
X97250000Y-219130000D03*
X97250000Y-216590000D03*
X97250000Y-214050000D03*
X97250000Y-211510000D03*
%TD*%
D29*
%TO.C,F1*%
X338400000Y-19000000D03*
X361000000Y-19000000D03*
%TD*%
D24*
%TO.C,J15*%
X348000000Y-31000000D03*
%TD*%
D11*
%TO.C,H14*%
X151880000Y-289020000D03*
%TD*%
D17*
%TO.C,J17*%
X295975000Y-289375000D03*
D18*
X297975000Y-289375000D03*
%TD*%
D28*
%TO.C,H16*%
X288100000Y-113316726D03*
X288100000Y-150316726D03*
X331100000Y-113316726D03*
X331100000Y-150316726D03*
%TD*%
D17*
%TO.C,C2-HP2-1*%
X271000000Y-109641726D03*
D18*
X273000000Y-109641726D03*
%TD*%
D13*
%TO.C,J5*%
X169300000Y-3900000D03*
D14*
X164550000Y-10400000D03*
X165300000Y-8900000D03*
X166050000Y-10400000D03*
X166050000Y-7400000D03*
X166800000Y-8900000D03*
X167550000Y-7400000D03*
X167550000Y-10400000D03*
X168300000Y-8900000D03*
X169050000Y-10400000D03*
X169050000Y-7400000D03*
X169800000Y-8900000D03*
X170550000Y-7400000D03*
X170550000Y-10400000D03*
X171300000Y-8900000D03*
X172050000Y-10400000D03*
X172050000Y-7400000D03*
X172800000Y-8900000D03*
X173550000Y-7400000D03*
X173550000Y-10400000D03*
D12*
X177150000Y-2100000D03*
X161450000Y-2100000D03*
%TD*%
D22*
%TO.C,J13*%
X83235000Y-285455000D03*
D23*
X83235000Y-287995000D03*
X83235000Y-290535000D03*
%TD*%
D28*
%TO.C,D2*%
X244433274Y-130141726D03*
X257433274Y-130141726D03*
X244433274Y-97141726D03*
X257433274Y-97141726D03*
%TD*%
D22*
%TO.C,q1*%
X7610000Y-269150000D03*
D23*
X7610000Y-271690000D03*
X7610000Y-274230000D03*
X7610000Y-276770000D03*
X7610000Y-279310000D03*
X7610000Y-281850000D03*
X7610000Y-284390000D03*
D22*
X22850000Y-269150000D03*
D23*
X22850000Y-271690000D03*
X22850000Y-274230000D03*
X22850000Y-276770000D03*
X22850000Y-279310000D03*
X22850000Y-281850000D03*
X22850000Y-284390000D03*
%TD*%
D11*
%TO.C,H11*%
X285050000Y-173150000D03*
%TD*%
%LPD*%
M02*
